<svg width="16" height="16" viewBox="0 0 16 16" fill="none" xmlns="http://www.w3.org/2000/svg">
<path d="M12.6316 12.6316C13.0783 12.6316 13.5066 12.809 13.8225 13.1249C14.1383 13.4407 14.3158 13.8691 14.3158 14.3158C14.3158 14.7625 14.1383 15.1909 13.8225 15.5067C13.5066 15.8226 13.0783 16 12.6316 16C12.1849 16 11.7565 15.8226 11.4407 15.5067C11.1248 15.1909 10.9474 14.7625 10.9474 14.3158C10.9474 13.8691 11.1248 13.4407 11.4407 13.1249C11.7565 12.809 12.1849 12.6316 12.6316 12.6316ZM12.6316 13.4737C12.4082 13.4737 12.194 13.5624 12.0361 13.7203C11.8782 13.8783 11.7895 14.0924 11.7895 14.3158C11.7895 14.5391 11.8782 14.7533 12.0361 14.9112C12.194 15.0692 12.4082 15.1579 12.6316 15.1579C12.8549 15.1579 13.0691 15.0692 13.227 14.9112C13.385 14.7533 13.4737 14.5391 13.4737 14.3158C13.4737 14.0924 13.385 13.8783 13.227 13.7203C13.0691 13.5624 12.8549 13.4737 12.6316 13.4737ZM5.05263 12.6316C5.49931 12.6316 5.9277 12.809 6.24355 13.1249C6.5594 13.4407 6.73684 13.8691 6.73684 14.3158C6.73684 14.7625 6.5594 15.1909 6.24355 15.5067C5.9277 15.8226 5.49931 16 5.05263 16C4.60595 16 4.17757 15.8226 3.86172 15.5067C3.54586 15.1909 3.36842 14.7625 3.36842 14.3158C3.36842 13.8691 3.54586 13.4407 3.86172 13.1249C4.17757 12.809 4.60595 12.6316 5.05263 12.6316ZM5.05263 13.4737C4.82929 13.4737 4.6151 13.5624 4.45717 13.7203C4.29925 13.8783 4.21053 14.0924 4.21053 14.3158C4.21053 14.5391 4.29925 14.7533 4.45717 14.9112C4.6151 15.0692 4.82929 15.1579 5.05263 15.1579C5.27597 15.1579 5.49016 15.0692 5.64809 14.9112C5.80602 14.7533 5.89474 14.5391 5.89474 14.3158C5.89474 14.0924 5.80602 13.8783 5.64809 13.7203C5.49016 13.5624 5.27597 13.4737 5.05263 13.4737ZM14.3158 2.52632H2.75368L4.90105 7.57895H11.7895C12.0674 7.57895 12.3116 7.44421 12.4632 7.24211L14.9895 3.87368C15.0989 3.73053 15.1579 3.55368 15.1579 3.36842C15.1579 3.14508 15.0692 2.93089 14.9112 2.77296C14.7533 2.61504 14.5391 2.52632 14.3158 2.52632ZM11.7895 8.42105H4.94316L4.29474 9.73474L4.21053 10.1053C4.21053 10.3286 4.29925 10.5428 4.45717 10.7007C4.6151 10.8586 4.82929 10.9474 5.05263 10.9474H14.3158V11.7895H5.05263C4.60595 11.7895 4.17757 11.612 3.86172 11.2962C3.54586 10.9803 3.36842 10.5519 3.36842 10.1053C3.36817 9.81953 3.44062 9.53843 3.57895 9.28842L4.18526 8.05053L1.12842 0.842105H0V0H1.68421L2.4 1.68421H14.3158C14.7625 1.68421 15.1909 1.86165 15.5067 2.1775C15.8226 2.49336 16 2.92174 16 3.36842C16 3.78947 15.8568 4.14316 15.6211 4.42947L13.1705 7.70526C12.8674 8.13474 12.3621 8.42105 11.7895 8.42105Z" fill="white"/>
</svg>
