<svg width="20" height="28" viewBox="0 0 20 28" fill="none" xmlns="http://www.w3.org/2000/svg">
<path d="M19.6191 4.75089L16.2148 1.33959C15.9695 1.09518 15.6376 0.957521 15.2913 0.956543H1.30435C0.583967 0.956543 0 1.54051 0 2.26089V25.7391C0 26.4595 0.583967 27.0435 1.30435 27.0435H18.6956C19.416 27.0435 20 26.4595 20 25.7391V5.67219C20.0008 5.32665 19.8637 4.99502 19.6191 4.75089ZM19.1304 25.7391C19.1304 25.9793 18.9358 26.1739 18.6956 26.1739H1.30435C1.06424 26.1739 0.869565 25.9793 0.869565 25.7391V2.26089C0.869565 2.02078 1.06424 1.82611 1.30435 1.82611H15.2174V4.86959C15.2174 5.58997 15.8014 6.17393 16.5217 6.17393H18.2609V5.30437H16.5217C16.2816 5.30437 16.087 5.10969 16.087 4.86959V2.44263L19.0035 5.3648C19.0848 5.44638 19.1305 5.55698 19.1304 5.67219V25.7391Z" fill="#036FAD"/>
<path d="M3.47796 3.56519H2.6084V4.43475H3.47796V3.56519Z" fill="#036FAD"/>
<path d="M13.0433 3.56519H4.34766V4.43475H13.0433V3.56519Z" fill="#036FAD"/>
<path d="M13.0432 5.30444H2.6084V6.17401H13.0432V5.30444Z" fill="#036FAD"/>
<path d="M16.9562 7.91309H3.04318C2.80307 7.91309 2.6084 8.10776 2.6084 8.34787V11.8261C2.6084 12.0662 2.80307 12.2609 3.04318 12.2609H16.9562C17.1963 12.2609 17.391 12.0662 17.391 11.8261V8.34787C17.391 8.10776 17.1963 7.91309 16.9562 7.91309ZM16.5214 11.3913H3.47796V8.78265H16.5214V11.3913Z" fill="#036FAD"/>
<path d="M16.9562 13.1305H3.04318C2.80307 13.1305 2.6084 13.3252 2.6084 13.5653V17.0435C2.6084 17.2836 2.80307 17.4783 3.04318 17.4783H16.9562C17.1963 17.4783 17.391 17.2836 17.391 17.0435V13.5653C17.391 13.3252 17.1963 13.1305 16.9562 13.1305ZM16.5214 16.6088H3.47796V14.0001H16.5214V16.6088Z" fill="#036FAD"/>
<path d="M16.9562 18.3479H3.04318C2.80307 18.3479 2.6084 18.5426 2.6084 18.7827V22.2609C2.6084 22.5011 2.80307 22.6957 3.04318 22.6957H16.9562C17.1963 22.6957 17.391 22.5011 17.391 22.2609V18.7827C17.391 18.5426 17.1963 18.3479 16.9562 18.3479ZM16.5214 21.8262H3.47796V19.2175H16.5214V21.8262Z" fill="#036FAD"/>
</svg>
