<svg width="33" height="33" viewBox="0 0 33 33" fill="none" xmlns="http://www.w3.org/2000/svg">
<path d="M30.9117 18.4078L28.875 16.3763V1.5469C28.8757 1.479 28.8628 1.41164 28.8372 1.34877C28.8115 1.2859 28.7735 1.22878 28.7255 1.18076C28.6775 1.13274 28.6204 1.09479 28.5575 1.06912C28.4946 1.04345 28.4273 1.03059 28.3594 1.03128L7.73437 1.04675C7.59762 1.04675 7.46647 1.10107 7.36977 1.19777C7.27307 1.29447 7.21875 1.42562 7.21875 1.56237V15.4688H1.54687C1.41012 15.4688 1.27897 15.5231 1.18227 15.6198C1.08557 15.7165 1.03125 15.8476 1.03125 15.9844V22.1719C1.03234 23.1288 1.41296 24.0463 2.08962 24.7229C2.76627 25.3996 3.68369 25.7802 4.64062 25.7813H22.1048C21.896 27.168 22.2143 28.5827 22.9969 29.7464L23.2031 30.061V31.4531C23.2031 31.5899 23.2574 31.7211 23.3541 31.8178C23.4508 31.9145 23.582 31.9688 23.7187 31.9688C23.8555 31.9688 23.9867 31.9145 24.0833 31.8178C24.18 31.7211 24.2344 31.5899 24.2344 31.4531V29.9063C24.2346 29.805 24.204 29.7061 24.1467 29.6227L23.8528 29.1741C23.1869 28.1773 22.9371 26.9597 23.1567 25.7813H25.8792C25.9305 26.541 26.2109 27.2674 26.6836 27.8644L26.9259 28.1635C26.974 28.2242 27.035 28.2734 27.1047 28.3073C27.1743 28.3412 27.2507 28.359 27.3281 28.3594C27.4447 28.3604 27.5579 28.3202 27.6478 28.246C27.7015 28.2046 27.7463 28.1529 27.7796 28.0939C27.8129 28.0349 27.834 27.9698 27.8417 27.9025C27.8494 27.8352 27.8435 27.767 27.8244 27.702C27.8052 27.637 27.7732 27.5765 27.7303 27.5241L27.488 27.2199C27.0669 26.6927 26.855 26.0287 26.8931 25.3551C26.9312 24.6815 27.2164 24.0456 27.6942 23.5692C27.7908 23.4719 27.845 23.3403 27.845 23.2031C27.845 23.066 27.7908 22.9344 27.6942 22.8371L25.1264 20.2692C25.0229 20.1763 24.9581 20.0479 24.9447 19.9095C24.9314 19.771 24.9704 19.6326 25.0542 19.5216C25.1016 19.4655 25.1609 19.4206 25.2278 19.3903C25.2947 19.36 25.3675 19.3449 25.4409 19.3463C25.5089 19.3451 25.5764 19.3577 25.6394 19.3834C25.7023 19.4091 25.7593 19.4474 25.807 19.4958L29.0348 22.7236C29.1319 22.8207 29.2636 22.8753 29.4009 22.8753C29.5382 22.8753 29.6699 22.8207 29.767 22.7236C29.8641 22.6265 29.9187 22.4948 29.9187 22.3575C29.9187 22.2202 29.8641 22.0885 29.767 21.9914L28.875 21.1046V17.8303L30.1795 19.14C30.421 19.3785 30.6124 19.6628 30.7426 19.9763C30.8727 20.2897 30.939 20.626 30.9375 20.9653V31.4531C30.9375 31.5899 30.9918 31.7211 31.0885 31.8178C31.1852 31.9145 31.3164 31.9688 31.4531 31.9688C31.5899 31.9688 31.721 31.9145 31.8177 31.8178C31.9144 31.7211 31.9687 31.5899 31.9687 31.4531V20.9653C31.9695 20.4905 31.8765 20.0201 31.6951 19.5813C31.5137 19.1424 31.2475 18.7436 30.9117 18.4078ZM4.64062 24.75C4.30206 24.75 3.96681 24.6833 3.65402 24.5538C3.34123 24.4242 3.05702 24.2343 2.81762 23.9949C2.57821 23.7555 2.38831 23.4713 2.25875 23.1585C2.12919 22.8457 2.0625 22.5105 2.0625 22.1719V16.5H7.21875V22.1719C7.21875 22.5105 7.15206 22.8457 7.0225 23.1585C6.89294 23.4713 6.70303 23.7555 6.46363 23.9949C6.22423 24.2343 5.94002 24.4242 5.62723 24.5538C5.31444 24.6833 4.97919 24.75 4.64062 24.75ZM27.8437 20.0733L26.5392 18.7636C26.3927 18.6206 26.2193 18.5081 26.0291 18.4325C25.8388 18.3569 25.6355 18.3197 25.4308 18.3231C25.2261 18.3265 25.0241 18.3704 24.8365 18.4523C24.6489 18.5342 24.4793 18.6525 24.3377 18.8003C24.196 18.9481 24.085 19.1225 24.0111 19.3134C23.9372 19.5043 23.9019 19.708 23.9072 19.9127C23.9124 20.1173 23.9582 20.3189 24.0418 20.5058C24.1254 20.6926 24.2452 20.8611 24.3942 21.0014L26.6217 23.2289C26.2851 23.6787 26.0542 24.1987 25.9462 24.75H7.16203C7.50656 24.4149 7.78037 24.014 7.96724 23.5712C8.15412 23.1284 8.25027 22.6525 8.25 22.1719V2.078L27.8437 2.06253V20.0733Z" fill="white"/>
<path d="M18.0469 9.28125C17.4173 9.28125 17.0156 8.976 17.0156 8.76562C17.0156 8.62887 16.9613 8.49772 16.8646 8.40102C16.7679 8.30432 16.6368 8.25 16.5 8.25C16.3632 8.25 16.2321 8.30432 16.1354 8.40102C16.0387 8.49772 15.9844 8.62887 15.9844 8.76562C15.9844 9.49833 16.6335 10.0913 17.5312 10.2609V10.8281C17.5312 10.9649 17.5856 11.096 17.6823 11.1927C17.779 11.2894 17.9101 11.3438 18.0469 11.3438C18.1836 11.3438 18.3148 11.2894 18.4115 11.1927C18.5082 11.096 18.5625 10.9649 18.5625 10.8281V10.2609C19.4602 10.0923 20.1094 9.49936 20.1094 8.76562C20.1094 7.89834 19.2034 7.21875 18.0469 7.21875C17.4173 7.21875 17.0156 6.9135 17.0156 6.70312C17.0156 6.49275 17.4173 6.1875 18.0469 6.1875C18.6765 6.1875 19.0781 6.49275 19.0781 6.70312C19.0781 6.83988 19.1324 6.97103 19.2291 7.06773C19.3258 7.16443 19.457 7.21875 19.5938 7.21875C19.7305 7.21875 19.8617 7.16443 19.9584 7.06773C20.0551 6.97103 20.1094 6.83988 20.1094 6.70312C20.1094 5.97042 19.4602 5.37745 18.5625 5.20781V4.64062C18.5625 4.50387 18.5082 4.37272 18.4115 4.27602C18.3148 4.17932 18.1836 4.125 18.0469 4.125C17.9101 4.125 17.779 4.17932 17.6823 4.27602C17.5856 4.37272 17.5312 4.50387 17.5312 4.64062V5.20781C16.6335 5.37642 15.9844 5.96939 15.9844 6.70312C15.9844 7.57041 16.8903 8.25 18.0469 8.25C18.6765 8.25 19.0781 8.55525 19.0781 8.76562C19.0781 8.976 18.6765 9.28125 18.0469 9.28125Z" fill="white"/>
<path d="M25.2656 12.375H13.9219C13.7851 12.375 13.654 12.4293 13.5573 12.526C13.4606 12.6227 13.4062 12.7539 13.4062 12.8906C13.4062 13.0274 13.4606 13.1585 13.5573 13.2552C13.654 13.3519 13.7851 13.4062 13.9219 13.4062H25.2656C25.4024 13.4062 25.5335 13.3519 25.6302 13.2552C25.7269 13.1585 25.7812 13.0274 25.7812 12.8906C25.7812 12.7539 25.7269 12.6227 25.6302 12.526C25.5335 12.4293 25.4024 12.375 25.2656 12.375Z" fill="white"/>
<path d="M25.2656 14.4375H13.9219C13.7851 14.4375 13.654 14.4918 13.5573 14.5885C13.4606 14.6852 13.4062 14.8164 13.4062 14.9531C13.4062 15.0899 13.4606 15.221 13.5573 15.3177C13.654 15.4144 13.7851 15.4688 13.9219 15.4688H25.2656C25.4024 15.4688 25.5335 15.4144 25.6302 15.3177C25.7269 15.221 25.7812 15.0899 25.7812 14.9531C25.7812 14.8164 25.7269 14.6852 25.6302 14.5885C25.5335 14.4918 25.4024 14.4375 25.2656 14.4375Z" fill="white"/>
<path d="M11.8594 12.375H10.8281C10.6914 12.375 10.5602 12.4293 10.4635 12.526C10.3668 12.6227 10.3125 12.7539 10.3125 12.8906C10.3125 13.0274 10.3668 13.1585 10.4635 13.2552C10.5602 13.3519 10.6914 13.4062 10.8281 13.4062H11.8594C11.9961 13.4062 12.1273 13.3519 12.224 13.2552C12.3207 13.1585 12.375 13.0274 12.375 12.8906C12.375 12.7539 12.3207 12.6227 12.224 12.526C12.1273 12.4293 11.9961 12.375 11.8594 12.375Z" fill="white"/>
<path d="M11.8594 14.4375H10.8281C10.6914 14.4375 10.5602 14.4918 10.4635 14.5885C10.3668 14.6852 10.3125 14.8164 10.3125 14.9531C10.3125 15.0899 10.3668 15.221 10.4635 15.3177C10.5602 15.4144 10.6914 15.4688 10.8281 15.4688H11.8594C11.9961 15.4688 12.1273 15.4144 12.224 15.3177C12.3207 15.221 12.375 15.0899 12.375 14.9531C12.375 14.8164 12.3207 14.6852 12.224 14.5885C12.1273 14.4918 11.9961 14.4375 11.8594 14.4375Z" fill="white"/>
<path d="M25.2656 16.5H13.9219C13.7851 16.5 13.654 16.5543 13.5573 16.651C13.4606 16.7477 13.4062 16.8789 13.4062 17.0156C13.4062 17.1524 13.4606 17.2835 13.5573 17.3802C13.654 17.4769 13.7851 17.5312 13.9219 17.5312H25.2656C25.4024 17.5312 25.5335 17.4769 25.6302 17.3802C25.7269 17.2835 25.7812 17.1524 25.7812 17.0156C25.7812 16.8789 25.7269 16.7477 25.6302 16.651C25.5335 16.5543 25.4024 16.5 25.2656 16.5Z" fill="white"/>
<path d="M22.1719 18.5625H13.9219C13.7851 18.5625 13.654 18.6168 13.5573 18.7135C13.4606 18.8102 13.4062 18.9414 13.4062 19.0781C13.4062 19.2149 13.4606 19.346 13.5573 19.4427C13.654 19.5394 13.7851 19.5938 13.9219 19.5938H22.1719C22.3086 19.5938 22.4398 19.5394 22.5365 19.4427C22.6332 19.346 22.6875 19.2149 22.6875 19.0781C22.6875 18.9414 22.6332 18.8102 22.5365 18.7135C22.4398 18.6168 22.3086 18.5625 22.1719 18.5625Z" fill="white"/>
<path d="M22.1719 20.625H13.9219C13.7851 20.625 13.654 20.6793 13.5573 20.776C13.4606 20.8727 13.4062 21.0039 13.4062 21.1406C13.4062 21.2774 13.4606 21.4085 13.5573 21.5052C13.654 21.6019 13.7851 21.6562 13.9219 21.6562H22.1719C22.3086 21.6562 22.4398 21.6019 22.5365 21.5052C22.6332 21.4085 22.6875 21.2774 22.6875 21.1406C22.6875 21.0039 22.6332 20.8727 22.5365 20.776C22.4398 20.6793 22.3086 20.625 22.1719 20.625Z" fill="white"/>
<path d="M11.8594 16.5H10.8281C10.6914 16.5 10.5602 16.5543 10.4635 16.651C10.3668 16.7477 10.3125 16.8789 10.3125 17.0156C10.3125 17.1524 10.3668 17.2835 10.4635 17.3802C10.5602 17.4769 10.6914 17.5312 10.8281 17.5312H11.8594C11.9961 17.5312 12.1273 17.4769 12.224 17.3802C12.3207 17.2835 12.375 17.1524 12.375 17.0156C12.375 16.8789 12.3207 16.7477 12.224 16.651C12.1273 16.5543 11.9961 16.5 11.8594 16.5Z" fill="white"/>
<path d="M11.8594 18.5625H10.8281C10.6914 18.5625 10.5602 18.6168 10.4635 18.7135C10.3668 18.8102 10.3125 18.9414 10.3125 19.0781C10.3125 19.2149 10.3668 19.346 10.4635 19.4427C10.5602 19.5394 10.6914 19.5938 10.8281 19.5938H11.8594C11.9961 19.5938 12.1273 19.5394 12.224 19.4427C12.3207 19.346 12.375 19.2149 12.375 19.0781C12.375 18.9414 12.3207 18.8102 12.224 18.7135C12.1273 18.6168 11.9961 18.5625 11.8594 18.5625Z" fill="white"/>
<path d="M11.8594 20.625H10.8281C10.6914 20.625 10.5602 20.6793 10.4635 20.776C10.3668 20.8727 10.3125 21.0039 10.3125 21.1406C10.3125 21.2774 10.3668 21.4085 10.4635 21.5052C10.5602 21.6019 10.6914 21.6562 10.8281 21.6562H11.8594C11.9961 21.6562 12.1273 21.6019 12.224 21.5052C12.3207 21.4085 12.375 21.2774 12.375 21.1406C12.375 21.0039 12.3207 20.8727 12.224 20.776C12.1273 20.6793 11.9961 20.625 11.8594 20.625Z" fill="white"/>
</svg>
