<svg width="26" height="26" viewBox="0 0 26 26" fill="none" xmlns="http://www.w3.org/2000/svg">
<path d="M22.015 4.34237H20.322V3.59994C20.322 1.61492 18.707 0 16.722 0H6.10756C5.89722 0 5.72669 0.170526 5.72669 0.380865C5.72669 0.591205 5.89722 0.761731 6.10756 0.761731H16.722C18.287 0.761731 19.5602 2.03494 19.5602 3.59994V14.6958C19.5602 16.2608 18.287 17.534 16.722 17.534H10.7627C10.6895 17.534 10.6178 17.5551 10.5562 17.5949L5.63249 20.7728C5.38081 20.9352 5.07851 20.9378 4.82379 20.7801C4.56932 20.6224 4.43723 20.3506 4.47055 20.0529L4.70465 17.9571C4.71669 17.8494 4.68226 17.7417 4.60999 17.6609C4.53773 17.5801 4.43449 17.534 4.32612 17.534H3.59994C2.03494 17.534 0.761731 16.2608 0.761731 14.6958V3.59994C0.761731 2.03494 2.03494 0.761731 3.59994 0.761731H4.33018C4.54052 0.761731 4.71105 0.591205 4.71105 0.380865C4.71105 0.170526 4.54052 0 4.33018 0H3.59994C1.61492 0 0 1.61492 0 3.59994V14.6958C0 16.6808 1.61492 18.2958 3.59994 18.2958H3.90037L3.71354 19.9683C3.64772 20.5567 3.91941 21.1158 4.42261 21.4276C4.67022 21.581 4.94653 21.6576 5.22263 21.6576C5.50772 21.6576 5.79261 21.5759 6.04545 21.4128L6.13752 21.3534C6.8179 22.1637 7.82297 22.6381 8.89346 22.6381H14.7405L16.5739 23.8214C16.6377 23.8626 16.7093 23.8823 16.7801 23.8823C16.9051 23.8823 17.0276 23.8208 17.1004 23.7079C17.2145 23.5312 17.1637 23.2955 16.9869 23.1813L15.0593 21.9372C14.9977 21.8975 14.926 21.8763 14.8527 21.8763H8.89346C8.08222 21.8763 7.31896 21.5302 6.78443 20.9358L10.875 18.2957H16.722C18.707 18.2957 20.322 16.6808 20.322 14.6958V5.1041H22.015C23.5803 5.1041 24.8537 6.37756 24.8537 7.94282V19.0382C24.8537 20.6032 23.5803 21.8764 22.015 21.8764H21.2894C21.181 21.8764 21.0777 21.9226 21.0055 22.0034C20.9332 22.0841 20.8988 22.1919 20.9108 22.2996L21.1449 24.3959C21.1782 24.6932 21.0462 24.9648 20.7918 25.1224C20.5371 25.2803 20.2348 25.2775 19.9831 25.1152L18.4764 24.1427C18.2997 24.0287 18.0639 24.0795 17.9498 24.2562C17.8357 24.4329 17.8866 24.6686 18.0633 24.7828L19.5701 25.7553C19.8229 25.9183 20.1077 26.0001 20.3928 26C20.669 26 20.9454 25.9234 21.193 25.7699C21.6961 25.4582 21.9678 24.8992 21.9019 24.3112L21.7151 22.6381H22.015C24.0003 22.6381 25.6155 21.0232 25.6155 19.0382V7.94282C25.6155 5.95755 24.0003 4.34237 22.015 4.34237Z" fill="#036FAD"/>
<path d="M6.90637 7.98651C7.79566 7.98651 8.5192 7.26297 8.5192 6.37368C8.5192 6.29618 8.52459 6.21859 8.53535 6.14241C8.65322 5.29705 9.41728 4.67893 10.2746 4.73565C11.084 4.78877 11.7388 5.43873 11.7976 6.24758C11.8517 6.98758 11.4034 7.67634 10.7074 7.92248C9.41586 8.37891 8.5481 9.61093 8.5481 10.9882V11.5108C8.5481 12.4001 9.27164 13.1236 10.1609 13.1236C11.0503 13.1236 11.7738 12.4001 11.7738 11.5108V10.9882C11.7738 10.9728 11.7813 10.9648 11.783 10.9639C12.1101 10.8481 12.4235 10.6978 12.7146 10.5171C12.8933 10.4061 12.9482 10.1713 12.8372 9.99261C12.7262 9.81391 12.4914 9.75896 12.3127 9.86997C12.0682 10.0219 11.8044 10.1483 11.5296 10.2456C11.22 10.3544 11.012 10.6529 11.012 10.9882V11.5108C11.012 11.9801 10.6302 12.3619 10.1609 12.3619C9.69166 12.3619 9.30983 11.9801 9.30983 11.5108V10.9882C9.30983 9.93314 9.97345 8.98971 10.9613 8.64064C11.9801 8.28034 12.6364 7.27343 12.5573 6.19218C12.471 5.00642 11.5111 4.0535 10.3246 3.9756C9.071 3.89318 7.95359 4.79857 7.78099 6.03658C7.76534 6.14729 7.75742 6.26069 7.75742 6.37368C7.75742 6.84295 7.37559 7.22478 6.90632 7.22478C6.43699 7.22478 6.05521 6.84295 6.05521 6.37368C6.05521 6.18411 6.06851 5.99164 6.09472 5.80223C6.39032 3.68502 8.29718 2.13652 10.4357 2.27678C12.4656 2.40968 14.1078 4.03963 14.2555 6.06827C14.326 7.03262 14.0507 7.99697 13.4805 8.78369C13.357 8.95401 13.395 9.19213 13.5653 9.31558C13.7357 9.43903 13.9738 9.40105 14.0973 9.23072C14.7728 8.29877 15.0988 7.15597 15.0153 6.01282C14.8401 3.60717 12.8927 1.67425 10.4856 1.51663C7.95121 1.35027 5.69085 3.18644 5.34035 5.69731C5.30932 5.92167 5.29358 6.14922 5.29358 6.37357C5.29353 7.26297 6.01702 7.98651 6.90637 7.98651Z" fill="#036FAD"/>
<path d="M10.1608 13.5536C9.2715 13.5536 8.54797 14.2771 8.54797 15.1665V15.1767C8.54797 16.066 9.2715 16.7895 10.1608 16.7895C11.0502 16.7895 11.7737 16.066 11.7737 15.1767V15.1665C11.7737 14.2771 11.0502 13.5536 10.1608 13.5536ZM11.012 15.1767C11.012 15.646 10.6302 16.0278 10.1608 16.0278C9.69152 16.0278 9.30969 15.646 9.30969 15.1767V15.1665C9.30969 14.6971 9.69152 14.3153 10.1608 14.3153C10.6302 14.3153 11.012 14.6971 11.012 15.1665V15.1767Z" fill="#036FAD"/>
</svg>
