<svg width="6" height="6" viewBox="0 0 6 6" fill="none" xmlns="http://www.w3.org/2000/svg">
<path fill-rule="evenodd" clip-rule="evenodd" d="M5.64971 0.700722C5.67272 0.677715 5.69097 0.650403 5.70342 0.620343C5.71587 0.590284 5.72228 0.558066 5.72228 0.52553C5.72228 0.492994 5.71587 0.460776 5.70342 0.430717C5.69097 0.400657 5.67272 0.373344 5.64971 0.350338C5.6267 0.327331 5.59939 0.309082 5.56933 0.296631C5.53927 0.284179 5.50705 0.277771 5.47452 0.277771C5.44198 0.277771 5.40976 0.284179 5.3797 0.296631C5.34965 0.309082 5.32233 0.327331 5.29933 0.350338L3.00005 2.6501L0.700783 0.350338C0.677776 0.327331 0.650464 0.309082 0.620404 0.296631C0.590345 0.284179 0.558127 0.277771 0.525591 0.277771C0.493055 0.277771 0.460837 0.284179 0.430778 0.296631C0.400718 0.309082 0.373405 0.327331 0.350399 0.350338C0.327392 0.373344 0.309143 0.400657 0.296692 0.430717C0.284241 0.460776 0.277832 0.492994 0.277832 0.52553C0.277832 0.558066 0.284241 0.590284 0.296692 0.620343C0.309143 0.650403 0.327392 0.677715 0.350399 0.700722L2.65017 2.99999L0.350399 5.29926C0.303935 5.34573 0.277832 5.40875 0.277832 5.47446C0.277832 5.54017 0.303935 5.60319 0.350399 5.64965C0.396863 5.69611 0.459881 5.72222 0.525591 5.72222C0.591301 5.72222 0.654319 5.69611 0.700783 5.64965L3.00005 3.34988L5.29933 5.64965C5.34579 5.69611 5.40881 5.72222 5.47452 5.72222C5.54023 5.72222 5.60325 5.69611 5.64971 5.64965C5.69617 5.60319 5.72228 5.54017 5.72228 5.47446C5.72228 5.40875 5.69617 5.34573 5.64971 5.29926L3.34994 2.99999L5.64971 0.700722Z" fill="#414141"/>
</svg>
