<svg width="26" height="26" viewBox="0 0 26 26" fill="none" xmlns="http://www.w3.org/2000/svg">
<g clip-path="url(#clip0_275_926)">
<path d="M10.1562 0H2.03125C0.911219 0 0 0.911219 0 2.03125V13.4062C0 14.5263 0.911219 15.4375 2.03125 15.4375H10.1562C11.2763 15.4375 12.1875 14.5263 12.1875 13.4062V2.03125C12.1875 0.911219 11.2763 0 10.1562 0ZM11.375 13.4062C11.375 14.0782 10.8283 14.625 10.1562 14.625H2.03125C1.35921 14.625 0.8125 14.0782 0.8125 13.4062V2.03125C0.8125 1.35926 1.35921 0.8125 2.03125 0.8125H10.1562C10.8283 0.8125 11.375 1.35926 11.375 2.03125V13.4062Z" fill="#036FAD"/>
<path d="M10.1562 17.0625H2.03125C0.911219 17.0625 0 17.9737 0 19.0938V23.9688C0 25.0888 0.911219 26 2.03125 26H10.1562C11.2763 26 12.1875 25.0888 12.1875 23.9688V19.0938C12.1875 17.9737 11.2763 17.0625 10.1562 17.0625ZM11.375 23.9688C11.375 24.6407 10.8283 25.1875 10.1562 25.1875H2.03125C1.35921 25.1875 0.8125 24.6407 0.8125 23.9688V19.0938C0.8125 18.4218 1.35921 17.875 2.03125 17.875H10.1562C10.8283 17.875 11.375 18.4218 11.375 19.0938V23.9688Z" fill="#036FAD"/>
<path d="M26 23.9688V12.5938C26 11.4737 25.0888 10.5625 23.9688 10.5625H15.8438C14.7237 10.5625 13.8125 11.4737 13.8125 12.5938V23.9688C13.8125 25.0888 14.7237 26 15.8438 26H23.9688C25.0888 26 26 25.0888 26 23.9688ZM25.1875 23.9688C25.1875 24.6407 24.6408 25.1875 23.9688 25.1875H15.8438C15.1717 25.1875 14.625 24.6407 14.625 23.9688V12.5938C14.625 11.9218 15.1717 11.375 15.8438 11.375H23.9688C24.6408 11.375 25.1875 11.9218 25.1875 12.5938V23.9688Z" fill="#036FAD"/>
<path d="M26 6.90625V2.03125C26 0.911219 25.0888 0 23.9688 0H15.8438C14.7237 0 13.8125 0.911219 13.8125 2.03125V6.90625C13.8125 8.02628 14.7237 8.9375 15.8438 8.9375H23.9688C25.0888 8.9375 26 8.02628 26 6.90625ZM25.1875 6.90625C25.1875 7.57824 24.6408 8.125 23.9688 8.125H15.8438C15.1717 8.125 14.625 7.57824 14.625 6.90625V2.03125C14.625 1.35926 15.1717 0.8125 15.8438 0.8125H23.9688C24.6408 0.8125 25.1875 1.35926 25.1875 2.03125V6.90625Z" fill="#036FAD"/>
</g>
<defs>
<clipPath id="clip0_275_926">
<rect width="26" height="26" fill="white"/>
</clipPath>
</defs>
</svg>
