<svg width="32" height="32" viewBox="0 0 32 32" fill="none" xmlns="http://www.w3.org/2000/svg">
<path d="M13.9219 6.1875H19.0781V7.21875H13.9219V6.1875Z" fill="white"/>
<path d="M13.9219 8.25H19.0781V9.28125H13.9219V8.25Z" fill="white"/>
<path d="M29.3906 27.8438V23.7188C29.3906 23.4898 29.2395 23.2882 29.0194 23.2238L17.0156 19.7227V13.4062H20.625C20.9101 13.4062 21.1406 13.1753 21.1406 12.8906V4.64062C21.1406 4.50398 21.0865 4.3725 20.9895 4.27608L17.8958 1.18233C17.7994 1.08539 17.6684 1.03125 17.5312 1.03125H12.375C12.0899 1.03125 11.8594 1.26225 11.8594 1.54688V12.8906C11.8594 13.1753 12.0899 13.4062 12.375 13.4062H15.9844V19.7227L3.98062 23.2238C3.76045 23.2882 3.60938 23.4898 3.60938 23.7188V27.8438C3.60938 28.0727 3.76045 28.2743 3.98062 28.3387L16.3556 31.9481C16.4031 31.962 16.451 31.9688 16.5 31.9688C16.549 31.9688 16.5969 31.962 16.6444 31.9481L29.0194 28.3387C29.2395 28.2743 29.3906 28.0727 29.3906 27.8438ZM18.0469 2.79159L19.3803 4.125H18.0469V2.79159ZM12.8906 2.0625H17.0156V4.64062C17.0156 4.92525 17.2461 5.15625 17.5312 5.15625H20.1094V12.375H12.8906V2.0625ZM15.9844 20.7967V23.5053L14.802 22.323L14.073 23.052L16.1355 25.1145C16.236 25.2151 16.368 25.2656 16.5 25.2656C16.632 25.2656 16.764 25.2151 16.8645 25.1145L18.927 23.052L18.198 22.323L17.0156 23.5053V20.7967L27.0337 23.7188L16.5 26.7908L5.9663 23.7188L15.9844 20.7967ZM4.64062 24.4061L15.9844 27.7148V30.7658L4.64062 27.457V24.4061ZM17.0156 30.7658V27.7148L28.3594 24.4061V27.457L17.0156 30.7658Z" fill="white"/>
<path d="M13.9219 4.125H15.9844V5.15625H13.9219V4.125Z" fill="white"/>
<path d="M1.54688 13.4062H5.15625C5.15625 14.8278 6.3128 15.9844 7.73438 15.9844H9.28125C10.1341 15.9844 10.8281 16.6784 10.8281 17.5312V18.349L9.6458 17.1667L8.9167 17.8958L10.9792 19.9583C11.0798 20.0588 11.2118 20.1094 11.3438 20.1094C11.4757 20.1094 11.6077 20.0588 11.7083 19.9583L13.7708 17.8958L13.0417 17.1667L11.8594 18.349V17.5312C11.8594 16.1097 10.7028 14.9531 9.28125 14.9531H7.73438C6.88153 14.9531 6.1875 14.2591 6.1875 13.4062H9.79688C10.082 13.4062 10.3125 13.1753 10.3125 12.8906V4.64062C10.3125 4.50398 10.2584 4.3725 10.1614 4.27608L7.06767 1.18233C6.97125 1.08539 6.84028 1.03125 6.70312 1.03125H1.54688C1.26173 1.03125 1.03125 1.26225 1.03125 1.54688V12.8906C1.03125 13.1753 1.26173 13.4062 1.54688 13.4062ZM7.21875 2.79159L8.55216 4.125H7.21875V2.79159ZM2.0625 2.0625H6.1875V4.64062C6.1875 4.92525 6.41798 5.15625 6.70312 5.15625H9.28125V12.375H2.0625V2.0625Z" fill="white"/>
<path d="M3.09375 6.1875H8.25V7.21875H3.09375V6.1875Z" fill="white"/>
<path d="M3.09375 8.25H8.25V9.28125H3.09375V8.25Z" fill="white"/>
<path d="M3.09375 10.3125H8.25V11.3438H3.09375V10.3125Z" fill="white"/>
<path d="M3.09375 4.125H5.15625V5.15625H3.09375V4.125Z" fill="white"/>
<path d="M31.9688 12.8906V4.64062C31.9688 4.50398 31.9147 4.3725 31.8177 4.27608L28.724 1.18233C28.6275 1.08539 28.4966 1.03125 28.3594 1.03125H23.2032C22.918 1.03125 22.6875 1.26225 22.6875 1.54688V12.8906C22.6875 13.1753 22.918 13.4062 23.2032 13.4062H26.8125C26.8125 14.2591 26.1185 14.9531 25.2657 14.9531H23.7188C22.2972 14.9531 21.1407 16.1097 21.1407 17.5312V18.349L19.9583 17.1667L19.2292 17.8958L21.2917 19.9583C21.3923 20.0588 21.5243 20.1094 21.6563 20.1094C21.7883 20.1094 21.9203 20.0588 22.0208 19.9583L24.0833 17.8958L23.3542 17.1667L22.1719 18.349V17.5312C22.1719 16.6784 22.866 15.9844 23.7188 15.9844H25.2657C26.6872 15.9844 27.8438 14.8278 27.8438 13.4062H31.4532C31.7383 13.4062 31.9688 13.1753 31.9688 12.8906ZM28.875 2.79159L30.2085 4.125H28.875V2.79159ZM23.7188 12.375V2.0625H27.8438V4.64062C27.8438 4.92525 28.0743 5.15625 28.3594 5.15625H30.9375V12.375H23.7188Z" fill="white"/>
<path d="M24.75 6.1875H29.9062V7.21875H24.75V6.1875Z" fill="white"/>
<path d="M24.75 8.25H29.9062V9.28125H24.75V8.25Z" fill="white"/>
<path d="M24.75 10.3125H29.9062V11.3438H24.75V10.3125Z" fill="white"/>
<path d="M24.75 4.125H26.8125V5.15625H24.75V4.125Z" fill="white"/>
<path d="M13.9219 10.3125H14.9531V11.3438H13.9219V10.3125Z" fill="white"/>
<path d="M15.9844 10.3125H17.0156V11.3438H15.9844V10.3125Z" fill="white"/>
<path d="M18.0469 10.3125H19.0781V11.3438H18.0469V10.3125Z" fill="white"/>
</svg>
