<svg width="24" height="26" viewBox="0 0 24 26" fill="none" xmlns="http://www.w3.org/2000/svg">
<path d="M23.9844 12.8984C23.9844 6.29017 18.6081 0.914062 12 0.914062C5.39194 0.914062 0.015625 6.29017 0.015625 12.8984C0.015625 19.5065 5.39194 24.8828 12 24.8828C13.2892 24.8828 14.5539 24.6768 15.7653 24.2755C16.5896 24.7884 17.5614 25.0859 18.6016 25.0859C21.5696 25.0859 23.9844 22.6712 23.9844 19.7031C23.9844 18.7208 23.7185 17.8 23.2572 17.0064C23.7378 15.6918 23.9844 14.312 23.9844 12.8984ZM12 2.13281C17.9363 2.13281 22.7656 6.96231 22.7656 12.8984C22.7656 13.9061 22.6271 14.8947 22.3549 15.8498C21.3844 14.9043 20.0604 14.3203 18.6016 14.3203C18.0208 14.3203 17.4616 14.414 16.937 14.585C15.4296 13.614 13.69 13.1016 11.885 13.1016C7.98422 13.1016 4.55486 15.495 3.17259 19.0499C1.95283 17.3048 1.23438 15.1846 1.23438 12.8984C1.23438 6.96231 6.06367 2.13281 12 2.13281ZM4.0765 20.1774C5.08217 16.7127 8.24747 14.3203 11.885 14.3203C13.1968 14.3203 14.4684 14.6321 15.6156 15.2271C14.1716 16.1935 13.2188 17.8388 13.2188 19.7031C13.2188 21.1027 13.756 22.3787 14.6345 23.3372C13.7775 23.5532 12.8954 23.6641 12 23.6641C8.86822 23.6641 6.04559 22.3192 4.0765 20.1774ZM18.6016 23.8672C16.3054 23.8672 14.4375 21.9993 14.4375 19.7031C14.4375 17.407 16.3054 15.5391 18.6016 15.5391C20.8977 15.5391 22.7656 17.407 22.7656 19.7031C22.7656 21.9993 20.8977 23.8672 18.6016 23.8672Z" fill="#036FAD"/>
<path d="M11.8853 11.6797C14.0652 11.6797 15.8389 9.90623 15.8389 7.72609C15.8389 5.54595 14.0654 3.77246 11.8853 3.77246C9.70512 3.77246 7.93164 5.54595 7.93164 7.72609C7.93164 9.90623 9.70512 11.6797 11.8853 11.6797ZM11.8853 4.99121C13.3933 4.99121 14.6201 6.21809 14.6201 7.72609C14.6201 9.23409 13.3933 10.461 11.8853 10.461C10.3773 10.461 9.15039 9.23409 9.15039 7.72609C9.15039 6.21809 10.3773 4.99121 11.8853 4.99121Z" fill="#036FAD"/>
<path d="M20.7014 19.0938H16.501C16.1644 19.0938 15.8916 19.3665 15.8916 19.7031C15.8916 20.0397 16.1644 20.3125 16.501 20.3125H20.7014C21.038 20.3125 21.3108 20.0397 21.3108 19.7031C21.3108 19.3665 21.038 19.0938 20.7014 19.0938Z" fill="#036FAD"/>
</svg>
