<svg width="40" height="40" viewBox="0 0 40 40" fill="none" xmlns="http://www.w3.org/2000/svg">
<path d="M37.5 18.1494C37.4989 17.1551 37.1035 16.2019 36.4004 15.4989C35.6974 14.7959 34.7442 14.4005 33.75 14.3994H32.1002V12.7563C32.0993 12.4116 32.0289 12.0706 31.8933 11.7537C31.7577 11.4367 31.5596 11.1504 31.3109 10.9117C31.0622 10.6729 30.7679 10.4868 30.4457 10.3643C30.1235 10.2418 29.7799 10.1854 29.4354 10.1986V7.7322C29.4339 6.37873 28.8956 5.08113 27.9385 4.12409C26.9815 3.16704 25.6839 2.62871 24.3304 2.6272H15.6696C14.3161 2.62871 13.0185 3.16704 12.0614 4.12409C11.1044 5.08113 10.5661 6.37873 10.5646 7.7322V10.1986H10.4227C9.75379 10.1994 9.11254 10.4655 8.63959 10.9385C8.16663 11.4114 7.90056 12.0527 7.89976 12.7215V14.3994H6.25C5.25577 14.4005 4.30258 14.7959 3.59955 15.4989C2.89652 16.2019 2.50109 17.1551 2.5 18.1494V33.6227C2.50109 34.6169 2.89652 35.5701 3.59955 36.2732C4.30258 36.9762 5.25577 37.3716 6.25 37.3727H33.75C34.7442 37.3716 35.6974 36.9762 36.4004 36.2732C37.1035 35.5701 37.4989 34.6169 37.5 33.6227V18.1494ZM29.5422 11.4486C29.889 11.449 30.2214 11.5869 30.4666 11.832C30.7118 12.0772 30.8498 12.4096 30.8502 12.7563V14.3994H26.7706V12.7563C26.7711 12.4096 26.909 12.0772 27.1542 11.832C27.3994 11.5869 27.7319 11.449 28.0786 11.4486H29.5422ZM11.8146 7.7322C11.8158 6.71015 12.2223 5.7303 12.945 5.00761C13.6677 4.28491 14.6475 3.87838 15.6696 3.8772H24.3304C25.3525 3.87838 26.3323 4.28491 27.055 5.00761C27.7777 5.7303 28.1843 6.71015 28.1854 7.7322V10.1986H28.0786C27.4005 10.1994 26.7503 10.469 26.2708 10.9485C25.7912 11.428 25.5214 12.0782 25.5206 12.7563V14.3994H14.4794V12.7215C14.4786 12.0527 14.2125 11.4114 13.7396 10.9385C13.2666 10.4655 12.6254 10.1994 11.9565 10.1986H11.8146L11.8146 7.7322ZM9.14978 12.7215C9.15015 12.384 9.28438 12.0605 9.52301 11.8219C9.76164 11.5832 10.0852 11.449 10.4227 11.4486H11.9565C12.294 11.449 12.6175 11.5832 12.8561 11.8219C13.0948 12.0605 13.229 12.384 13.2294 12.7215V14.3994H9.14978V12.7215ZM36.25 33.6227C36.2492 34.2855 35.9856 34.921 35.5169 35.3896C35.0483 35.8583 34.4128 36.1219 33.75 36.1227H6.25C5.58719 36.1219 4.95175 35.8583 4.48307 35.3896C4.01439 34.921 3.75076 34.2855 3.75 33.6227V18.1494C3.75076 17.4866 4.01439 16.8511 4.48307 16.3824C4.95175 15.9138 5.58719 15.6501 6.25 15.6494H33.75C34.4128 15.6501 35.0483 15.9138 35.5169 16.3824C35.9856 16.8511 36.2492 17.4866 36.25 18.1494V33.6227Z" fill="#036FAD"/>
<path d="M23.4656 25.4531H20.625V22.6125C20.6218 22.4489 20.5545 22.293 20.4377 22.1784C20.3208 22.0638 20.1637 21.9996 20 21.9996C19.8363 21.9996 19.6791 22.0638 19.5623 22.1785C19.4454 22.2931 19.3782 22.4489 19.375 22.6126V25.4531H16.5344C16.3687 25.4531 16.2097 25.519 16.0925 25.6362C15.9753 25.7534 15.9094 25.9124 15.9094 26.0781C15.9094 26.2439 15.9753 26.4029 16.0925 26.5201C16.2097 26.6373 16.3687 26.7031 16.5344 26.7031H19.375V29.5437C19.375 29.7094 19.4408 29.8684 19.5581 29.9856C19.6753 30.1028 19.8342 30.1687 20 30.1687C20.1658 30.1687 20.3247 30.1028 20.4419 29.9856C20.5592 29.8684 20.625 29.7094 20.625 29.5437V26.7031H23.4656C23.6292 26.6999 23.7851 26.6327 23.8997 26.5158C24.0143 26.399 24.0785 26.2418 24.0785 26.0781C24.0785 25.9144 24.0143 25.7573 23.8997 25.6404C23.7851 25.5236 23.6292 25.4563 23.4656 25.4531Z" fill="#036FAD"/>
<path d="M19.9999 18.4064C17.9659 18.4086 16.0159 19.2176 14.5777 20.6559C13.1394 22.0942 12.3304 24.0442 12.3281 26.0782C12.7494 36.2559 27.252 36.2529 27.6717 26.0781C27.6695 24.0441 26.8605 22.0941 25.4222 20.6559C23.984 19.2176 22.0339 18.4086 19.9999 18.4064ZM19.9999 32.5C18.2974 32.4981 16.6651 31.8209 15.4612 30.6169C14.2573 29.413 13.5801 27.7808 13.5781 26.0782C13.9309 17.5588 26.0702 17.5613 26.4217 26.0782C26.4198 27.7808 25.7426 29.4131 24.5387 30.617C23.3348 31.8209 21.7025 32.4981 19.9999 32.5Z" fill="#036FAD"/>
</svg>
