<svg width="28" height="26" viewBox="0 0 28 26" fill="none" xmlns="http://www.w3.org/2000/svg">
<path d="M1.2285 22.75H15.8438C16.5157 22.75 17.0625 22.2032 17.0625 21.5312V6.09375C17.0625 6.07506 17.0544 6.05881 17.0519 6.04094C17.0497 6.02391 17.0461 6.00707 17.0414 5.99056C17.0255 5.92131 16.9912 5.85761 16.9422 5.80612L11.2556 0.119438C11.1911 0.0585641 11.1088 0.0200971 11.0208 0.00975C11.0037 0.008125 10.9874 0 10.9688 0H1.22363C0.54925 0 0 0.546812 0 1.21875V21.5312C0 22.2032 0.550875 22.75 1.2285 22.75ZM11.375 1.38694L15.6756 5.6875H11.7812C11.6735 5.6875 11.5702 5.6447 11.494 5.56851C11.4178 5.49233 11.375 5.38899 11.375 5.28125V1.38694ZM0.8125 1.21875C0.8125 0.9945 0.996938 0.8125 1.22363 0.8125H10.5625V5.28125C10.5625 5.95319 11.1093 6.5 11.7812 6.5H16.25V21.5312C16.25 21.639 16.2072 21.7423 16.131 21.8185C16.0548 21.8947 15.9515 21.9375 15.8438 21.9375H1.2285C1.17451 21.9381 1.12092 21.9281 1.07079 21.9081C1.02067 21.888 0.974984 21.8583 0.936354 21.8205C0.897725 21.7828 0.866904 21.7379 0.845653 21.6882C0.824402 21.6386 0.813136 21.5852 0.8125 21.5312V1.21875Z" fill="#036FAD"/>
<path d="M3.65527 9.75H13.4053C13.513 9.75 13.6163 9.7072 13.6925 9.63101C13.7687 9.55483 13.8115 9.45149 13.8115 9.34375C13.8115 9.23601 13.7687 9.13267 13.6925 9.05649C13.6163 8.9803 13.513 8.9375 13.4053 8.9375H3.65527C3.54753 8.9375 3.4442 8.9803 3.36801 9.05649C3.29182 9.13267 3.24902 9.23601 3.24902 9.34375C3.24902 9.45149 3.29182 9.55483 3.36801 9.63101C3.4442 9.7072 3.54753 9.75 3.65527 9.75ZM3.65527 13H13.4053C13.513 13 13.6163 12.9572 13.6925 12.881C13.7687 12.8048 13.8115 12.7015 13.8115 12.5937C13.8115 12.486 13.7687 12.3827 13.6925 12.3065C13.6163 12.2303 13.513 12.1875 13.4053 12.1875H3.65527C3.54753 12.1875 3.4442 12.2303 3.36801 12.3065C3.29182 12.3827 3.24902 12.486 3.24902 12.5937C3.24902 12.7015 3.29182 12.8048 3.36801 12.881C3.4442 12.9572 3.54753 13 3.65527 13ZM3.65527 6.5H7.71777C7.82552 6.5 7.92885 6.4572 8.00504 6.38101C8.08122 6.30483 8.12402 6.20149 8.12402 6.09375C8.12402 5.98601 8.08122 5.88267 8.00504 5.80649C7.92885 5.7303 7.82552 5.6875 7.71777 5.6875H3.65527C3.54753 5.6875 3.4442 5.7303 3.36801 5.80649C3.29182 5.88267 3.24902 5.98601 3.24902 6.09375C3.24902 6.20149 3.29182 6.30483 3.36801 6.38101C3.4442 6.4572 3.54753 6.5 3.65527 6.5ZM3.65527 16.25H13.4053C13.513 16.25 13.6163 16.2072 13.6925 16.131C13.7687 16.0548 13.8115 15.9515 13.8115 15.8437C13.8115 15.736 13.7687 15.6327 13.6925 15.5565C13.6163 15.4803 13.513 15.4375 13.4053 15.4375H3.65527C3.54753 15.4375 3.4442 15.4803 3.36801 15.5565C3.29182 15.6327 3.24902 15.736 3.24902 15.8437C3.24902 15.9515 3.29182 16.0548 3.36801 16.131C3.4442 16.2072 3.54753 16.25 3.65527 16.25ZM3.65527 19.5H13.4053C13.513 19.5 13.6163 19.4572 13.6925 19.381C13.7687 19.3048 13.8115 19.2015 13.8115 19.0937C13.8115 18.986 13.7687 18.8827 13.6925 18.8065C13.6163 18.7303 13.513 18.6875 13.4053 18.6875H3.65527C3.54753 18.6875 3.4442 18.7303 3.36801 18.8065C3.29182 18.8827 3.24902 18.986 3.24902 19.0937C3.24902 19.2015 3.29182 19.3048 3.36801 19.381C3.4442 19.4572 3.54753 19.5 3.65527 19.5Z" fill="#036FAD"/>
<path d="M17.4697 4.0625H21.126V8.53125C21.126 9.20319 21.6728 9.75 22.3447 9.75H26.8135V24.7812C26.8135 24.889 26.7707 24.9923 26.6945 25.0685C26.6183 25.1447 26.515 25.1875 26.4072 25.1875H11.792C11.738 25.1881 11.6844 25.1781 11.6343 25.1581C11.5841 25.138 11.5385 25.1083 11.4998 25.0705C11.4612 25.0328 11.4304 24.9879 11.4091 24.9382C11.3879 24.8886 11.3766 24.8352 11.376 24.7812V23.9688C11.376 23.861 11.3332 23.7577 11.257 23.6815C11.1808 23.6053 11.0775 23.5625 10.9697 23.5625C10.862 23.5625 10.7587 23.6053 10.6825 23.6815C10.6063 23.7577 10.5635 23.861 10.5635 23.9688V24.7812C10.5635 25.4532 11.1144 26 11.792 26H26.4072C27.0792 26 27.626 25.4532 27.626 24.7812V9.34375C27.626 9.32506 27.6179 9.30881 27.6154 9.29094C27.6131 9.27391 27.6096 9.25707 27.6049 9.24056C27.5889 9.17131 27.5547 9.10761 27.5057 9.05612L21.819 3.36944C21.755 3.30806 21.6724 3.26975 21.5842 3.26056C21.5672 3.25813 21.5509 3.25 21.5322 3.25H17.4697C17.362 3.25 17.2587 3.2928 17.1825 3.36899C17.1063 3.44517 17.0635 3.54851 17.0635 3.65625C17.0635 3.76399 17.1063 3.86733 17.1825 3.94351C17.2587 4.0197 17.362 4.0625 17.4697 4.0625ZM22.3447 8.9375C22.237 8.9375 22.1337 8.8947 22.0575 8.81851C21.9813 8.74233 21.9385 8.63899 21.9385 8.53125V4.63694L26.239 8.9375H22.3447Z" fill="#036FAD"/>
<path d="M19.0938 13H23.9688C24.0765 13 24.1798 12.9572 24.256 12.881C24.3322 12.8048 24.375 12.7015 24.375 12.5938C24.375 12.486 24.3322 12.3827 24.256 12.3065C24.1798 12.2303 24.0765 12.1875 23.9688 12.1875H19.0938C18.986 12.1875 18.8827 12.2303 18.8065 12.3065C18.7303 12.3827 18.6875 12.486 18.6875 12.5938C18.6875 12.7015 18.7303 12.8048 18.8065 12.881C18.8827 12.9572 18.986 13 19.0938 13ZM19.0938 16.25H23.9688C24.0765 16.25 24.1798 16.2072 24.256 16.131C24.3322 16.0548 24.375 15.9515 24.375 15.8438C24.375 15.736 24.3322 15.6327 24.256 15.5565C24.1798 15.4803 24.0765 15.4375 23.9688 15.4375H19.0938C18.986 15.4375 18.8827 15.4803 18.8065 15.5565C18.7303 15.6327 18.6875 15.736 18.6875 15.8438C18.6875 15.9515 18.7303 16.0548 18.8065 16.131C18.8827 16.2072 18.986 16.25 19.0938 16.25ZM19.0938 19.5H23.9688C24.0765 19.5 24.1798 19.4572 24.256 19.381C24.3322 19.3048 24.375 19.2015 24.375 19.0938C24.375 18.986 24.3322 18.8827 24.256 18.8065C24.1798 18.7303 24.0765 18.6875 23.9688 18.6875H19.0938C18.986 18.6875 18.8827 18.7303 18.8065 18.8065C18.7303 18.8827 18.6875 18.986 18.6875 19.0938C18.6875 19.2015 18.7303 19.3048 18.8065 19.381C18.8827 19.4572 18.986 19.5 19.0938 19.5ZM19.0938 22.75H23.9688C24.0765 22.75 24.1798 22.7072 24.256 22.631C24.3322 22.5548 24.375 22.4515 24.375 22.3438C24.375 22.236 24.3322 22.1327 24.256 22.0565C24.1798 21.9803 24.0765 21.9375 23.9688 21.9375H19.0938C18.986 21.9375 18.8827 21.9803 18.8065 22.0565C18.7303 22.1327 18.6875 22.236 18.6875 22.3438C18.6875 22.4515 18.7303 22.5548 18.8065 22.631C18.8827 22.7072 18.986 22.75 19.0938 22.75Z" fill="#036FAD"/>
</svg>
