<svg width="26" height="26" viewBox="0 0 26 26" fill="none" xmlns="http://www.w3.org/2000/svg">
<path d="M11.7965 24.0543C12.1199 24.3777 12.5546 24.558 13.0106 24.558C13.4613 24.558 13.9066 24.3724 14.2247 24.0543L23.752 14.527C25.1994 13.0796 25.9947 11.155 26 9.11383C26 7.06734 25.2047 5.14279 23.7573 3.6954C22.31 2.24801 20.3907 1.45274 18.3442 1.45274C16.3348 1.45274 14.4421 2.2215 13.0053 3.62118C11.5632 2.2162 9.66517 1.44214 7.65049 1.44214C5.6093 1.44214 3.69005 2.23741 2.24266 3.6795C0.795269 5.12689 0 7.05144 0 9.09793C0 11.1391 0.800571 13.0637 2.24796 14.5111L11.7965 24.0543ZM3.16517 4.60201C4.36338 3.4038 5.95922 2.74108 7.65579 2.74108C9.35236 2.74108 10.9535 3.4038 12.157 4.60731L12.5493 4.99964C12.6713 5.12158 12.8356 5.19051 13.0106 5.19051C13.1803 5.19051 13.3499 5.12158 13.4719 4.99964L13.8536 4.61791C15.0571 3.41441 16.6529 2.75168 18.3548 2.75168C20.0514 2.75168 21.6472 3.41441 22.8454 4.61261C24.0489 5.81612 24.7064 7.41196 24.7064 9.10853C24.7064 10.8051 24.0436 12.4009 22.8401 13.6045L13.3075 23.1371C13.1538 23.2908 12.8728 23.2908 12.7137 23.1371L3.17047 13.5939C1.96697 12.3903 1.30424 10.7945 1.30424 9.09793C1.30424 7.40136 1.96697 5.80552 3.16517 4.60201Z" fill="#036FAD"/>
</svg>
