<svg width="182" height="160" viewBox="0 0 182 160" fill="none" xmlns="http://www.w3.org/2000/svg">
<path d="M4.31297 67.3635C7.02508 70.0776 10.7038 71.6029 14.5398 71.6029C17.4217 71.6029 20.2141 70.742 22.5752 69.1629L12.2795 79.4661C9.56741 82.1802 8.04321 85.8616 8.04321 89.7004C8.04321 93.5392 9.56687 97.2206 12.2795 99.9347C14.9916 102.649 18.6703 104.174 22.5063 104.174C25.3877 104.174 28.1806 103.313 30.5418 101.735L25.1382 107.142C22.4261 109.856 20.9019 113.538 20.9019 117.376C20.9019 121.215 22.4255 124.897 25.1382 127.611C27.8503 130.325 31.529 131.85 35.365 131.85C38.2463 131.85 41.0393 130.989 43.4004 129.411L42.0802 130.732C39.3681 133.446 37.8439 137.127 37.8439 140.966C37.8439 144.805 39.3675 148.486 42.0802 151.2C44.7923 153.914 48.471 155.44 52.307 155.44C56.143 155.44 59.8217 153.915 62.5338 151.2L76.2392 137.485C74.6613 139.848 73.8015 142.643 73.8015 145.526C73.8015 149.365 75.3252 153.047 78.0378 155.761C80.75 158.475 84.4287 160 88.2647 160C92.1007 160 95.7794 158.475 98.4915 155.761L119.316 134.921C117.738 137.284 116.878 140.079 116.878 142.963C116.878 146.801 118.402 150.483 121.114 153.197C123.826 155.911 127.505 157.436 131.341 157.436C135.177 157.436 138.856 155.912 141.568 153.197L173.987 120.754C176.699 118.04 178.223 114.359 178.223 110.52C178.223 106.681 176.699 103 173.987 100.286C171.275 97.5718 167.596 96.0465 163.76 96.0465C160.879 96.0465 158.086 96.9074 155.725 98.4859L162.511 91.6947C165.223 88.9806 166.747 85.2992 166.747 81.4604C166.747 77.6217 165.223 73.9403 162.511 71.2262C159.799 68.5121 156.12 66.9868 152.284 66.9868C149.403 66.9868 146.61 67.8477 144.249 69.4262L157.954 55.7109C160.666 52.9968 162.19 49.3154 162.19 45.4766C162.19 41.6378 160.667 37.9564 157.954 35.2424C155.242 32.5283 151.563 31.003 147.727 31.003C144.846 31.003 142.053 31.8639 139.692 33.4424L148.42 24.7079C151.132 21.9938 152.656 18.3125 152.656 14.4737C152.656 10.6349 151.132 6.95348 148.42 4.2394C145.708 1.52531 142.029 0 138.193 0C134.357 0 130.678 1.52477 127.966 4.2394L108.525 23.695C110.103 21.3321 110.962 18.5372 110.962 15.6537C110.962 11.8149 109.439 8.13356 106.726 5.41948C104.014 2.7054 100.335 1.18008 96.4992 1.18008C92.6632 1.18008 88.9845 2.70485 86.2724 5.41948L58.9837 32.728C60.5616 30.3651 61.4218 27.5702 61.4218 24.6862C61.4218 20.8474 59.8982 17.166 57.1855 14.4519C54.4734 11.7379 50.7947 10.2125 46.9587 10.2125C43.1227 10.2125 39.444 11.7373 36.7319 14.4519L4.31297 46.895C1.60032 49.6096 0.0766602 53.291 0.0766602 57.1292C0.0766602 60.9675 1.60032 64.6494 4.31297 67.3635Z" fill="white"/>
<path d="M177.797 129.055L176.796 130.057C176.405 130.448 176.405 131.083 176.796 131.474C177.187 131.865 177.821 131.865 178.212 131.474L179.213 130.473L180.214 131.474C180.605 131.865 181.239 131.865 181.63 131.474C182.021 131.083 182.021 130.448 181.63 130.057L180.629 129.055L181.63 128.054C182.021 127.662 182.021 127.028 181.63 126.636C181.434 126.44 181.178 126.343 180.922 126.343C180.665 126.343 180.409 126.44 180.213 126.636L179.213 127.638L178.212 126.636C178.016 126.44 177.76 126.343 177.503 126.343C177.247 126.343 176.991 126.44 176.795 126.636C176.404 127.028 176.404 127.662 176.795 128.054L177.796 129.055H177.797Z" fill="white"/>
<path d="M34.8003 150.631L33.7995 151.633C33.4084 152.024 33.4084 152.659 33.7995 153.05C34.1906 153.442 34.8247 153.442 35.2158 153.05L36.2166 152.049L37.2173 153.05C37.6084 153.442 38.2425 153.442 38.6336 153.05C39.0247 152.659 39.0247 152.024 38.6336 151.633L37.6328 150.631L38.6336 149.63C39.0247 149.239 39.0247 148.604 38.6336 148.213C38.4378 148.017 38.1818 147.919 37.9252 147.919C37.6686 147.919 37.4126 148.017 37.2168 148.213L36.216 149.214L35.2152 148.213C35.0194 148.017 34.7634 147.919 34.5068 147.919C34.2503 147.919 33.9943 148.017 33.7984 148.213C33.4074 148.604 33.4074 149.239 33.7984 149.63L34.7992 150.631H34.8003Z" fill="white"/>
<path d="M9.19483 61.8626L8.19406 62.8641C7.80297 63.2555 7.80297 63.89 8.19406 64.2814C8.58514 64.6728 9.21923 64.6728 9.61032 64.2814L10.6111 63.2799L11.6119 64.2814C12.0029 64.6728 12.637 64.6728 13.0281 64.2814C13.4192 63.89 13.4192 63.2555 13.0281 62.8641L12.0274 61.8626L13.0281 60.8611C13.4192 60.4697 13.4192 59.8352 13.0281 59.4438C12.8323 59.2478 12.5763 59.1501 12.3197 59.1501C12.0632 59.1501 11.8071 59.2478 11.6113 59.4438L10.6105 60.4453L9.60978 59.4438C9.41396 59.2478 9.15794 59.1501 8.90138 59.1501C8.64481 59.1501 8.38879 59.2478 8.19297 59.4438C7.80189 59.8352 7.80189 60.4697 8.19297 60.8611L9.19374 61.8626H9.19483Z" fill="white"/>
<path d="M129.644 10.3943L128.644 11.3958C128.252 11.7872 128.252 12.4218 128.644 12.8131C129.035 13.2045 129.669 13.2045 130.06 12.8131L131.061 11.8116L132.061 12.8131C132.452 13.2045 133.087 13.2045 133.478 12.8131C133.869 12.4218 133.869 11.7872 133.478 11.3958L132.477 10.3943L133.478 9.39284C133.869 9.00147 133.869 8.36692 133.478 7.97555C133.282 7.77959 133.026 7.68188 132.769 7.68188C132.513 7.68188 132.257 7.77959 132.061 7.97555L131.06 8.97704L130.059 7.97555C129.863 7.77959 129.607 7.68188 129.351 7.68188C129.094 7.68188 128.838 7.77959 128.642 7.97555C128.251 8.36692 128.251 9.00147 128.642 9.39284L129.643 10.3943H129.644Z" fill="white"/>
<path d="M111.321 152.028C112.934 152.028 114.247 153.341 114.247 154.956C114.247 156.57 112.934 157.883 111.321 157.883C109.708 157.883 108.396 156.57 108.396 154.956C108.396 153.341 109.708 152.028 111.321 152.028ZM111.321 155.879C111.83 155.879 112.244 155.465 112.244 154.956C112.244 154.446 111.83 154.032 111.321 154.032C110.813 154.032 110.399 154.446 110.399 154.956C110.399 155.465 110.813 155.879 111.321 155.879Z" fill="white"/>
<path d="M166.464 58.73C168.077 58.73 169.39 60.0436 169.39 61.6579C169.39 63.2723 168.077 64.5859 166.464 64.5859C164.851 64.5859 163.538 63.2723 163.538 61.6579C163.538 60.0436 164.851 58.73 166.464 58.73ZM166.464 62.5813C166.973 62.5813 167.387 62.1671 167.387 61.6579C167.387 61.1488 166.973 60.7346 166.464 60.7346C165.955 60.7346 165.541 61.1488 165.541 61.6579C165.541 62.1671 165.955 62.5813 166.464 62.5813Z" fill="white"/>
<path d="M43.9825 11.7395C45.5956 11.7395 46.9083 13.0531 46.9083 14.6675C46.9083 16.2818 45.5956 17.5954 43.9825 17.5954C42.3693 17.5954 41.0566 16.2818 41.0566 14.6675C41.0566 13.0531 42.3693 11.7395 43.9825 11.7395ZM43.9825 15.5908C44.4913 15.5908 44.9051 15.1766 44.9051 14.6675C44.9051 14.1583 44.4913 13.7441 43.9825 13.7441C43.4737 13.7441 43.0598 14.1583 43.0598 14.6675C43.0598 15.1766 43.4737 15.5908 43.9825 15.5908Z" fill="white"/>
<path d="M9.89726 103.157C11.5104 103.157 12.8231 104.471 12.8231 106.085C12.8231 107.7 11.5104 109.013 9.89726 109.013C8.2841 109.013 6.97144 107.7 6.97144 106.085C6.97144 104.471 8.2841 103.157 9.89726 103.157ZM9.89726 107.009C10.4061 107.009 10.8199 106.595 10.8199 106.085C10.8199 105.576 10.4061 105.162 9.89726 105.162C9.38847 105.162 8.9746 105.576 8.9746 106.085C8.9746 106.595 9.38847 107.009 9.89726 107.009Z" fill="white"/>
<path d="M4.31297 67.3635C7.02508 70.0776 10.7038 71.6029 14.5398 71.6029C17.4217 71.6029 20.2141 70.742 22.5752 69.1629L12.2795 79.4661C9.56741 82.1802 8.04321 85.8616 8.04321 89.7004C8.04321 93.5392 9.56687 97.2206 12.2795 99.9347C14.9916 102.649 18.6703 104.174 22.5063 104.174C25.3877 104.174 28.1806 103.313 30.5418 101.735L25.1382 107.142C22.4261 109.856 20.9019 113.538 20.9019 117.376C20.9019 121.215 22.4255 124.897 25.1382 127.611C27.8503 130.325 31.529 131.85 35.365 131.85C38.2463 131.85 41.0393 130.989 43.4004 129.411L42.0802 130.732C39.3681 133.446 37.8439 137.127 37.8439 140.966C37.8439 144.805 39.3675 148.486 42.0802 151.2C44.7923 153.914 48.471 155.44 52.307 155.44C56.143 155.44 59.8217 153.915 62.5338 151.2L76.2392 137.485C74.6613 139.848 73.8015 142.643 73.8015 145.526C73.8015 149.365 75.3252 153.047 78.0378 155.761C80.75 158.475 84.4287 160 88.2647 160C92.1007 160 95.7794 158.475 98.4915 155.761L119.316 134.921C117.738 137.284 116.878 140.079 116.878 142.963C116.878 146.801 118.402 150.483 121.114 153.197C123.826 155.911 127.505 157.436 131.341 157.436C135.177 157.436 138.856 155.912 141.568 153.197L173.987 120.754C176.699 118.04 178.223 114.359 178.223 110.52C178.223 106.681 176.699 103 173.987 100.286C171.275 97.5718 167.596 96.0465 163.76 96.0465C160.879 96.0465 158.086 96.9074 155.725 98.4859L162.511 91.6947C165.223 88.9806 166.747 85.2992 166.747 81.4604C166.747 77.6217 165.223 73.9403 162.511 71.2262C159.799 68.5121 156.12 66.9868 152.284 66.9868C149.403 66.9868 146.61 67.8477 144.249 69.4262L157.954 55.7109C160.666 52.9968 162.19 49.3154 162.19 45.4766C162.19 41.6378 160.667 37.9564 157.954 35.2424C155.242 32.5283 151.563 31.003 147.727 31.003C144.846 31.003 142.053 31.8639 139.692 33.4424L148.42 24.7079C151.132 21.9938 152.656 18.3125 152.656 14.4737C152.656 10.6349 151.132 6.95348 148.42 4.2394C145.708 1.52531 142.029 0 138.193 0C134.357 0 130.678 1.52477 127.966 4.2394L108.525 23.695C110.103 21.3321 110.962 18.5372 110.962 15.6537C110.962 11.8149 109.439 8.13356 106.726 5.41948C104.014 2.7054 100.335 1.18008 96.4992 1.18008C92.6632 1.18008 88.9845 2.70485 86.2724 5.41948L58.9837 32.728C60.5616 30.3651 61.4218 27.5702 61.4218 24.6862C61.4218 20.8474 59.8982 17.166 57.1855 14.4519C54.4734 11.7379 50.7947 10.2125 46.9587 10.2125C43.1227 10.2125 39.444 11.7373 36.7319 14.4519L4.31297 46.895C1.60032 49.6096 0.0766602 53.291 0.0766602 57.1292C0.0766602 60.9675 1.60032 64.6494 4.31297 67.3635Z" fill="#E9F4FA"/>
<path d="M177.797 129.055L176.796 130.057C176.405 130.448 176.405 131.083 176.796 131.474C177.187 131.865 177.821 131.865 178.212 131.474L179.213 130.473L180.214 131.474C180.605 131.865 181.239 131.865 181.63 131.474C182.021 131.083 182.021 130.448 181.63 130.057L180.629 129.055L181.63 128.054C182.021 127.662 182.021 127.028 181.63 126.636C181.434 126.44 181.178 126.343 180.922 126.343C180.665 126.343 180.409 126.44 180.213 126.636L179.213 127.638L178.212 126.636C178.016 126.44 177.76 126.343 177.503 126.343C177.247 126.343 176.991 126.44 176.795 126.636C176.404 127.028 176.404 127.662 176.795 128.054L177.796 129.055H177.797Z" fill="#036FAD"/>
<path d="M34.8003 150.631L33.7995 151.633C33.4084 152.024 33.4084 152.659 33.7995 153.05C34.1906 153.442 34.8247 153.442 35.2158 153.05L36.2166 152.049L37.2173 153.05C37.6084 153.442 38.2425 153.442 38.6336 153.05C39.0247 152.659 39.0247 152.024 38.6336 151.633L37.6328 150.631L38.6336 149.63C39.0247 149.239 39.0247 148.604 38.6336 148.213C38.4378 148.017 38.1818 147.919 37.9252 147.919C37.6686 147.919 37.4126 148.017 37.2168 148.213L36.216 149.214L35.2152 148.213C35.0194 148.017 34.7634 147.919 34.5068 147.919C34.2503 147.919 33.9943 148.017 33.7984 148.213C33.4074 148.604 33.4074 149.239 33.7984 149.63L34.7992 150.631H34.8003Z" fill="#036FAD"/>
<path d="M9.19483 61.8626L8.19406 62.8641C7.80297 63.2555 7.80297 63.89 8.19406 64.2814C8.58514 64.6728 9.21923 64.6728 9.61032 64.2814L10.6111 63.2799L11.6119 64.2814C12.0029 64.6728 12.637 64.6728 13.0281 64.2814C13.4192 63.89 13.4192 63.2555 13.0281 62.8641L12.0274 61.8626L13.0281 60.8611C13.4192 60.4697 13.4192 59.8352 13.0281 59.4438C12.8323 59.2478 12.5763 59.1501 12.3197 59.1501C12.0632 59.1501 11.8071 59.2478 11.6113 59.4438L10.6105 60.4453L9.60978 59.4438C9.41396 59.2478 9.15794 59.1501 8.90138 59.1501C8.64481 59.1501 8.38879 59.2478 8.19297 59.4438C7.80189 59.8352 7.80189 60.4697 8.19297 60.8611L9.19374 61.8626H9.19483Z" fill="#036FAD"/>
<path d="M129.644 10.3943L128.644 11.3958C128.252 11.7872 128.252 12.4218 128.644 12.8131C129.035 13.2045 129.669 13.2045 130.06 12.8131L131.061 11.8116L132.061 12.8131C132.452 13.2045 133.087 13.2045 133.478 12.8131C133.869 12.4218 133.869 11.7872 133.478 11.3958L132.477 10.3943L133.478 9.39284C133.869 9.00147 133.869 8.36692 133.478 7.97555C133.282 7.77959 133.026 7.68188 132.769 7.68188C132.513 7.68188 132.257 7.77959 132.061 7.97555L131.06 8.97704L130.059 7.97555C129.863 7.77959 129.607 7.68188 129.351 7.68188C129.094 7.68188 128.838 7.77959 128.642 7.97555C128.251 8.36692 128.251 9.00147 128.642 9.39284L129.643 10.3943H129.644Z" fill="#036FAD"/>
<path d="M111.321 152.028C112.934 152.028 114.247 153.341 114.247 154.956C114.247 156.57 112.934 157.883 111.321 157.883C109.708 157.883 108.396 156.57 108.396 154.956C108.396 153.341 109.708 152.028 111.321 152.028ZM111.321 155.879C111.83 155.879 112.244 155.465 112.244 154.956C112.244 154.446 111.83 154.032 111.321 154.032C110.813 154.032 110.399 154.446 110.399 154.956C110.399 155.465 110.813 155.879 111.321 155.879Z" fill="#036FAD"/>
<path d="M166.464 58.73C168.077 58.73 169.39 60.0436 169.39 61.6579C169.39 63.2723 168.077 64.5859 166.464 64.5859C164.851 64.5859 163.538 63.2723 163.538 61.6579C163.538 60.0436 164.851 58.73 166.464 58.73ZM166.464 62.5813C166.973 62.5813 167.387 62.1671 167.387 61.6579C167.387 61.1488 166.973 60.7346 166.464 60.7346C165.955 60.7346 165.541 61.1488 165.541 61.6579C165.541 62.1671 165.955 62.5813 166.464 62.5813Z" fill="#036FAD"/>
<path d="M43.9825 11.7395C45.5956 11.7395 46.9083 13.0531 46.9083 14.6675C46.9083 16.2818 45.5956 17.5954 43.9825 17.5954C42.3693 17.5954 41.0566 16.2818 41.0566 14.6675C41.0566 13.0531 42.3693 11.7395 43.9825 11.7395ZM43.9825 15.5908C44.4913 15.5908 44.9051 15.1766 44.9051 14.6675C44.9051 14.1583 44.4913 13.7441 43.9825 13.7441C43.4737 13.7441 43.0598 14.1583 43.0598 14.6675C43.0598 15.1766 43.4737 15.5908 43.9825 15.5908Z" fill="#036FAD"/>
<path d="M9.89726 103.157C11.5104 103.157 12.8231 104.471 12.8231 106.085C12.8231 107.7 11.5104 109.013 9.89726 109.013C8.2841 109.013 6.97144 107.7 6.97144 106.085C6.97144 104.471 8.2841 103.157 9.89726 103.157ZM9.89726 107.009C10.4061 107.009 10.8199 106.595 10.8199 106.085C10.8199 105.576 10.4061 105.162 9.89726 105.162C9.38847 105.162 8.9746 105.576 8.9746 106.085C8.9746 106.595 9.38847 107.009 9.89726 107.009Z" fill="#036FAD"/>
<path d="M118.861 34.7017V65.2302C118.783 65.2682 118.706 65.3078 118.629 65.348L117.016 64.099L115.619 63.016L114.369 64.2672L110.882 67.7575L109.632 69.0076L110.713 70.4065L111.961 72.0197C111.539 72.8291 111.191 73.6715 110.918 74.5422L108.895 74.8006L107.142 75.0242V83.497L108.895 83.7207L110.918 83.9791C111.191 84.8497 111.539 85.6922 111.961 86.5015L110.713 88.1148L109.632 89.5136L110.882 90.7637L114.369 94.254L115.196 95.0824L114.23 95.8304C112.781 95.0238 111.251 94.3892 109.659 93.9343L109.21 90.4125L108.987 88.6581H98.2936L98.0701 90.4125L97.621 93.9343C96.0295 94.3892 94.4999 95.0238 93.05 95.8304L90.2429 93.6564L88.8457 92.574L81.2832 100.142L82.3648 101.541L84.5372 104.35C83.7312 105.8 83.0971 107.331 82.642 108.924L79.1227 109.373L77.3696 109.597V120.298L79.1227 120.522L82.6425 120.971C82.6441 120.976 82.6458 120.982 82.6474 120.988H53.9761V74.3609H88.3125C89.6408 74.3609 90.9399 74.0016 92.0704 73.322C93.1275 72.6863 94.0138 71.7825 94.6333 70.7088C95.2527 69.6351 95.5918 68.4149 95.6135 67.1805C95.6362 65.8615 95.2978 64.556 94.6333 63.4047L78.0737 34.7017H118.861Z" fill="white"/>
<path d="M47.7219 127.247V73.3574H52.9726V121.992H84.2936L84.5366 122.647C84.8301 123.437 85.1718 124.217 85.5537 124.964L85.8433 125.531L84.5176 127.247H47.7225L47.7219 127.247Z" fill="#DDDDDD"/>
<path d="M125.115 28.4431V62.5331H123.398L122.969 65.8974C122.256 66.0516 121.554 66.2622 120.868 66.532C120.529 66.665 120.194 66.8121 119.864 66.9733V33.6976H76.3326L73.301 28.4431H125.115Z" fill="#DDDDDD"/>
<path d="M41.0155 73.3567C39.8693 73.3567 38.7487 73.0473 37.775 72.461C36.8632 71.9128 36.0984 71.1333 35.5641 70.2067C35.0298 69.2801 34.7375 68.2276 34.7185 67.1632C34.6984 66.026 34.9908 64.9002 35.5641 63.9068L59.2126 22.9166C59.7854 21.9232 60.6137 21.1068 61.608 20.5559C62.5388 20.0396 63.5954 19.7666 64.6645 19.7666C65.7336 19.7666 66.7908 20.0396 67.7211 20.5559C68.7148 21.1074 69.5431 21.9238 70.1164 22.9166L93.7649 63.9068C94.3377 64.9002 94.6301 66.026 94.6105 67.1632C94.5921 68.2276 94.2997 69.2801 93.7649 70.2067C93.2306 71.1333 92.4658 71.9128 91.554 72.461C90.5798 73.0467 89.4591 73.3561 88.313 73.3561H41.016L41.0155 73.3567Z" fill="#036FAD"/>
<g style="mix-blend-mode:multiply">
<path d="M71.7664 62.5391C71.3314 61.448 70.5969 60.5078 69.6395 59.8195C69.6309 59.813 69.6216 59.8065 69.613 59.8C68.7635 59.1953 67.7893 58.8251 66.7631 58.7122C66.5402 58.6878 66.3145 58.6753 66.0872 58.6753C64.8039 58.6753 63.5785 59.0623 62.5441 59.794C61.5737 60.4812 60.8285 61.4268 60.3902 62.5287C60.036 63.4173 59.9085 64.3369 59.9947 65.2282C60.0897 66.2221 60.4498 67.1812 61.0573 68.0231C61.2797 68.3331 61.5363 68.6267 61.8249 68.9003C62.4557 69.4991 63.1836 69.9518 63.9875 70.246C64.6607 70.4919 65.3642 70.6167 66.078 70.6167C66.7918 70.6167 67.4954 70.4919 68.168 70.2454C68.9702 69.9518 69.697 69.4991 70.3284 68.9003C71.2424 68.034 71.8477 66.9592 72.0788 65.7927C72.2931 64.7147 72.1851 63.5894 71.7664 62.5391ZM68.9485 67.4423C68.5059 67.8619 68.0052 68.1664 67.478 68.3597C67.024 68.5258 66.551 68.6083 66.078 68.6083C65.605 68.6083 65.1299 68.5252 64.6769 68.3597C64.537 68.3087 64.3992 68.25 64.2641 68.1827C63.8866 67.9965 63.5292 67.7501 63.2048 67.4423C62.9179 67.1704 62.6852 66.8794 62.5029 66.5765C60.9776 64.0459 62.9515 60.6837 66.0872 60.6837C66.8694 60.6837 67.5838 60.9008 68.1897 61.2667C68.8704 61.6771 69.4128 62.2747 69.7583 62.9635C70.4564 64.3542 70.3496 66.113 68.9485 67.4423Z" fill="#DDDDDD"/>
</g>
<g style="mix-blend-mode:multiply">
<path d="M70.3886 33.0912C70.1766 32.8882 69.9547 32.7025 69.7242 32.5348C69.313 32.2346 68.8726 31.9909 68.4088 31.8064C67.9119 31.6088 67.3869 31.4785 66.8396 31.4161C66.5933 31.3884 66.3422 31.3743 66.0872 31.3743H66.0661C65.2459 31.3743 64.4654 31.5197 63.7445 31.8064C63.0204 32.0946 62.3543 32.5267 61.7647 33.0907C60.5659 34.2387 59.9324 35.7081 59.9324 37.342C59.9324 39.2782 60.4374 42.4352 61.4436 48.7243C61.6909 50.2724 61.9681 52.004 62.2735 53.9413C62.3109 54.1785 62.3489 54.4184 62.3868 54.6622L62.4313 54.9455L62.6532 56.359H69.5002L69.7665 54.6622C70.1169 52.4312 70.432 50.4619 70.7098 48.7243C71.7159 42.4352 72.2209 39.2782 72.2209 37.342C72.2209 35.7081 71.5874 34.2387 70.3886 33.0912ZM64.147 52.9371C62.7182 43.9003 61.9393 39.5192 61.9393 37.342C61.9393 36.2493 62.3434 35.3162 63.1516 34.5427C63.9599 33.7692 64.9313 33.3827 66.0661 33.3827H66.0872C66.9009 33.3827 67.631 33.5814 68.2764 33.9792C68.5314 34.1361 68.7733 34.3239 69.0017 34.5427C69.3336 34.8608 69.5978 35.206 69.7931 35.5778C70.074 36.1103 70.214 36.6982 70.214 37.342C70.214 39.63 69.3532 44.3508 67.7839 54.3506H64.3694C64.3477 54.2133 64.3265 54.077 64.3048 53.9413C64.2517 53.6004 64.1985 53.2655 64.147 52.9371Z" fill="#DDDDDD"/>
</g>
<path d="M64.6652 68.1989C64.069 68.1989 63.4821 68.0947 62.9197 67.889C62.2449 67.642 61.633 67.2615 61.102 66.7577C59.6282 65.3605 59.1715 63.3407 59.9097 61.4865C60.6887 59.5301 62.5595 58.2654 64.6749 58.2654C65.7381 58.2654 66.7562 58.59 67.6186 59.2045C68.4312 59.7826 69.0544 60.5756 69.4217 61.4973C69.7683 62.3669 69.8583 63.2957 69.682 64.1832C69.4911 65.1445 68.9877 66.0347 68.2262 66.7572C67.6946 67.2615 67.0833 67.642 66.4101 67.8884C65.8482 68.0942 65.2613 68.1984 64.6652 68.1984V68.1989Z" fill="white"/>
<path d="M62.0989 53.9412L61.9655 53.0928C61.6151 50.8602 61.2999 48.8903 61.0217 47.1522C60.0236 40.9153 59.5229 37.7848 59.5229 35.9279C59.5229 34.5556 60.035 33.3696 61.0455 32.4028C62.0436 31.448 63.257 30.9644 64.6532 30.9644H64.6743C66.0705 30.9644 67.2845 31.4485 68.282 32.4028C69.2925 33.3696 69.8046 34.5556 69.8046 35.9279C69.8046 37.7848 69.3039 40.9153 68.3058 47.1522C68.0276 48.8903 67.7124 50.8597 67.362 53.0923L67.2291 53.9407H62.0984L62.0989 53.9412Z" fill="white"/>
<path d="M125.983 110.108L123.844 109.835C123.437 108.222 122.839 106.666 122.059 105.193C121.956 104.999 121.849 104.805 121.739 104.613C121.674 104.498 121.606 104.382 121.538 104.268L124.044 101.027L124.663 100.227L118.35 93.9093L115.912 95.7978L114.689 96.7445L114.312 97.0365C112.641 96.0366 110.853 95.2832 108.977 94.7882C108.901 94.7675 108.825 94.748 108.749 94.729L108.412 92.0801L108.156 90.0716L108.103 89.6624H99.1773L98.5313 94.729C96.8352 95.1562 95.2084 95.794 93.6739 96.6332C93.4363 96.7624 93.2009 96.897 92.9682 97.0365L89.7229 94.5233L88.9304 93.9093L82.6177 100.227L83.2312 101.02L85.7426 104.268C85.6032 104.501 85.4687 104.736 85.3391 104.974C84.501 106.509 83.8637 108.137 83.4368 109.834L78.3733 110.481V119.414L78.7823 119.466L80.7892 119.722L83.4368 120.06C83.4558 120.136 83.4759 120.212 83.4959 120.288C83.5578 120.523 83.6239 120.756 83.6939 120.988C83.7959 121.325 83.9065 121.66 84.0248 121.992C84.1967 122.47 84.3855 122.941 84.5911 123.403C84.9274 124.162 85.3136 124.907 85.7426 125.627L85.4508 126.004L85.2669 126.242L84.4902 127.246L84.174 127.656L83.714 128.251L82.621 129.664L82.6177 129.668L83.3148 130.366L88.9304 135.985L89.7305 135.366L92.9682 132.858C93.2725 133.04 93.5812 133.214 93.8931 133.38C95.363 134.16 96.9154 134.758 98.5313 135.166L98.8041 137.307L99.1773 140.233H108.103L108.749 135.166C110.708 134.672 112.574 133.898 114.312 132.858L115.104 133.471L118.35 135.985L118.886 135.449L124.128 130.204L124.663 129.668L123.567 128.251L122.151 126.42L122.014 126.242L121.538 125.627C122.577 123.887 123.351 122.02 123.844 120.06L128.907 119.414V110.481L125.983 110.108ZM103.64 100.952C105.17 100.952 106.643 101.199 108.022 101.655C112.755 103.222 116.376 107.254 117.359 112.224C117.533 113.105 117.625 114.016 117.625 114.948C117.625 117.619 116.871 120.215 115.444 122.457C114.726 123.585 113.85 124.604 112.842 125.487C110.295 127.715 107.028 128.943 103.64 128.943C102.718 128.943 101.805 128.852 100.913 128.674C98.527 128.2 96.2917 127.109 94.4387 125.486C93.4309 124.605 92.556 123.586 91.8367 122.457C91.2157 121.481 90.7215 120.438 90.3619 119.351C89.8954 117.94 89.6551 116.456 89.6551 114.948C89.6551 107.231 95.9288 100.952 103.64 100.952Z" fill="white"/>
<path d="M133.839 72.6956C133.629 72.4405 133.405 72.193 133.166 71.9541C131.149 69.9365 128.506 68.9274 125.864 68.9274C125.277 68.9274 124.691 68.9773 124.112 69.0767C122.988 69.2688 121.89 69.6488 120.868 70.215C120.041 70.6726 119.264 71.2523 118.563 71.9541C114.53 75.9894 114.53 82.532 118.563 86.5673C118.801 86.8056 119.048 87.0298 119.303 87.2404C119.797 87.6486 120.322 88.0041 120.868 88.3065C121.89 88.8726 122.988 89.2526 124.112 89.4448C124.691 89.5441 125.277 89.594 125.864 89.594C128.506 89.594 131.149 88.5849 133.166 86.5673C136.959 82.7708 137.184 76.7548 133.839 72.6956ZM124.28 88.4547C123.251 88.2788 122.266 87.933 121.354 87.4277C120.593 87.007 119.893 86.4783 119.272 85.8573C118.299 84.8835 117.568 83.7327 117.109 82.4772C116.736 81.4605 116.542 80.3759 116.542 79.261C116.542 76.7689 117.512 74.4261 119.272 72.6641C119.893 72.0432 120.593 71.5145 121.354 71.0938C122.266 70.5884 123.251 70.2426 124.281 70.0668C124.803 69.9772 125.335 69.9316 125.864 69.9316C126.978 69.9316 128.062 70.1259 129.078 70.4988C130.333 70.9586 131.483 71.6903 132.456 72.6641C133.877 74.0863 134.743 75.8575 135.052 77.7047C135.535 80.5817 134.669 83.6421 132.456 85.8573C130.695 87.6193 128.354 88.5898 125.864 88.5898C125.353 88.5898 124.839 88.5475 124.334 88.4634C124.316 88.4606 124.298 88.4579 124.28 88.4547ZM133.839 72.6956C133.629 72.4405 133.405 72.193 133.166 71.9541C131.149 69.9365 128.506 68.9274 125.864 68.9274C125.277 68.9274 124.691 68.9773 124.112 69.0767C122.988 69.2688 121.89 69.6488 120.868 70.215C120.041 70.6726 119.264 71.2523 118.563 71.9541C114.53 75.9894 114.53 82.532 118.563 86.5673C118.801 86.8056 119.048 87.0298 119.303 87.2404C119.797 87.6486 120.322 88.0041 120.868 88.3065C121.89 88.8726 122.988 89.2526 124.112 89.4448C124.691 89.5441 125.277 89.594 125.864 89.594C128.506 89.594 131.149 88.5849 133.166 86.5673C136.959 82.7708 137.184 76.7548 133.839 72.6956ZM124.28 88.4547C123.251 88.2788 122.266 87.933 121.354 87.4277C120.593 87.007 119.893 86.4783 119.272 85.8573C118.299 84.8835 117.568 83.7327 117.109 82.4772C116.736 81.4605 116.542 80.3759 116.542 79.261C116.542 76.7689 117.512 74.4261 119.272 72.6641C119.893 72.0432 120.593 71.5145 121.354 71.0938C122.266 70.5884 123.251 70.2426 124.281 70.0668C124.803 69.9772 125.335 69.9316 125.864 69.9316C126.978 69.9316 128.062 70.1259 129.078 70.4988C130.333 70.9586 131.483 71.6903 132.456 72.6641C133.877 74.0863 134.743 75.8575 135.052 77.7047C135.535 80.5817 134.669 83.6421 132.456 85.8573C130.695 87.6193 128.354 88.5898 125.864 88.5898C125.353 88.5898 124.839 88.5475 124.334 88.4634C124.316 88.4606 124.298 88.4579 124.28 88.4547ZM142.148 75.7256L140.03 75.4553C139.793 74.5635 139.473 73.7015 139.073 72.8753C138.918 72.5529 138.751 72.2364 138.571 71.9259L140.143 69.8936L140.762 69.093L136.721 65.0495L136.024 64.352L133.522 66.2893L133.193 66.5444C132.154 65.9435 131.05 65.4756 129.896 65.1472C129.82 65.1255 129.743 65.1049 129.667 65.0843L129.522 63.9465L129.266 61.9381L129.214 61.5288H122.514L122.28 63.3684L122.061 65.0843C121.657 65.1923 121.259 65.3171 120.868 65.4588C120.744 65.5033 120.622 65.5494 120.501 65.5972C120.425 65.6271 120.349 65.6575 120.273 65.689C120.136 65.7454 120 65.804 119.864 65.8648C119.66 65.9566 119.457 66.0532 119.257 66.1541C119.124 66.2215 118.992 66.2904 118.861 66.362C118.751 66.4212 118.643 66.482 118.535 66.5444L116.496 64.9654L115.703 64.352L110.967 69.0924L111.58 69.886L113.157 71.9265C113.02 72.1642 112.89 72.4047 112.767 72.6489C112.315 73.544 111.957 74.4826 111.697 75.4553L108.145 75.9086V82.6129L108.554 82.665L110.561 82.9212L111.697 83.0661C111.718 83.1427 111.739 83.2187 111.76 83.2952C112.088 84.4503 112.557 85.5549 113.157 86.5955L112.902 86.9256L110.967 89.429L111.664 90.1265L115.703 94.1694L116.503 93.5501L118.535 91.977C118.845 92.1561 119.162 92.3239 119.484 92.4797C119.817 92.6409 120.156 92.7891 120.501 92.9242C121.008 93.1234 121.53 93.2955 122.061 93.4372L122.331 95.5558L122.373 95.8891L122.466 96.6072L122.515 96.9926H129.214L129.667 93.4372C130.905 93.1066 132.086 92.6175 133.193 91.977L133.984 92.5893L136.024 94.1694L136.56 93.6337L140.227 89.9642L140.762 89.429L139.183 87.3864L138.571 86.5955C139.211 85.4876 139.7 84.3054 140.03 83.0661L143.583 82.6129V75.9086L142.148 75.7256ZM142.579 81.7286L139.217 82.1575C138.878 83.7343 138.256 85.2629 137.354 86.6628L139.428 89.3438L135.94 92.8341L133.26 90.7595C131.862 91.6622 130.334 92.2837 128.759 92.624L128.33 95.9884H123.398L123.369 95.761L123.106 93.6966L122.969 92.624C122.256 92.4699 121.554 92.2593 120.868 91.9895C120.038 91.6638 119.233 91.254 118.467 90.7595L115.788 92.8341L113.714 90.7573L112.301 89.3438L114.374 86.6628C114.341 86.6124 114.309 86.5613 114.278 86.5108C114.261 86.4859 114.246 86.4614 114.231 86.4365C114.204 86.3931 114.178 86.3502 114.152 86.3067C114.144 86.2932 114.136 86.2796 114.127 86.266C114.093 86.209 114.06 86.1515 114.027 86.094C114.022 86.0858 114.017 86.0771 114.012 86.069C113.979 86.012 113.947 85.9545 113.915 85.8969C113.798 85.6869 113.687 85.4741 113.583 85.2597C113.555 85.2027 113.527 85.1451 113.501 85.0881C113.469 85.0208 113.438 84.953 113.408 84.8851C113.373 84.8086 113.339 84.7315 113.306 84.6539C113.281 84.5947 113.256 84.5355 113.231 84.4764C113.204 84.4112 113.178 84.3461 113.153 84.281C113.135 84.2375 113.118 84.1941 113.102 84.1501C113.089 84.117 113.077 84.0834 113.064 84.0497C113.058 84.0334 113.052 84.0171 113.046 84.0003C113.03 83.9558 113.013 83.9113 112.998 83.8668C112.994 83.857 112.99 83.8467 112.987 83.8369C112.969 83.7881 112.952 83.7387 112.936 83.6893C112.906 83.6046 112.878 83.5194 112.851 83.4342C112.85 83.4304 112.848 83.426 112.847 83.4222C112.832 83.375 112.817 83.3278 112.803 83.28C112.792 83.2463 112.782 83.2127 112.772 83.179C112.761 83.1421 112.75 83.1052 112.74 83.0678C112.734 83.0482 112.728 83.0287 112.723 83.0091C112.712 82.9722 112.702 82.9359 112.692 82.8989C112.674 82.8311 112.655 82.7632 112.638 82.6954C112.63 82.6634 112.622 82.6319 112.613 82.5999C112.601 82.551 112.589 82.5016 112.578 82.4527C112.554 82.3545 112.532 82.2563 112.51 82.1575L110.561 81.9088L109.148 81.7286V76.7928L112.51 76.364C112.851 74.7871 113.472 73.2585 114.374 71.8586L112.301 69.1776L115.788 65.6873L118.467 67.762C118.597 67.6784 118.728 67.597 118.861 67.5177C119.189 67.3212 119.524 67.1399 119.864 66.9733C120.194 66.812 120.529 66.6649 120.868 66.5319C121.554 66.2622 122.256 66.0516 122.969 65.8974L123.398 62.533H128.33L128.51 63.9465L128.759 65.8974C128.812 65.9088 128.866 65.9207 128.919 65.9332C128.964 65.9435 129.009 65.9538 129.053 65.9647C129.103 65.9761 129.151 65.9886 129.2 66.0005C129.25 66.013 129.298 66.0255 129.347 66.0385C129.396 66.051 129.445 66.064 129.493 66.0776C129.528 66.0868 129.562 66.0966 129.596 66.1064C129.627 66.1151 129.657 66.1238 129.688 66.1324C129.752 66.1509 129.816 66.1704 129.88 66.19C129.928 66.2046 129.975 66.2193 130.023 66.2345C130.026 66.2356 130.03 66.2372 130.034 66.2383C130.048 66.2426 130.062 66.247 130.075 66.2513C130.132 66.2698 130.188 66.2882 130.244 66.3072C130.309 66.3289 130.373 66.3512 130.437 66.374C130.447 66.3772 130.457 66.381 130.467 66.3848C130.528 66.4066 130.589 66.4288 130.65 66.4511C130.654 66.4527 130.658 66.4543 130.662 66.456C130.718 66.4766 130.773 66.4983 130.829 66.5195C130.858 66.5309 130.887 66.5428 130.916 66.5542C131.049 66.6069 131.181 66.6617 131.312 66.7192C131.369 66.7436 131.427 66.7692 131.484 66.7952C131.562 66.83 131.64 66.8663 131.718 66.9032C131.77 66.9277 131.822 66.9532 131.873 66.9781C131.887 66.9847 131.9 66.9912 131.914 66.9982C131.971 67.0265 132.029 67.0552 132.086 67.0845C132.089 67.0862 132.092 67.0878 132.096 67.09C132.158 67.122 132.22 67.154 132.282 67.1871C132.284 67.1882 132.287 67.1898 132.289 67.1909C132.333 67.2143 132.377 67.2382 132.421 67.262C132.434 67.2691 132.447 67.2767 132.461 67.2843C132.498 67.3049 132.536 67.3261 132.574 67.3473C132.586 67.3538 132.599 67.3614 132.611 67.3684C132.651 67.3912 132.691 67.414 132.73 67.4368C132.788 67.4705 132.846 67.5052 132.904 67.54C132.948 67.566 132.991 67.5926 133.034 67.6192C133.059 67.6344 133.083 67.6496 133.108 67.6659C133.159 67.6974 133.21 67.7294 133.26 67.762L135.94 65.6873L137.352 67.1008L139.428 69.1776L137.354 71.8586C138.256 73.2585 138.878 74.7871 139.217 76.364L140.289 76.5008L142.579 76.7928V81.7286ZM133.166 71.9541C131.149 69.9365 128.506 68.9274 125.864 68.9274C125.277 68.9274 124.691 68.9773 124.112 69.0767C122.988 69.2688 121.89 69.6488 120.868 70.215C120.041 70.6726 119.264 71.2523 118.563 71.9541C114.53 75.9894 114.53 82.532 118.563 86.5673C118.801 86.8056 119.048 87.0298 119.303 87.2404C119.797 87.6486 120.322 88.0041 120.868 88.3065C121.89 88.8726 122.988 89.2526 124.112 89.4448C124.691 89.5441 125.277 89.594 125.864 89.594C128.506 89.594 131.149 88.5849 133.166 86.5673C136.959 82.7708 137.184 76.7548 133.839 72.6956C133.629 72.4405 133.405 72.193 133.166 71.9541ZM135.052 77.7047C135.535 80.5817 134.669 83.6421 132.456 85.8573C130.695 87.6193 128.354 88.5898 125.864 88.5898C125.353 88.5898 124.839 88.5475 124.334 88.4634C124.316 88.4606 124.298 88.4579 124.28 88.4547C123.251 88.2788 122.266 87.933 121.354 87.4277C120.593 87.007 119.893 86.4783 119.272 85.8573C118.299 84.8835 117.568 83.7327 117.109 82.4772C116.736 81.4605 116.542 80.3759 116.542 79.261C116.542 76.7689 117.512 74.4261 119.272 72.6641C119.893 72.0432 120.593 71.5145 121.354 71.0938C122.266 70.5884 123.251 70.2426 124.281 70.0668C124.803 69.9772 125.335 69.9316 125.864 69.9316C126.978 69.9316 128.062 70.1259 129.078 70.4988C130.333 70.9586 131.483 71.6903 132.456 72.6641C133.877 74.0863 134.743 75.8575 135.052 77.7047ZM133.839 72.6956C133.629 72.4405 133.405 72.193 133.166 71.9541C131.149 69.9365 128.506 68.9274 125.864 68.9274C125.277 68.9274 124.691 68.9773 124.112 69.0767C122.988 69.2688 121.89 69.6488 120.868 70.215C120.041 70.6726 119.264 71.2523 118.563 71.9541C114.53 75.9894 114.53 82.532 118.563 86.5673C118.801 86.8056 119.048 87.0298 119.303 87.2404C119.797 87.6486 120.322 88.0041 120.868 88.3065C121.89 88.8726 122.988 89.2526 124.112 89.4448C124.691 89.5441 125.277 89.594 125.864 89.594C128.506 89.594 131.149 88.5849 133.166 86.5673C136.959 82.7708 137.184 76.7548 133.839 72.6956ZM124.28 88.4547C123.251 88.2788 122.266 87.933 121.354 87.4277C120.593 87.007 119.893 86.4783 119.272 85.8573C118.299 84.8835 117.568 83.7327 117.109 82.4772C116.736 81.4605 116.542 80.3759 116.542 79.261C116.542 76.7689 117.512 74.4261 119.272 72.6641C119.893 72.0432 120.593 71.5145 121.354 71.0938C122.266 70.5884 123.251 70.2426 124.281 70.0668C124.803 69.9772 125.335 69.9316 125.864 69.9316C126.978 69.9316 128.062 70.1259 129.078 70.4988C130.333 70.9586 131.483 71.6903 132.456 72.6641C133.877 74.0863 134.743 75.8575 135.052 77.7047C135.535 80.5817 134.669 83.6421 132.456 85.8573C130.695 87.6193 128.354 88.5898 125.864 88.5898C125.353 88.5898 124.839 88.5475 124.334 88.4634C124.316 88.4606 124.298 88.4579 124.28 88.4547ZM133.839 72.6956C133.629 72.4405 133.405 72.193 133.166 71.9541C131.149 69.9365 128.506 68.9274 125.864 68.9274C125.277 68.9274 124.691 68.9773 124.112 69.0767C122.988 69.2688 121.89 69.6488 120.868 70.215C120.041 70.6726 119.264 71.2523 118.563 71.9541C114.53 75.9894 114.53 82.532 118.563 86.5673C118.801 86.8056 119.048 87.0298 119.303 87.2404C119.797 87.6486 120.322 88.0041 120.868 88.3065C121.89 88.8726 122.988 89.2526 124.112 89.4448C124.691 89.5441 125.277 89.594 125.864 89.594C128.506 89.594 131.149 88.5849 133.166 86.5673C136.959 82.7708 137.184 76.7548 133.839 72.6956ZM124.28 88.4547C123.251 88.2788 122.266 87.933 121.354 87.4277C120.593 87.007 119.893 86.4783 119.272 85.8573C118.299 84.8835 117.568 83.7327 117.109 82.4772C116.736 81.4605 116.542 80.3759 116.542 79.261C116.542 76.7689 117.512 74.4261 119.272 72.6641C119.893 72.0432 120.593 71.5145 121.354 71.0938C122.266 70.5884 123.251 70.2426 124.281 70.0668C124.803 69.9772 125.335 69.9316 125.864 69.9316C126.978 69.9316 128.062 70.1259 129.078 70.4988C130.333 70.9586 131.483 71.6903 132.456 72.6641C133.877 74.0863 134.743 75.8575 135.052 77.7047C135.535 80.5817 134.669 83.6421 132.456 85.8573C130.695 87.6193 128.354 88.5898 125.864 88.5898C125.353 88.5898 124.839 88.5475 124.334 88.4634C124.316 88.4606 124.298 88.4579 124.28 88.4547Z" fill="white"/>
<path d="M140.289 76.5007L139.217 76.3639C138.877 74.787 138.256 73.2585 137.354 71.8585L139.428 69.1776L137.352 67.1008L135.94 65.6873L133.26 67.7619C133.21 67.7293 133.159 67.6973 133.108 67.6658C133.083 67.6495 133.059 67.6343 133.034 67.6191C132.991 67.5925 132.948 67.566 132.904 67.5399C132.846 67.5052 132.788 67.4704 132.73 67.4368C132.691 67.414 132.651 67.3912 132.611 67.3684C132.599 67.3613 132.586 67.3537 132.573 67.3472C132.536 67.326 132.498 67.3049 132.461 67.2842C132.447 67.2766 132.434 67.269 132.421 67.262C132.377 67.2381 132.333 67.2142 132.289 67.1909C132.287 67.1898 132.284 67.1882 132.282 67.1871C132.22 67.1545 132.158 67.1219 132.096 67.0899C132.092 67.0877 132.089 67.0861 132.086 67.0845C132.028 67.0552 131.971 67.0264 131.914 66.9982C131.9 66.9911 131.887 66.9846 131.873 66.9781C131.821 66.9526 131.77 66.9276 131.718 66.9032C131.64 66.8663 131.562 66.8299 131.484 66.7952C131.427 66.7691 131.369 66.7436 131.312 66.7192C131.181 66.6616 131.049 66.6068 130.916 66.5541C130.887 66.5427 130.858 66.5308 130.828 66.5194C130.773 66.4977 130.717 66.4765 130.662 66.4559C130.658 66.4543 130.654 66.4526 130.649 66.451C130.589 66.4282 130.528 66.406 130.467 66.3848C130.457 66.381 130.447 66.3772 130.437 66.3739C130.373 66.3511 130.309 66.3289 130.244 66.3072C130.188 66.2882 130.131 66.2697 130.075 66.2513C130.062 66.2469 130.048 66.2426 130.034 66.2382C130.03 66.2371 130.026 66.2355 130.022 66.2344C129.975 66.2192 129.928 66.2046 129.88 66.1899C129.816 66.1704 129.752 66.1508 129.688 66.1324C129.657 66.1237 129.627 66.115 129.596 66.1063C129.562 66.0965 129.528 66.0868 129.493 66.0776C129.445 66.064 129.396 66.0509 129.347 66.0385C129.298 66.0254 129.25 66.013 129.2 66.0005C129.151 65.9885 129.103 65.976 129.053 65.9646C129.009 65.9538 128.964 65.9435 128.919 65.9332C128.866 65.9207 128.812 65.9087 128.759 65.8973L128.51 63.9465L128.33 62.533H123.398L122.969 65.8973C122.256 66.0515 121.554 66.2621 120.867 66.5319C120.529 66.6649 120.194 66.812 119.864 66.9732C119.524 67.1398 119.189 67.3211 118.86 67.5176C118.728 67.5969 118.597 67.6783 118.467 67.7619L115.788 65.6873L112.301 69.1776L114.374 71.8585C113.472 73.2585 112.85 74.787 112.51 76.3639L109.148 76.7927V81.7286L110.561 81.9088L112.51 82.1574C112.532 82.2562 112.554 82.3544 112.578 82.4527C112.589 82.5015 112.601 82.5509 112.613 82.5998C112.622 82.6318 112.63 82.6633 112.638 82.6953C112.655 82.7632 112.674 82.831 112.692 82.8989C112.702 82.9358 112.712 82.9722 112.723 83.0091C112.728 83.0286 112.734 83.0482 112.74 83.0677C112.75 83.1052 112.761 83.1421 112.772 83.179C112.782 83.2126 112.792 83.2463 112.803 83.2799C112.817 83.3272 112.832 83.3749 112.847 83.4222C112.848 83.426 112.85 83.4303 112.851 83.4341C112.878 83.5193 112.906 83.6045 112.936 83.6892C112.952 83.7386 112.969 83.788 112.987 83.8369C112.99 83.8466 112.994 83.857 112.997 83.8667C113.013 83.9112 113.029 83.9557 113.046 84.0003C113.052 84.0171 113.058 84.0334 113.064 84.0497C113.077 84.0833 113.089 84.117 113.102 84.1501C113.118 84.194 113.135 84.2375 113.153 84.2809C113.178 84.346 113.204 84.4112 113.231 84.4758C113.256 84.5355 113.281 84.5946 113.306 84.6538C113.339 84.7314 113.373 84.8085 113.408 84.885C113.438 84.9529 113.469 85.0208 113.501 85.0881C113.528 85.1456 113.555 85.2026 113.583 85.2596C113.687 85.474 113.798 85.6868 113.915 85.8969C113.947 85.9544 113.979 86.0119 114.012 86.0689C114.017 86.0771 114.022 86.0858 114.026 86.0939C114.06 86.1514 114.093 86.209 114.127 86.266C114.135 86.2795 114.144 86.2931 114.152 86.3067C114.178 86.3501 114.204 86.3935 114.231 86.4364C114.246 86.4614 114.261 86.4858 114.278 86.5108C114.309 86.5613 114.341 86.6123 114.374 86.6628L112.301 89.3437L113.713 90.7572L115.788 92.834L118.467 90.7594C119.233 91.2539 120.038 91.6637 120.867 91.9894C121.554 92.2592 122.256 92.4698 122.969 92.624L123.105 93.6966L123.369 95.7609L123.398 95.9884H128.33L128.759 92.624C130.334 92.2836 131.862 91.6621 133.26 90.7594L135.94 92.834L139.428 89.3437L137.354 86.6628C138.256 85.2628 138.877 83.7343 139.217 82.1574L142.579 81.7286V76.7927L140.289 76.5007ZM118.563 86.5672C114.53 82.5319 114.53 75.9894 118.563 71.9541C119.264 71.2522 120.041 70.6725 120.867 70.2149C121.89 69.6487 122.988 69.2688 124.112 69.0766C124.691 68.9773 125.277 68.9273 125.864 68.9273C128.506 68.9273 131.149 69.9364 133.166 71.9541C133.404 72.1929 133.629 72.4404 133.839 72.6956C137.184 76.7547 136.959 82.7708 133.166 86.5672C131.149 88.5849 128.506 89.594 125.864 89.594C125.277 89.594 124.691 89.544 124.112 89.4447C122.988 89.2526 121.89 88.8726 120.867 88.3064C120.322 88.0041 119.797 87.6485 119.303 87.2403C119.048 87.0297 118.801 86.8055 118.563 86.5672Z" fill="white"/>
<path d="M116.621 114.948C116.621 117.427 115.921 119.838 114.598 121.917C113.931 122.964 113.117 123.911 112.181 124.73C109.818 126.799 106.785 127.938 103.64 127.938C100.495 127.938 97.4626 126.799 95.0993 124.73C94.163 123.912 93.3505 122.965 92.6828 121.917C91.3587 119.838 90.6584 117.427 90.6584 114.948C90.6584 107.784 96.4819 101.956 103.64 101.956C110.797 101.956 116.621 107.784 116.621 114.948Z" fill="#036FAD"/>
<path d="M134.183 79.261C134.183 81.4843 133.318 83.5747 131.746 85.1473C130.175 86.7193 128.086 87.5856 125.864 87.5856C125.392 87.5856 124.917 87.5449 124.45 87.4651C123.531 87.3077 122.653 86.9999 121.84 86.5494C121.161 86.1737 120.536 85.702 119.982 85.1473C118.41 83.5747 117.545 81.4843 117.545 79.261C117.545 77.0376 118.41 74.9467 119.982 73.3747C120.536 72.8194 121.161 72.3477 121.84 71.972C122.653 71.5215 123.531 71.2137 124.45 71.0563C124.917 70.9765 125.392 70.9358 125.864 70.9358C128.086 70.9358 130.175 71.8021 131.746 73.3747C133.318 74.9467 134.183 77.037 134.183 79.261Z" fill="#036FAD"/>
<g style="mix-blend-mode:multiply">
<path d="M114.92 105.071C112.993 103.382 110.63 102.18 108.022 101.655C107.062 101.463 106.069 101.361 105.052 101.361C96.7748 101.361 90.064 108.077 90.064 116.361C90.064 117.385 90.1665 118.385 90.3618 119.351C90.7311 121.18 91.4336 122.888 92.4029 124.41C92.813 125.054 93.2708 125.665 93.7725 126.237C94.2129 126.741 94.6865 127.215 95.1904 127.656C97.826 129.963 101.276 131.36 105.052 131.36C108.828 131.36 112.279 129.963 114.915 127.656C115.991 126.714 116.931 125.621 117.703 124.41C119.183 122.084 120.041 119.323 120.041 116.361C120.041 111.859 118.059 107.82 114.92 105.071ZM113.594 126.144C111.23 128.213 108.197 129.352 105.052 129.352C103.633 129.352 102.235 129.12 100.912 128.674C99.3052 128.133 97.8076 127.278 96.5117 126.144C96.0398 125.731 95.5988 125.286 95.1931 124.811H95.1926C94.7933 124.345 94.4261 123.851 94.0952 123.33C92.7712 121.251 92.0709 118.841 92.0709 116.361C92.0709 109.198 97.8944 103.37 105.052 103.37C108.273 103.37 111.222 104.548 113.493 106.498C115.252 108.008 116.604 109.98 117.359 112.224C117.797 113.524 118.034 114.915 118.034 116.361C118.034 118.841 117.334 121.251 116.01 123.33C115.343 124.378 114.53 125.324 113.594 126.144Z" fill="#DDDDDD"/>
</g>
<g style="mix-blend-mode:multiply">
<path d="M134.578 73.3676C134.34 73.1293 134.093 72.9056 133.839 72.6956C132.43 71.5318 130.785 70.7995 129.078 70.4988C128.482 70.3935 127.879 70.3408 127.276 70.3408C126.673 70.3408 126.103 70.3908 125.524 70.4901C124.4 70.6823 123.302 71.0622 122.28 71.6284C121.454 72.086 120.677 72.6657 119.975 73.3676C117.498 75.8455 116.543 79.2696 117.108 82.4771C117.409 84.1843 118.141 85.8306 119.303 87.2403C119.513 87.4954 119.737 87.7424 119.975 87.9807C120.677 88.6826 121.454 89.2623 122.28 89.7199C123.302 90.2861 124.4 90.666 125.524 90.8582C126.103 90.9575 126.69 91.0075 127.276 91.0075C129.919 91.0075 132.562 89.9984 134.578 87.9807C138.61 83.9454 138.61 77.4029 134.578 73.3676ZM127.276 88.999C126.805 88.999 126.329 88.9583 125.863 88.8785C125.338 88.789 124.827 88.65 124.334 88.4633C123.963 88.3232 123.601 88.1561 123.252 87.9628C122.573 87.5872 121.948 87.1155 121.394 86.5607C121.155 86.3219 120.933 86.0711 120.727 85.8095C119.58 84.3498 118.958 82.5602 118.958 80.6744C118.958 78.4505 119.823 76.3601 121.394 74.7881C121.948 74.2328 122.573 73.7611 123.252 73.3855C124.066 72.9349 124.944 72.6272 125.862 72.4698C126.329 72.39 126.805 72.3492 127.276 72.3492C129.162 72.3492 130.952 72.9729 132.41 74.1226C132.671 74.3278 132.921 74.5498 133.159 74.7881C134.001 75.6311 134.641 76.6228 135.052 77.7047C135.409 78.6405 135.595 79.6425 135.595 80.6744C135.595 82.8978 134.73 84.9882 133.159 86.5607C131.587 88.1327 129.498 88.999 127.276 88.999Z" fill="#DDDDDD"/>
</g>
<g style="mix-blend-mode:multiply">
<path d="M110.918 83.9792L108.895 83.7208L108.554 83.6774V84.9107L110.307 85.1343L111.388 85.2722C111.212 84.8488 111.056 84.4178 110.918 83.9792ZM110.918 83.9792L108.895 83.7208L108.554 83.6774V84.9107L110.307 85.1343L111.388 85.2722C111.212 84.8488 111.056 84.4178 110.918 83.9792ZM108.155 90.0718H99.7061L99.4827 91.8261L99.0335 95.348C97.4421 95.8028 95.9124 96.4374 94.4626 97.244L93.6739 96.6333L91.6555 95.07L90.2582 93.9876L82.6958 101.556L83.7774 102.954L85.339 104.974L85.9498 105.764C85.1438 107.214 84.5097 108.745 84.0546 110.337L80.5353 110.787L78.7822 111.01V120.988H82.6475C82.7441 121.325 82.8493 121.66 82.9627 121.992H84.0247C83.9065 121.66 83.7958 121.326 83.6939 120.988C83.6239 120.756 83.5577 120.523 83.4959 120.288L80.7892 119.943V112.779L85.6672 112.156C86.1765 109.793 87.1068 107.586 88.3755 105.619L85.3645 101.725L90.4275 96.6583L94.3183 99.6715C96.2846 98.4024 98.4895 97.4715 100.851 96.9617L101.473 92.0802H108.411L108.155 90.0718ZM119.864 34.1069V36.1153H120.273V64.6088C120.47 64.5339 120.667 64.4628 120.868 64.396V34.1069H119.864ZM120.273 64.6088V65.689C120.349 65.6575 120.425 65.6271 120.501 65.5973C120.622 65.5495 120.745 65.5034 120.868 65.4589V64.396C120.667 64.4628 120.47 64.5339 120.273 64.6088ZM118.429 65.5126L117.031 64.4297L116.496 64.9654L118.535 66.5445C118.643 66.4821 118.751 66.4213 118.861 66.3621C118.992 66.2904 119.124 66.2215 119.257 66.1542L118.861 65.847L118.429 65.5126ZM111.045 70.4213L112.126 71.8201L112.767 72.649C112.89 72.4047 113.02 72.1643 113.157 71.9265L111.58 69.8861L111.045 70.4213ZM108.895 83.7208L108.554 83.6774V84.9107L110.307 85.1343L111.388 85.2722C111.212 84.8488 111.056 84.4178 110.918 83.9792L108.895 83.7208ZM82.6475 120.988H78.7822V121.711L80.5353 121.936L80.978 121.992L83.0543 122.257C83.0234 122.169 82.9925 122.081 82.9627 121.992C82.8493 121.66 82.7441 121.325 82.6475 120.988ZM120.273 64.6088V66.6438C120.196 66.6818 120.119 66.7214 120.042 66.7616L119.864 66.6243L119.257 66.1542L118.861 65.847L118.429 65.5126L117.031 64.4297L116.496 64.9654L115.781 65.6809L112.294 69.1712L111.045 70.4213L112.126 71.8201L112.767 72.649L113.374 73.4334C112.952 74.2427 112.604 75.0852 112.33 75.9558L110.307 76.2142L108.554 76.4379V83.6774L108.895 83.7208L110.918 83.9792C111.056 84.4178 111.212 84.8488 111.388 85.2722L112.33 85.3927C112.494 85.9143 112.685 86.4257 112.902 86.9256C113.048 87.2605 113.205 87.5906 113.374 87.9152L112.126 89.5284L111.664 90.1266L115.703 94.1695L116.503 93.5501L115.788 92.8342L113.714 90.7573L115.786 88.0764C114.884 86.6764 114.263 85.1479 113.923 83.571L112.851 83.4342L111.76 83.2953L110.561 83.1422V81.9089L109.149 81.7287V76.7929L112.511 76.364C112.851 74.7872 113.472 73.2586 114.374 71.8587L112.301 69.1777L115.788 65.6874L118.467 67.762C118.597 67.6784 118.728 67.597 118.861 67.5177C119.189 67.3213 119.524 67.14 119.864 66.9733C120.194 66.8121 120.529 66.665 120.868 66.532V64.396C120.667 64.4628 120.47 64.5339 120.273 64.6088ZM144.586 76.2576L144.245 76.2142L143.583 76.1295L142.223 75.9558C142.198 75.8788 142.174 75.8022 142.148 75.7257C142.03 75.3663 141.897 75.0119 141.753 74.6628C141.58 74.2454 141.389 73.8351 141.18 73.4334L142.427 71.8201L143.509 70.4213L142.259 69.1706L138.771 65.6803L137.522 64.4302L136.722 65.0496L136.124 65.5126L134.512 66.7611C134.187 66.5917 133.858 66.4343 133.522 66.2894C133.023 66.0717 132.512 65.8812 131.992 65.7172L131.872 64.7744L131.734 63.6931L131.511 61.9381H127.531V28.8519H75.2955L75.0596 28.4431L74.4803 27.4384L72.3974 23.8281C71.906 22.9764 71.2518 22.236 70.4772 21.6503C70.2055 21.444 69.9191 21.2573 69.6196 21.0912C68.832 20.6542 67.9663 20.3676 67.0746 20.245C66.7448 20.1994 66.4112 20.176 66.0765 20.176C64.8377 20.176 63.6129 20.4925 62.5334 21.0912C61.3803 21.7307 60.4202 22.6773 59.7557 23.8281L56.2777 29.8566L54.4053 33.1027L51.6438 37.8892L48.4001 43.5117L36.1072 64.8183C35.4433 65.9696 35.1043 67.2751 35.1276 68.5947C35.1325 68.8824 35.1547 69.1695 35.1943 69.4545C35.3223 70.3903 35.632 71.299 36.1072 72.1225C36.2602 72.3874 36.4289 72.6419 36.6133 72.8846C37.1741 73.6255 37.8739 74.2568 38.6707 74.7356C39.8006 75.4152 41.1002 75.7745 42.428 75.7745H48.1311V128.251H82.4452L82.3649 128.354L81.3522 129.664H83.8577L83.7774 129.768L83.3147 130.366L82.6958 131.167L90.2582 138.735L91.6555 137.652L94.4626 135.478C95.5181 136.065 96.6154 136.561 97.7486 136.962C98.0973 137.087 98.4494 137.201 98.8041 137.307C98.8806 137.33 98.9571 137.352 99.0335 137.374L99.398 140.233L99.4827 140.896L99.5261 141.237L99.7061 142.651H110.399L110.623 140.896L111.072 137.374C112.664 136.919 114.193 136.284 115.643 135.478L118.45 137.652L119.847 138.734L121.097 137.484L127.41 131.167L126.328 129.768L125.155 128.251L124.156 126.958C124.288 126.722 124.415 126.483 124.536 126.242C125.164 125.007 125.67 123.718 126.051 122.385L129.57 121.936L131.323 121.712V111.01L129.91 110.83L129.57 110.787L128.907 110.702L126.05 110.338C126.029 110.261 126.006 110.185 125.983 110.108C125.878 109.753 125.763 109.401 125.638 109.052C125.237 107.919 124.742 106.82 124.156 105.764L126.328 102.954L127.41 101.556L125.997 100.142L125.266 99.4104H131.511L131.734 97.6555L131.992 95.6313C132.862 95.3577 133.704 95.0092 134.512 94.5875L136.124 95.8359L137.522 96.9183L138.771 95.6682L142.259 92.1779L143.509 90.9272L142.427 89.5284L141.18 87.9152C141.601 87.1064 141.949 86.2634 142.223 85.3927L144.245 85.1343L145.999 84.9107V76.4379L144.586 76.2576ZM129.743 63.9466L129.896 65.1473L130.035 66.2383L130.171 67.3109C131.747 67.6513 133.274 68.2728 134.673 69.1755L137.352 67.1009L139.428 69.1777L140.143 69.8937L140.84 70.5912L139.073 72.8754L138.766 73.2721C139.423 74.2905 139.931 75.3772 140.29 76.5008C140.424 76.922 140.537 77.3482 140.63 77.7775L142.579 78.0261L143.583 78.1542L143.992 78.2064V83.1422L140.63 83.571C140.345 84.8922 139.863 86.1798 139.183 87.3865C139.052 87.6193 138.913 87.8495 138.766 88.0764L140.227 89.9643L140.84 90.7573L137.352 94.2477L136.56 93.6337L134.673 92.173C134.447 92.319 134.217 92.458 133.984 92.5894C132.779 93.2695 131.492 93.7526 130.171 94.0376L129.743 97.402H124.811L124.781 97.1745L124.758 96.9927L124.63 95.9885L124.381 94.0376C123.952 93.9448 123.526 93.8313 123.106 93.6967C122.828 93.6082 122.552 93.51 122.28 93.403C121.451 93.0773 120.646 92.6675 119.88 92.173L119.484 92.4797L118.839 92.9785L117.2 94.2477L115.788 92.8342L113.714 90.7573L115.786 88.0764C114.884 86.6764 114.263 85.1479 113.923 83.571L112.851 83.4342L111.76 83.2953L110.561 83.1422V78.2064L113.923 77.7775C114.263 76.2006 114.884 74.6721 115.786 73.2721L113.714 70.5912L117.2 67.1009L119.88 69.1755C120.01 69.0919 120.141 69.0105 120.273 68.9312C120.601 68.7347 120.937 68.5534 121.277 68.3868C121.606 68.2256 121.942 68.0785 122.28 67.9455C122.966 67.6757 123.669 67.4651 124.381 67.3109L124.811 63.9466H129.743ZM99.7061 90.0718L99.4827 91.8261L99.0335 95.348C97.4421 95.8028 95.9124 96.4374 94.4626 97.244L93.6739 96.6333L91.6555 95.07L90.2582 93.9876L82.6958 101.556L83.7774 102.954L85.339 104.974L85.9498 105.764C85.1438 107.214 84.5097 108.745 84.0546 110.337L80.5353 110.787L78.7822 111.01V121.711L80.5353 121.936L80.978 121.992L83.0543 122.257L84.0551 122.385C84.0567 122.39 84.0584 122.396 84.06 122.401H55.3887V75.7745H89.725C91.0534 75.7745 92.3525 75.4152 93.4829 74.7356C94.5401 74.0999 95.4264 73.1962 96.0459 72.1225C96.6653 71.0488 97.0043 69.8285 97.026 68.5942C97.0488 67.2751 96.7104 65.9696 96.0459 64.8183L79.4863 36.1153H120.273V66.6438C120.196 66.6818 120.119 66.7214 120.042 66.7616L119.864 66.6243L119.257 66.1542L118.861 65.847L118.429 65.5126L117.031 64.4297L116.496 64.9654L115.781 65.6809L112.294 69.1712L111.045 70.4213L112.126 71.8201L112.767 72.649L113.374 73.4334C112.952 74.2427 112.604 75.0852 112.33 75.9558L110.307 76.2142L108.554 76.4379V84.9107L110.307 85.1343L111.388 85.2722L112.33 85.3927C112.494 85.9143 112.685 86.4257 112.902 86.9256C113.048 87.2605 113.205 87.5906 113.374 87.9152L112.126 89.5284L111.664 90.1266L111.045 90.9272L112.294 92.1774L114.369 94.2542L115.197 95.082L115.619 95.5054L115.781 95.6677L115.912 95.7979L116.609 96.496L115.643 97.244C115.329 97.0692 115.011 96.902 114.689 96.7446C113.527 96.1709 112.319 95.704 111.072 95.348L110.944 94.3459L110.623 91.8261L110.43 90.3117L110.399 90.0718H99.7061ZM39.704 73.0143C39.0482 72.6197 38.4825 72.0828 38.0512 71.4472C37.9786 71.3403 37.9102 71.2306 37.8451 71.1183C37.3955 70.3388 37.1497 69.454 37.134 68.5594C37.1172 67.6046 37.3635 66.6579 37.8451 65.8225L50.138 44.5159L53.3817 38.8934L56.1432 34.1069L58.0162 30.8608L61.4942 24.8323C61.9758 23.9969 62.6718 23.3108 63.5066 22.8478C64.2887 22.4141 65.1772 22.1844 66.0765 22.1844C66.9759 22.1844 67.8649 22.4141 68.6465 22.8478C68.7816 22.9227 68.9129 23.0036 69.0403 23.0899C69.701 23.5366 70.2554 24.1321 70.6595 24.8323L72.1631 27.4384L72.9783 28.8519H72.9751L74.7135 31.865L76.3506 34.7018L76.5865 35.1111L77.1658 36.1153H77.1691L94.308 65.8225C94.4051 65.9908 94.4929 66.164 94.57 66.3404C94.8786 67.0401 95.0326 67.7973 95.0191 68.5594C95.0033 69.454 94.7576 70.3388 94.308 71.1183C93.8583 71.8977 93.2155 72.5535 92.4491 73.0143C91.6311 73.5061 90.6895 73.7661 89.725 73.7661H42.428C41.6838 73.7661 40.9532 73.6114 40.2822 73.3145C40.0837 73.2266 39.8906 73.1267 39.704 73.0143ZM122.466 96.6073L121.306 95.4473L121.097 95.2383L120.829 94.9696C120.974 95.0353 121.121 95.0993 121.27 95.1601C121.362 95.1987 121.455 95.2361 121.547 95.2725C121.805 95.374 122.066 95.4684 122.331 95.5558C122.408 95.5819 122.485 95.6063 122.562 95.6308L122.718 96.8602L122.466 96.6073ZM124.112 29.4468V30.8603H125.524V61.9381H123.043L122.82 63.6925L122.562 65.7178C122.467 65.7476 122.373 65.778 122.28 65.8095V60.5247H121.631L121.407 62.279L121.149 64.3043C121.055 64.3341 120.961 64.3645 120.868 64.396V34.1069H78.3277L78.0917 33.6976L77.7484 33.1027L77.5124 32.6934H76.9152L76.3359 31.6892L75.0422 29.4468H124.112ZM50.138 127.656V126.242H48.7256V74.3616H51.9692V75.7751H53.3817V122.996H83.3321C83.4406 123.27 83.5545 123.542 83.6738 123.811C83.7628 124.011 83.855 124.211 83.951 124.41H84.7445C84.853 124.684 84.9669 124.955 85.0863 125.224C85.2023 125.486 85.3238 125.746 85.4508 126.004C85.454 126.011 85.4578 126.018 85.4611 126.025C85.4969 126.097 85.5332 126.17 85.5701 126.242C85.6916 126.483 85.8185 126.722 85.9498 126.958L85.4106 127.656H50.138ZM129.316 112.779V119.943L125.524 120.427L124.438 120.566C124.002 122.59 123.256 124.499 122.255 126.242C122.22 126.302 122.186 126.361 122.151 126.42C122.015 126.651 121.875 126.879 121.73 127.104L122.158 127.656L122.617 128.251L124.128 130.204L124.741 130.997L119.678 136.064L118.886 135.45L115.787 133.05C115.563 133.195 115.335 133.336 115.104 133.472C113.316 134.527 111.347 135.309 109.254 135.761L108.632 140.642H101.473L101.421 140.233L101.293 139.229L100.851 135.761C100.422 135.668 99.9969 135.561 99.5781 135.441C97.6949 134.901 95.9266 134.089 94.3183 133.05L93.893 133.38L90.4275 136.064L85.3645 130.997L86.3951 129.664H86.4222L87.0249 128.885L87.66 128.063L88.439 127.055L87.8597 125.92C87.4957 125.208 87.1697 124.465 86.8898 123.711L86.4043 122.401H86.1575C85.965 121.802 85.8017 121.189 85.6672 120.566L84.5748 120.426L83.4959 120.288L80.7892 119.943V112.779L85.6672 112.156C86.1765 109.793 87.1068 107.586 88.3755 105.619L85.3645 101.725L90.4275 96.6583L94.3183 99.6715C96.2846 98.4024 98.4895 97.4715 100.851 96.9617L101.473 92.0802H108.632L108.977 94.7883L109.115 95.868L109.254 96.9617C111.616 97.4715 113.821 98.4024 115.787 99.6715L119.678 96.6583L122.28 99.2627L123.329 100.311L124.044 101.027L124.741 101.725L122.28 104.907L122.059 105.194L121.73 105.619C121.922 105.915 122.105 106.217 122.28 106.524C123.057 107.884 123.678 109.346 124.119 110.883C124.239 111.302 124.345 111.726 124.438 112.156L125.524 112.295L127.903 112.599L128.907 112.727L129.316 112.779ZM110.918 83.9792L108.895 83.7208L108.554 83.6774V84.9107L110.307 85.1343L111.388 85.2722C111.212 84.8488 111.056 84.4178 110.918 83.9792ZM110.918 83.9792L108.895 83.7208L108.554 83.6774V84.9107L110.307 85.1343L111.388 85.2722C111.212 84.8488 111.056 84.4178 110.918 83.9792Z" fill="#DDDDDD"/>
</g>
<path d="M86.4471 124.506C86.0831 123.795 85.7571 123.052 85.4773 122.297L84.9918 120.988H53.9761V72.353H46.7185V128.251H85.0097L85.6123 127.471L86.2475 126.649L87.0264 125.641L86.4471 124.506ZM51.9691 122.996H83.5956C83.773 123.474 83.9661 123.945 84.1749 124.41C84.3279 124.75 84.4895 125.087 84.6598 125.42L84.0246 126.242H48.7255V74.3614H51.9691V122.996Z" fill="#333333"/>
<path d="M71.5625 27.4382L73.301 30.4514L75.1739 33.6974L75.7533 34.7017H118.861V67.5176C119.189 67.3211 119.524 67.1398 119.864 66.9732C120.194 66.812 120.529 66.6649 120.868 66.5319V32.6932H76.9119L75.0389 29.4467H124.112V62.5329H126.119V27.4382H71.5625ZM76.9151 32.6932L77.4944 33.6974H119.864V64.7721C119.954 64.7341 120.044 64.6977 120.134 64.6624C120.18 64.6445 120.226 64.6266 120.273 64.6087C120.469 64.5338 120.667 64.4627 120.868 64.3959V32.6932H76.9151Z" fill="#333333"/>
<path d="M94.6333 63.4048L78.0737 34.7017L76.3358 31.6891L75.0421 29.4467L74.4628 28.443L73.8829 27.4383L70.9848 22.4145C70.8313 22.1485 70.662 21.8934 70.4771 21.6502C69.8663 20.8425 69.0934 20.1694 68.2071 19.6776C67.1282 19.0789 65.9028 18.7625 64.6639 18.7625C63.4251 18.7625 62.2003 19.0789 61.1208 19.6776C59.9677 20.3171 59.0076 21.2637 58.3431 22.4145L54.8651 28.443L52.9927 31.6891L50.2312 36.4756L46.9875 42.0981L34.6946 63.4048C34.0307 64.5561 33.6917 65.8615 33.715 67.1811C33.7367 68.4155 34.0752 69.6352 34.6946 70.7089C35.1833 71.5562 35.8386 72.2977 36.6132 72.8845C36.8198 73.0419 37.0352 73.1879 37.2581 73.322C38.388 74.0016 39.6876 74.361 41.0154 74.361H88.3124C89.6408 74.361 90.9399 74.0016 92.0703 73.322C93.1275 72.6864 94.0138 71.7826 94.6333 70.7089C95.2527 69.6352 95.5917 68.4149 95.6134 67.1806C95.6362 65.8615 95.2978 64.5561 94.6333 63.4048ZM38.2914 71.6007C38.21 71.5519 38.1298 71.5003 38.0511 71.4471C37.3904 70.9987 36.8345 70.4011 36.4325 69.7047C35.9829 68.9252 35.7371 68.0404 35.7214 67.1458C35.7046 66.191 35.9509 65.2444 36.4325 64.409L48.7254 43.1023L51.9691 37.4798L54.7306 32.6933L56.6036 29.4472L60.0816 23.4187C60.5632 22.5833 61.2592 21.8972 62.094 21.4342C62.8761 21.0005 63.7646 20.7709 64.6639 20.7709C65.5633 20.7709 66.4523 21.0005 67.2339 21.4342C67.9564 21.8348 68.5748 22.4026 69.0402 23.0898C69.1129 23.1967 69.1818 23.3064 69.2469 23.4187L71.5657 27.4383L72.7249 29.4472L74.5979 32.6933L75.7565 34.7017L92.8954 64.409C93.3776 65.2444 93.6233 66.191 93.6065 67.1458C93.5908 68.0404 93.345 68.9252 92.8954 69.7047C92.4457 70.4842 91.8029 71.1399 91.0365 71.6007C90.2185 72.0925 89.2769 72.3525 88.3124 72.3525H41.0154C40.0516 72.3525 39.1099 72.0925 38.2914 71.6007Z" fill="#333333"/>
<path d="M70.3538 61.1255C70.1689 60.6597 69.9286 60.2222 69.6395 59.8195C69.2451 59.2691 68.7602 58.7849 68.2004 58.3864C67.1666 57.6504 65.9472 57.2617 64.6747 57.2617C63.4022 57.2617 62.166 57.6482 61.1316 58.3805C60.1607 59.0677 59.4159 60.0133 58.9771 61.1146C58.0837 63.3586 58.6332 65.8002 60.4118 67.4867C60.6168 67.6811 60.8322 67.8602 61.0573 68.0231C61.5243 68.3629 62.032 68.6337 62.575 68.8324C63.2481 69.0783 63.9516 69.2031 64.6655 69.2031C65.3793 69.2031 66.0823 69.0783 66.7554 68.8319C67.5577 68.5376 68.2845 68.0855 68.9159 67.4867C69.8299 66.6199 70.4347 65.5456 70.6663 64.3791C70.88 63.3005 70.7721 62.1758 70.3538 61.1255ZM62.5028 66.5764C62.2533 66.4228 62.0152 66.2399 61.7923 66.0287C59.1094 63.4851 61.1636 59.2701 64.6747 59.2701C66.2125 59.2701 67.4904 60.1093 68.1896 61.2666C69.0526 62.6948 69.0341 64.6071 67.5354 66.0287C67.0934 66.4478 66.5927 66.7529 66.0655 66.9456C65.6115 67.1122 65.1385 67.1947 64.6655 67.1947C64.1925 67.1947 63.7173 67.1117 63.2639 66.9456C63.0019 66.85 62.7469 66.7268 62.5028 66.5764Z" fill="#333333"/>
<path d="M69.7243 32.5348C69.5068 32.233 69.2573 31.9464 68.9763 31.6777C68.3861 31.1131 67.72 30.6811 66.9964 30.3928C66.2756 30.1057 65.4945 29.9602 64.6749 29.9602H64.6537C63.8336 29.9602 63.0525 30.1057 62.3322 30.3928C61.608 30.6811 60.9419 31.1131 60.3523 31.6771C59.1536 32.8246 58.52 34.2946 58.52 35.9285C58.52 37.8647 59.025 41.0217 60.0312 47.3108C60.3089 49.0483 60.6241 51.0177 60.9745 53.2487L61.2408 54.9455H68.0878L68.3541 53.2487C68.704 51.0177 69.0191 49.0483 69.2974 47.3108C70.3036 41.0217 70.8086 37.8647 70.8086 35.9285C70.8086 34.6773 70.437 33.5222 69.7243 32.5348ZM62.957 52.9371C61.3873 42.9373 60.527 38.2164 60.527 35.9285C60.527 34.8358 60.9311 33.9027 61.7393 33.1292C62.5475 32.3557 63.519 31.9686 64.6537 31.9686C64.657 31.9686 64.6608 31.9692 64.664 31.9692C64.6678 31.9692 64.6711 31.9686 64.6749 31.9686C65.8096 31.9686 66.7806 32.3557 67.5893 33.1292C67.8659 33.3941 68.0948 33.6774 68.2766 33.9792C68.627 34.56 68.8016 35.2098 68.8016 35.9285C68.8016 38.2164 67.9408 42.9373 66.3716 52.9371H62.957Z" fill="#333333"/>
<path d="M114.921 105.071C112.173 101.931 108.138 99.9478 103.64 99.9478C95.3625 99.9478 88.6516 106.663 88.6516 114.948C88.6516 117.91 89.5092 120.671 90.9905 122.996C91.7608 124.206 92.6986 125.297 93.7726 126.237C93.7742 126.239 93.7764 126.241 93.778 126.242C94.6687 127.022 95.6527 127.698 96.7104 128.251C98.783 129.334 101.14 129.947 103.64 129.947C106.139 129.947 108.498 129.334 110.57 128.251C111.628 127.698 112.612 127.022 113.503 126.242C114.578 125.301 115.519 124.208 116.29 122.996C117.77 120.671 118.629 117.91 118.629 114.948C118.629 111.165 117.229 107.709 114.921 105.071ZM100.718 127.605C100.663 127.593 100.609 127.58 100.555 127.567C100.523 127.559 100.491 127.551 100.46 127.543C100.41 127.531 100.361 127.518 100.312 127.505C100.251 127.489 100.19 127.472 100.129 127.455C99.9801 127.413 99.8315 127.369 99.6839 127.321C99.6264 127.303 99.5684 127.284 99.5114 127.264C99.4491 127.244 99.3867 127.222 99.3248 127.2C99.1898 127.153 99.0558 127.103 98.9224 127.051C98.8578 127.026 98.7927 127 98.7287 126.973C98.6886 126.957 98.649 126.941 98.6094 126.924C98.5649 126.906 98.521 126.887 98.477 126.868C98.4326 126.849 98.3886 126.829 98.3447 126.809C98.2812 126.781 98.2178 126.752 98.1543 126.722C98.15 126.721 98.1462 126.719 98.1424 126.717C98.0832 126.689 98.0247 126.661 97.9661 126.633C97.9238 126.613 97.882 126.592 97.8402 126.57C97.8104 126.556 97.7811 126.541 97.7513 126.526C97.7469 126.523 97.7421 126.521 97.7377 126.519C97.6894 126.494 97.6412 126.469 97.5929 126.444C97.5327 126.412 97.473 126.38 97.4134 126.347C97.4106 126.346 97.4085 126.344 97.4058 126.343C97.3504 126.312 97.2951 126.281 97.2398 126.25C97.1134 126.179 96.9881 126.106 96.8644 126.029C96.8265 126.006 96.7885 125.982 96.7511 125.959C96.6192 125.876 96.4896 125.792 96.3611 125.704C96.3008 125.664 96.2406 125.622 96.1815 125.581C96.0248 125.47 95.8702 125.356 95.7177 125.239C95.6798 125.21 95.6418 125.18 95.6044 125.15C95.5767 125.129 95.5496 125.107 95.5225 125.085C95.4937 125.062 95.465 125.039 95.4362 125.015C95.3543 124.949 95.2735 124.881 95.1932 124.811H95.1927C95.1612 124.785 95.1303 124.758 95.0994 124.731C94.1632 123.912 93.3506 122.965 92.6829 121.917C91.3588 119.838 90.6586 117.428 90.6586 114.948C90.6586 107.784 96.482 101.956 103.64 101.956C107.577 101.956 111.111 103.72 113.493 106.498C115.442 108.772 116.622 111.725 116.622 114.948C116.622 117.428 115.921 119.838 114.598 121.917C113.931 122.964 113.118 123.911 112.181 124.731C112.071 124.828 111.958 124.923 111.844 125.015C111.816 125.039 111.787 125.062 111.758 125.085C111.731 125.107 111.704 125.129 111.676 125.15C111.639 125.18 111.601 125.21 111.563 125.239C111.411 125.356 111.256 125.47 111.099 125.581C111.04 125.622 110.98 125.664 110.92 125.704C110.791 125.792 110.661 125.876 110.53 125.959C110.492 125.982 110.454 126.006 110.416 126.029C110.292 126.106 110.167 126.179 110.041 126.25C109.986 126.281 109.93 126.312 109.875 126.343C109.872 126.344 109.87 126.346 109.867 126.347C109.808 126.38 109.748 126.412 109.688 126.444C109.64 126.469 109.591 126.494 109.543 126.519C109.539 126.521 109.534 126.523 109.529 126.526C109.5 126.541 109.47 126.556 109.44 126.57C109.399 126.592 109.356 126.613 109.315 126.633C109.256 126.661 109.197 126.689 109.138 126.717C109.135 126.719 109.131 126.721 109.126 126.722C109.063 126.752 108.999 126.781 108.936 126.809C108.892 126.829 108.848 126.849 108.804 126.868C108.76 126.887 108.716 126.906 108.671 126.924C108.632 126.941 108.592 126.957 108.552 126.973C108.488 127 108.423 127.026 108.358 127.051C108.225 127.103 108.091 127.153 107.956 127.2C107.894 127.222 107.832 127.244 107.769 127.264C107.712 127.284 107.654 127.303 107.597 127.321C107.449 127.369 107.301 127.413 107.151 127.455C107.091 127.472 107.03 127.489 106.969 127.505C106.92 127.518 106.87 127.531 106.821 127.543C106.79 127.551 106.758 127.559 106.726 127.567C106.672 127.58 106.618 127.593 106.563 127.605C106.499 127.62 106.435 127.635 106.371 127.648C106.294 127.665 106.218 127.681 106.141 127.695C106.084 127.707 106.026 127.718 105.969 127.728C105.96 127.73 105.951 127.732 105.941 127.733C105.877 127.745 105.813 127.756 105.749 127.767C105.744 127.767 105.741 127.768 105.737 127.768C105.671 127.779 105.604 127.789 105.538 127.799C105.537 127.799 105.535 127.799 105.533 127.799C105.473 127.808 105.413 127.816 105.353 127.825C105.334 127.827 105.315 127.83 105.296 127.832C105.236 127.84 105.176 127.847 105.116 127.854C105.048 127.862 104.981 127.869 104.913 127.876C104.867 127.88 104.82 127.884 104.774 127.888C104.739 127.891 104.703 127.895 104.668 127.897H104.667C104.607 127.902 104.547 127.907 104.488 127.91H104.485C104.42 127.915 104.355 127.919 104.29 127.922C104.212 127.926 104.134 127.929 104.056 127.931C104.001 127.933 103.946 127.935 103.89 127.935C103.858 127.936 103.826 127.937 103.794 127.937C103.742 127.938 103.691 127.938 103.64 127.938C103.588 127.938 103.537 127.938 103.486 127.937C103.454 127.937 103.422 127.937 103.39 127.935C103.334 127.935 103.279 127.933 103.223 127.931C103.146 127.929 103.069 127.926 102.993 127.922C102.926 127.919 102.86 127.915 102.794 127.91C102.733 127.907 102.673 127.902 102.613 127.897H102.612C102.577 127.895 102.541 127.891 102.506 127.888C102.46 127.884 102.413 127.88 102.367 127.876C102.299 127.869 102.232 127.862 102.164 127.854C102.104 127.847 102.044 127.84 101.984 127.832C101.965 127.83 101.946 127.827 101.927 127.825C101.867 127.816 101.807 127.808 101.747 127.799C101.745 127.799 101.744 127.799 101.742 127.799C101.675 127.789 101.607 127.778 101.54 127.768C101.471 127.756 101.402 127.744 101.333 127.732C101.326 127.731 101.319 127.73 101.311 127.728C101.256 127.718 101.201 127.707 101.146 127.697C101.067 127.681 100.988 127.665 100.909 127.648C100.845 127.635 100.781 127.62 100.718 127.605Z" fill="#333333"/>
<path d="M84.5746 120.426C84.4537 120.007 84.3473 119.582 84.2546 119.152L80.7891 118.71V119.943L83.4957 120.288C83.5576 120.523 83.6238 120.756 83.6937 120.988H84.7449C84.6853 120.802 84.6283 120.614 84.5746 120.426ZM128.157 109.373L125.638 109.052L124.638 108.924C124.183 107.334 123.549 105.802 122.743 104.35L124.916 101.541L125.997 100.142L125.266 99.4103L124.747 98.8914L123.854 97.9968L123.671 97.8144L122.851 96.9926L122.465 96.6072L121.306 95.4472L121.097 95.2382L120.828 94.9695H120.828L119.684 93.8247L119.415 93.5555L118.839 92.9785L118.435 92.5741L117.037 93.6565L116.796 93.8432L115.197 95.0819H115.196L114.23 95.8304C114.148 95.7848 114.066 95.7392 113.983 95.6947C113.965 95.685 113.948 95.6757 113.93 95.6665C113.849 95.6231 113.768 95.5797 113.686 95.5379C113.685 95.5368 113.683 95.5362 113.682 95.5357C113.59 95.4879 113.499 95.4407 113.407 95.3951C113.326 95.3544 113.245 95.3148 113.165 95.2757C113.136 95.2616 113.108 95.248 113.079 95.2344C113.027 95.2089 112.974 95.1834 112.92 95.159C112.818 95.1101 112.715 95.0629 112.612 95.0162C112.549 94.988 112.487 94.9603 112.424 94.9326C112.417 94.9294 112.41 94.9261 112.402 94.9234C112.336 94.8941 112.27 94.8653 112.203 94.8371C112.108 94.7964 112.014 94.7567 111.918 94.7177C111.855 94.6911 111.791 94.6655 111.726 94.64C111.713 94.6346 111.7 94.6292 111.686 94.6243C111.608 94.5934 111.531 94.563 111.453 94.5336C111.439 94.5277 111.424 94.5222 111.41 94.5168C111.325 94.4842 111.241 94.4528 111.156 94.4218C111.085 94.3963 111.015 94.3708 110.944 94.3458C110.891 94.3268 110.838 94.3084 110.785 94.2899C110.779 94.2878 110.773 94.2856 110.767 94.2834C110.704 94.2617 110.642 94.2405 110.579 94.2199C110.558 94.2128 110.537 94.2052 110.515 94.1982C110.428 94.1694 110.341 94.1412 110.253 94.1135C110.171 94.0875 110.09 94.0619 110.008 94.0375C110 94.0348 109.991 94.0321 109.983 94.0299C109.952 94.0201 109.921 94.0109 109.891 94.0022C109.814 93.9789 109.736 93.9566 109.659 93.9344L109.21 90.4126L109.167 90.0717L108.987 88.6582H98.2935L98.0701 90.4126L97.621 93.9344C96.0295 94.3893 94.4999 95.0238 93.05 95.8304L90.2429 93.6565L88.8456 92.5741L81.2832 100.142L82.3648 101.541L84.5372 104.35C83.7312 105.8 83.0971 107.331 82.642 108.924L79.1227 109.373L77.3696 109.597V120.298L78.7821 120.479L79.1227 120.522L82.6425 120.971C82.6441 120.976 82.6458 120.982 82.6474 120.988C82.7439 121.325 82.8492 121.66 82.9625 121.992C82.9924 122.08 83.0233 122.169 83.0542 122.257C83.071 122.305 83.0884 122.354 83.1063 122.401C83.1784 122.601 83.2533 122.799 83.3319 122.996C83.4404 123.27 83.5543 123.542 83.6737 123.81C83.7626 124.011 83.8548 124.211 83.9508 124.41C84.1342 124.793 84.33 125.172 84.5372 125.545L83.998 126.242L83.2213 127.246L82.905 127.656L82.4451 128.251L82.3648 128.354L81.3521 129.664L81.2832 129.753L88.8456 137.321L90.2429 136.238L93.05 134.064C94.4999 134.871 96.0295 135.505 97.621 135.961L97.7484 136.962L98.0701 139.483L98.2935 141.237H108.987L109.21 139.483L109.659 135.961C111.251 135.505 112.781 134.871 114.23 134.064L117.037 136.238L118.435 137.321L119.684 136.07L124.747 131.004L125.997 129.753L124.916 128.354L124.835 128.251L123.282 126.242L122.743 125.545C123.55 124.094 124.183 122.564 124.638 120.971L128.157 120.522L129.91 120.298V109.597L128.157 109.373ZM114.375 131.637C112.408 132.906 110.204 133.837 107.842 134.347L107.22 139.229H100.061L99.578 135.441L99.4386 134.347C97.0769 133.837 94.872 132.906 92.9057 131.637L89.0149 134.65L85.3644 130.997L83.9519 129.583L84.9825 128.251L86.5355 126.242L86.9629 125.69C86.4118 124.836 85.9242 123.935 85.5081 122.996C85.2185 122.345 84.963 121.674 84.7449 120.988C84.6853 120.802 84.6283 120.614 84.5746 120.426C84.4537 120.007 84.3473 119.582 84.2546 119.152L80.7891 118.71L79.3766 118.529V111.365L84.2546 110.743C84.7639 108.379 85.6942 106.173 86.9629 104.205L83.9519 100.311L89.0149 95.2447L92.9057 98.2579C94.872 96.9888 97.0769 96.0579 99.4386 95.5482L100.061 90.6666H107.22L107.4 92.0801L107.842 95.5482C108.271 95.641 108.696 95.7479 109.115 95.8679C110.998 96.408 112.766 97.2195 114.375 98.2579L118.266 95.2447L119.678 96.6582L122.28 99.2627L123.328 100.311L120.868 103.493L120.318 104.205C120.509 104.501 120.692 104.804 120.868 105.11C121.856 106.841 122.593 108.736 123.025 110.743L124.112 110.882L124.119 110.883L127.903 111.365V118.529L124.112 119.013L123.025 119.152C122.516 121.515 121.586 123.722 120.318 125.69L120.745 126.242L122.298 128.251L123.328 129.583L118.266 134.65L114.375 131.637Z" fill="#333333"/>
<path d="M133.839 72.6957C133.629 72.4406 133.405 72.1931 133.166 71.9542C131.149 69.9366 128.506 68.9275 125.864 68.9275C125.277 68.9275 124.691 68.9774 124.112 69.0768C122.988 69.2689 121.89 69.6489 120.868 70.215C120.041 70.6726 119.264 71.2524 118.563 71.9542C114.53 75.9895 114.53 82.5321 118.563 86.5674C118.801 86.8057 119.048 87.0299 119.303 87.2405C119.797 87.6487 120.322 88.0042 120.868 88.3066C121.89 88.8727 122.988 89.2527 124.112 89.4449C124.691 89.5442 125.277 89.5941 125.864 89.5941C128.506 89.5941 131.149 88.585 133.166 86.5674C136.959 82.7709 137.184 76.7549 133.839 72.6957ZM121.84 86.5495C121.45 86.334 121.078 86.0865 120.727 85.8096C120.467 85.6044 120.218 85.3835 119.982 85.1474C118.41 83.5748 117.545 81.4845 117.545 79.2611C117.545 77.0377 118.41 74.9468 119.982 73.3748C120.536 72.8195 121.161 72.3478 121.84 71.9721C122.653 71.5216 123.531 71.2138 124.45 71.0564C124.917 70.9766 125.392 70.9359 125.864 70.9359C128.086 70.9359 130.175 71.8022 131.746 73.3748C131.984 73.6125 132.206 73.8622 132.41 74.1228C133.56 75.5824 134.183 77.3737 134.183 79.2611C134.183 81.4845 133.318 83.5748 131.746 85.1474C130.175 86.7194 128.086 87.5857 125.864 87.5857C125.392 87.5857 124.917 87.545 124.45 87.4652C123.531 87.3078 122.653 87 121.84 86.5495Z" fill="#333333"/>
<path d="M121.631 60.5247L121.407 62.279L121.149 64.3043C121.055 64.3341 120.961 64.3645 120.868 64.396V66.532C121.554 66.2622 122.256 66.0516 122.969 65.8975L123.398 62.5331H124.112V60.5247H121.631ZM121.631 60.5247L121.407 62.279L121.149 64.3043C121.055 64.3341 120.961 64.3645 120.868 64.396V66.532C121.554 66.2622 122.256 66.0516 122.969 65.8975L123.398 62.5331H124.112V60.5247H121.631ZM142.833 74.8007L141.752 74.6629L140.81 74.5423C140.537 73.6717 140.188 72.8287 139.767 72.0199L141.015 70.4066L142.096 69.0078L138.771 65.6803L137.522 64.4302L137.359 64.2668L136.109 63.0167L134.711 64.0991L133.099 65.3476C132.698 65.1386 132.289 64.947 131.872 64.7744C131.449 64.5985 131.017 64.4416 130.579 64.3037L130.321 62.2796L130.278 61.9382L130.098 60.5247H121.631L121.407 62.279L121.149 64.3043C121.055 64.3341 120.961 64.3645 120.868 64.396C120.667 64.4628 120.469 64.5339 120.273 64.6088C120.226 64.6267 120.18 64.6446 120.134 64.6625C120.044 64.6978 119.954 64.7342 119.864 64.7722C119.525 64.9122 119.19 65.0653 118.861 65.2303C118.783 65.2683 118.706 65.308 118.629 65.3481L117.016 64.0991L115.619 63.0162L114.369 64.2674L110.882 67.7577L109.632 69.0078L110.713 70.4066L111.961 72.0199C111.54 72.8292 111.191 73.6717 110.918 74.5423L108.895 74.8007L107.142 75.0244V83.4972L108.554 83.6774L108.895 83.7208L110.918 83.9792C111.056 84.4178 111.212 84.8488 111.388 85.2722C111.411 85.3292 111.435 85.3856 111.459 85.4421C111.479 85.4893 111.5 85.5366 111.521 85.5838C111.566 85.6858 111.612 85.7873 111.659 85.8883C111.755 86.0946 111.856 86.2992 111.961 86.5017L110.713 88.1149L109.632 89.5138L112.294 92.1774L114.369 94.2542L115.196 95.0825L115.619 95.5054L117.016 94.4225L118.628 93.1734C118.887 93.308 119.149 93.4356 119.415 93.5556C119.652 93.6631 119.892 93.764 120.134 93.859C120.467 93.9898 120.805 94.1092 121.149 94.2173L121.269 95.1601L121.305 95.4467L121.377 96.0151L121.407 96.2441L121.514 97.0757L121.632 97.9969H130.097L130.321 96.242L130.579 94.2178C131.449 93.9442 132.291 93.5957 133.099 93.174L134.711 94.4225L136.109 95.5048L137.358 94.2547L140.846 90.7644L142.096 89.5138L141.014 88.1149L139.767 86.5017C140.188 85.6929 140.536 84.8499 140.81 83.9792L142.832 83.7208L144.586 83.4972V75.0244L142.832 74.8007H142.833ZM133.26 90.7595C131.862 91.6622 130.334 92.2838 128.759 92.6241L128.33 95.9885H123.398L123.369 95.761L123.106 93.6967L122.969 92.6241C122.256 92.4699 121.554 92.2593 120.868 91.9896C120.038 91.6639 119.233 91.254 118.467 90.7595L115.788 92.8342L113.714 90.7574L112.301 89.3439L114.374 86.6629C114.341 86.6124 114.309 86.5614 114.278 86.5109C114.261 86.4859 114.246 86.4615 114.231 86.4365C114.204 86.3937 114.178 86.3502 114.152 86.3068C114.144 86.2932 114.136 86.2797 114.127 86.2661C114.093 86.2091 114.06 86.1516 114.027 86.094C114.022 86.0859 114.017 86.0772 114.012 86.069C113.979 86.0121 113.947 85.9545 113.915 85.897C113.798 85.6869 113.688 85.4741 113.583 85.2597C113.555 85.2027 113.528 85.1457 113.501 85.0882C113.469 85.0209 113.438 84.953 113.408 84.8852C113.373 84.8086 113.339 84.7316 113.306 84.6539C113.281 84.5948 113.256 84.5356 113.231 84.4764C113.204 84.4113 113.178 84.3462 113.153 84.281C113.135 84.2376 113.119 84.1942 113.102 84.1502C113.089 84.1165 113.077 84.0834 113.064 84.0498C113.058 84.0335 113.052 84.0172 113.046 84.0004C113.03 83.9559 113.013 83.9114 112.998 83.8668C112.994 83.8571 112.99 83.8468 112.987 83.837C112.969 83.7881 112.953 83.7387 112.936 83.6893C112.906 83.6047 112.878 83.5194 112.851 83.4342C112.85 83.4304 112.848 83.4261 112.847 83.4223C112.832 83.3751 112.818 83.3273 112.803 83.2801C112.793 83.2464 112.782 83.2128 112.772 83.1791C112.761 83.1422 112.75 83.1047 112.74 83.0678C112.734 83.0483 112.729 83.0287 112.723 83.0092C112.712 82.9728 112.703 82.9359 112.692 82.899C112.674 82.8312 112.655 82.7633 112.638 82.6954C112.63 82.6634 112.622 82.6319 112.614 82.5999C112.601 82.5511 112.589 82.5017 112.578 82.4528C112.554 82.3546 112.532 82.2563 112.51 82.1575L110.561 81.9089L109.149 81.7287V76.7929L112.51 76.364C112.851 74.7872 113.472 73.2586 114.374 71.8587L112.301 69.1777L115.788 65.6874L118.467 67.762C118.597 67.6784 118.728 67.597 118.861 67.5178C119.189 67.3213 119.524 67.14 119.864 66.9733C120.194 66.8121 120.529 66.665 120.868 66.532C121.554 66.2622 122.256 66.0516 122.969 65.8975L123.398 62.5331H128.33L128.51 63.9466L128.759 65.8975C128.812 65.9089 128.866 65.9208 128.919 65.9333C128.964 65.9436 129.009 65.9539 129.053 65.9648C129.103 65.9762 129.151 65.9881 129.2 66.0006C129.25 66.0131 129.298 66.0256 129.347 66.0386C129.396 66.0511 129.444 66.0641 129.493 66.0777C129.528 66.0869 129.562 66.0967 129.596 66.1064C129.627 66.1151 129.658 66.1238 129.688 66.1325C129.752 66.151 129.816 66.1705 129.88 66.19C129.928 66.2047 129.975 66.2193 130.023 66.2345C130.026 66.2356 130.03 66.2373 130.035 66.2383C130.048 66.2427 130.062 66.247 130.075 66.2514C130.132 66.2698 130.188 66.2883 130.244 66.3073C130.309 66.329 130.373 66.3512 130.437 66.374C130.447 66.3773 130.457 66.3811 130.467 66.3849C130.528 66.4061 130.589 66.4283 130.65 66.4511C130.654 66.4528 130.658 66.4544 130.662 66.456C130.717 66.4766 130.773 66.4978 130.829 66.5195C130.858 66.5309 130.887 66.5423 130.916 66.5543C131.049 66.6069 131.181 66.6617 131.312 66.7193C131.369 66.7437 131.427 66.7692 131.484 66.7953C131.562 66.83 131.64 66.8664 131.718 66.9033C131.77 66.9277 131.821 66.9527 131.873 66.9782C131.887 66.9847 131.9 66.9912 131.914 66.9983C131.972 67.0265 132.028 67.0553 132.086 67.0846C132.089 67.0862 132.092 67.0878 132.096 67.09C132.158 67.122 132.22 67.1546 132.282 67.1872C132.284 67.1883 132.287 67.1899 132.289 67.191C132.333 67.2143 132.377 67.2382 132.421 67.2621C132.434 67.2692 132.447 67.2768 132.461 67.2844C132.498 67.305 132.536 67.3256 132.574 67.3473C132.586 67.3538 132.599 67.3614 132.612 67.3685C132.651 67.3913 132.691 67.4135 132.73 67.4369C132.788 67.4705 132.846 67.5053 132.904 67.54C132.948 67.5661 132.991 67.5927 133.034 67.6193C133.059 67.6345 133.083 67.6502 133.108 67.666C133.159 67.6974 133.21 67.7295 133.26 67.762L135.94 65.6874L137.352 67.1009L139.428 69.1777L137.354 71.8587C138.257 73.2586 138.878 74.7872 139.217 76.364L140.29 76.5008L142.579 76.7929V81.7287L139.217 82.1575C138.878 83.7344 138.257 85.263 137.354 86.6629L139.428 89.3439L135.94 92.8342L133.26 90.7595ZM121.631 60.5247L121.407 62.279L121.149 64.3043C121.055 64.3341 120.961 64.3645 120.868 64.396V66.532C121.554 66.2622 122.256 66.0516 122.969 65.8975L123.398 62.5331H124.112V60.5247H121.631ZM121.631 60.5247L121.407 62.279L121.149 64.3043C121.055 64.3341 120.961 64.3645 120.868 64.396V66.532C121.554 66.2622 122.256 66.0516 122.969 65.8975L123.398 62.5331H124.112V60.5247H121.631Z" fill="#333333"/>
<path d="M86.5354 126.242L84.9825 128.251H22.3138C21.76 128.251 21.3103 127.801 21.3103 127.246C21.3103 126.692 21.76 126.242 22.3138 126.242H86.5354Z" fill="#333333"/>
<path d="M156.989 127.246C156.989 127.801 156.54 128.251 155.986 128.251H122.298L120.745 126.242H155.986C156.54 126.242 156.989 126.692 156.989 127.246Z" fill="#333333"/>
<path d="M18.174 128.25H13.6036C13.0492 128.25 12.6001 127.801 12.6001 127.246C12.6001 126.691 13.0492 126.242 13.6036 126.242H18.174C18.7284 126.242 19.1775 126.691 19.1775 127.246C19.1775 127.801 18.7284 128.25 18.174 128.25Z" fill="#333333"/>
<path d="M40.6799 123.329H36.1094C35.5551 123.329 35.106 122.88 35.106 122.325C35.106 121.77 35.5551 121.321 36.1094 121.321H40.6799C41.2342 121.321 41.6834 121.77 41.6834 122.325C41.6834 122.88 41.2342 123.329 40.6799 123.329Z" fill="#333333"/>
<path d="M31.9697 123.329H27.3992C26.8449 123.329 26.3958 122.88 26.3958 122.325C26.3958 121.77 26.8449 121.321 27.3992 121.321H31.9697C32.524 121.321 32.9732 121.77 32.9732 122.325C32.9732 122.88 32.524 123.329 31.9697 123.329Z" fill="#333333"/>
<path d="M142.19 123.329H137.62C137.065 123.329 136.616 122.88 136.616 122.325C136.616 121.77 137.065 121.321 137.62 121.321H142.19C142.744 121.321 143.194 121.77 143.194 122.325C143.194 122.88 142.744 123.329 142.19 123.329Z" fill="#333333"/>
<path d="M150.9 123.329H146.33C145.776 123.329 145.327 122.88 145.327 122.325C145.327 121.77 145.776 121.321 146.33 121.321H150.9C151.455 121.321 151.904 121.77 151.904 122.325C151.904 122.88 151.455 123.329 150.9 123.329Z" fill="#333333"/>
<path d="M164.696 128.25H160.126C159.572 128.25 159.123 127.801 159.123 127.246C159.123 126.691 159.572 126.242 160.126 126.242H164.696C165.25 126.242 165.699 126.691 165.699 127.246C165.699 127.801 165.25 128.25 164.696 128.25Z" fill="#333333"/>
</svg>
