<svg width="40" height="40" viewBox="0 0 40 40" fill="none" xmlns="http://www.w3.org/2000/svg">
<path d="M39.453 19.5075H29.2499L31.0696 16.625C32.9818 15.9675 34.5988 14.6532 35.6332 12.9157C36.6676 11.1782 37.0524 9.13024 36.7191 7.13582C36.3858 5.14141 35.356 3.32982 33.8128 2.02315C32.2696 0.716473 30.3131 -0.000610352 28.291 -0.000610352C26.2689 -0.000610352 24.3123 0.716473 22.7692 2.02315C21.226 3.32982 20.1962 5.14141 19.8629 7.13582C19.5295 9.13024 19.9143 11.1782 20.9487 12.9157C21.9831 14.6532 23.6002 15.9675 25.5124 16.625L27.333 19.5066H19.8349L18.0577 17.6422C17.331 16.8833 16.4586 16.2789 15.4926 15.8654C14.5267 15.452 13.4872 15.2378 12.4364 15.2359H11.3033C10.2481 15.2372 9.23637 15.6569 8.49018 16.4031C7.744 17.1493 7.32425 18.161 7.323 19.2163V19.5075H2.97144C2.34056 19.507 1.72593 19.7075 1.21667 20.0799C0.707424 20.4522 0.330041 20.9772 0.139264 21.5785C-0.0515128 22.1799 -0.0457641 22.8263 0.155676 23.4242C0.357117 24.022 0.743775 24.5402 1.25957 24.9035C0.870451 25.1769 0.552858 25.54 0.333614 25.962C0.11437 26.3841 -8.54584e-05 26.8527 -8.54584e-05 27.3283C-8.54584e-05 27.8039 0.11437 28.2725 0.333614 28.6945C0.552858 29.1166 0.870451 29.4797 1.25957 29.7531C0.870452 30.0266 0.552857 30.3896 0.33361 30.8116C0.114363 31.2337 -9.41284e-05 31.7022 -9.41284e-05 32.1778C-9.41284e-05 32.6534 0.114363 33.122 0.33361 33.544C0.552857 33.966 0.870452 34.3291 1.25957 34.6025C0.743097 34.9655 0.355801 35.4838 0.153926 36.0819C-0.0479484 36.6801 -0.0538897 37.327 0.136965 37.9288C0.327819 38.5305 0.705532 39.0558 1.21525 39.4283C1.72496 39.8007 2.34014 40.001 2.97144 40H17.3802C19.2299 40.003 21.0095 39.2929 22.3489 38.0172L23.493 36.9313H39.453C39.598 36.9313 39.7371 36.8736 39.8397 36.7711C39.9423 36.6685 39.9999 36.5294 39.9999 36.3844V20.0544C39.9999 19.9093 39.9423 19.7702 39.8397 19.6677C39.7371 19.5651 39.598 19.5075 39.453 19.5075ZM26.0355 15.6469C24.3405 15.1086 22.894 13.9818 21.9572 12.47C21.0204 10.9583 20.6553 9.16144 20.9276 7.404C21.2 5.64656 22.092 4.04449 23.4424 2.88726C24.7928 1.73003 26.5126 1.09395 28.291 1.09395C30.0694 1.09395 31.7892 1.73003 33.1396 2.88726C34.49 4.04449 35.3819 5.64656 35.6543 7.404C35.9267 9.16144 35.5615 10.9583 34.6247 12.47C33.688 13.9818 32.2414 15.1086 30.5464 15.6469C30.4235 15.6859 30.3184 15.7672 30.2496 15.8763L28.2908 18.9763L26.3324 15.875C26.2633 15.7665 26.1582 15.6857 26.0355 15.6469ZM1.09363 22.4791C1.09421 21.9812 1.29224 21.5039 1.64427 21.1519C1.9963 20.7999 2.47359 20.6018 2.97144 20.6013H7.323V24.3566H2.97144C2.47362 24.3561 1.99633 24.1581 1.64429 23.8061C1.29225 23.4542 1.09421 22.9769 1.09363 22.4791ZM1.09363 27.3284C1.09421 26.8306 1.29223 26.3532 1.64425 26.0012C1.99627 25.6491 2.47356 25.451 2.97144 25.4503H7.323V27.4688C7.32653 28.0971 7.53634 28.7069 7.92019 29.2044C7.84238 29.2072 3.048 29.2044 2.97144 29.2044C2.47392 29.2038 1.99691 29.006 1.64493 28.6544C1.29295 28.3028 1.0947 27.826 1.09363 27.3284ZM1.09363 32.1781C1.09413 31.6802 1.29212 31.2029 1.64416 30.8508C1.9962 30.4987 2.47354 30.3006 2.97144 30.3H7.85832C8.35634 30.3 8.83397 30.4979 9.18613 30.85C9.53829 31.2022 9.73613 31.6798 9.73613 32.1778C9.73613 32.6758 9.53829 33.1535 9.18613 33.5056C8.83397 33.8578 8.35634 34.0556 7.85832 34.0556H2.97144C2.47362 34.0551 1.99633 33.8572 1.64429 33.5052C1.29225 33.1532 1.09421 32.676 1.09363 32.1781ZM1.09363 37.0275C1.09421 36.5296 1.29223 36.0523 1.64425 35.7002C1.99627 35.3481 2.47356 35.15 2.97144 35.1494H7.85832C8.35219 35.1558 8.82367 35.3564 9.17066 35.7079C9.51765 36.0594 9.71222 36.5334 9.71222 37.0274C9.71222 37.5213 9.51765 37.9953 9.17066 38.3468C8.82367 38.6983 8.35219 38.899 7.85832 38.9053H2.97144C2.47359 38.9047 1.9963 38.7067 1.64427 38.3547C1.29224 38.0027 1.09421 37.5254 1.09363 37.0275ZM38.9061 35.8366H23.2752C23.1357 35.837 23.0015 35.8906 22.9002 35.9866L21.598 37.2228C20.4611 38.3059 18.9504 38.9089 17.3802 38.9063H10.1614C10.4159 38.5895 10.6031 38.2242 10.7118 37.8327C10.8204 37.4412 10.8482 37.0317 10.7934 36.6291C10.7387 36.2265 10.6025 35.8393 10.3932 35.491C10.1839 35.1428 9.90592 34.8408 9.57613 34.6035C9.90594 34.3661 10.1839 34.0641 10.3932 33.7158C10.6024 33.3675 10.7385 32.9802 10.7932 32.5776C10.8478 32.175 10.8199 31.7654 10.7111 31.374C10.6022 30.9825 10.4148 30.6173 10.1602 30.3006C10.9096 30.2979 11.6274 29.9984 12.1565 29.4677C12.6856 28.9369 12.9829 28.2182 12.9833 27.4688V20.9297C12.9833 20.7847 12.9257 20.6456 12.8231 20.543C12.7206 20.4404 12.5815 20.3828 12.4364 20.3828C12.2914 20.3828 12.1523 20.4404 12.0497 20.543C11.9472 20.6456 11.8896 20.7847 11.8896 20.9297V27.4688C11.8927 27.6988 11.85 27.9271 11.7641 28.1404C11.6783 28.3538 11.5509 28.548 11.3893 28.7117C11.2278 28.8755 11.0353 29.0055 10.8231 29.0942C10.6109 29.1829 10.3832 29.2286 10.1532 29.2286C9.92315 29.2286 9.69543 29.1829 9.48323 29.0942C9.27103 29.0055 9.07856 28.8755 8.91702 28.7117C8.75547 28.548 8.62806 28.3538 8.54218 28.1404C8.4563 27.9271 8.41367 27.6988 8.41675 27.4688V19.2163C8.41758 18.451 8.72197 17.7172 9.26312 17.1761C9.80428 16.6349 10.538 16.3305 11.3033 16.3297H12.4374C13.3402 16.3314 14.2334 16.5155 15.0634 16.8709C15.8933 17.2263 16.6429 17.7458 17.2671 18.3981L19.2046 20.4319C19.2557 20.4854 19.3171 20.528 19.3852 20.5572C19.4532 20.5863 19.5265 20.6013 19.6005 20.6013H38.9061V35.8366Z" fill="#036FAD"/>
<path d="M25.454 28.5157C25.9012 28.5157 26.3384 28.3832 26.7102 28.1347C27.0821 27.8863 27.3719 27.5332 27.5431 27.1201C27.7142 26.7069 27.759 26.2523 27.6718 25.8137C27.5846 25.3751 27.3692 24.9722 27.053 24.656C26.7368 24.3398 26.3339 24.1244 25.8953 24.0372C25.4567 23.95 25.0021 23.9948 24.5889 24.1659C24.1758 24.3371 23.8227 24.6269 23.5743 24.9988C23.3259 25.3707 23.1933 25.8078 23.1934 26.255C23.1941 26.8544 23.4325 27.4289 23.8563 27.8527C24.2801 28.2765 24.8547 28.5149 25.454 28.5157ZM25.454 25.0878C25.6848 25.0878 25.9105 25.1562 26.1025 25.2844C26.2945 25.4126 26.4442 25.5949 26.5325 25.8081C26.6209 26.0214 26.6441 26.2561 26.5991 26.4825C26.5541 26.709 26.443 26.917 26.2797 27.0802C26.1165 27.2435 25.9085 27.3547 25.6821 27.3998C25.4557 27.4448 25.221 27.4217 25.0077 27.3334C24.7944 27.2451 24.6121 27.0955 24.4838 26.9035C24.3556 26.7116 24.2871 26.4859 24.2871 26.255C24.2874 25.9456 24.4105 25.649 24.6292 25.4302C24.848 25.2114 25.1446 25.0883 25.454 25.0878Z" fill="#036FAD"/>
<path d="M32.0784 31.3818C32.0783 31.829 32.2109 32.2662 32.4593 32.6381C32.7077 33.0099 33.0608 33.2998 33.4739 33.4709C33.8871 33.6421 34.3417 33.6869 34.7803 33.5997C35.2189 33.5124 35.6218 33.2971 35.938 32.9809C36.2542 32.6647 36.4696 32.2618 36.5568 31.8232C36.644 31.3846 36.5992 30.9299 36.4281 30.5168C36.2569 30.1036 35.9671 29.7505 35.5952 29.5021C35.2234 29.2537 34.7862 29.1212 34.339 29.1212C33.7396 29.1219 33.165 29.3603 32.7412 29.7841C32.3174 30.2079 32.079 30.7825 32.0784 31.3818ZM34.339 30.215C34.5698 30.215 34.7954 30.2834 34.9873 30.4116C35.1792 30.5398 35.3287 30.7221 35.417 30.9353C35.5054 31.1485 35.5285 31.3831 35.4834 31.6095C35.4384 31.8358 35.3273 32.0438 35.1641 32.2069C35.0009 32.3701 34.793 32.4813 34.5666 32.5263C34.3403 32.5713 34.1057 32.5482 33.8925 32.4599C33.6792 32.3716 33.497 32.222 33.3688 32.0301C33.2406 31.8382 33.1721 31.6126 33.1721 31.3818C33.1725 31.0725 33.2955 30.7759 33.5143 30.5571C33.733 30.3383 34.0296 30.2153 34.339 30.215Z" fill="#036FAD"/>
<path d="M26.6211 30.9715C26.621 31.3376 26.7295 31.6954 26.9328 31.9998C27.1362 32.3042 27.4252 32.5414 27.7634 32.6815C28.1015 32.8216 28.4737 32.8583 28.8327 32.7869C29.1917 32.7155 29.5215 32.5393 29.7803 32.2804C30.0391 32.0216 30.2154 31.6918 30.2868 31.3328C30.3582 30.9738 30.3215 30.6017 30.1814 30.2635C30.0413 29.9253 29.8041 29.6363 29.4997 29.433C29.1953 29.2296 28.8375 29.1212 28.4714 29.1212C27.9808 29.1218 27.5106 29.3169 27.1637 29.6638C26.8168 30.0107 26.6217 30.481 26.6211 30.9715ZM28.4714 30.215C28.6211 30.2149 28.7675 30.2592 28.892 30.3424C29.0165 30.4255 29.1136 30.5437 29.1709 30.6821C29.2282 30.8204 29.2433 30.9726 29.2141 31.1194C29.1849 31.2663 29.1128 31.4012 29.0069 31.507C28.901 31.6129 28.7661 31.685 28.6193 31.7142C28.4725 31.7434 28.3202 31.7284 28.1819 31.671C28.0436 31.6137 27.9254 31.5167 27.8423 31.3921C27.7591 31.2676 27.7148 31.1212 27.7148 30.9715C27.7151 30.771 27.7949 30.5787 27.9367 30.4368C28.0785 30.295 28.2708 30.2152 28.4714 30.215Z" fill="#036FAD"/>
<path d="M31.4842 28.1644C31.8501 28.1644 32.2079 28.0559 32.5122 27.8526C32.8165 27.6493 33.0537 27.3603 33.1938 27.0223C33.3339 26.6842 33.3706 26.3121 33.2993 25.9532C33.228 25.5942 33.0519 25.2645 32.7932 25.0056C32.5345 24.7467 32.2049 24.5704 31.846 24.4988C31.4871 24.4273 31.115 24.4638 30.7768 24.6036C30.4387 24.7435 30.1495 24.9805 29.946 25.2847C29.7425 25.5889 29.6338 25.9465 29.6335 26.3125C29.6338 26.8034 29.8288 27.2741 30.1758 27.6213C30.5227 27.9685 30.9933 28.1638 31.4842 28.1644ZM31.4842 25.5569C31.6339 25.5569 31.7803 25.6013 31.9048 25.6845C32.0293 25.7678 32.1263 25.886 32.1835 26.0244C32.2408 26.1628 32.2557 26.315 32.2264 26.4619C32.1971 26.6087 32.1249 26.7436 32.0189 26.8494C31.9129 26.9552 31.778 27.0272 31.6311 27.0562C31.4842 27.0853 31.3319 27.0701 31.1937 27.0127C31.0554 26.9552 30.9373 26.858 30.8542 26.7333C30.7712 26.6087 30.727 26.4623 30.7273 26.3125C30.7279 26.1121 30.8078 25.92 30.9497 25.7784C31.0915 25.6368 31.2837 25.5571 31.4842 25.5569Z" fill="#036FAD"/>
<path d="M24.7996 4.62061C24.4009 4.62061 24.0112 4.73884 23.6796 4.96035C23.3481 5.18187 23.0897 5.49671 22.9371 5.86508C22.7846 6.23344 22.7446 6.63878 22.8224 7.02983C22.9002 7.42089 23.0922 7.78009 23.3741 8.06203C23.6561 8.34396 24.0153 8.53596 24.4063 8.61374C24.7974 8.69153 25.2027 8.65161 25.5711 8.49903C25.9395 8.34644 26.2543 8.08806 26.4758 7.75654C26.6973 7.42502 26.8156 7.03526 26.8156 6.63654C26.815 6.10206 26.6024 5.58964 26.2245 5.2117C25.8465 4.83376 25.3341 4.62118 24.7996 4.62061ZM24.7996 7.55811C24.6172 7.55811 24.4389 7.50402 24.2873 7.40269C24.1356 7.30136 24.0174 7.15733 23.9476 6.98882C23.8778 6.82032 23.8596 6.63489 23.8952 6.45601C23.9307 6.27712 24.0186 6.1128 24.1475 5.98383C24.2765 5.85486 24.4408 5.76703 24.6197 5.73145C24.7986 5.69587 24.984 5.71413 25.1525 5.78393C25.321 5.85373 25.4651 5.97193 25.5664 6.12358C25.6677 6.27523 25.7218 6.45353 25.7218 6.63592C25.7217 6.88053 25.6246 7.11511 25.4517 7.28813C25.2788 7.46116 25.0442 7.55848 24.7996 7.55873V7.55811Z" fill="#036FAD"/>
<path d="M29.8192 7.18349C30.2179 7.18349 30.6076 7.06525 30.9392 6.84374C31.2707 6.62223 31.5291 6.30738 31.6816 5.93902C31.8342 5.57065 31.8741 5.16531 31.7964 4.77426C31.7186 4.38321 31.5266 4.024 31.2446 3.74207C30.9627 3.46013 30.6035 3.26813 30.2124 3.19035C29.8214 3.11256 29.4161 3.15248 29.0477 3.30507C28.6793 3.45765 28.3645 3.71604 28.143 4.04756C27.9215 4.37907 27.8032 4.76883 27.8032 5.16755C27.8037 5.70206 28.0163 6.21453 28.3942 6.59248C28.7722 6.97044 29.2847 7.18299 29.8192 7.18349ZM29.8192 4.24599C30.0016 4.24599 30.1799 4.30008 30.3315 4.40143C30.4832 4.50277 30.6014 4.64682 30.6712 4.81534C30.741 4.98387 30.7592 5.1693 30.7236 5.3482C30.688 5.52709 30.6001 5.69141 30.4711 5.82037C30.3421 5.94933 30.1778 6.03713 29.9989 6.07268C29.82 6.10823 29.6345 6.08992 29.466 6.02008C29.2975 5.95023 29.1535 5.83198 29.0522 5.68029C28.9509 5.52859 28.8969 5.35027 28.897 5.16786C28.8971 4.92333 28.9944 4.68887 29.1673 4.51596C29.3402 4.34305 29.5746 4.24615 29.8192 4.24599Z" fill="#036FAD"/>
<path d="M32.0995 11.4013C32.0995 10.8383 31.9325 10.2878 31.6197 9.81968C31.3069 9.35151 30.8623 8.98662 30.3421 8.77115C29.8219 8.55568 29.2495 8.4993 28.6972 8.60915C28.145 8.71899 27.6377 8.99013 27.2396 9.38828C26.8415 9.78642 26.5703 10.2937 26.4605 10.8459C26.3506 11.3982 26.407 11.9706 26.6225 12.4908C26.8379 13.011 27.2028 13.4556 27.671 13.7684C28.1392 14.0812 28.6896 14.2482 29.2526 14.2482C30.0074 14.2474 30.7311 13.9472 31.2648 13.4135C31.7985 12.8797 32.0987 12.1561 32.0995 11.4013ZM27.4998 11.4013C27.4998 11.0546 27.6027 10.7156 27.7953 10.4273C27.988 10.139 28.2618 9.91429 28.5821 9.78161C28.9025 9.64893 29.255 9.61423 29.5951 9.6819C29.9352 9.74957 30.2475 9.91657 30.4927 10.1618C30.7379 10.407 30.9048 10.7194 30.9724 11.0595C31.04 11.3996 31.0053 11.7521 30.8725 12.0724C30.7398 12.3928 30.515 12.6665 30.2267 12.8591C29.9384 13.0517 29.5994 13.1545 29.2526 13.1544C28.7879 13.1539 28.3423 12.969 28.0137 12.6403C27.6851 12.3116 27.5003 11.8661 27.4998 11.4013Z" fill="#036FAD"/>
</svg>
