<svg width="33" height="33" viewBox="0 0 33 33" fill="none" xmlns="http://www.w3.org/2000/svg">
<g clip-path="url(#clip0_275_1274)">
<path d="M24.0625 33C19.1345 33 15.125 28.9905 15.125 24.0625C15.125 19.1345 19.1345 15.125 24.0625 15.125C28.9905 15.125 33 19.1345 33 24.0625C33 28.9905 28.9905 33 24.0625 33ZM24.0625 16.5C19.8921 16.5 16.5 19.8935 16.5 24.0625C16.5 28.2315 19.8921 31.625 24.0625 31.625C28.2329 31.625 31.625 28.2315 31.625 24.0625C31.625 19.8935 28.2329 16.5 24.0625 16.5Z" fill="white"/>
<path d="M27.5 28.1875C27.3501 28.1875 27.1975 28.138 27.071 28.0376L23.6335 25.2876C23.4699 25.157 23.375 24.959 23.375 24.75V19.9375C23.375 19.558 23.683 19.25 24.0625 19.25C24.442 19.25 24.75 19.558 24.75 19.9375V24.42L27.929 26.9638C28.2246 27.2016 28.2728 27.6334 28.0363 27.9304C27.9015 28.0995 27.7008 28.1875 27.5 28.1875Z" fill="white"/>
<path d="M13.0625 28.875H3.4375C1.54275 28.875 0 27.3336 0 25.4375V7.5625C0 5.66638 1.54275 4.125 3.4375 4.125H6.1875C6.567 4.125 6.875 4.433 6.875 4.8125C6.875 5.192 6.567 5.5 6.1875 5.5H3.4375C2.30037 5.5 1.375 6.42537 1.375 7.5625V25.4375C1.375 26.5746 2.30037 27.5 3.4375 27.5H13.0625C13.442 27.5 13.75 27.808 13.75 28.1875C13.75 28.567 13.442 28.875 13.0625 28.875Z" fill="white"/>
<path d="M22.6875 12.375C22.308 12.375 22 12.067 22 11.6875V7.5625C22 6.42537 21.0746 5.5 19.9375 5.5H17.1875C16.808 5.5 16.5 5.192 16.5 4.8125C16.5 4.433 16.808 4.125 17.1875 4.125H19.9375C21.8323 4.125 23.375 5.66638 23.375 7.5625V11.6875C23.375 12.067 23.067 12.375 22.6875 12.375Z" fill="white"/>
<path d="M15.8125 8.25H7.5625C6.42537 8.25 5.5 7.32463 5.5 6.1875V3.4375C5.5 3.058 5.808 2.75 6.1875 2.75H8.31875C8.63913 1.1825 10.0265 0 11.6875 0C13.3485 0 14.7359 1.1825 15.0562 2.75H17.1875C17.567 2.75 17.875 3.058 17.875 3.4375V6.1875C17.875 7.32463 16.9496 8.25 15.8125 8.25ZM6.875 4.125V6.1875C6.875 6.56563 7.183 6.875 7.5625 6.875H15.8125C16.192 6.875 16.5 6.56563 16.5 6.1875V4.125H14.4375C14.058 4.125 13.75 3.817 13.75 3.4375C13.75 2.30037 12.8246 1.375 11.6875 1.375C10.5504 1.375 9.625 2.30037 9.625 3.4375C9.625 3.817 9.317 4.125 8.9375 4.125H6.875Z" fill="white"/>
<path d="M18.5625 12.375H4.8125C4.433 12.375 4.125 12.067 4.125 11.6875C4.125 11.308 4.433 11 4.8125 11H18.5625C18.942 11 19.25 11.308 19.25 11.6875C19.25 12.067 18.942 12.375 18.5625 12.375Z" fill="white"/>
<path d="M14.4375 16.5H4.8125C4.433 16.5 4.125 16.192 4.125 15.8125C4.125 15.433 4.433 15.125 4.8125 15.125H14.4375C14.817 15.125 15.125 15.433 15.125 15.8125C15.125 16.192 14.817 16.5 14.4375 16.5Z" fill="white"/>
<path d="M11.6875 20.625H4.8125C4.433 20.625 4.125 20.317 4.125 19.9375C4.125 19.558 4.433 19.25 4.8125 19.25H11.6875C12.067 19.25 12.375 19.558 12.375 19.9375C12.375 20.317 12.067 20.625 11.6875 20.625Z" fill="white"/>
</g>
<defs>
<clipPath id="clip0_275_1274">
<rect width="33" height="33" fill="white"/>
</clipPath>
</defs>
</svg>
