<svg width="26" height="26" viewBox="0 0 26 26" fill="none" xmlns="http://www.w3.org/2000/svg">
<g clip-path="url(#clip0_275_967)">
<path d="M18.9587 26C15.076 26 11.917 22.841 11.917 18.9583C11.917 15.0756 15.076 11.9166 18.9587 11.9166C22.8413 11.9166 26.0003 15.0756 26.0003 18.9583C26.0003 22.841 22.8413 26 18.9587 26ZM18.9587 13C15.6729 13 13.0003 15.6736 13.0003 18.9583C13.0003 22.243 15.6729 24.9166 18.9587 24.9166C22.2444 24.9166 24.917 22.243 24.917 18.9583C24.917 15.6736 22.2444 13 18.9587 13Z" fill="#036FAD"/>
<path d="M21.667 22.2083C21.5489 22.2083 21.4287 22.1693 21.329 22.0902L18.6207 19.9235C18.4917 19.8206 18.417 19.6646 18.417 19.5V15.7083C18.417 15.4093 18.6597 15.1666 18.9587 15.1666C19.2577 15.1666 19.5003 15.4093 19.5003 15.7083V19.24L22.005 21.2441C22.2379 21.4315 22.2758 21.7717 22.0895 22.0057C21.9833 22.139 21.8252 22.2083 21.667 22.2083Z" fill="#036FAD"/>
<path d="M10.2917 22.75H2.70833C1.2155 22.75 0 21.5356 0 20.0417V5.95833C0 4.46442 1.2155 3.25 2.70833 3.25H4.875C5.174 3.25 5.41667 3.49267 5.41667 3.79167C5.41667 4.09067 5.174 4.33333 4.875 4.33333H2.70833C1.81242 4.33333 1.08333 5.06242 1.08333 5.95833V20.0417C1.08333 20.9376 1.81242 21.6667 2.70833 21.6667H10.2917C10.5907 21.6667 10.8333 21.9093 10.8333 22.2083C10.8333 22.5073 10.5907 22.75 10.2917 22.75Z" fill="#036FAD"/>
<path d="M17.875 9.75C17.576 9.75 17.3333 9.50733 17.3333 9.20833V5.95833C17.3333 5.06242 16.6043 4.33333 15.7083 4.33333H13.5417C13.2427 4.33333 13 4.09067 13 3.79167C13 3.49267 13.2427 3.25 13.5417 3.25H15.7083C17.2012 3.25 18.4167 4.46442 18.4167 5.95833V9.20833C18.4167 9.50733 18.174 9.75 17.875 9.75Z" fill="#036FAD"/>
<path d="M12.458 6.5H5.95801C5.06209 6.5 4.33301 5.77092 4.33301 4.875V2.70833C4.33301 2.40933 4.57567 2.16667 4.87467 2.16667H6.55384C6.80626 0.931667 7.89934 0 9.20801 0C10.5167 0 11.6098 0.931667 11.8622 2.16667H13.5413C13.8403 2.16667 14.083 2.40933 14.083 2.70833V4.875C14.083 5.77092 13.3539 6.5 12.458 6.5ZM5.41634 3.25V4.875C5.41634 5.17292 5.65901 5.41667 5.95801 5.41667H12.458C12.757 5.41667 12.9997 5.17292 12.9997 4.875V3.25H11.3747C11.0757 3.25 10.833 3.00733 10.833 2.70833C10.833 1.81242 10.1039 1.08333 9.20801 1.08333C8.31209 1.08333 7.58301 1.81242 7.58301 2.70833C7.58301 3.00733 7.34034 3.25 7.04134 3.25H5.41634Z" fill="#036FAD"/>
<path d="M14.625 9.74996H3.79167C3.49267 9.74996 3.25 9.50729 3.25 9.20829C3.25 8.90929 3.49267 8.66663 3.79167 8.66663H14.625C14.924 8.66663 15.1667 8.90929 15.1667 9.20829C15.1667 9.50729 14.924 9.74996 14.625 9.74996Z" fill="#036FAD"/>
<path d="M11.375 13H3.79167C3.49267 13 3.25 12.7573 3.25 12.4583C3.25 12.1593 3.49267 11.9166 3.79167 11.9166H11.375C11.674 11.9166 11.9167 12.1593 11.9167 12.4583C11.9167 12.7573 11.674 13 11.375 13Z" fill="#036FAD"/>
<path d="M9.20833 16.25H3.79167C3.49267 16.25 3.25 16.0073 3.25 15.7083C3.25 15.4093 3.49267 15.1666 3.79167 15.1666H9.20833C9.50733 15.1666 9.75 15.4093 9.75 15.7083C9.75 16.0073 9.50733 16.25 9.20833 16.25Z" fill="#036FAD"/>
</g>
<defs>
<clipPath id="clip0_275_967">
<rect width="26" height="26" fill="white"/>
</clipPath>
</defs>
</svg>
