<svg width="27" height="24" viewBox="0 0 27 24" fill="none" xmlns="http://www.w3.org/2000/svg">
<path fill-rule="evenodd" clip-rule="evenodd" d="M13.4725 1.4181C13.4724 1.41812 13.4725 1.41807 13.4725 1.4181L1.02628 7.54838C0.674704 7.72154 0.248399 7.57877 0.0740974 7.22949C-0.100204 6.88022 0.0435019 6.45669 0.395074 6.28353L12.8416 0.153055C13.0463 0.0524295 13.2719 0 13.5 0C13.7281 0 13.9534 0.0522389 14.158 0.152864L26.6049 6.28353C26.9565 6.45669 27.1002 6.88022 26.9259 7.22949C26.7516 7.57877 26.3253 7.72154 25.9737 7.54838L13.5275 1.4181C13.5275 1.41807 13.5276 1.41812 13.5275 1.4181C13.5193 1.41407 13.5098 1.41176 13.5 1.41176C13.4902 1.41176 13.4807 1.41406 13.4725 1.4181ZM3.26854 9.98965C3.66095 9.98965 3.97906 10.3057 3.97906 10.6955V20.7744C3.97906 21.2535 4.17221 21.7142 4.518 22.0549C4.86399 22.3957 5.33452 22.5882 5.82641 22.5882H21.1736C21.6655 22.5882 22.136 22.3957 22.482 22.0549C22.8278 21.7142 23.0209 21.2535 23.0209 20.7744V10.6955C23.0209 10.3057 23.339 9.98965 23.7315 9.98965C24.1239 9.98965 24.442 10.3057 24.442 10.6955V20.7744C24.442 21.6318 24.0962 22.4529 23.4826 23.0574C22.8692 23.6616 22.0385 24 21.1736 24H5.82641C4.96151 24 4.13084 23.6616 3.51744 23.0574C2.90385 22.4529 2.55802 21.6318 2.55802 20.7744V10.6955C2.55802 10.3057 2.87613 9.98965 3.26854 9.98965Z" fill="white"/>
</svg>
