<svg width="44" height="42" viewBox="0 0 44 42" fill="none" xmlns="http://www.w3.org/2000/svg">
<path d="M16.2662 32.1509L9.66905 25.5538C9.38148 25.2662 9.38148 24.7983 9.66905 24.5107L24.8666 9.31196C25.6343 8.54429 26.8833 8.54429 27.6509 9.31196L32.5068 14.1678C33.2745 14.9355 33.2745 16.1845 32.5068 16.9522L17.308 32.1509C17.0205 32.4385 16.5538 32.4385 16.2662 32.1509ZM11.2336 25.0323L16.7877 30.5863L31.465 15.9091C31.6575 15.7166 31.6575 15.4034 31.465 15.2109L26.6091 10.355C26.4166 10.1625 26.1034 10.1625 25.9109 10.355L11.2336 25.0323Z" fill="#036FAD"/>
<path d="M14.0414 35.0012L6.81791 27.7777C5.84065 26.8005 5.84065 25.2103 6.81791 24.2318L6.85325 24.1964C7.83051 23.2192 9.4207 23.2192 10.398 24.1964L17.6214 31.4199C18.5987 32.3972 18.5987 33.9874 17.6214 34.9658L17.5873 35C16.61 35.9784 15.0199 35.9784 14.0414 35.0012ZM7.89631 25.2407L7.86097 25.2761C7.45886 25.6782 7.45886 26.3338 7.86097 26.7359L15.0844 33.9593C15.4866 34.3615 16.1421 34.3615 16.5442 33.9593L16.5784 33.9252C16.9805 33.5231 16.9805 32.8675 16.5784 32.4654L9.35611 25.2407C8.95278 24.8374 8.29843 24.8374 7.89631 25.2407Z" fill="#036FAD"/>
<path d="M5.7396 40.5686L1.25053 36.0795C0.273262 35.1022 0.273262 33.512 1.25053 32.5335L1.28464 32.4994C2.26191 31.5222 3.85209 31.5222 4.83058 32.4994L9.31965 36.9885C10.2969 37.9658 10.2969 39.556 9.31965 40.5344L9.28432 40.5698C8.30827 41.5458 6.71687 41.5458 5.7396 40.5686ZM3.05761 33.2403C2.56776 33.2403 2.31309 33.5632 2.29359 33.5766C1.89147 33.9787 1.89147 34.6343 2.29359 35.0364L6.78267 39.5255C7.18478 39.9276 7.84035 39.9276 8.24247 39.5255L8.27781 39.4902C8.67992 39.088 8.67992 38.4325 8.27781 38.0303L3.78751 33.5425C3.58645 33.3414 3.32203 33.2403 3.05761 33.2403Z" fill="#036FAD"/>
<path d="M4.76353 34.5186C4.47596 34.231 4.47596 33.7643 4.76353 33.4755L9.16122 29.0779C9.44879 28.7903 9.91549 28.7903 10.2043 29.0779C10.4919 29.3654 10.4919 29.8321 10.2043 30.1209L5.8066 34.5186C5.51902 34.8062 5.05232 34.8062 4.76353 34.5186Z" fill="#036FAD"/>
<path d="M7.30064 37.0557C7.01307 36.7681 7.01307 36.3015 7.30064 36.0127L11.6983 31.615C11.9859 31.3274 12.4526 31.3274 12.7414 31.615C13.029 31.9025 13.029 32.3692 12.7414 32.658L8.34371 37.0557C8.05613 37.3433 7.58943 37.3445 7.30064 37.0557Z" fill="#036FAD"/>
<path d="M30.6647 14.4116C30.3771 14.1241 30.3771 13.6574 30.6647 13.3686L32.0185 12.0148C32.618 11.4153 32.618 10.4453 32.0185 9.8458L31.9734 9.80071C31.3751 9.20241 30.4027 9.20241 29.8044 9.80071L28.4506 11.1545C28.1631 11.4421 27.6964 11.4421 27.4076 11.1545C27.12 10.8669 27.12 10.4002 27.4076 10.1114L28.7614 8.75765C29.9348 7.5842 31.843 7.5842 33.0153 8.75765C33.036 8.78811 33.9414 9.55457 33.9414 10.9291C33.9414 11.7321 33.6282 12.4876 33.0604 13.0566L31.7066 14.4104C31.419 14.6992 30.9523 14.6992 30.6647 14.4116Z" fill="#036FAD"/>
<path d="M31.9969 9.82262C31.7094 9.53505 31.7094 9.06835 31.9969 8.77956L39.8626 0.913923C40.1501 0.626349 40.6168 0.626349 40.9056 0.913923C41.1932 1.2015 41.1932 1.66819 40.9056 1.95699L33.04 9.82262C32.7524 10.1114 32.2845 10.1114 31.9969 9.82262Z" fill="#036FAD"/>
<path d="M13.989 24.9689L12.1222 23.1009C11.8346 22.8133 11.8346 22.3466 12.1222 22.0578C12.4097 21.7703 12.8764 21.7703 13.1652 22.0578L15.0333 23.9259C15.3208 24.2134 15.3208 24.6801 15.0333 24.9689C14.7445 25.2565 14.2778 25.2565 13.989 24.9689Z" fill="#036FAD"/>
<path d="M17.7484 23.4946L14.7386 20.4848C14.4511 20.1972 14.4511 19.7305 14.7386 19.4418C15.0262 19.1542 15.4929 19.1542 15.7817 19.4418L18.7915 22.4515C19.079 22.7391 19.079 23.2058 18.7915 23.4946C18.5027 23.7822 18.036 23.7822 17.7484 23.4946Z" fill="#036FAD"/>
<path d="M19.5712 19.3868L17.7032 17.5188C17.4157 17.2312 17.4157 16.7645 17.7032 16.4757C17.9908 16.1881 18.4575 16.1881 18.7463 16.4757L20.6143 18.3437C20.9019 18.6313 20.9019 19.098 20.6143 19.3868C20.3267 19.6743 19.8588 19.6743 19.5712 19.3868Z" fill="#036FAD"/>
<path d="M23.3292 17.9124L20.3194 14.9026C20.0319 14.6151 20.0319 14.1484 20.3194 13.8596C20.607 13.5708 21.0737 13.572 21.3625 13.8596L24.3723 16.8693C24.6599 17.1569 24.6599 17.6236 24.3723 17.9124C24.0847 18.2 23.618 18.2 23.3292 17.9124Z" fill="#036FAD"/>
<path d="M25.153 13.8047L23.285 11.9367C22.9974 11.6491 22.9974 11.1825 23.285 10.8937C23.5726 10.6061 24.0393 10.6061 24.3281 10.8937L26.1961 12.7617C26.4837 13.0492 26.4837 13.5159 26.1961 13.8047C25.9073 14.0935 25.4406 14.0935 25.153 13.8047Z" fill="#036FAD"/>
<path d="M40.3839 14.2314C38.6767 14.2314 37.2876 12.8423 37.2876 11.1351C37.2876 10.705 37.4192 9.89097 38.5561 7.78291C39.152 6.67892 39.7369 5.75283 39.7624 5.71384C40.0512 5.25811 40.719 5.25689 41.0078 5.71384C41.0322 5.75283 41.6183 6.67892 42.2141 7.78291C43.351 9.88975 43.4826 10.705 43.4826 11.1351C43.4802 12.841 42.0911 14.2314 40.3839 14.2314ZM40.3839 7.53676C40.0135 8.17527 38.762 10.3918 38.762 11.1339C38.762 12.0283 39.4895 12.7557 40.3839 12.7557C41.2783 12.7557 42.0058 12.0283 42.0058 11.1339C42.0058 10.9864 41.9266 10.3601 40.914 8.48234C40.7312 8.14359 40.5484 7.82068 40.3839 7.53676Z" fill="#036FAD"/>
</svg>
