<svg width="26" height="26" viewBox="0 0 26 26" fill="none" xmlns="http://www.w3.org/2000/svg">
<g clip-path="url(#clip0_583_2184)">
<path d="M24.3853 1.61429C23.8681 1.09715 23.1796 0.8125 22.4463 0.8125H6.42656C5.30659 0.8125 4.39551 1.72378 4.39551 2.84375V5.02159C4.39551 5.24594 4.57741 5.42784 4.80176 5.42784C5.02611 5.42784 5.20801 5.24594 5.20801 5.02159V2.84375C5.20801 2.17169 5.7547 1.625 6.42656 1.625H20.4981C20.0066 2.12091 19.7025 2.80289 19.7025 3.55469V11.375C19.7025 11.5994 19.8844 11.7812 20.1087 11.7812C20.3331 11.7812 20.515 11.5994 20.515 11.375V6.29668H24.7804C25.0048 6.29668 25.1867 6.11478 25.1867 5.89043V3.55508C25.1873 2.82094 24.9026 2.13182 24.3853 1.61429ZM24.3742 5.48418H20.515V3.55469C20.515 2.49066 21.3806 1.625 22.4447 1.625C23.4853 1.60305 24.3962 2.51403 24.3742 3.55469V5.48418Z" fill="#036FAD"/>
<path d="M20.1088 12.7667C19.8844 12.7667 19.7025 12.9486 19.7025 13.173V22.2416C19.7025 23.4175 18.7458 24.3742 17.5614 24.3742C16.8687 24.3869 16.2966 24.157 15.8769 23.6867C15.1033 22.82 14.9791 21.3864 15.1207 20.3335C15.1362 20.2175 15.1011 20.1002 15.0239 20.012C14.9467 19.9237 14.8353 19.8731 14.718 19.8731H5.20805V17.6457C5.20805 17.4213 5.02615 17.2394 4.8018 17.2394C4.57745 17.2394 4.39555 17.4213 4.39555 17.6457V19.8731H1.21875C0.994398 19.8731 0.8125 20.055 0.8125 20.2794V21.5307C0.8125 23.5466 2.45258 25.1867 4.46855 25.1867C4.46855 25.1867 17.5449 25.1873 17.5697 25.1867C19.1937 25.1867 20.515 23.8656 20.515 22.2416V13.173C20.515 12.9486 20.3331 12.7667 20.1088 12.7667ZM1.625 21.5307V20.6856H14.2709C14.198 21.9144 14.4513 23.4486 15.416 24.3742H4.46855C2.90068 24.3742 1.625 23.0985 1.625 21.5307Z" fill="#036FAD"/>
<path d="M5.99696 16.5097C8.82822 16.5097 11.1316 14.2063 11.1316 11.375C11.1316 8.54376 8.82822 6.24036 5.99696 6.24036C3.16571 6.24036 0.862305 8.54376 0.862305 11.375C0.862305 14.2063 3.16571 16.5097 5.99696 16.5097ZM5.99696 7.05286C8.38011 7.05286 10.3191 8.99187 10.3191 11.375C10.3191 13.7582 8.38011 15.6972 5.99696 15.6972C3.61382 15.6972 1.6748 13.7582 1.6748 11.375C1.6748 8.99187 3.61382 7.05286 5.99696 7.05286Z" fill="#036FAD"/>
<path d="M5.99707 13.4063C5.54896 13.4063 5.18457 13.0419 5.18457 12.5938C5.18457 12.3694 5.00267 12.1875 4.77832 12.1875C4.55397 12.1875 4.37207 12.3694 4.37207 12.5938C4.37207 13.3487 4.89196 13.9794 5.59082 14.1611V14.5969C5.59082 14.8212 5.77272 15.0031 5.99707 15.0031C6.22142 15.0031 6.40332 14.8212 6.40332 14.5969V14.1611C7.10218 13.9794 7.62207 13.3487 7.62207 12.5938C7.62207 11.6978 6.89308 10.9688 5.99707 10.9688C5.54896 10.9688 5.18457 10.6044 5.18457 10.1563C5.18457 9.70817 5.54896 9.34378 5.99707 9.34378C6.44518 9.34378 6.80957 9.70817 6.80957 10.1563C6.80957 10.3806 6.99147 10.5625 7.21582 10.5625C7.44017 10.5625 7.62207 10.3806 7.62207 10.1563C7.62207 9.40135 7.10218 8.77068 6.40332 8.58898V8.1532C6.40332 7.92885 6.22142 7.74695 5.99707 7.74695C5.77272 7.74695 5.59082 7.92885 5.59082 8.1532V8.58898C4.89196 8.77068 4.37207 9.40135 4.37207 10.1563C4.37207 11.0523 5.10106 11.7813 5.99707 11.7813C6.44518 11.7813 6.80957 12.1457 6.80957 12.5938C6.80957 13.0419 6.44518 13.4063 5.99707 13.4063Z" fill="#036FAD"/>
<path d="M12.9961 4.22339H18.074C18.2984 4.22339 18.4803 4.04149 18.4803 3.81714C18.4803 3.59279 18.2984 3.41089 18.074 3.41089H12.9961C12.7717 3.41089 12.5898 3.59279 12.5898 3.81714C12.5898 4.04149 12.7717 4.22339 12.9961 4.22339Z" fill="#036FAD"/>
<path d="M12.9961 6.24036H18.074C18.2984 6.24036 18.4803 6.05846 18.4803 5.83411C18.4803 5.60975 18.2984 5.42786 18.074 5.42786H12.9961C12.7717 5.42786 12.5898 5.60975 12.5898 5.83411C12.5898 6.05846 12.7717 6.24036 12.9961 6.24036Z" fill="#036FAD"/>
<path d="M12.9961 8.25732H18.074C18.2984 8.25732 18.4803 8.07543 18.4803 7.85107C18.4803 7.62672 18.2984 7.44482 18.074 7.44482H12.9961C12.7717 7.44482 12.5898 7.62672 12.5898 7.85107C12.5898 8.07543 12.7717 8.25732 12.9961 8.25732Z" fill="#036FAD"/>
<path d="M12.9961 10.2743H18.074C18.2984 10.2743 18.4803 10.0924 18.4803 9.86804C18.4803 9.64369 18.2984 9.46179 18.074 9.46179H12.9961C12.7717 9.46179 12.5898 9.64369 12.5898 9.86804C12.5898 10.0924 12.7717 10.2743 12.9961 10.2743Z" fill="#036FAD"/>
<path d="M12.9961 12.291H18.074C18.2984 12.291 18.4803 12.1091 18.4803 11.8848C18.4803 11.6604 18.2984 11.4785 18.074 11.4785H12.9961C12.7717 11.4785 12.5898 11.6604 12.5898 11.8848C12.5898 12.1091 12.7717 12.291 12.9961 12.291Z" fill="#036FAD"/>
<path d="M12.9961 14.308H18.074C18.2984 14.308 18.4803 14.1261 18.4803 13.9017C18.4803 13.6774 18.2984 13.4955 18.074 13.4955H12.9961C12.7717 13.4955 12.5898 13.6774 12.5898 13.9017C12.5898 14.1261 12.7717 14.308 12.9961 14.308Z" fill="#036FAD"/>
<path d="M10.5586 15.9187C10.5586 16.1431 10.7405 16.325 10.9648 16.325H18.074C18.2984 16.325 18.4803 16.1431 18.4803 15.9187C18.4803 15.6943 18.2984 15.5125 18.074 15.5125H10.9648C10.7405 15.5125 10.5586 15.6943 10.5586 15.9187Z" fill="#036FAD"/>
<path d="M18.074 17.5294H9.74609C9.52174 17.5294 9.33984 17.7113 9.33984 17.9357C9.33984 18.16 9.52174 18.3419 9.74609 18.3419H18.074C18.2984 18.3419 18.4803 18.16 18.4803 17.9357C18.4803 17.7113 18.2984 17.5294 18.074 17.5294Z" fill="#036FAD"/>
</g>
<defs>
<clipPath id="clip0_583_2184">
<rect width="26" height="26" fill="white"/>
</clipPath>
</defs>
</svg>
