<svg width="26" height="26" viewBox="0 0 26 26" fill="none" xmlns="http://www.w3.org/2000/svg">
<path d="M13.05 2.03151C12.7692 2.02948 12.5401 2.25545 12.5381 2.53577C12.5361 2.81608 12.7615 3.0451 13.0424 3.04713C13.3227 3.04917 13.5517 2.8237 13.5537 2.54338C13.5558 2.26307 13.3303 2.03405 13.05 2.03151Z" fill="#036FAD"/>
<path d="M13.0267 5.07834C11.066 5.06442 9.46024 6.64621 9.44542 8.60632C9.43064 10.5663 11.0133 12.1728 12.9734 12.1876C12.9825 12.1877 12.9915 12.1877 13.0006 12.1877C14.9482 12.1877 16.54 10.6107 16.5547 8.65964C16.5695 6.69974 14.9869 5.09312 13.0267 5.07834ZM13.0005 11.1722C12.9941 11.1722 12.9874 11.1721 12.981 11.172C11.5809 11.1615 10.4504 10.0139 10.461 8.61394C10.4715 7.22025 11.6084 6.09381 12.9996 6.09381C13.006 6.09381 13.0127 6.09386 13.0191 6.09391C14.4192 6.10448 15.5497 7.25203 15.5391 8.65203C15.5286 10.0457 14.3917 11.1722 13.0005 11.1722Z" fill="#036FAD"/>
<path d="M15.2157 2.41666C14.9516 2.32292 14.6611 2.4613 14.5674 2.72567C14.4737 2.99004 14.6121 3.28025 14.8764 3.37399C17.1132 4.16674 18.6039 6.29707 18.586 8.67501C18.5839 8.95542 18.8095 9.1845 19.09 9.18663C19.0913 9.18663 19.0926 9.18663 19.0939 9.18663C19.3725 9.18663 19.5995 8.96177 19.6016 8.68262C19.6227 5.87203 17.8602 3.35393 15.2157 2.41666Z" fill="#036FAD"/>
<path d="M16.116 19.1162C19.4936 14.7686 21.6044 12.5015 21.6329 8.69773C21.6687 3.91194 17.7848 0 12.9994 0C8.26982 0 4.40343 3.83034 4.36748 8.56824C4.33843 12.4751 6.48846 14.7391 9.88939 19.1155C6.50608 19.6211 4.36748 20.8915 4.36748 22.4454C4.36748 23.4862 5.32958 24.4202 7.07661 25.0753C8.66673 25.6716 10.7704 26 13.0002 26C15.23 26 17.3337 25.6716 18.9238 25.0753C20.6708 24.4202 21.6329 23.4862 21.6329 22.4453C21.6329 20.8923 19.4963 19.6222 16.116 19.1162ZM5.38305 8.5759C5.41474 4.39513 8.82598 1.01563 12.9995 1.01563C17.2224 1.01563 20.6488 4.46815 20.6174 8.69016C20.5903 12.3024 18.3518 14.5285 14.778 19.1874C14.1405 20.018 13.5551 20.8032 13.001 21.5714C12.4485 20.8028 11.8747 20.0316 11.2277 19.1871C7.50617 14.3332 5.35553 12.2753 5.38305 8.5759ZM13.0002 24.9844C8.64058 24.9844 5.38305 23.6439 5.38305 22.4454C5.38305 21.5565 7.33042 20.4336 10.6047 20.0448C11.3285 20.9944 11.963 21.8572 12.5854 22.7384C12.6805 22.8729 12.835 22.9531 12.9997 22.9532C12.9999 22.9532 13.0001 22.9532 13.0002 22.9532C13.1648 22.9532 13.3193 22.8733 13.4145 22.739C14.031 21.8693 14.6829 20.9853 15.4005 20.0453C18.6717 20.4346 20.6174 21.5571 20.6174 22.4454C20.6173 23.6439 17.3598 24.9844 13.0002 24.9844Z" fill="#036FAD"/>
</svg>
