<svg width="26" height="26" viewBox="0 0 26 26" fill="none" xmlns="http://www.w3.org/2000/svg">
<g clip-path="url(#clip0_275_978)">
<path d="M10.1228 25.998H6.66648H2.58303C1.87206 25.998 1.22605 25.7076 0.758268 25.2397C0.290444 24.7719 0 24.1259 0 23.415V2.58487C0 1.8739 0.290444 1.22788 0.758268 0.760099C1.22609 0.292318 1.87206 0.00183105 2.58303 0.00183105H6.66648H10.1228H14.2063C14.9172 0.00183105 15.5632 0.292275 16.031 0.760099C16.4988 1.22788 16.7893 1.8739 16.7893 2.58487V5.84974C16.7893 6.16791 16.5298 6.42739 16.2116 6.42739C15.8935 6.42739 15.634 6.16791 15.634 5.84974V2.58487C15.634 2.19287 15.4732 1.83594 15.2142 1.57697C14.9551 1.31796 14.5983 1.15712 14.2063 1.15712H10.1228H6.66648H2.58303C2.19104 1.15712 1.83411 1.31796 1.57514 1.57697C1.31613 1.83598 1.15529 2.19287 1.15529 2.58487V23.415C1.15529 23.807 1.31613 24.1639 1.57514 24.4229C1.83415 24.6819 2.19104 24.8427 2.58303 24.8427H6.66648H10.1228H14.2063C14.5983 24.8427 14.9552 24.6819 15.2142 24.4229C15.4732 24.1638 15.634 23.807 15.634 23.415V20.1501C15.634 19.8319 15.8935 19.5724 16.2116 19.5724C16.5298 19.5724 16.7893 19.8319 16.7893 20.1501V23.415C16.7893 24.1259 16.4989 24.7719 16.031 25.2397C15.5632 25.7075 14.9172 25.998 14.2063 25.998H10.1228Z" fill="#036FAD"/>
<path d="M7.67726 13.5935C7.35828 13.5935 7.09961 13.3349 7.09961 13.0159C7.09961 12.6969 7.35828 12.4382 7.67726 12.4382H25.4228C25.7418 12.4382 26.0005 12.6969 26.0005 13.0159C26.0005 13.3349 25.7418 13.5935 25.4228 13.5935H7.67726Z" fill="#036FAD"/>
<path d="M19.1252 7.53518C18.8997 7.30969 18.8997 6.9438 19.1252 6.71831C19.3507 6.49282 19.7166 6.49282 19.942 6.71831L25.8305 12.6068C26.056 12.8323 26.056 13.1982 25.8305 13.4237L19.9493 19.3052C19.7238 19.5307 19.358 19.5307 19.1325 19.3052C18.907 19.0797 18.907 18.7138 19.1325 18.4883L24.6052 13.0152L19.1252 7.53518Z" fill="#036FAD"/>
</g>
<defs>
<clipPath id="clip0_275_978">
<rect width="26" height="26" fill="white"/>
</clipPath>
</defs>
</svg>
