<svg width="27" height="24" viewBox="0 0 27 24" fill="none" xmlns="http://www.w3.org/2000/svg">
<path fill-rule="evenodd" clip-rule="evenodd" d="M0 1.09091C0 0.488417 0.50368 0 1.125 0H25.875C26.4963 0 27 0.488417 27 1.09091C27 1.6934 26.4963 2.18182 25.875 2.18182H1.125C0.50368 2.18182 0 1.6934 0 1.09091ZM0 12C0 11.3975 0.50368 10.9091 1.125 10.9091H25.875C26.4963 10.9091 27 11.3975 27 12C27 12.6025 26.4963 13.0909 25.875 13.0909H1.125C0.50368 13.0909 0 12.6025 0 12ZM0 22.9091C0 22.3066 0.50368 21.8182 1.125 21.8182H25.875C26.4963 21.8182 27 22.3066 27 22.9091C27 23.5116 26.4963 24 25.875 24H1.125C0.50368 24 0 23.5116 0 22.9091Z" fill="white"/>
</svg>
