<svg width="182" height="160" viewBox="0 0 182 160" fill="none" xmlns="http://www.w3.org/2000/svg">
<path d="M4.24872 67.3637C6.96283 70.0778 10.6442 71.6031 14.4831 71.6031C17.3671 71.6031 20.1615 70.7422 22.5244 69.1632L12.2211 79.4665C9.50703 82.1806 7.9817 85.862 7.9817 89.7008C7.9817 93.5397 9.50649 97.2211 12.2211 99.9352C14.9352 102.649 18.6167 104.175 22.4555 104.175C25.339 104.175 28.134 103.314 30.4969 101.735L25.0893 107.143C22.3752 109.857 20.8498 113.538 20.8498 117.377C20.8498 121.216 22.3746 124.897 25.0893 127.611C27.8034 130.326 31.4848 131.851 35.3236 131.851C38.2071 131.851 41.0021 130.99 43.365 129.411L42.0438 130.733C39.3297 133.447 37.8043 137.128 37.8043 140.967C37.8043 144.806 39.3291 148.487 42.0438 151.201C44.7579 153.916 48.4393 155.441 52.2781 155.441C56.117 155.441 59.7984 153.916 62.5125 151.201L76.228 137.486C74.6489 139.849 73.7885 142.644 73.7885 145.527C73.7885 149.366 75.3133 153.048 78.028 155.762C80.7421 158.476 84.4235 160.001 88.2623 160.001C92.1012 160.001 95.7826 158.476 98.4967 155.762L119.336 134.922C117.757 137.285 116.897 140.08 116.897 142.964C116.897 146.802 118.422 150.484 121.136 153.198C123.85 155.912 127.532 157.437 131.371 157.437C135.209 157.437 138.891 155.913 141.605 153.198L174.048 120.755C176.762 118.041 178.287 114.36 178.287 110.521C178.287 106.682 176.762 103.001 174.048 100.286C171.334 97.5723 167.652 96.047 163.813 96.047C160.93 96.047 158.135 96.9079 155.772 98.4864L162.563 91.6952C165.277 88.981 166.803 85.2996 166.803 81.4608C166.803 77.6219 165.278 73.9405 162.563 71.2264C159.849 68.5123 156.168 66.987 152.329 66.987C149.445 66.987 146.65 67.8479 144.288 69.4264L158.003 55.7109C160.717 52.9968 162.242 49.3154 162.242 45.4766C162.242 41.6377 160.718 37.9563 158.003 35.2422C155.289 32.5281 151.607 31.0028 147.769 31.0028C144.885 31.0028 142.09 31.8637 139.727 33.4422L148.462 24.7077C151.176 21.9936 152.701 18.3122 152.701 14.4733C152.701 10.6345 151.176 6.95306 148.462 4.23895C145.748 1.52484 142.066 -0.000488281 138.227 -0.000488281C134.389 -0.000488281 130.707 1.5243 127.993 4.23895L108.537 23.6948C110.116 21.3319 110.977 18.5369 110.977 15.6534C110.977 11.8146 109.452 8.13315 106.737 5.41905C104.023 2.70494 100.342 1.17961 96.5029 1.17961C92.6641 1.17961 88.9827 2.70439 86.2686 5.41905L58.9597 32.7279C60.5388 30.365 61.3997 27.57 61.3997 24.686C61.3997 20.8471 59.8749 17.1657 57.1603 14.4516C54.4462 11.7375 50.7647 10.2122 46.9259 10.2122C43.0871 10.2122 39.4057 11.7369 36.6916 14.4516L4.24872 46.895C1.53406 49.6096 0.00927734 53.291 0.00927734 57.1293C0.00927734 60.9676 1.53406 64.6496 4.24872 67.3637Z" fill="white"/>
<path d="M177.861 129.056L176.859 130.057C176.468 130.449 176.468 131.083 176.859 131.475C177.25 131.866 177.885 131.866 178.276 131.475L179.278 130.473L180.279 131.475C180.671 131.866 181.305 131.866 181.697 131.475C182.088 131.083 182.088 130.449 181.697 130.057L180.695 129.056L181.697 128.054C182.088 127.663 182.088 127.029 181.697 126.637C181.501 126.441 181.245 126.344 180.988 126.344C180.731 126.344 180.475 126.441 180.279 126.637L179.277 127.639L178.276 126.637C178.08 126.441 177.824 126.344 177.567 126.344C177.31 126.344 177.054 126.441 176.858 126.637C176.467 127.029 176.467 127.663 176.858 128.054L177.859 129.056H177.861Z" fill="white"/>
<path d="M34.7585 150.633L33.757 151.634C33.3656 152.026 33.3656 152.66 33.757 153.051C34.1484 153.443 34.783 153.443 35.1743 153.051L36.1758 152.05L37.1773 153.051C37.5687 153.443 38.2033 153.443 38.5946 153.051C38.986 152.66 38.986 152.026 38.5946 151.634L37.5931 150.633L38.5946 149.631C38.986 149.24 38.986 148.605 38.5946 148.214C38.3987 148.018 38.1425 147.92 37.8857 147.92C37.629 147.92 37.3728 148.018 37.1768 148.214L36.1753 149.215L35.1738 148.214C34.9778 148.018 34.7216 147.92 34.4649 147.92C34.2081 147.92 33.9519 148.018 33.7559 148.214C33.3646 148.605 33.3646 149.24 33.7559 149.631L34.7574 150.633H34.7585Z" fill="white"/>
<path d="M9.13401 61.8629L8.13251 62.8644C7.74113 63.2557 7.74113 63.8903 8.13251 64.2817C8.52388 64.6731 9.15844 64.6731 9.54981 64.2817L10.5513 63.2802L11.5528 64.2817C11.9442 64.6731 12.5788 64.6731 12.9701 64.2817C13.3615 63.8903 13.3615 63.2557 12.9701 62.8644L11.9686 61.8629L12.9701 60.8614C13.3615 60.47 13.3615 59.8354 12.9701 59.4441C12.7742 59.2481 12.518 59.1504 12.2612 59.1504C12.0045 59.1504 11.7482 59.2481 11.5523 59.4441L10.5508 60.4456L9.54927 59.4441C9.35331 59.2481 9.0971 59.1504 8.84035 59.1504C8.58359 59.1504 8.32738 59.2481 8.13142 59.4441C7.74005 59.8354 7.74005 60.47 8.13142 60.8614L9.13293 61.8629H9.13401Z" fill="white"/>
<path d="M129.673 10.3941L128.671 11.3956C128.28 11.787 128.28 12.4216 128.671 12.8129C129.062 13.2043 129.697 13.2043 130.088 12.8129L131.09 11.8114L132.091 12.8129C132.483 13.2043 133.117 13.2043 133.509 12.8129C133.9 12.4216 133.9 11.787 133.509 11.3956L132.507 10.3941L133.509 9.39262C133.9 9.00124 133.9 8.36668 133.509 7.97531C133.313 7.77935 133.057 7.68164 132.8 7.68164C132.543 7.68164 132.287 7.77935 132.091 7.97531L131.089 8.97681L130.088 7.97531C129.892 7.77935 129.636 7.68164 129.379 7.68164C129.122 7.68164 128.866 7.77935 128.67 7.97531C128.279 8.36668 128.279 9.00124 128.67 9.39262L129.671 10.3941H129.673Z" fill="white"/>
<path d="M111.336 152.029C112.951 152.029 114.264 153.342 114.264 154.957C114.264 156.571 112.951 157.885 111.336 157.885C109.722 157.885 108.408 156.571 108.408 154.957C108.408 153.342 109.722 152.029 111.336 152.029ZM111.336 155.88C111.845 155.88 112.26 155.466 112.26 154.957C112.26 154.448 111.845 154.033 111.336 154.033C110.827 154.033 110.413 154.448 110.413 154.957C110.413 155.466 110.827 155.88 111.336 155.88Z" fill="white"/>
<path d="M166.519 58.7302C168.134 58.7302 169.447 60.0439 169.447 61.6582C169.447 63.2726 168.134 64.5862 166.519 64.5862C164.905 64.5862 163.591 63.2726 163.591 61.6582C163.591 60.0439 164.905 58.7302 166.519 58.7302ZM166.519 62.5815C167.028 62.5815 167.443 62.1674 167.443 61.6582C167.443 61.149 167.028 60.7349 166.519 60.7349C166.01 60.7349 165.596 61.149 165.596 61.6582C165.596 62.1674 166.01 62.5815 166.519 62.5815Z" fill="white"/>
<path d="M43.9475 11.739C45.5619 11.739 46.8755 13.0526 46.8755 14.667C46.8755 16.2813 45.5619 17.595 43.9475 17.595C42.3332 17.595 41.0195 16.2813 41.0195 14.667C41.0195 13.0526 42.3332 11.739 43.9475 11.739ZM43.9475 15.5903C44.4567 15.5903 44.8709 15.1762 44.8709 14.667C44.8709 14.1578 44.4567 13.7437 43.9475 13.7437C43.4383 13.7437 43.0242 14.1578 43.0242 14.667C43.0242 15.1762 43.4383 15.5903 43.9475 15.5903Z" fill="white"/>
<path d="M9.83716 103.158C11.4515 103.158 12.7651 104.472 12.7651 106.086C12.7651 107.7 11.4515 109.014 9.83716 109.014C8.22281 109.014 6.90918 107.7 6.90918 106.086C6.90918 104.472 8.22281 103.158 9.83716 103.158ZM9.83716 107.009C10.3463 107.009 10.7605 106.595 10.7605 106.086C10.7605 105.577 10.3463 105.163 9.83716 105.163C9.32799 105.163 8.91382 105.577 8.91382 106.086C8.91382 106.595 9.32799 107.009 9.83716 107.009Z" fill="white"/>
<path d="M4.24872 67.3637C6.96283 70.0778 10.6442 71.6031 14.4831 71.6031C17.3671 71.6031 20.1615 70.7422 22.5244 69.1632L12.2211 79.4665C9.50703 82.1806 7.9817 85.862 7.9817 89.7008C7.9817 93.5397 9.50649 97.2211 12.2211 99.9352C14.9352 102.649 18.6167 104.175 22.4555 104.175C25.339 104.175 28.134 103.314 30.4969 101.735L25.0893 107.143C22.3752 109.857 20.8498 113.538 20.8498 117.377C20.8498 121.216 22.3746 124.897 25.0893 127.611C27.8034 130.326 31.4848 131.851 35.3236 131.851C38.2071 131.851 41.0021 130.99 43.365 129.411L42.0438 130.733C39.3297 133.447 37.8043 137.128 37.8043 140.967C37.8043 144.806 39.3291 148.487 42.0438 151.201C44.7579 153.916 48.4393 155.441 52.2781 155.441C56.117 155.441 59.7984 153.916 62.5125 151.201L76.228 137.486C74.6489 139.849 73.7885 142.644 73.7885 145.527C73.7885 149.366 75.3133 153.048 78.028 155.762C80.7421 158.476 84.4235 160.001 88.2623 160.001C92.1012 160.001 95.7826 158.476 98.4967 155.762L119.336 134.922C117.757 137.285 116.897 140.08 116.897 142.964C116.897 146.802 118.422 150.484 121.136 153.198C123.85 155.912 127.532 157.437 131.371 157.437C135.209 157.437 138.891 155.913 141.605 153.198L174.048 120.755C176.762 118.041 178.287 114.36 178.287 110.521C178.287 106.682 176.762 103.001 174.048 100.286C171.334 97.5723 167.652 96.047 163.813 96.047C160.93 96.047 158.135 96.9079 155.772 98.4864L162.563 91.6952C165.277 88.981 166.803 85.2996 166.803 81.4608C166.803 77.6219 165.278 73.9405 162.563 71.2264C159.849 68.5123 156.168 66.987 152.329 66.987C149.445 66.987 146.65 67.8479 144.288 69.4264L158.003 55.7109C160.717 52.9968 162.242 49.3154 162.242 45.4766C162.242 41.6377 160.718 37.9563 158.003 35.2422C155.289 32.5281 151.607 31.0028 147.769 31.0028C144.885 31.0028 142.09 31.8637 139.727 33.4422L148.462 24.7077C151.176 21.9936 152.701 18.3122 152.701 14.4733C152.701 10.6345 151.176 6.95306 148.462 4.23895C145.748 1.52484 142.066 -0.000488281 138.227 -0.000488281C134.389 -0.000488281 130.707 1.5243 127.993 4.23895L108.537 23.6948C110.116 21.3319 110.977 18.5369 110.977 15.6534C110.977 11.8146 109.452 8.13315 106.737 5.41905C104.023 2.70494 100.342 1.17961 96.5029 1.17961C92.6641 1.17961 88.9827 2.70439 86.2686 5.41905L58.9597 32.7279C60.5388 30.365 61.3997 27.57 61.3997 24.686C61.3997 20.8471 59.8749 17.1657 57.1603 14.4516C54.4462 11.7375 50.7647 10.2122 46.9259 10.2122C43.0871 10.2122 39.4057 11.7369 36.6916 14.4516L4.24872 46.895C1.53406 49.6096 0.00927734 53.291 0.00927734 57.1293C0.00927734 60.9676 1.53406 64.6496 4.24872 67.3637Z" fill="#E9F4FA"/>
<path d="M177.861 129.056L176.859 130.057C176.468 130.449 176.468 131.083 176.859 131.475C177.25 131.866 177.885 131.866 178.276 131.475L179.278 130.473L180.279 131.475C180.671 131.866 181.305 131.866 181.697 131.475C182.088 131.083 182.088 130.449 181.697 130.057L180.695 129.056L181.697 128.054C182.088 127.663 182.088 127.029 181.697 126.637C181.501 126.441 181.245 126.344 180.988 126.344C180.731 126.344 180.475 126.441 180.279 126.637L179.277 127.639L178.276 126.637C178.08 126.441 177.824 126.344 177.567 126.344C177.31 126.344 177.054 126.441 176.858 126.637C176.467 127.029 176.467 127.663 176.858 128.054L177.859 129.056H177.861Z" fill="#036FAD"/>
<path d="M34.7585 150.633L33.757 151.634C33.3656 152.026 33.3656 152.66 33.757 153.051C34.1484 153.443 34.783 153.443 35.1743 153.051L36.1758 152.05L37.1773 153.051C37.5687 153.443 38.2033 153.443 38.5946 153.051C38.986 152.66 38.986 152.026 38.5946 151.634L37.5931 150.633L38.5946 149.631C38.986 149.24 38.986 148.605 38.5946 148.214C38.3987 148.018 38.1425 147.92 37.8857 147.92C37.629 147.92 37.3728 148.018 37.1768 148.214L36.1753 149.215L35.1738 148.214C34.9778 148.018 34.7216 147.92 34.4649 147.92C34.2081 147.92 33.9519 148.018 33.7559 148.214C33.3646 148.605 33.3646 149.24 33.7559 149.631L34.7574 150.633H34.7585Z" fill="#036FAD"/>
<path d="M9.13401 61.8629L8.13251 62.8644C7.74113 63.2557 7.74113 63.8903 8.13251 64.2817C8.52388 64.6731 9.15844 64.6731 9.54981 64.2817L10.5513 63.2802L11.5528 64.2817C11.9442 64.6731 12.5788 64.6731 12.9701 64.2817C13.3615 63.8903 13.3615 63.2557 12.9701 62.8644L11.9686 61.8629L12.9701 60.8614C13.3615 60.47 13.3615 59.8354 12.9701 59.4441C12.7742 59.2481 12.518 59.1504 12.2612 59.1504C12.0045 59.1504 11.7482 59.2481 11.5523 59.4441L10.5508 60.4456L9.54927 59.4441C9.35331 59.2481 9.0971 59.1504 8.84035 59.1504C8.58359 59.1504 8.32738 59.2481 8.13142 59.4441C7.74005 59.8354 7.74005 60.47 8.13142 60.8614L9.13293 61.8629H9.13401Z" fill="#036FAD"/>
<path d="M129.673 10.3941L128.671 11.3956C128.28 11.787 128.28 12.4216 128.671 12.8129C129.062 13.2043 129.697 13.2043 130.088 12.8129L131.09 11.8114L132.091 12.8129C132.483 13.2043 133.117 13.2043 133.509 12.8129C133.9 12.4216 133.9 11.787 133.509 11.3956L132.507 10.3941L133.509 9.39262C133.9 9.00124 133.9 8.36668 133.509 7.97531C133.313 7.77935 133.057 7.68164 132.8 7.68164C132.543 7.68164 132.287 7.77935 132.091 7.97531L131.089 8.97681L130.088 7.97531C129.892 7.77935 129.636 7.68164 129.379 7.68164C129.122 7.68164 128.866 7.77935 128.67 7.97531C128.279 8.36668 128.279 9.00124 128.67 9.39262L129.671 10.3941H129.673Z" fill="#036FAD"/>
<path d="M111.336 152.029C112.951 152.029 114.264 153.342 114.264 154.957C114.264 156.571 112.951 157.885 111.336 157.885C109.722 157.885 108.408 156.571 108.408 154.957C108.408 153.342 109.722 152.029 111.336 152.029ZM111.336 155.88C111.845 155.88 112.26 155.466 112.26 154.957C112.26 154.448 111.845 154.033 111.336 154.033C110.827 154.033 110.413 154.448 110.413 154.957C110.413 155.466 110.827 155.88 111.336 155.88Z" fill="#036FAD"/>
<path d="M166.519 58.7302C168.134 58.7302 169.447 60.0439 169.447 61.6582C169.447 63.2726 168.134 64.5862 166.519 64.5862C164.905 64.5862 163.591 63.2726 163.591 61.6582C163.591 60.0439 164.905 58.7302 166.519 58.7302ZM166.519 62.5815C167.028 62.5815 167.443 62.1674 167.443 61.6582C167.443 61.149 167.028 60.7349 166.519 60.7349C166.01 60.7349 165.596 61.149 165.596 61.6582C165.596 62.1674 166.01 62.5815 166.519 62.5815Z" fill="#036FAD"/>
<path d="M43.9475 11.739C45.5619 11.739 46.8755 13.0526 46.8755 14.667C46.8755 16.2813 45.5619 17.595 43.9475 17.595C42.3332 17.595 41.0195 16.2813 41.0195 14.667C41.0195 13.0526 42.3332 11.739 43.9475 11.739ZM43.9475 15.5903C44.4567 15.5903 44.8709 15.1762 44.8709 14.667C44.8709 14.1578 44.4567 13.7437 43.9475 13.7437C43.4383 13.7437 43.0242 14.1578 43.0242 14.667C43.0242 15.1762 43.4383 15.5903 43.9475 15.5903Z" fill="#036FAD"/>
<path d="M9.83716 103.158C11.4515 103.158 12.7651 104.472 12.7651 106.086C12.7651 107.7 11.4515 109.014 9.83716 109.014C8.22281 109.014 6.90918 107.7 6.90918 106.086C6.90918 104.472 8.22281 103.158 9.83716 103.158ZM9.83716 107.009C10.3463 107.009 10.7605 106.595 10.7605 106.086C10.7605 105.577 10.3463 105.163 9.83716 105.163C9.32799 105.163 8.91382 105.577 8.91382 106.086C8.91382 106.595 9.32799 107.009 9.83716 107.009Z" fill="#036FAD"/>
<path d="M81.771 72.7228L130.616 65.1484L137.076 88.4528L88.2297 96.0272L81.771 72.7228Z" fill="#036FAD"/>
<path d="M25.6943 88.6542L32.1495 65.3635L80.983 72.9357L80.9685 72.9886L80.9815 72.9908L74.5402 96.2285L25.6943 88.6542Z" fill="#036FAD"/>
<path d="M81.6326 71.3868L81.3151 71.4361L81.1723 71.4586L81.1338 71.6021L81.057 71.887L80.783 72.9047L80.6808 73.2853L80.6098 73.5484L80.3299 74.5879L79.9748 75.9065L74.5033 96.2229L74.4946 96.2548L32.8462 89.7997V118.227L79.9748 125.534L81.3158 125.743L81.5137 125.774L81.7116 125.804V71.3745L81.6333 71.3868H81.6326ZM34.1865 117.078V91.3647L75.4761 97.764L75.4848 97.7329L79.974 81.0626V124.178L34.1865 117.078Z" fill="white"/>
<path d="M79.9736 81.0625V124.177L34.186 117.078V91.3646L75.4756 97.7639L75.4843 97.7327L79.9736 81.0625Z" fill="white"/>
<path d="M88.2765 96.0522L88.2678 96.0211L83.0523 76.655L82.4412 74.3861L82.2172 73.5539L82.0903 73.0834L81.9838 72.6891L81.7395 71.7808L81.7156 71.6924L81.7112 71.6757L81.6329 71.3865L81.3154 71.4358V125.804L81.5133 125.773L81.7112 125.742L83.0523 125.534L130.182 118.227V89.558L88.2765 96.0522ZM128.841 117.078L83.0523 124.177L82.6565 124.239V80.3417L83.0523 81.8111L87.2856 97.5303L87.2943 97.5614L128.841 91.123V117.078Z" fill="white"/>
<path d="M128.841 91.1233V117.078L83.0515 124.177L82.6558 124.239V80.342L83.0515 81.8114L87.2849 97.5306L87.2936 97.5617L128.841 91.1233Z" fill="#EFEFEF"/>
<path d="M132.052 65.3085L126.441 64.4386L81.3455 57.45L35.5943 64.5408L30.7796 65.2867L30.71 65.5368L32.0445 65.7441L79.347 73.0785L79.974 73.1757L80.5293 73.2619L80.6801 73.2851L80.7345 73.2938L80.9048 73.2677L81.3151 73.2039L81.7109 73.1423L81.8805 73.1162L82.09 73.0836L82.3589 73.0423L83.0519 72.9343L83.4231 72.877L130.726 65.5419L132.06 65.3353L132.052 65.3085ZM81.3455 58.8069L122.062 65.1178L83.0548 71.1663H83.0519L82.9664 71.18L81.7109 71.3743L81.6326 71.3866L81.3151 71.4359L81.1723 71.4584L80.6895 71.5331L79.9748 71.4222L79.8008 71.3953L79.6993 71.3794L39.9711 65.2193L81.3463 58.8069H81.3455Z" fill="white"/>
<path d="M122.062 65.118L83.0546 71.1665L83.0517 71.1672L82.9662 71.1802L81.7107 71.3745L81.6324 71.3868L81.3149 71.4361L81.1721 71.4586H81.1714L80.6886 71.5333L79.9739 71.4223L79.7999 71.3955L79.6984 71.3796L39.9702 65.2195L81.3454 58.8071L122.062 65.118Z" fill="#DDDDDD"/>
<path d="M35.645 121.598L81.8283 128.76L81.8435 128.762L83.3824 129L84.9214 128.762L84.9366 128.76L131.121 121.598L133.392 121.246V92.5405L137.661 91.878L140.641 91.4162L139.835 88.5116L134.29 68.5061L134.097 67.8095L133.93 67.205L133.922 67.1781L133.529 65.7603L132.686 65.6298L125.668 64.5417L83.626 58.0264L83.215 57.9626L82.804 58.0264L40.1501 64.6367L33.0847 65.7313L33.0455 65.7255L33.0419 65.7378L32.649 67.1564L32.5794 67.4065L32.4083 68.0248L32.2192 68.7077L26.6745 88.7131L25.8691 91.6185L28.8477 92.0802L33.3739 92.7819V121.246L35.645 121.598ZM36.056 118.947V93.2342L77.3456 99.6335L77.3543 99.6024L81.8435 82.9321V126.047L36.056 118.947ZM130.71 118.947L84.9214 126.047L84.5256 126.109V82.2116L84.9214 83.6809L89.1547 99.4001L89.1634 99.4313L130.71 92.9928V118.947ZM137.25 89.2278L130.219 90.318L91.1199 96.381L87.1156 81.5142L85.6434 76.0493L125.668 69.8428L131.622 68.92L137.25 89.2278ZM83.215 60.6766L123.932 66.9875L84.9243 73.036H84.9214L84.8358 73.0497L83.5803 73.244L83.5021 73.2563L83.1846 73.3056L83.0418 73.3281H83.041L82.5583 73.4027L81.8435 73.2918L81.6695 73.265L81.5681 73.2491L41.8399 67.089L83.215 60.6766ZM29.2587 89.4293L34.8875 69.1216L40.1501 69.9378L80.8656 76.2508L79.65 80.7647L75.3898 96.5832L29.2587 89.4293Z" fill="#DDDDDD"/>
<path d="M137.966 86.642L132.421 66.6366L132.228 65.94L132.06 65.3354L132.052 65.3086L131.659 63.8907L130.816 63.7603L129.232 64.006L126.441 64.4387L122.063 65.118L83.055 71.1664H83.0521L82.9665 71.1802L81.711 71.3745L81.6328 71.3868L81.3153 71.4361L81.1725 71.4586L80.6897 71.5332L80.0771 71.6282L80.1373 71.8442L80.4149 72.8474L80.5302 73.2621L80.6099 73.5484L80.7187 73.9427L80.8825 74.5328L80.9079 74.6241L81.316 76.0971L81.4146 76.4523L81.7118 77.5251L82.657 80.9357V80.3421L83.0528 81.8114L87.2862 97.5306L89.6152 97.1696L128.761 91.0994L130.183 90.879L131.524 90.671L135.793 90.0084L138.772 89.5467L137.967 86.642H137.966ZM128.35 88.4485L89.2506 94.5114L89.2035 94.5187L83.5755 74.2102L83.466 73.8166L83.6682 73.7854L129.643 66.6562L129.752 67.0505L135.381 87.3582L128.35 88.4485Z" fill="#333333"/>
<path d="M82.6782 71.842L82.0128 71.7391L81.7156 71.6927H81.7112L81.3154 71.6304L81.1335 71.6021L80.6891 71.5332L79.9744 71.4223L79.8004 71.3955L79.6989 71.3796L39.9707 65.2195L35.5946 64.541L33.5352 64.2213L31.2155 63.8618L31.1764 63.856L31.1728 63.8683L30.7799 65.2869L30.7103 65.537L30.5392 66.1553L30.35 66.8381L24.8053 86.8436L24 89.7489L26.9786 90.2107L31.5048 90.9124L32.8458 91.1204L73.1561 97.3711L75.4851 97.7329L79.9744 81.0626V81.6462L80.3702 80.2181L81.3154 76.8075L81.414 76.4523L81.7112 75.3795L81.8721 74.7989L81.9664 74.4603L82.1099 73.9435V73.942L82.2172 73.5542L82.3593 73.0425L82.4781 72.6126L82.6753 71.9008L82.6623 71.8986L82.6782 71.842ZM73.5207 94.7137L27.3896 87.5598L33.0183 67.2521L33.1242 66.8715L79.0987 74.0015L79.2879 74.0305L79.2741 74.0798L79.2879 74.0819L79.1966 74.4125L73.5671 94.7209L73.5207 94.7137Z" fill="#333333"/>
<path d="M82.9656 71.1803L81.7101 71.3746L81.6318 71.3869L81.3143 71.4362L81.1715 71.4586L80.6887 71.5333L79.974 71.4224L79.8 71.3956L79.6978 71.7761L79.4492 72.6982L79.347 73.0788L79.0983 74.0015L78.9961 74.3814L77.7805 78.8953L73.5203 94.7138L73.5116 94.7457L34.5975 88.7146L31.5044 88.2354V119.377L33.7755 119.728L79.9588 126.89L79.974 126.892L81.5129 127.131L83.0519 126.892V124.178L82.6561 124.239V80.3421L83.0519 81.8115V71.1672L82.9663 71.1803H82.9656ZM34.1858 91.3648L75.4753 97.7641L75.484 97.7329L79.9733 81.0627L80.3691 79.5933V124.239L79.9733 124.178L34.1858 117.078V91.3648Z" fill="#333333"/>
<path d="M128.43 88.4726L89.259 94.5435L89.2503 94.5117L85.246 79.6449L83.7737 74.18L83.6679 73.7857L83.4229 72.8774L83.3171 72.4823L83.0721 71.5748L83.0518 71.4986L82.9662 71.1804L81.7107 71.3747L81.6324 71.387L81.3149 71.4363L81.1721 71.4588L80.6893 71.5334L79.9746 71.4225V126.892L81.5135 127.131L83.0525 126.892L83.0677 126.89L129.252 119.728L131.524 119.377V87.9935L128.43 88.4726H128.43ZM87.2938 97.562L128.841 91.1235V117.078L83.0518 124.178L82.656 124.239V80.3423L83.0518 81.8116L87.2851 97.5308L87.2938 97.562Z" fill="#333333"/>
<path d="M122.062 65.1179L83.0547 71.1663H83.0518L82.9663 71.1801L81.7108 71.3744L81.6325 71.3867L81.315 71.436L81.1722 71.4585L80.6894 71.5331L79.9747 71.4222L79.8007 71.3954L79.6992 71.3795L39.971 65.2193L38.6923 65.4173L79.6985 71.776L79.9747 71.8187L80.1371 71.8441L80.7351 71.9369L81.0569 71.8869L81.3157 71.847L81.7115 71.7854L81.7398 71.781L82.0131 71.739L83.0526 71.5773L83.0729 71.5744L123.388 65.323L122.063 65.1179H122.062ZM132.227 65.9399L132.06 65.3353L132.052 65.3085L131.659 63.8906L130.816 63.7602L123.799 62.6721L81.7565 56.1568L81.3455 56.093L80.9344 56.1568L38.2806 62.7671L31.2151 63.8616L31.1724 63.8682L30.7795 65.2868L30.7099 65.5368L30.5388 66.1552L30.3496 66.838L31.6834 67.0453L33.0179 67.2519L38.2806 68.0682L78.9961 74.3812L79.1962 74.4124L79.974 74.5327L80.3234 74.5871H80.3292L80.53 74.619L80.7344 74.6509L80.9069 74.624L81.1454 74.5871L81.315 74.561L81.7108 74.4994L81.966 74.4602L82.2407 74.4174L82.4408 74.3863L83.0518 74.2913L83.5752 74.2101L83.7738 74.1797L123.799 67.9732L129.752 67.0504L131.086 66.8431L132.42 66.6365L132.227 65.9399ZM81.3455 58.807L122.062 65.1179L83.0547 71.1663H83.0518L82.9663 71.1801L81.7108 71.3744L81.6325 71.3867L81.315 71.436L81.1722 71.4585L80.6894 71.5331L79.9747 71.4222L79.8007 71.3954L79.6992 71.3795L39.971 65.2193L81.3462 58.807H81.3455Z" fill="#333333"/>
<path d="M132.256 92.3891C128.551 92.3891 124.954 91.6626 121.567 90.23C118.297 88.847 115.361 86.8674 112.84 84.3466C110.319 81.8259 108.339 78.8895 106.956 75.6194C105.524 72.2323 104.797 68.6359 104.797 64.9301C104.797 61.2244 105.524 57.628 106.956 54.2409C108.339 50.9708 110.319 48.0344 112.84 45.5137C115.361 42.9929 118.297 41.0133 121.567 39.6303C124.954 38.1977 128.551 37.4712 132.256 37.4712C135.962 37.4712 139.558 38.1977 142.946 39.6303C146.216 41.0133 149.152 42.9929 151.673 45.5137C154.194 48.0347 156.173 50.9708 157.556 54.2409C158.989 57.628 159.715 61.2244 159.715 64.9301C159.715 68.6359 158.989 72.2323 157.556 75.6194C156.173 78.8895 154.194 81.8259 151.673 84.3466C149.152 86.8677 146.216 88.847 142.946 90.23C139.558 91.6626 135.962 92.3891 132.256 92.3891Z" fill="#DDDDDD"/>
<path d="M158.15 53.9897C156.817 50.8373 154.942 47.9883 152.573 45.5123C152.427 45.3592 152.279 45.2075 152.129 45.0577C149.548 42.4781 146.543 40.4518 143.197 39.036C139.73 37.5698 136.049 36.8262 132.256 36.8262C128.464 36.8262 124.783 37.5698 121.316 39.036C117.969 40.4518 114.964 42.4778 112.384 45.0577C109.804 47.6379 107.778 50.6428 106.362 53.9897C104.896 57.4569 104.152 61.1375 104.152 64.93C104.152 68.7225 104.896 72.4035 106.362 75.8703C107.778 79.2173 109.804 82.2228 112.384 84.8027C112.535 84.9541 112.688 85.1036 112.843 85.2515C115.318 87.6182 118.165 89.4915 121.316 90.8243C124.783 92.2906 128.464 93.0342 132.256 93.0342C136.049 93.0342 139.73 92.2906 143.197 90.8243C146.543 89.4085 149.549 87.3826 152.129 84.8027C154.709 82.2225 156.734 79.2173 158.15 75.8703C159.617 72.4035 160.36 68.7225 160.36 64.93C160.36 61.1375 159.617 57.4569 158.15 53.9897ZM121.818 89.6365C118.819 88.3679 116.108 86.5863 113.75 84.3349C113.597 84.1893 113.446 84.0411 113.296 83.8906C110.834 81.4287 108.901 78.5615 107.55 75.3682C106.151 72.0608 105.442 68.5489 105.442 64.93C105.442 61.3111 106.151 57.7993 107.55 54.4922C108.901 51.2989 110.834 48.4316 113.296 45.9697C115.757 43.5078 118.625 41.5744 121.818 40.2239C125.125 38.8251 128.637 38.116 132.256 38.116C135.875 38.116 139.387 38.8255 142.694 40.2239C145.888 41.5744 148.755 43.5078 151.217 45.9697C151.366 46.1186 151.513 46.2687 151.657 46.4204C153.91 48.7791 155.693 51.4918 156.962 54.4922C158.361 57.7989 159.07 61.3111 159.07 64.93C159.07 68.5489 158.361 72.0608 156.962 75.3682C155.611 78.5615 153.678 81.4287 151.216 83.8906C148.755 86.3525 145.887 88.2856 142.694 89.6365C139.387 91.0352 135.875 91.7444 132.256 91.7444C128.637 91.7444 125.125 91.0349 121.818 89.6365H121.818Z" fill="#333333"/>
<path d="M147.721 80.3953C156.262 71.8541 156.262 58.0062 147.721 49.4651C139.18 40.9239 125.332 40.9239 116.791 49.4651C108.25 58.0062 108.25 71.8541 116.791 80.3953C125.332 88.9364 139.18 88.9364 147.721 80.3953Z" fill="white"/>
<path d="M148.612 49.4723C144.505 45.1282 138.691 42.4146 132.256 42.4146C119.84 42.4146 109.74 52.5152 109.74 64.9301C109.74 71.3661 112.454 77.1798 116.798 81.2867C120.834 85.103 126.276 87.446 132.256 87.446C144.671 87.446 154.772 77.3454 154.772 64.9301C154.772 58.9509 152.429 53.5079 148.613 49.4723H148.612ZM117.711 80.3756C117.711 80.3756 117.71 80.3747 117.709 80.374C113.599 76.5005 111.03 71.0096 111.03 64.9301C111.03 53.2263 120.551 43.7043 132.256 43.7043C138.336 43.7043 143.828 46.2742 147.701 50.3853C147.702 50.3863 147.703 50.387 147.703 50.3873C151.284 54.1888 153.482 59.3074 153.482 64.9298C153.482 76.6339 143.96 86.1559 132.256 86.1559C126.632 86.1559 121.513 83.9579 117.711 80.3756Z" fill="#333333"/>
<path d="M142.787 78.2551C142.041 78.2551 141.339 77.9645 140.811 77.4366L132.256 68.8817L123.701 77.4366C123.173 77.9645 122.472 78.2551 121.725 78.2551C120.979 78.2551 120.278 77.9645 119.75 77.4366C119.222 76.9091 118.931 76.2073 118.931 75.4608C118.931 74.7143 119.222 74.0128 119.75 73.485L128.305 64.93L119.75 56.3751C119.222 55.8472 118.931 55.1458 118.931 54.3993C118.931 53.6528 119.222 52.9513 119.75 52.4235C120.277 51.8956 120.979 51.605 121.725 51.605C122.472 51.605 123.173 51.8956 123.701 52.4235L132.256 60.9784L140.811 52.4235C141.339 51.8956 142.04 51.605 142.787 51.605C143.533 51.605 144.235 51.8956 144.763 52.4235C145.852 53.513 145.852 55.2856 144.763 56.3748L136.208 64.9297L144.763 73.4846C145.852 74.5741 145.852 76.3468 144.763 77.436C144.235 77.9638 143.533 78.2544 142.787 78.2544V78.2551Z" fill="#036FAD"/>
<path d="M138.019 65.8291L137.12 64.9299L145.218 56.8312C145.868 56.1818 146.226 55.3183 146.226 54.3995C146.226 53.6964 146.016 53.0255 145.627 52.4584C145.507 52.2845 145.371 52.1202 145.218 51.9675C144.569 51.3181 143.705 50.9603 142.787 50.9603C141.868 50.9603 141.005 51.3181 140.355 51.9675L132.256 60.0662L125.056 52.8663L124.157 51.9672C123.507 51.3178 122.644 50.96 121.725 50.96C120.806 50.96 119.943 51.3178 119.293 51.9672C118.643 52.6166 118.286 53.48 118.286 54.3992C118.286 55.3183 118.643 56.1811 119.293 56.8308L120.18 57.7178C120.184 57.722 120.188 57.7258 120.192 57.73L127.392 64.9299L119.293 73.029C118.644 73.6784 118.286 74.5419 118.286 75.4607C118.286 76.3794 118.644 77.2429 119.293 77.8927C119.446 78.045 119.61 78.1813 119.784 78.3006C120.351 78.6902 121.022 78.8999 121.725 78.8999C122.644 78.8999 123.507 78.542 124.157 77.8927L132.256 69.7936L133.155 70.6928L140.356 77.8943C141.006 78.5427 141.869 78.8999 142.787 78.8999C143.704 78.8999 144.569 78.542 145.218 77.8927C145.868 77.2433 146.226 76.3794 146.226 75.4607C146.226 74.5419 145.868 73.6787 145.218 73.029L138.018 65.8288L138.019 65.8291ZM141.267 76.9806L132.256 67.9695L123.245 76.9806C122.826 77.4001 122.276 77.6098 121.725 77.6098C121.38 77.6098 121.036 77.5271 120.723 77.3622C120.537 77.2642 120.362 77.1365 120.206 76.9806C119.366 76.1412 119.366 74.7804 120.206 73.941L129.217 64.9299L121.105 56.8177L120.206 55.9188C119.366 55.0794 119.366 53.7186 120.206 52.8792C120.625 52.4593 121.175 52.2501 121.725 52.2501C122.275 52.2501 122.825 52.4597 123.245 52.8792L132.256 61.8903L141.267 52.8792C141.687 52.4593 142.237 52.2501 142.787 52.2501C143.337 52.2501 143.886 52.4597 144.306 52.8792C144.463 53.0358 144.59 53.21 144.688 53.3961C145.116 54.2076 144.989 55.2357 144.306 55.9188L135.296 64.9296L136.194 65.8288L144.307 73.941C145.146 74.7804 145.146 76.1412 144.307 76.9806C143.887 77.4001 143.337 77.6098 142.787 77.6098C142.237 77.6098 141.687 77.3998 141.267 76.9806Z" fill="#333333"/>
<g style="mix-blend-mode:multiply">
<path d="M159.049 54.8888C157.633 51.5419 155.607 48.5367 153.027 45.9568C152.877 45.8066 152.726 45.6584 152.573 45.5122C150.097 43.1432 147.248 41.2686 144.095 39.9351C142.655 39.3262 141.178 38.8414 139.671 38.4833C137.551 37.9796 135.372 37.7256 133.155 37.7256C129.362 37.7256 125.681 38.4692 122.215 39.9354C118.868 41.3512 115.862 43.3769 113.283 45.9571C110.702 48.5373 108.677 51.5422 107.261 54.8891C105.794 58.356 105.051 62.0369 105.051 65.8294C105.051 68.0467 105.305 70.2257 105.809 72.3462C106.168 73.8526 106.652 75.3295 107.261 76.7697C108.595 79.9241 110.471 82.775 112.842 85.2517C112.987 85.4034 113.134 85.5532 113.283 85.7018C115.862 88.282 118.868 90.3076 122.215 91.7234C125.681 93.19 129.362 93.9336 133.155 93.9336C135.47 93.9336 137.744 93.6565 139.953 93.1068C140.722 92.9158 141.483 92.6911 142.236 92.4336C142.862 92.2198 143.482 91.9832 144.095 91.7234C147.442 90.3076 150.447 88.282 153.027 85.7018C155.607 83.1222 157.633 80.1167 159.049 76.7697C160.515 73.3029 161.259 69.6219 161.259 65.8294C161.259 62.0369 160.515 58.356 159.049 54.8891V54.8888ZM143.593 90.5352C140.286 91.9343 136.774 92.6435 133.155 92.6435C130.676 92.6435 128.248 92.3105 125.901 91.6514C124.821 91.3483 123.759 90.9757 122.717 90.5352C119.524 89.1847 116.656 87.2516 114.194 84.7897C114.044 84.6396 113.896 84.4882 113.75 84.3348C111.499 81.9771 109.717 79.266 108.449 76.2673C107.05 72.9599 106.341 69.448 106.341 65.8291C106.341 62.2102 107.05 58.6983 108.449 55.391C109.799 52.1977 111.732 49.3304 114.194 46.8685C116.656 44.4066 119.524 42.4735 122.717 41.123C126.024 39.7239 129.536 39.015 133.155 39.015C136.774 39.015 140.286 39.7242 143.593 41.123C146.589 42.3906 149.299 44.171 151.656 46.4204C151.811 46.5676 151.964 46.7171 152.116 46.8682C154.577 49.3301 156.511 52.1974 157.861 55.3906C158.301 56.4309 158.672 57.4909 158.976 58.5685C159.636 60.9169 159.969 63.3476 159.969 65.8285C159.969 69.4474 159.26 72.9592 157.861 76.2666C156.511 79.4599 154.577 82.3272 152.116 84.7891C149.654 87.251 146.786 89.1841 143.593 90.5346V90.5352Z" fill="#DDDDDD"/>
</g>
<g style="mix-blend-mode:multiply">
<path d="M148.613 49.4723C145.763 46.7774 142.21 44.8166 138.263 43.8979C136.622 43.5159 134.912 43.3137 133.156 43.3137C120.74 43.3137 110.64 53.414 110.64 65.8293C110.64 67.5849 110.842 69.2945 111.223 70.9354C112.142 74.8835 114.103 78.4365 116.799 81.287C120.906 85.6312 126.719 88.3455 133.156 88.3455C145.57 88.3455 155.671 78.2449 155.671 65.8296C155.671 59.3939 152.957 53.5802 148.613 49.473L148.613 49.4723ZM133.155 87.055C131.131 87.055 129.171 86.7702 127.315 86.2382C123.598 85.1728 120.295 83.1172 117.711 80.3756C117.71 80.3753 117.71 80.3747 117.709 80.374C114.127 76.5722 111.929 71.4523 111.929 65.8289C111.929 54.1251 121.451 44.6032 133.155 44.6032C138.78 44.6032 143.9 46.8021 147.702 50.3853C147.703 50.3863 147.703 50.3869 147.704 50.3873C150.446 52.9723 152.502 56.2771 153.566 59.9966C153.566 59.9966 153.566 59.997 153.566 59.9973C154.096 61.8509 154.381 63.8072 154.381 65.8289C154.381 77.5331 144.859 87.055 133.155 87.055H133.155Z" fill="#DDDDDD"/>
</g>
<g style="mix-blend-mode:multiply">
<path d="M145.218 73.0293L138.018 65.8291L146.117 57.7303C146.766 57.0809 147.124 56.2171 147.124 55.2983C147.124 54.3795 146.766 53.5164 146.117 52.8667C145.964 52.7139 145.8 52.5776 145.626 52.4584C145.139 52.1234 144.575 51.9218 143.981 51.872H143.98C143.882 51.8633 143.784 51.8591 143.685 51.8591C142.767 51.8591 141.903 52.2169 141.253 52.8667L133.155 60.9654L132.712 60.5227L132.256 60.0665L125.056 52.8667C124.476 52.287 123.727 51.9398 122.919 51.872H122.919C122.821 51.8633 122.723 51.8591 122.624 51.8591C121.706 51.8591 120.842 52.2169 120.192 52.8667C119.543 53.516 119.185 54.3795 119.185 55.2983C119.185 55.3977 119.189 55.4967 119.198 55.5947C119.265 56.3959 119.608 57.1407 120.18 57.7181C120.184 57.7223 120.188 57.7262 120.192 57.7303L127.392 64.9302L128.292 65.8294L120.193 73.9281C119.543 74.5779 119.185 75.4414 119.185 76.3601C119.185 76.4595 119.19 76.5585 119.198 76.6565C119.248 77.251 119.45 77.8139 119.784 78.3009C119.904 78.4752 120.04 78.6394 120.193 78.7921C120.842 79.4415 121.706 79.7993 122.625 79.7993C123.543 79.7993 124.407 79.4415 125.056 78.7921L133.155 70.6928L140.356 77.8943L141.254 78.7918C141.903 79.4412 142.767 79.799 143.686 79.799C144.605 79.799 145.468 79.4412 146.118 78.7915C146.767 78.1421 147.125 77.2786 147.125 76.3598C147.125 75.441 146.767 74.5779 146.118 73.9278L145.219 73.029L145.218 73.0293ZM145.205 56.818L136.194 65.8291L144.306 73.9413L145.205 74.8405C145.356 74.9916 145.48 75.1591 145.577 75.3378C146.017 76.1521 145.894 77.1915 145.205 77.8795C144.786 78.2993 144.235 78.5089 143.686 78.5089C143.334 78.5089 142.983 78.4231 142.666 78.2521C142.486 78.1553 142.318 78.0309 142.166 77.8795L133.155 68.8687L132.699 69.3245L124.144 77.8795C123.724 78.2993 123.174 78.5089 122.624 78.5089C122.273 78.5089 121.922 78.4231 121.605 78.2521C121.425 78.1553 121.256 78.0309 121.105 77.8795C120.948 77.7229 120.821 77.5487 120.723 77.3625C120.294 76.5511 120.422 75.523 121.105 74.8402L130.115 65.8291L129.217 64.9299L121.104 56.8177C120.265 55.9786 120.265 54.6181 121.104 53.7784C121.524 53.3585 122.074 53.1489 122.624 53.1489C123.174 53.1489 123.724 53.3588 124.144 53.7784L133.155 62.7895L142.165 53.7784C142.585 53.3585 143.135 53.1489 143.685 53.1489C144.03 53.1489 144.375 53.2315 144.688 53.3965C144.874 53.4951 145.049 53.6221 145.205 53.7784C145.356 53.9295 145.48 54.0973 145.576 54.2763C146.017 55.0907 145.893 56.1297 145.205 56.8177V56.818Z" fill="#DDDDDD"/>
</g>
<path d="M151.614 134.978C151.614 135.533 151.164 135.982 150.61 135.982H27.6253C27.0711 135.982 26.6211 135.533 26.6211 134.978C26.6211 134.423 27.0711 133.974 27.6253 133.974H150.61C151.164 133.974 151.614 134.424 151.614 134.978Z" fill="#333333"/>
<path d="M23.4818 135.982H18.908C18.3533 135.982 17.9038 135.533 17.9038 134.978C17.9038 134.423 18.3533 133.974 18.908 133.974H23.4818C24.0366 133.974 24.4861 134.423 24.4861 134.978C24.4861 135.533 24.0366 135.982 23.4818 135.982Z" fill="#333333"/>
<path d="M46.0048 131.061H41.431C40.8762 131.061 40.4268 130.612 40.4268 130.057C40.4268 129.502 40.8762 129.053 41.431 129.053H46.0048C46.5596 129.053 47.009 129.502 47.009 130.057C47.009 130.612 46.5596 131.061 46.0048 131.061Z" fill="#333333"/>
<path d="M37.2875 131.061H32.7137C32.1589 131.061 31.7095 130.612 31.7095 130.057C31.7095 129.502 32.1589 129.053 32.7137 129.053H37.2875C37.8423 129.053 38.2917 129.502 38.2917 130.057C38.2917 130.612 37.8423 131.061 37.2875 131.061Z" fill="#333333"/>
<path d="M136.804 131.061H132.23C131.676 131.061 131.226 130.612 131.226 130.057C131.226 129.502 131.676 129.053 132.23 129.053H136.804C137.359 129.053 137.808 129.502 137.808 130.057C137.808 130.612 137.359 131.061 136.804 131.061Z" fill="#333333"/>
<path d="M145.521 131.061H140.948C140.393 131.061 139.943 130.612 139.943 130.057C139.943 129.502 140.393 129.053 140.948 129.053H145.521C146.076 129.053 146.525 129.502 146.525 130.057C146.525 130.612 146.076 131.061 145.521 131.061Z" fill="#333333"/>
<path d="M159.327 135.982H154.753C154.198 135.982 153.749 135.533 153.749 134.978C153.749 134.423 154.198 133.974 154.753 133.974H159.327C159.881 133.974 160.331 134.423 160.331 134.978C160.331 135.533 159.881 135.982 159.327 135.982Z" fill="#333333"/>
</svg>
