<svg width="182" height="160" viewBox="0 0 182 160" fill="none" xmlns="http://www.w3.org/2000/svg">
<g clip-path="url(#clip0_1198_2519)">
<path d="M4.24896 67.3637C6.96307 70.0778 10.6445 71.6031 14.4833 71.6031C17.3673 71.6031 20.1618 70.7422 22.5247 69.1632L12.2214 79.4665C9.50728 82.1806 7.98195 85.862 7.98195 89.7008C7.98195 93.5397 9.50673 97.2211 12.2214 99.9352C14.9355 102.649 18.6169 104.175 22.4557 104.175C25.3392 104.175 28.1342 103.314 30.4971 101.735L25.0895 107.143C22.3754 109.857 20.8501 113.538 20.8501 117.377C20.8501 121.216 22.3749 124.897 25.0895 127.611C27.8036 130.326 31.485 131.851 35.3239 131.851C38.2074 131.851 41.0023 130.99 43.3652 129.411L42.044 130.733C39.3299 133.447 37.8046 137.128 37.8046 140.967C37.8046 144.806 39.3294 148.487 42.044 151.201C44.7581 153.916 48.4395 155.441 52.2784 155.441C56.1172 155.441 59.7986 153.916 62.5127 151.201L76.2282 137.486C74.6492 139.849 73.7888 142.644 73.7888 145.527C73.7888 149.366 75.3136 153.048 78.0282 155.762C80.7423 158.476 84.4237 160.001 88.2626 160.001C92.1014 160.001 95.7828 158.476 98.4969 155.762L119.336 134.922C117.757 137.285 116.897 140.08 116.897 142.964C116.897 146.802 118.422 150.484 121.136 153.198C123.851 155.912 127.532 157.437 131.371 157.437C135.21 157.437 138.891 155.913 141.605 153.198L174.048 120.755C176.762 118.041 178.287 114.36 178.287 110.521C178.287 106.682 176.763 103.001 174.048 100.286C171.334 97.5723 167.652 96.047 163.814 96.047C160.93 96.047 158.135 96.9079 155.772 98.4864L162.564 91.6952C165.278 88.981 166.803 85.2996 166.803 81.4608C166.803 77.6219 165.278 73.9405 162.564 71.2264C159.849 68.5123 156.168 66.987 152.329 66.987C149.446 66.987 146.651 67.8479 144.288 69.4264L158.003 55.7109C160.717 52.9968 162.243 49.3154 162.243 45.4766C162.243 41.6377 160.718 37.9563 158.003 35.2422C155.289 32.5281 151.608 31.0028 147.769 31.0028C144.885 31.0028 142.09 31.8637 139.728 33.4422L148.462 24.7077C151.176 21.9936 152.702 18.3122 152.702 14.4733C152.702 10.6345 151.177 6.95306 148.462 4.23895C145.748 1.52484 142.067 -0.000488281 138.228 -0.000488281C134.389 -0.000488281 130.707 1.5243 127.993 4.23895L108.538 23.6948C110.117 21.3319 110.977 18.5369 110.977 15.6534C110.977 11.8146 109.452 8.13315 106.738 5.41905C104.023 2.70494 100.342 1.17961 96.5032 1.17961C92.6643 1.17961 88.9829 2.70439 86.2688 5.41905L58.96 32.7279C60.539 30.365 61.4 27.57 61.4 24.686C61.4 20.8471 59.8752 17.1657 57.1605 14.4516C54.4464 11.7375 50.765 10.2122 46.9262 10.2122C43.0873 10.2122 39.4059 11.7369 36.6918 14.4516L4.24896 46.895C1.53431 49.6096 0.00952148 53.291 0.00952148 57.1293C0.00952148 60.9676 1.53431 64.6496 4.24896 67.3637Z" fill="white"/>
<path d="M177.861 129.056L176.859 130.057C176.468 130.449 176.468 131.083 176.859 131.475C177.251 131.866 177.885 131.866 178.277 131.475L179.278 130.473L180.28 131.475C180.671 131.866 181.306 131.866 181.697 131.475C182.088 131.083 182.088 130.449 181.697 130.057L180.695 129.056L181.697 128.054C182.088 127.663 182.088 127.029 181.697 126.637C181.501 126.441 181.245 126.344 180.988 126.344C180.731 126.344 180.475 126.441 180.279 126.637L179.278 127.639L178.276 126.637C178.08 126.441 177.824 126.344 177.567 126.344C177.31 126.344 177.054 126.441 176.858 126.637C176.467 127.029 176.467 127.663 176.858 128.054L177.86 129.056H177.861Z" fill="white"/>
<path d="M34.7588 150.633L33.7573 151.634C33.3659 152.026 33.3659 152.66 33.7573 153.051C34.1486 153.443 34.7832 153.443 35.1746 153.051L36.1761 152.05L37.1776 153.051C37.569 153.443 38.2035 153.443 38.5949 153.051C38.9863 152.66 38.9863 152.026 38.5949 151.634L37.5934 150.633L38.5949 149.631C38.9863 149.24 38.9863 148.605 38.5949 148.214C38.3989 148.018 38.1427 147.92 37.886 147.92C37.6292 147.92 37.373 148.018 37.177 148.214L36.1755 149.215L35.174 148.214C34.9781 148.018 34.7219 147.92 34.4651 147.92C34.2083 147.92 33.9521 148.018 33.7562 148.214C33.3648 148.605 33.3648 149.24 33.7562 149.631L34.7577 150.633H34.7588Z" fill="white"/>
<path d="M9.13426 61.8629L8.13275 62.8644C7.74138 63.2557 7.74138 63.8903 8.13275 64.2817C8.52413 64.6731 9.15868 64.6731 9.55006 64.2817L10.5516 63.2802L11.5531 64.2817C11.9444 64.6731 12.579 64.6731 12.9704 64.2817C13.3618 63.8903 13.3618 63.2557 12.9704 62.8644L11.9689 61.8629L12.9704 60.8614C13.3618 60.47 13.3618 59.8354 12.9704 59.4441C12.7744 59.2481 12.5182 59.1504 12.2615 59.1504C12.0047 59.1504 11.7485 59.2481 11.5525 59.4441L10.551 60.4456L9.54952 59.4441C9.35356 59.2481 9.09735 59.1504 8.84059 59.1504C8.58384 59.1504 8.32762 59.2481 8.13167 59.4441C7.74029 59.8354 7.74029 60.47 8.13167 60.8614L9.13317 61.8629H9.13426Z" fill="white"/>
<path d="M129.673 10.3941L128.671 11.3956C128.28 11.787 128.28 12.4216 128.671 12.8129C129.063 13.2043 129.697 13.2043 130.089 12.8129L131.09 11.8114L132.092 12.8129C132.483 13.2043 133.118 13.2043 133.509 12.8129C133.9 12.4216 133.9 11.787 133.509 11.3956L132.507 10.3941L133.509 9.39262C133.9 9.00124 133.9 8.36668 133.509 7.97531C133.313 7.77935 133.057 7.68164 132.8 7.68164C132.543 7.68164 132.287 7.77935 132.091 7.97531L131.09 8.97681L130.088 7.97531C129.892 7.77935 129.636 7.68164 129.379 7.68164C129.122 7.68164 128.866 7.77935 128.67 7.97531C128.279 8.36668 128.279 9.00124 128.67 9.39262L129.672 10.3941H129.673Z" fill="white"/>
<path d="M111.336 152.029C112.951 152.029 114.264 153.342 114.264 154.957C114.264 156.571 112.951 157.885 111.336 157.885C109.722 157.885 108.408 156.571 108.408 154.957C108.408 153.342 109.722 152.029 111.336 152.029ZM111.336 155.88C111.845 155.88 112.26 155.466 112.26 154.957C112.26 154.448 111.845 154.033 111.336 154.033C110.827 154.033 110.413 154.448 110.413 154.957C110.413 155.466 110.827 155.88 111.336 155.88Z" fill="white"/>
<path d="M166.52 58.7302C168.134 58.7302 169.448 60.0439 169.448 61.6582C169.448 63.2726 168.134 64.5862 166.52 64.5862C164.905 64.5862 163.592 63.2726 163.592 61.6582C163.592 60.0439 164.905 58.7302 166.52 58.7302ZM166.52 62.5815C167.029 62.5815 167.443 62.1674 167.443 61.6582C167.443 61.149 167.029 60.7349 166.52 60.7349C166.01 60.7349 165.596 61.149 165.596 61.6582C165.596 62.1674 166.01 62.5815 166.52 62.5815Z" fill="white"/>
<path d="M43.9478 11.739C45.5621 11.739 46.8757 13.0526 46.8757 14.667C46.8757 16.2813 45.5621 17.595 43.9478 17.595C42.3334 17.595 41.0198 16.2813 41.0198 14.667C41.0198 13.0526 42.3334 11.739 43.9478 11.739ZM43.9478 15.5903C44.4569 15.5903 44.8711 15.1762 44.8711 14.667C44.8711 14.1578 44.4569 13.7437 43.9478 13.7437C43.4386 13.7437 43.0244 14.1578 43.0244 14.667C43.0244 15.1762 43.4386 15.5903 43.9478 15.5903Z" fill="white"/>
<path d="M9.8374 103.158C11.4518 103.158 12.7654 104.472 12.7654 106.086C12.7654 107.7 11.4518 109.014 9.8374 109.014C8.22305 109.014 6.90942 107.7 6.90942 106.086C6.90942 104.472 8.22305 103.158 9.8374 103.158ZM9.8374 107.009C10.3466 107.009 10.7607 106.595 10.7607 106.086C10.7607 105.577 10.3466 105.163 9.8374 105.163C9.32824 105.163 8.91406 105.577 8.91406 106.086C8.91406 106.595 9.32824 107.009 9.8374 107.009Z" fill="white"/>
<path d="M4.24896 67.3637C6.96307 70.0778 10.6445 71.6031 14.4833 71.6031C17.3673 71.6031 20.1618 70.7422 22.5247 69.1632L12.2214 79.4665C9.50728 82.1806 7.98195 85.862 7.98195 89.7008C7.98195 93.5397 9.50673 97.2211 12.2214 99.9352C14.9355 102.649 18.6169 104.175 22.4557 104.175C25.3392 104.175 28.1342 103.314 30.4971 101.735L25.0895 107.143C22.3754 109.857 20.8501 113.538 20.8501 117.377C20.8501 121.216 22.3749 124.897 25.0895 127.611C27.8036 130.326 31.485 131.851 35.3239 131.851C38.2074 131.851 41.0023 130.99 43.3652 129.411L42.044 130.733C39.3299 133.447 37.8046 137.128 37.8046 140.967C37.8046 144.806 39.3294 148.487 42.044 151.201C44.7581 153.916 48.4395 155.441 52.2784 155.441C56.1172 155.441 59.7986 153.916 62.5127 151.201L76.2282 137.486C74.6492 139.849 73.7888 142.644 73.7888 145.527C73.7888 149.366 75.3136 153.048 78.0282 155.762C80.7423 158.476 84.4237 160.001 88.2626 160.001C92.1014 160.001 95.7828 158.476 98.4969 155.762L119.336 134.922C117.757 137.285 116.897 140.08 116.897 142.964C116.897 146.802 118.422 150.484 121.136 153.198C123.851 155.912 127.532 157.437 131.371 157.437C135.21 157.437 138.891 155.913 141.605 153.198L174.048 120.755C176.762 118.041 178.287 114.36 178.287 110.521C178.287 106.682 176.763 103.001 174.048 100.286C171.334 97.5723 167.652 96.047 163.814 96.047C160.93 96.047 158.135 96.9079 155.772 98.4864L162.564 91.6952C165.278 88.981 166.803 85.2996 166.803 81.4608C166.803 77.6219 165.278 73.9405 162.564 71.2264C159.849 68.5123 156.168 66.987 152.329 66.987C149.446 66.987 146.651 67.8479 144.288 69.4264L158.003 55.7109C160.717 52.9968 162.243 49.3154 162.243 45.4766C162.243 41.6377 160.718 37.9563 158.003 35.2422C155.289 32.5281 151.608 31.0028 147.769 31.0028C144.885 31.0028 142.09 31.8637 139.728 33.4422L148.462 24.7077C151.176 21.9936 152.702 18.3122 152.702 14.4733C152.702 10.6345 151.177 6.95306 148.462 4.23895C145.748 1.52484 142.067 -0.000488281 138.228 -0.000488281C134.389 -0.000488281 130.707 1.5243 127.993 4.23895L108.538 23.6948C110.117 21.3319 110.977 18.5369 110.977 15.6534C110.977 11.8146 109.452 8.13315 106.738 5.41905C104.023 2.70494 100.342 1.17961 96.5032 1.17961C92.6643 1.17961 88.9829 2.70439 86.2688 5.41905L58.96 32.7279C60.539 30.365 61.4 27.57 61.4 24.686C61.4 20.8471 59.8752 17.1657 57.1605 14.4516C54.4464 11.7375 50.765 10.2122 46.9262 10.2122C43.0873 10.2122 39.4059 11.7369 36.6918 14.4516L4.24896 46.895C1.53431 49.6096 0.00952148 53.291 0.00952148 57.1293C0.00952148 60.9676 1.53431 64.6496 4.24896 67.3637Z" fill="#E9F4FA"/>
<path d="M177.861 129.056L176.859 130.057C176.468 130.449 176.468 131.083 176.859 131.475C177.251 131.866 177.885 131.866 178.277 131.475L179.278 130.473L180.28 131.475C180.671 131.866 181.306 131.866 181.697 131.475C182.088 131.083 182.088 130.449 181.697 130.057L180.695 129.056L181.697 128.054C182.088 127.663 182.088 127.029 181.697 126.637C181.501 126.441 181.245 126.344 180.988 126.344C180.731 126.344 180.475 126.441 180.279 126.637L179.278 127.639L178.276 126.637C178.08 126.441 177.824 126.344 177.567 126.344C177.31 126.344 177.054 126.441 176.858 126.637C176.467 127.029 176.467 127.663 176.858 128.054L177.86 129.056H177.861Z" fill="#036FAD"/>
<path d="M34.7588 150.633L33.7573 151.634C33.3659 152.026 33.3659 152.66 33.7573 153.051C34.1486 153.443 34.7832 153.443 35.1746 153.051L36.1761 152.05L37.1776 153.051C37.569 153.443 38.2035 153.443 38.5949 153.051C38.9863 152.66 38.9863 152.026 38.5949 151.634L37.5934 150.633L38.5949 149.631C38.9863 149.24 38.9863 148.605 38.5949 148.214C38.3989 148.018 38.1427 147.92 37.886 147.92C37.6292 147.92 37.373 148.018 37.177 148.214L36.1755 149.215L35.174 148.214C34.9781 148.018 34.7219 147.92 34.4651 147.92C34.2083 147.92 33.9521 148.018 33.7562 148.214C33.3648 148.605 33.3648 149.24 33.7562 149.631L34.7577 150.633H34.7588Z" fill="#036FAD"/>
<path d="M9.13426 61.8629L8.13275 62.8644C7.74138 63.2557 7.74138 63.8903 8.13275 64.2817C8.52413 64.6731 9.15868 64.6731 9.55006 64.2817L10.5516 63.2802L11.5531 64.2817C11.9444 64.6731 12.579 64.6731 12.9704 64.2817C13.3618 63.8903 13.3618 63.2557 12.9704 62.8644L11.9689 61.8629L12.9704 60.8614C13.3618 60.47 13.3618 59.8354 12.9704 59.4441C12.7744 59.2481 12.5182 59.1504 12.2615 59.1504C12.0047 59.1504 11.7485 59.2481 11.5525 59.4441L10.551 60.4456L9.54952 59.4441C9.35356 59.2481 9.09735 59.1504 8.84059 59.1504C8.58384 59.1504 8.32762 59.2481 8.13167 59.4441C7.74029 59.8354 7.74029 60.47 8.13167 60.8614L9.13317 61.8629H9.13426Z" fill="#036FAD"/>
<path d="M129.673 10.3941L128.671 11.3956C128.28 11.787 128.28 12.4216 128.671 12.8129C129.063 13.2043 129.697 13.2043 130.089 12.8129L131.09 11.8114L132.092 12.8129C132.483 13.2043 133.118 13.2043 133.509 12.8129C133.9 12.4216 133.9 11.787 133.509 11.3956L132.507 10.3941L133.509 9.39262C133.9 9.00124 133.9 8.36668 133.509 7.97531C133.313 7.77935 133.057 7.68164 132.8 7.68164C132.543 7.68164 132.287 7.77935 132.091 7.97531L131.09 8.97681L130.088 7.97531C129.892 7.77935 129.636 7.68164 129.379 7.68164C129.122 7.68164 128.866 7.77935 128.67 7.97531C128.279 8.36668 128.279 9.00124 128.67 9.39262L129.672 10.3941H129.673Z" fill="#036FAD"/>
<path d="M111.336 152.029C112.951 152.029 114.264 153.342 114.264 154.957C114.264 156.571 112.951 157.885 111.336 157.885C109.722 157.885 108.408 156.571 108.408 154.957C108.408 153.342 109.722 152.029 111.336 152.029ZM111.336 155.88C111.845 155.88 112.26 155.466 112.26 154.957C112.26 154.448 111.845 154.033 111.336 154.033C110.827 154.033 110.413 154.448 110.413 154.957C110.413 155.466 110.827 155.88 111.336 155.88Z" fill="#036FAD"/>
<path d="M166.52 58.7302C168.134 58.7302 169.448 60.0439 169.448 61.6582C169.448 63.2726 168.134 64.5862 166.52 64.5862C164.905 64.5862 163.592 63.2726 163.592 61.6582C163.592 60.0439 164.905 58.7302 166.52 58.7302ZM166.52 62.5815C167.029 62.5815 167.443 62.1674 167.443 61.6582C167.443 61.149 167.029 60.7349 166.52 60.7349C166.01 60.7349 165.596 61.149 165.596 61.6582C165.596 62.1674 166.01 62.5815 166.52 62.5815Z" fill="#036FAD"/>
<path d="M43.9478 11.739C45.5621 11.739 46.8757 13.0526 46.8757 14.667C46.8757 16.2813 45.5621 17.595 43.9478 17.595C42.3334 17.595 41.0198 16.2813 41.0198 14.667C41.0198 13.0526 42.3334 11.739 43.9478 11.739ZM43.9478 15.5903C44.4569 15.5903 44.8711 15.1762 44.8711 14.667C44.8711 14.1578 44.4569 13.7437 43.9478 13.7437C43.4386 13.7437 43.0244 14.1578 43.0244 14.667C43.0244 15.1762 43.4386 15.5903 43.9478 15.5903Z" fill="#036FAD"/>
<path d="M9.8374 103.158C11.4518 103.158 12.7654 104.472 12.7654 106.086C12.7654 107.7 11.4518 109.014 9.8374 109.014C8.22305 109.014 6.90942 107.7 6.90942 106.086C6.90942 104.472 8.22305 103.158 9.8374 103.158ZM9.8374 107.009C10.3466 107.009 10.7607 106.595 10.7607 106.086C10.7607 105.577 10.3466 105.163 9.8374 105.163C9.32824 105.163 8.91406 105.577 8.91406 106.086C8.91406 106.595 9.32824 107.009 9.8374 107.009Z" fill="#036FAD"/>
<path d="M142.576 133.428C141.101 134.903 139.141 135.715 137.055 135.715C134.969 135.715 133.008 134.903 131.534 133.428L109.415 111.31C108.36 110.254 108.36 108.538 109.415 107.483C109.547 107.351 109.619 107.175 109.619 106.989C109.619 106.803 109.547 106.628 109.415 106.496L107.1 104.18L106.387 103.468L105.674 102.755C105.771 102.677 105.865 102.593 105.954 102.503L106.399 102.059L111.206 97.2521L111.65 96.8075C111.74 96.7174 111.824 96.624 111.901 96.5269L112.614 97.2401L115.642 100.269C115.774 100.4 115.949 100.473 116.136 100.473C116.323 100.473 116.497 100.4 116.629 100.269C117.142 99.7556 117.821 99.4738 118.544 99.4738C119.267 99.4738 119.947 99.7556 120.458 100.267L142.576 122.385C145.621 125.429 145.621 130.383 142.576 133.428Z" fill="#DDDDDD"/>
<path d="M112.36 91.2741L110.068 88.9812L109.343 88.2565L108.617 87.5308C107.085 89.8948 105.299 92.0986 103.273 94.125C101.246 96.1513 99.0415 97.9372 96.677 99.4701L97.4033 100.196L98.128 100.921L100.421 103.213C101.255 104.048 102.363 104.507 103.543 104.507C104.246 104.507 104.924 104.344 105.534 104.035C105.837 103.881 106.123 103.692 106.387 103.468C106.483 103.388 106.575 103.303 106.664 103.213L107.109 102.769L111.916 97.9622L112.36 97.5176C112.45 97.428 112.535 97.3352 112.614 97.2402C112.84 96.9737 113.028 96.6865 113.18 96.3853C114.014 94.7297 113.741 92.6545 112.36 91.2741ZM111.901 96.5269C111.824 96.6241 111.74 96.7175 111.65 96.8076L111.206 97.2522L106.399 102.059L105.954 102.503C105.865 102.593 105.771 102.677 105.674 102.755C105.396 102.977 105.092 103.15 104.773 103.274C104.378 103.427 103.96 103.503 103.543 103.503C102.67 103.503 101.797 103.169 101.131 102.503L98.9726 100.346C100.137 99.5326 101.261 98.6591 102.344 97.726C103.151 97.0318 103.934 96.3044 104.693 95.545C105.453 94.7856 106.18 94.0023 106.874 93.1956C107.807 92.1133 108.68 90.9896 109.492 89.8264L111.65 91.9841C112.635 92.9688 112.892 94.4056 112.42 95.6259C112.297 95.945 112.125 96.2496 111.901 96.5269Z" fill="white"/>
<path d="M112.42 95.6259C112.297 95.9451 112.124 96.2496 111.901 96.527C111.824 96.6242 111.74 96.7175 111.65 96.8076L111.206 97.2522L106.399 102.059L105.954 102.503C105.865 102.593 105.771 102.677 105.674 102.755C105.396 102.977 105.092 103.151 104.772 103.274C104.378 103.427 103.96 103.503 103.542 103.503C102.67 103.503 101.797 103.17 101.131 102.503L98.9724 100.346C100.137 99.5326 101.261 98.6592 102.344 97.7261C103.151 97.0318 103.934 96.3045 104.693 95.545C105.453 94.7856 106.18 94.0023 106.874 93.1957C107.807 92.1133 108.68 90.9897 109.492 89.8264L111.65 91.9841C112.635 92.9688 112.891 94.4057 112.42 95.6259Z" fill="#B3B3B3"/>
<path d="M98.7983 41.5728C105.219 47.9939 108.756 56.5314 108.756 65.6122C108.756 74.6931 105.219 83.2306 98.7983 89.6516C92.1704 96.2795 83.4646 99.5934 74.7589 99.5934C66.0531 99.5934 57.3473 96.2795 50.7195 89.6516C37.4643 76.3965 37.4643 54.8285 50.7195 41.5728C57.3473 34.9455 66.0531 31.6316 74.7589 31.6316C83.4646 31.6316 92.1704 34.9455 98.7983 41.5728Z" fill="white"/>
<path d="M113.061 50.0646C110.98 44.9333 107.926 40.3323 103.983 36.3898C100.04 32.4473 95.4393 29.3928 90.308 27.3122C85.3553 25.3037 80.1241 24.2854 74.7605 24.2854C69.3969 24.2854 64.1657 25.3037 59.213 27.3122C54.0817 29.3928 49.4807 32.4473 45.5382 36.3898C41.5957 40.3323 38.5412 44.9333 36.4606 50.0646C34.4522 55.0173 33.4338 60.2484 33.4338 65.6121C33.4338 70.9757 34.4522 76.2069 36.4606 81.1596C38.5412 86.2909 41.5952 90.8918 45.5382 94.8349C49.4807 98.7774 54.0817 101.831 59.213 103.912C64.1657 105.921 69.3969 106.939 74.7605 106.939C80.1241 106.939 85.3553 105.921 90.308 103.912C92.482 103.03 94.5615 101.974 96.5358 100.749C96.8273 100.568 97.1161 100.384 97.4032 100.196C97.6882 100.009 97.971 99.8185 98.2511 99.6242C100.288 98.2145 102.203 96.6148 103.983 94.8349C105.763 93.0555 107.362 91.141 108.771 89.1048C108.966 88.8242 109.156 88.5414 109.343 88.2564C109.531 87.9698 109.716 87.681 109.896 87.3895C111.122 85.4147 112.179 83.3346 113.061 81.1596C115.069 76.2069 116.087 70.9762 116.087 65.6121C116.087 60.2479 115.069 55.0173 113.061 50.0646ZM112.13 80.7823C111.299 82.8309 110.31 84.7927 109.166 86.6594C108.988 86.9526 108.804 87.243 108.617 87.5307C107.084 89.8946 105.299 92.0985 103.273 94.1249C101.246 96.1512 99.0415 97.9371 96.6769 99.47C96.3892 99.6573 96.0988 99.8402 95.8062 100.019C93.94 101.162 91.9783 102.151 89.9307 102.982C85.0985 104.941 79.9944 105.935 74.7605 105.935C69.5266 105.935 64.4225 104.941 59.5908 102.982C54.5843 100.951 50.0952 97.9718 46.2482 94.1249C42.4013 90.2773 39.4212 85.7887 37.391 80.7823C35.4314 75.9501 34.4381 70.8459 34.4381 65.6121C34.4381 60.3782 35.4314 55.274 37.391 50.4424C39.4212 45.4359 42.4013 40.9468 46.2482 37.0998C50.0952 33.2528 54.5843 30.2727 59.5908 28.2426C64.4225 26.283 69.5266 25.2896 74.7605 25.2896C79.9944 25.2896 85.0985 26.283 89.9307 28.2426C94.9372 30.2727 99.4258 33.2528 103.273 37.0998C107.12 40.9468 110.1 45.4359 112.13 50.4424C114.09 55.274 115.083 60.3782 115.083 65.6121C115.083 70.8459 114.09 75.9501 112.13 80.7823Z" fill="white"/>
<path d="M112.13 50.4425C110.1 45.4361 107.12 40.9469 103.273 37.1C99.4257 33.253 94.9371 30.2729 89.9307 28.2427C85.0985 26.2832 79.9943 25.2898 74.7604 25.2898C69.5265 25.2898 64.4224 26.2832 59.5907 28.2427C54.5843 30.2729 50.0951 33.253 46.2482 37.1C42.4012 40.9469 39.4211 45.4361 37.3909 50.4425C35.4314 55.2742 34.438 60.3783 34.438 65.6122C34.438 70.8461 35.4314 75.9503 37.3909 80.7825C39.4211 85.7889 42.4012 90.2775 46.2482 94.125C50.0951 97.972 54.5843 100.952 59.5907 102.982C64.4224 104.941 69.5265 105.935 74.7604 105.935C79.9943 105.935 85.0985 104.941 89.9307 102.982C91.9782 102.151 93.9399 101.162 95.8062 100.02C96.0987 99.8404 96.3892 99.6575 96.6768 99.4702C99.0414 97.9373 101.246 96.1514 103.273 94.125C105.299 92.0987 107.084 89.8948 108.617 87.5308C108.804 87.2431 108.988 86.9527 109.166 86.6596C110.31 84.7928 111.299 82.8311 112.13 80.7825C114.089 75.9503 115.083 70.8461 115.083 65.6122C115.083 60.3783 114.089 55.2742 112.13 50.4425ZM74.7588 99.5934C66.053 99.5934 57.3472 96.2795 50.7194 89.6516C37.4642 76.3965 37.4642 54.8285 50.7194 41.5728C57.3472 34.9455 66.053 31.6316 74.7588 31.6316C83.4646 31.6316 92.1703 34.9455 98.7982 41.5728C105.219 47.9939 108.756 56.5314 108.756 65.6122C108.756 74.6931 105.219 83.2306 98.7982 89.6516C92.1703 96.2795 83.4646 99.5934 74.7588 99.5934Z" fill="white"/>
<path d="M74.7588 98.589C70.47 98.589 66.2903 97.7775 62.3369 96.1773C58.2435 94.52 54.574 92.086 51.43 88.942C48.286 85.798 45.8514 82.1285 44.1947 78.0351C42.5945 74.0812 41.783 69.902 41.783 65.6126C41.783 61.3232 42.5945 57.144 44.1947 53.1907C45.852 49.0972 48.286 45.4278 51.43 42.2838C54.574 39.1397 58.2435 36.7052 62.3369 35.0485C66.2908 33.4482 70.47 32.6367 74.7588 32.6367C79.0477 32.6367 83.2274 33.4482 87.1808 35.0485C91.2742 36.7057 94.9437 39.1397 98.0877 42.2838C104.319 48.5153 107.751 56.8004 107.751 65.6131C107.751 74.4259 104.319 82.711 98.0877 88.9425C94.9437 92.0866 91.2742 94.5206 87.1808 96.1778C83.2269 97.7781 79.0477 98.5896 74.7588 98.5896V98.589Z" fill="#036FAD"/>
<g style="mix-blend-mode:multiply">
<path d="M83.3223 81.2649C82.9538 80.3139 82.4169 79.4747 81.7264 78.7712C81.0273 78.0585 80.1924 77.507 79.2452 77.1319C78.3045 76.759 77.2742 76.5701 76.1832 76.5701C75.0921 76.5701 74.0689 76.759 73.1254 77.1308C72.1755 77.5054 71.3374 78.0552 70.6344 78.7642C69.9342 79.4709 69.3919 80.3123 69.0228 81.2644C68.658 82.2062 68.4729 83.2316 68.4729 84.3118C68.4697 86.4673 69.2453 88.4334 70.6567 89.848C71.358 90.5504 72.1902 91.096 73.1309 91.4694C74.0743 91.844 75.1013 92.034 76.1832 92.034C77.265 92.034 78.3192 91.8407 79.2702 91.4597C80.219 91.0792 81.055 90.5233 81.7558 89.8062C83.1302 88.4003 83.8874 86.4489 83.8874 84.3118V84.2852C83.8728 83.2115 83.6828 82.1953 83.3223 81.2649ZM76.1832 90.0255C72.7748 90.0255 70.4748 87.6018 70.4814 84.3123C70.4814 80.9327 72.7943 78.5785 76.1832 78.5785C79.572 78.5785 81.8339 80.9327 81.8784 84.3123C81.8784 87.6018 79.6187 90.0255 76.1826 90.0255H76.1832Z" fill="#DDDDDD"/>
</g>
<g style="mix-blend-mode:multiply">
<path d="M68.7444 49.9479L68.7498 50.0006L70.9835 70.7423C71.1643 73.4847 73.4441 75.6245 76.1989 75.6245C78.9538 75.6245 81.2336 73.4847 81.4144 70.7423L83.6481 50.0006L83.6535 49.9479L83.6562 49.8953C83.7132 48.8514 83.5569 47.8298 83.1916 46.8587C82.8398 45.924 82.3117 45.0804 81.6223 44.352C80.9329 43.6235 80.1197 43.0503 79.2056 42.648C78.2557 42.2301 77.2439 42.0178 76.1989 42.0178C75.154 42.0178 74.1422 42.2301 73.1923 42.648C72.2781 43.0503 71.465 43.6235 70.7756 44.352C70.0862 45.0804 69.5581 45.9234 69.2063 46.8587C68.841 47.8298 68.6847 48.8519 68.7417 49.8953L68.7444 49.9479ZM76.1989 44.0263C79.3321 44.0263 81.8226 46.6568 81.651 49.7851L79.4125 70.573C79.3191 72.2796 77.9077 73.6155 76.1989 73.6155C74.4896 73.6155 73.0788 72.2796 72.9854 70.573L70.7468 49.7851C70.5753 46.6568 73.0658 44.0263 76.1989 44.0263Z" fill="#DDDDDD"/>
</g>
<path d="M74.7698 89.6164C72.8813 89.6164 71.1714 88.9449 69.9544 87.7257C68.7314 86.5006 68.0599 84.7852 68.0637 82.8968C68.0637 80.9947 68.7282 79.2751 69.9348 78.0575C71.147 76.8345 72.8645 76.1609 74.7703 76.1609C76.6762 76.1609 78.3768 76.8182 79.5971 78.0613C80.7967 79.2837 81.4443 80.9518 81.4698 82.8854V82.8989C81.4698 84.7722 80.8146 86.474 79.6242 87.6915C78.4105 88.9329 76.6865 89.6169 74.7698 89.6169V89.6164Z" fill="white"/>
<path d="M74.7855 73.2063C72.5535 73.2063 70.7073 71.4676 70.5711 69.2426L68.3325 48.4531L68.3308 48.427C68.2326 46.6357 68.8579 44.9318 70.0912 43.629C71.3245 42.3263 72.9915 41.6086 74.7855 41.6086C76.5796 41.6086 78.2466 42.3263 79.4799 43.629C80.7132 44.9318 81.3385 46.6357 81.2402 48.427L81.2386 48.4536L79 69.2432C78.8632 71.4682 77.0176 73.2068 74.7855 73.2068V73.2063Z" fill="white"/>
<g style="mix-blend-mode:multiply">
<path d="M146.635 126.005C146.239 125.027 145.676 124.138 144.96 123.36C144.876 123.268 144.789 123.177 144.7 123.088L142.963 121.352L140.05 118.439L122.581 100.97C121.881 100.269 120.949 99.8832 119.958 99.8832C119.069 99.8832 118.227 100.194 117.558 100.764L115.335 98.5403C115.815 97.7206 116.071 96.7848 116.071 95.8094C116.071 94.3617 115.507 93.0008 114.484 91.9776L112.039 89.5322C113.347 87.4499 114.471 85.252 115.405 82.9505C117.462 77.8778 118.505 72.5196 118.505 67.0257C118.505 61.5318 117.462 56.1742 115.405 51.1009C113.273 45.8442 110.145 41.1315 106.107 37.0934C102.069 33.0548 97.3553 29.9265 92.0987 27.7949C87.0254 25.7376 81.6678 24.6948 76.1739 24.6948C70.68 24.6948 65.3223 25.7376 60.2491 27.7949C54.9924 29.9265 50.2797 33.0548 46.2416 37.0934C42.203 41.1315 39.0747 45.8442 36.9431 51.1009C34.8858 56.1742 33.843 61.5318 33.843 67.0257C33.843 72.5196 34.8858 77.8773 36.9431 82.9505C39.0747 88.2071 42.203 92.9199 46.2416 96.9585C50.2797 100.997 54.9924 104.125 60.2491 106.257C65.3223 108.314 70.68 109.357 76.1739 109.357C81.6678 109.357 87.0254 108.314 92.0987 106.257C94.3997 105.323 96.5965 104.199 98.6782 102.892L101.124 105.338C102.147 106.361 103.508 106.925 104.956 106.925C105.931 106.925 106.867 106.669 107.687 106.188L109.91 108.412C108.675 109.868 108.745 112.059 110.118 113.433L132.237 135.552C133.077 136.392 134.059 137.044 135.153 137.487C136.209 137.916 137.324 138.133 138.468 138.133C139.612 138.133 140.727 137.916 141.784 137.487C142.878 137.044 143.859 136.392 144.7 135.552C145.541 134.711 146.192 133.73 146.635 132.635C147.064 131.579 147.281 130.464 147.281 129.32C147.281 128.176 147.064 127.061 146.635 126.005ZM98.0903 100.884C97.8026 101.071 97.5122 101.254 97.2196 101.433C95.3534 102.576 93.3917 103.565 91.3441 104.395C86.5119 106.355 81.4078 107.349 76.1739 107.349C70.94 107.349 65.8359 106.355 61.0042 104.395C55.9977 102.365 51.5086 99.3855 47.6616 95.5385C43.8147 91.691 40.8346 87.2024 38.8044 82.1959C36.8448 77.3637 35.8515 72.2596 35.8515 67.0257C35.8515 61.7918 36.8448 56.6877 38.8044 51.856C40.8346 46.8496 43.8147 42.3604 47.6616 38.5134C51.5086 34.6665 55.9977 31.6864 61.0042 29.6562C65.8359 27.6966 70.94 26.7033 76.1739 26.7033C81.4078 26.7033 86.5119 27.6966 91.3441 29.6562C96.3506 31.6864 100.839 34.6665 104.686 38.5134C108.534 42.3604 111.513 46.8496 113.543 51.856C115.503 56.6877 116.496 61.7918 116.496 67.0257C116.496 72.2596 115.503 77.3637 113.543 82.1959C112.713 84.2446 111.723 86.2063 110.58 88.0731C110.401 88.3662 110.218 88.6566 110.031 88.9443C108.498 91.3083 106.713 93.5122 104.686 95.5385C102.66 97.5649 100.455 99.3507 98.0903 100.884ZM107.368 103.917C107.278 104.007 107.184 104.091 107.088 104.168C106.81 104.391 106.506 104.564 106.186 104.687C105.791 104.84 105.373 104.916 104.956 104.916C104.083 104.916 103.21 104.583 102.544 103.917L100.386 101.759C101.55 100.946 102.674 100.073 103.757 99.1396C104.564 98.4453 105.347 97.7179 106.107 96.9585C106.866 96.1991 107.593 95.4158 108.288 94.6092C109.22 93.5268 110.093 92.4032 110.906 91.2399L113.064 93.3976C114.048 94.3823 114.305 95.8191 113.834 97.0394C113.711 97.3586 113.538 97.6631 113.314 97.9405C113.237 98.0377 113.154 98.131 113.064 98.2211L112.619 98.6657L107.812 103.473L107.368 103.917ZM143.28 134.132C142.615 134.796 141.848 135.294 141.029 135.626C140.209 135.958 139.339 136.124 138.468 136.124C136.727 136.124 134.985 135.46 133.657 134.132L120.877 121.352L111.539 112.013C110.874 111.349 110.874 110.271 111.539 109.606C112.203 108.942 112.203 107.864 111.539 107.199L109.232 104.893L114.04 100.086L116.346 102.392C116.678 102.724 117.114 102.89 117.549 102.89C117.985 102.89 118.421 102.724 118.753 102.392L118.754 102.391C119.087 102.058 119.523 101.892 119.958 101.892C120.393 101.892 120.829 102.058 121.161 102.391L142.131 123.36L143.28 124.509C145.937 127.166 145.937 131.474 143.28 134.132Z" fill="#DDDDDD"/>
</g>
<g style="mix-blend-mode:multiply">
<path d="M100.212 42.9862C93.584 36.3589 84.8782 33.0449 76.1724 33.0449C67.4667 33.0449 58.7609 36.3589 52.133 42.9862C38.8779 56.2419 38.8779 77.8098 52.133 91.065C58.7609 97.6928 67.4667 101.007 76.1724 101.007C84.8782 101.007 93.584 97.6928 100.212 91.065C106.633 84.6439 110.169 76.1064 110.169 67.0256C110.169 57.9447 106.633 49.4072 100.212 42.9862ZM98.7918 89.645C95.7433 92.6934 92.1857 95.0531 88.2177 96.6593C86.3107 97.4317 84.3158 98.0218 82.2884 98.4132C80.2794 98.8013 78.2221 98.9983 76.1724 98.9983C74.1227 98.9983 72.0654 98.8013 70.0565 98.4132C68.029 98.0218 66.0341 97.4317 64.1272 96.6593C60.1592 95.0531 56.6015 92.6934 53.553 89.645C50.5051 86.5965 48.1449 83.0388 46.5387 79.0708C45.7668 77.1639 45.1768 75.169 44.7848 73.1415C44.3967 71.1331 44.2002 69.0753 44.2002 67.0256C44.2002 64.9759 44.3967 62.9186 44.7848 60.9096C45.1768 58.8822 45.7668 56.8873 46.5387 54.9804C48.1449 51.0123 50.5051 47.4547 53.553 44.4067C56.6015 41.3582 60.1592 38.9981 64.1272 37.3918C66.0341 36.6199 68.029 36.0299 70.0565 35.638C72.0654 35.2499 74.1227 35.0534 76.1724 35.0534C78.2221 35.0534 80.2794 35.2499 82.2884 35.638C84.3158 36.0299 86.3107 36.6199 88.2177 37.3918C92.1857 38.9981 95.7433 41.3582 98.7918 44.4067C104.833 50.4483 108.161 58.481 108.161 67.0256C108.161 75.5701 104.833 83.6033 98.7918 89.645Z" fill="#DDDDDD"/>
</g>
<path d="M102.344 97.7259C103.151 97.0317 103.934 96.3043 104.693 95.5449C105.453 94.7855 106.18 94.0022 106.874 93.1956L102.344 97.7259ZM145.222 124.591C144.779 123.497 144.127 122.516 143.286 121.675L121.168 99.5563C120.467 98.8556 119.536 98.4696 118.545 98.4696C117.655 98.4696 116.814 98.7807 116.145 99.3501L113.921 97.1267L113.18 96.3852L112.42 95.6258C112.297 95.945 112.125 96.2495 111.901 96.5269C111.824 96.624 111.74 96.7174 111.65 96.8075L111.206 97.2521L111.916 97.9621L114.933 100.979C115.265 101.311 115.7 101.477 116.136 101.477C116.572 101.477 117.007 101.311 117.339 100.979L117.341 100.977C117.673 100.645 118.109 100.478 118.545 100.478C118.98 100.478 119.416 100.645 119.748 100.977L141.866 123.095C144.523 125.752 144.523 130.061 141.866 132.718C141.202 133.382 140.434 133.88 139.615 134.212C138.796 134.544 137.925 134.711 137.055 134.711C135.313 134.711 133.572 134.046 132.244 132.718L110.125 110.6C109.46 109.935 109.46 108.857 110.125 108.193C110.79 107.528 110.79 106.45 110.125 105.786L107.109 102.769L106.399 102.059L105.954 102.503C105.865 102.593 105.771 102.677 105.674 102.755C105.396 102.977 105.092 103.15 104.773 103.274L108.497 106.998C107.262 108.454 107.331 110.646 108.705 112.02L130.823 134.138C131.664 134.979 132.645 135.63 133.74 136.074C134.796 136.502 135.911 136.719 137.055 136.719C138.198 136.719 139.314 136.502 140.37 136.074C141.465 135.63 142.446 134.979 143.286 134.138C144.127 133.298 144.779 132.316 145.222 131.222C145.65 130.166 145.867 129.05 145.867 127.906C145.867 126.763 145.65 125.648 145.222 124.591Z" fill="#333333"/>
<path d="M113.07 90.5639L110.625 88.1185L110.021 87.5144L109.896 87.3895L109.166 86.6594C108.987 86.9525 108.804 87.243 108.617 87.5307C107.084 89.8946 105.299 92.0985 103.273 94.1249C101.246 96.1512 99.0414 97.9371 96.6768 99.47C96.3891 99.6573 96.0987 99.8402 95.8062 100.019L97.2647 101.478L99.7101 103.924C100.734 104.947 102.095 105.511 103.542 105.511C104.517 105.511 105.454 105.255 106.273 104.774C106.565 104.605 106.841 104.406 107.1 104.18C107.193 104.099 107.285 104.013 107.374 103.924L112.626 98.6721L113.07 98.2275C113.159 98.1385 113.245 98.0467 113.327 97.9528C113.552 97.6945 113.751 97.4176 113.921 97.1267C114.402 96.307 114.657 95.3712 114.657 94.3957C114.657 92.948 114.094 91.5872 113.07 90.5639ZM108.601 88.9349L108.771 89.1048L109.492 89.8263L111.65 91.984C112.635 92.9686 112.891 94.4055 112.42 95.6258C112.297 95.9449 112.124 96.2495 111.901 96.5268C111.824 96.624 111.74 96.7174 111.65 96.8075L111.206 97.2521L106.399 102.059L105.954 102.503C105.865 102.593 105.771 102.677 105.674 102.755C105.396 102.977 105.092 103.15 104.772 103.274C104.378 103.427 103.96 103.503 103.542 103.503C102.67 103.503 101.797 103.169 101.131 102.503L98.9724 100.346L98.251 99.6242L98.0811 99.4543L108.601 88.9349Z" fill="#333333"/>
<path d="M113.991 49.6874C111.86 44.4307 108.731 39.7179 104.693 35.6798C100.655 31.6412 95.942 28.513 90.6853 26.3813C85.6121 24.324 80.2545 23.2812 74.7606 23.2812C69.2667 23.2812 63.909 24.324 58.8358 26.3813C53.5791 28.513 48.8663 31.6412 44.8283 35.6798C40.7897 39.7179 37.6614 44.4307 35.5297 49.6874C33.4724 54.7606 32.4297 60.1182 32.4297 65.6121C32.4297 71.106 33.4724 76.4637 35.5297 81.5369C37.6614 86.7936 40.7897 91.5064 44.8283 95.545C48.8663 99.583 53.5791 102.711 58.8358 104.843C63.909 106.9 69.2667 107.944 74.7606 107.944C80.2545 107.944 85.6121 106.9 90.6853 104.843C92.9863 103.91 95.1831 102.786 97.2649 101.478C97.5547 101.296 97.8424 101.11 98.128 100.921C98.4118 100.733 98.6936 100.541 98.9726 100.346C100.137 99.5325 101.261 98.6591 102.344 97.726C103.151 97.0317 103.934 96.3044 104.693 95.545C105.453 94.7855 106.18 94.0023 106.874 93.1956C107.807 92.1132 108.68 90.9896 109.492 89.8263C109.688 89.5468 109.88 89.265 110.068 88.9811C110.257 88.6962 110.443 88.4085 110.625 88.1186C111.934 86.0363 113.058 83.8385 113.991 81.5369C116.049 76.4642 117.091 71.106 117.091 65.6121C117.091 60.1182 116.049 54.7606 113.991 49.6874ZM109.166 86.6595C108.988 86.9526 108.804 87.243 108.617 87.5307C107.085 89.8947 105.299 92.0986 103.273 94.1249C101.246 96.1513 99.0415 97.9372 96.677 99.4701C96.3893 99.6574 96.0989 99.8403 95.8063 100.019C93.9401 101.162 91.9783 102.151 89.9308 102.982C85.0986 104.941 79.9944 105.935 74.7606 105.935C69.5267 105.935 64.4225 104.941 59.5909 102.982C54.5844 100.951 50.0953 97.9719 46.2483 94.1249C42.4013 90.2774 39.4212 85.7888 37.3911 80.7824C35.4315 75.9502 34.4381 70.846 34.4381 65.6121C34.4381 60.3782 35.4315 55.2741 37.3911 50.4424C39.4212 45.436 42.4013 40.9468 46.2483 37.0999C50.0953 33.2529 54.5844 30.2728 59.5909 28.2426C64.4225 26.2831 69.5267 25.2897 74.7606 25.2897C79.9944 25.2897 85.0986 26.2831 89.9308 28.2426C94.9373 30.2728 99.4258 33.2529 103.273 37.0999C107.12 40.9468 110.1 45.436 112.13 50.4424C114.09 55.2741 115.083 60.3782 115.083 65.6121C115.083 70.846 114.09 75.9502 112.13 80.7824C111.3 82.831 110.31 84.7927 109.166 86.6595Z" fill="#333333"/>
<path d="M98.7983 41.5728C92.1704 34.9455 83.4646 31.6316 74.7589 31.6316C66.0531 31.6316 57.3473 34.9455 50.7195 41.5728C37.4643 54.8285 37.4643 76.3965 50.7195 89.6516C57.3473 96.2795 66.0531 99.5934 74.7589 99.5934C83.4646 99.5934 92.1704 96.2795 98.7983 89.6516C105.219 83.2306 108.756 74.6931 108.756 65.6122C108.756 56.5314 105.219 47.9939 98.7983 41.5728ZM80.8748 96.9998C78.8658 97.3879 76.8086 97.585 74.7589 97.585C72.7092 97.585 70.6519 97.3879 68.6429 96.9998C66.6154 96.6085 64.6206 96.0184 62.7136 95.246C58.7456 93.6398 55.188 91.2801 52.1395 88.2316C49.0915 85.1831 46.7313 81.6255 45.1251 77.6575C44.3532 75.7505 43.7632 73.7557 43.3713 71.7282C42.9832 69.7198 42.7867 67.6619 42.7867 65.6122C42.7867 63.5625 42.9832 61.5053 43.3713 59.4963C43.7632 57.4688 44.3532 55.474 45.1251 53.567C46.7313 49.599 49.0915 46.0413 52.1395 42.9934C55.188 39.9449 58.7456 37.5847 62.7136 35.9785C64.6206 35.2066 66.6154 34.6166 68.6429 34.2247C70.6519 33.8365 72.7092 33.64 74.7589 33.64C76.8086 33.64 78.8658 33.8365 80.8748 34.2247C82.9023 34.6166 84.8971 35.2066 86.8041 35.9785C90.7721 37.5847 94.3298 39.9449 97.3782 42.9934C103.42 49.035 106.747 57.0677 106.747 65.6122C106.747 74.1568 103.42 82.19 97.3782 88.2316C94.3298 91.2801 90.7721 93.6398 86.8041 95.246C84.8971 96.0184 82.9023 96.6085 80.8748 96.9998Z" fill="#333333"/>
<path d="M74.7698 77.1649C78.1804 77.1649 80.4206 79.5192 80.4651 82.8988C80.4651 86.1883 78.2053 88.612 74.7693 88.612C71.3332 88.612 69.061 86.1883 69.0675 82.8988C69.0675 79.5192 71.3804 77.1649 74.7693 77.1649H74.7698ZM74.7698 75.1565C73.6842 75.1565 72.6555 75.3454 71.7121 75.7172C70.7622 76.0918 69.9241 76.6417 69.2211 77.3506C68.5209 78.0573 67.9786 78.8987 67.6095 79.8508C67.2447 80.7926 67.0596 81.818 67.0596 82.8982C67.0563 85.0538 67.832 87.0199 69.2434 88.4345C69.9447 89.1369 70.7768 89.6824 71.7175 90.0559C72.661 90.4304 73.688 90.6204 74.7698 90.6204C75.8517 90.6204 76.9058 90.4272 77.8569 90.0461C78.8057 89.6656 79.6417 89.1097 80.3424 88.3927C81.7169 86.9868 82.4741 85.0353 82.4741 82.8982V82.8716C82.4594 81.7979 82.2695 80.7818 81.909 79.8514C81.5404 78.9003 81.0036 78.0611 80.3131 77.3576C79.614 76.6449 78.7791 76.0934 77.8319 75.7183C76.8906 75.3454 75.8609 75.1565 74.7698 75.1565Z" fill="#333333"/>
<path d="M74.7854 42.6127C77.9185 42.6127 80.409 45.2432 80.2375 48.3715L77.9989 69.1594C77.9055 70.866 76.4942 72.2019 74.7854 72.2019C73.076 72.2019 71.6652 70.866 71.5719 69.1594L69.3333 48.3715C69.1617 45.2432 71.6522 42.6127 74.7854 42.6127ZM74.7854 40.6042C73.7399 40.6042 72.7286 40.8165 71.7787 41.2345C70.8646 41.6367 70.0514 42.2099 69.362 42.9384C68.6726 43.6668 68.1445 44.5099 67.7927 45.4451C67.4274 46.4162 67.2711 47.4384 67.3281 48.4817L67.3308 48.5343L67.3362 48.587L69.5699 69.3287C69.7507 72.0711 72.0305 74.2109 74.7854 74.2109C77.5402 74.2109 79.82 72.0711 80.0008 69.3287L82.2345 48.587L82.2399 48.5343L82.2427 48.4817C82.2997 47.4378 82.1433 46.4162 81.778 45.4451C81.4262 44.5104 80.8981 43.6668 80.2087 42.9384C79.5193 42.2099 78.7062 41.6367 77.7921 41.2345C76.8421 40.8165 75.8303 40.6042 74.7854 40.6042Z" fill="#333333"/>
<path d="M120.878 121.352L122.886 123.36H22.147C21.5928 123.36 21.1428 122.911 21.1428 122.356C21.1428 121.801 21.5928 121.352 22.147 121.352H120.878Z" fill="#333333"/>
<path d="M157.154 122.356C157.154 122.911 156.704 123.36 156.15 123.36H142.131L140.123 121.352H156.15C156.704 121.352 157.154 121.801 157.154 122.356Z" fill="#333333"/>
<path d="M18.0036 123.36H13.4298C12.875 123.36 12.4255 122.911 12.4255 122.356C12.4255 121.801 12.875 121.352 13.4298 121.352H18.0036C18.5583 121.352 19.0078 121.801 19.0078 122.356C19.0078 122.911 18.5583 123.36 18.0036 123.36Z" fill="#333333"/>
<path d="M40.515 118.439H35.9412C35.3865 118.439 34.937 117.99 34.937 117.435C34.937 116.88 35.3865 116.431 35.9412 116.431H40.515C41.0698 116.431 41.5193 116.88 41.5193 117.435C41.5193 117.99 41.0698 118.439 40.515 118.439Z" fill="#333333"/>
<path d="M31.7978 118.439H27.2239C26.6692 118.439 26.2197 117.99 26.2197 117.435C26.2197 116.88 26.6692 116.431 27.2239 116.431H31.7978C32.3525 116.431 32.802 116.88 32.802 117.435C32.802 117.99 32.3525 118.439 31.7978 118.439Z" fill="#333333"/>
<path d="M142.355 118.439H137.782C137.227 118.439 136.777 117.99 136.777 117.435C136.777 116.88 137.227 116.431 137.782 116.431H142.355C142.91 116.431 143.36 116.88 143.36 117.435C143.36 117.99 142.91 118.439 142.355 118.439Z" fill="#333333"/>
<path d="M151.073 118.439H146.499C145.945 118.439 145.495 117.99 145.495 117.435C145.495 116.88 145.945 116.431 146.499 116.431H151.073C151.627 116.431 152.077 116.88 152.077 117.435C152.077 117.99 151.627 118.439 151.073 118.439Z" fill="#333333"/>
<path d="M164.867 123.36H160.294C159.739 123.36 159.29 122.911 159.29 122.356C159.29 121.801 159.739 121.352 160.294 121.352H164.867C165.422 121.352 165.872 121.801 165.872 122.356C165.872 122.911 165.422 123.36 164.867 123.36Z" fill="#333333"/>
</g>
<defs>
<clipPath id="clip0_1198_2519">
<rect width="181.981" height="160" fill="white" transform="translate(0.00952148)"/>
</clipPath>
</defs>
</svg>
