<svg width="180" height="160" viewBox="0 0 180 160" fill="none" xmlns="http://www.w3.org/2000/svg">
<g clip-path="url(#clip0_1198_2572)">
<path d="M5.10028 67.3637C7.81439 70.0778 11.4958 71.6031 15.3346 71.6031C18.2187 71.6031 21.0131 70.7422 23.376 69.1632L13.0727 79.4665C10.3586 82.1806 8.83326 85.862 8.83326 89.7008C8.83326 93.5397 10.3581 97.2211 13.0727 99.9352C15.7868 102.649 19.4682 104.175 23.3071 104.175C26.1905 104.175 28.9855 103.314 31.3484 101.735L25.9408 107.143C23.2267 109.857 21.7014 113.538 21.7014 117.377C21.7014 121.216 23.2262 124.897 25.9408 127.611C28.6549 130.326 32.3364 131.851 36.1752 131.851C39.0587 131.851 41.8537 130.99 44.2166 129.411L42.8953 130.733C40.1812 133.447 38.6559 137.128 38.6559 140.967C38.6559 144.806 40.1807 148.487 42.8953 151.201C45.6094 153.916 49.2909 155.441 53.1297 155.441C56.9685 155.441 60.6499 153.916 63.3641 151.201L77.0795 137.486C75.5005 139.849 74.6401 142.644 74.6401 145.527C74.6401 149.366 76.1649 153.048 78.8795 155.762C81.5937 158.476 85.2751 160.001 89.1139 160.001C92.9527 160.001 96.6342 158.476 99.3483 155.762L120.188 134.922C118.609 137.285 117.748 140.08 117.748 142.964C117.748 146.802 119.273 150.484 121.988 153.198C124.702 155.912 128.383 157.437 132.222 157.437C136.061 157.437 139.742 155.913 142.456 153.198L174.899 120.755C177.613 118.041 179.139 114.36 179.139 110.521C179.139 106.682 177.614 103.001 174.899 100.286C172.185 97.5723 168.504 96.047 164.665 96.047C161.781 96.047 158.986 96.9079 156.624 98.4864L163.415 91.6952C166.129 88.981 167.654 85.2996 167.654 81.4608C167.654 77.6219 166.129 73.9405 163.415 71.2264C160.701 68.5123 157.019 66.987 153.18 66.987C150.297 66.987 147.502 67.8479 145.139 69.4264L158.855 55.7109C161.569 52.9968 163.094 49.3154 163.094 45.4766C163.094 41.6377 161.569 37.9563 158.855 35.2422C156.14 32.5281 152.459 31.0028 148.62 31.0028C145.737 31.0028 142.942 31.8637 140.579 33.4422L149.313 24.7077C152.027 21.9936 153.553 18.3122 153.553 14.4733C153.553 10.6345 152.028 6.95306 149.313 4.23895C146.599 1.52484 142.918 -0.000488281 139.079 -0.000488281C135.24 -0.000488281 131.559 1.5243 128.845 4.23895L109.389 23.6948C110.968 21.3319 111.828 18.5369 111.828 15.6534C111.828 11.8146 110.303 8.13315 107.589 5.41905C104.875 2.70494 101.193 1.17961 97.3545 1.17961C93.5156 1.17961 89.8342 2.70439 87.1201 5.41905L59.8113 32.7279C61.3904 30.365 62.2513 27.57 62.2513 24.686C62.2513 20.8471 60.7265 17.1657 58.0118 14.4516C55.2977 11.7375 51.6163 10.2122 47.7775 10.2122C43.9386 10.2122 40.2572 11.7369 37.5431 14.4516L5.10028 46.895C2.38563 49.6096 0.86084 53.291 0.86084 57.1293C0.86084 60.9676 2.38563 64.6496 5.10028 67.3637Z" fill="white"/>
<path d="M170.014 114.142L169.013 115.144C168.622 115.535 168.622 116.17 169.013 116.561C169.404 116.953 170.039 116.953 170.43 116.561L171.432 115.56L172.433 116.561C172.825 116.953 173.459 116.953 173.851 116.561C174.242 116.17 174.242 115.535 173.851 115.144L172.849 114.142L173.851 113.141C174.242 112.75 174.242 112.115 173.851 111.724C173.655 111.528 173.398 111.43 173.142 111.43C172.885 111.43 172.629 111.528 172.433 111.724L171.431 112.725L170.43 111.724C170.234 111.528 169.977 111.43 169.721 111.43C169.464 111.43 169.208 111.528 169.012 111.724C168.62 112.115 168.62 112.75 169.012 113.141L170.013 114.142H170.014Z" fill="white"/>
<path d="M35.6101 150.633L34.6086 151.634C34.2172 152.026 34.2172 152.66 34.6086 153.051C35 153.443 35.6345 153.443 36.0259 153.051L37.0274 152.05L38.0289 153.051C38.4203 153.443 39.0548 153.443 39.4462 153.051C39.8376 152.66 39.8376 152.026 39.4462 151.634L38.4447 150.633L39.4462 149.631C39.8376 149.24 39.8376 148.605 39.4462 148.214C39.2503 148.018 38.994 147.92 38.7373 147.92C38.4805 147.92 38.2243 148.018 38.0284 148.214L37.0269 149.215L36.0253 148.214C35.8294 148.018 35.5732 147.92 35.3164 147.92C35.0597 147.92 34.8035 148.018 34.6075 148.214C34.2161 148.605 34.2161 149.24 34.6075 149.631L35.609 150.633H35.6101Z" fill="white"/>
<path d="M9.98558 61.8629L8.98407 62.8644C8.59269 63.2557 8.59269 63.8903 8.98407 64.2817C9.37544 64.6731 10.01 64.6731 10.4014 64.2817L11.4029 63.2802L12.4044 64.2817C12.7958 64.6731 13.4303 64.6731 13.8217 64.2817C14.2131 63.8903 14.2131 63.2557 13.8217 62.8644L12.8202 61.8629L13.8217 60.8614C14.2131 60.47 14.2131 59.8354 13.8217 59.4441C13.6257 59.2481 13.3695 59.1504 13.1128 59.1504C12.856 59.1504 12.5998 59.2481 12.4038 59.4441L11.4023 60.4456L10.4008 59.4441C10.2049 59.2481 9.94866 59.1504 9.69191 59.1504C9.43515 59.1504 9.17894 59.2481 8.98298 59.4441C8.59161 59.8354 8.59161 60.47 8.98298 60.8614L9.98449 61.8629H9.98558Z" fill="white"/>
<path d="M130.524 10.3941L129.523 11.3956C129.131 11.787 129.131 12.4216 129.523 12.8129C129.914 13.2043 130.549 13.2043 130.94 12.8129L131.941 11.8114L132.943 12.8129C133.334 13.2043 133.969 13.2043 134.36 12.8129C134.752 12.4216 134.752 11.787 134.36 11.3956L133.359 10.3941L134.36 9.39262C134.752 9.00124 134.752 8.36668 134.36 7.97531C134.164 7.77935 133.908 7.68164 133.651 7.68164C133.395 7.68164 133.138 7.77935 132.942 7.97531L131.941 8.97681L130.939 7.97531C130.743 7.77935 130.487 7.68164 130.23 7.68164C129.974 7.68164 129.718 7.77935 129.522 7.97531C129.13 8.36668 129.13 9.00124 129.522 9.39262L130.523 10.3941H130.524Z" fill="white"/>
<path d="M112.188 152.029C113.802 152.029 115.116 153.342 115.116 154.957C115.116 156.571 113.802 157.885 112.188 157.885C110.573 157.885 109.26 156.571 109.26 154.957C109.26 153.342 110.573 152.029 112.188 152.029ZM112.188 155.88C112.697 155.88 113.111 155.466 113.111 154.957C113.111 154.448 112.697 154.033 112.188 154.033C111.679 154.033 111.264 154.448 111.264 154.957C111.264 155.466 111.679 155.88 112.188 155.88Z" fill="white"/>
<path d="M167.371 58.7302C168.985 58.7302 170.299 60.0439 170.299 61.6582C170.299 63.2726 168.985 64.5862 167.371 64.5862C165.756 64.5862 164.443 63.2726 164.443 61.6582C164.443 60.0439 165.756 58.7302 167.371 58.7302ZM167.371 62.5815C167.88 62.5815 168.294 62.1674 168.294 61.6582C168.294 61.149 167.88 60.7349 167.371 60.7349C166.862 60.7349 166.448 61.149 166.448 61.6582C166.448 62.1674 166.862 62.5815 167.371 62.5815Z" fill="white"/>
<path d="M44.7991 11.739C46.4134 11.739 47.7271 13.0526 47.7271 14.667C47.7271 16.2813 46.4134 17.595 44.7991 17.595C43.1847 17.595 41.8711 16.2813 41.8711 14.667C41.8711 13.0526 43.1847 11.739 44.7991 11.739ZM44.7991 15.5903C45.3082 15.5903 45.7224 15.1762 45.7224 14.667C45.7224 14.1578 45.3082 13.7437 44.7991 13.7437C44.2899 13.7437 43.8757 14.1578 43.8757 14.667C43.8757 15.1762 44.2899 15.5903 44.7991 15.5903Z" fill="white"/>
<path d="M8.80933 102.685C10.4237 102.685 11.7373 103.999 11.7373 105.613C11.7373 107.227 10.4237 108.541 8.80933 108.541C7.19498 108.541 5.88135 107.227 5.88135 105.613C5.88135 103.999 7.19498 102.685 8.80933 102.685ZM8.80933 106.536C9.3185 106.536 9.73267 106.122 9.73267 105.613C9.73267 105.104 9.3185 104.69 8.80933 104.69C8.30016 104.69 7.88599 105.104 7.88599 105.613C7.88599 106.122 8.30016 106.536 8.80933 106.536Z" fill="white"/>
<path d="M5.10028 67.3637C7.81439 70.0778 11.4958 71.6031 15.3346 71.6031C18.2187 71.6031 21.0131 70.7422 23.376 69.1632L13.0727 79.4665C10.3586 82.1806 8.83326 85.862 8.83326 89.7008C8.83326 93.5397 10.3581 97.2211 13.0727 99.9352C15.7868 102.649 19.4682 104.175 23.3071 104.175C26.1905 104.175 28.9855 103.314 31.3484 101.735L25.9408 107.143C23.2267 109.857 21.7014 113.538 21.7014 117.377C21.7014 121.216 23.2262 124.897 25.9408 127.611C28.6549 130.326 32.3364 131.851 36.1752 131.851C39.0587 131.851 41.8537 130.99 44.2166 129.411L42.8953 130.733C40.1812 133.447 38.6559 137.128 38.6559 140.967C38.6559 144.806 40.1807 148.487 42.8953 151.201C45.6094 153.916 49.2909 155.441 53.1297 155.441C56.9685 155.441 60.6499 153.916 63.3641 151.201L77.0795 137.486C75.5005 139.849 74.6401 142.644 74.6401 145.527C74.6401 149.366 76.1649 153.048 78.8795 155.762C81.5937 158.476 85.2751 160.001 89.1139 160.001C92.9527 160.001 96.6342 158.476 99.3483 155.762L120.188 134.922C118.609 137.285 117.748 140.08 117.748 142.964C117.748 146.802 119.273 150.484 121.988 153.198C124.702 155.912 128.383 157.437 132.222 157.437C136.061 157.437 139.742 155.913 142.456 153.198L174.899 120.755C177.613 118.041 179.139 114.36 179.139 110.521C179.139 106.682 177.614 103.001 174.899 100.286C172.185 97.5723 168.504 96.047 164.665 96.047C161.781 96.047 158.986 96.9079 156.624 98.4864L163.415 91.6952C166.129 88.981 167.654 85.2996 167.654 81.4608C167.654 77.6219 166.129 73.9405 163.415 71.2264C160.701 68.5123 157.019 66.987 153.18 66.987C150.297 66.987 147.502 67.8479 145.139 69.4264L158.855 55.7109C161.569 52.9968 163.094 49.3154 163.094 45.4766C163.094 41.6377 161.569 37.9563 158.855 35.2422C156.14 32.5281 152.459 31.0028 148.62 31.0028C145.737 31.0028 142.942 31.8637 140.579 33.4422L149.313 24.7077C152.027 21.9936 153.553 18.3122 153.553 14.4733C153.553 10.6345 152.028 6.95306 149.313 4.23895C146.599 1.52484 142.918 -0.000488281 139.079 -0.000488281C135.24 -0.000488281 131.559 1.5243 128.845 4.23895L109.389 23.6948C110.968 21.3319 111.828 18.5369 111.828 15.6534C111.828 11.8146 110.303 8.13315 107.589 5.41905C104.875 2.70494 101.193 1.17961 97.3545 1.17961C93.5156 1.17961 89.8342 2.70439 87.1201 5.41905L59.8113 32.7279C61.3904 30.365 62.2513 27.57 62.2513 24.686C62.2513 20.8471 60.7265 17.1657 58.0118 14.4516C55.2977 11.7375 51.6163 10.2122 47.7775 10.2122C43.9386 10.2122 40.2572 11.7369 37.5431 14.4516L5.10028 46.895C2.38563 49.6096 0.86084 53.291 0.86084 57.1293C0.86084 60.9676 2.38563 64.6496 5.10028 67.3637Z" fill="#E9F4FA"/>
<path d="M170.014 114.142L169.013 115.144C168.622 115.535 168.622 116.17 169.013 116.561C169.404 116.953 170.039 116.953 170.43 116.561L171.432 115.56L172.433 116.561C172.825 116.953 173.459 116.953 173.851 116.561C174.242 116.17 174.242 115.535 173.851 115.144L172.849 114.142L173.851 113.141C174.242 112.75 174.242 112.115 173.851 111.724C173.655 111.528 173.398 111.43 173.142 111.43C172.885 111.43 172.629 111.528 172.433 111.724L171.431 112.725L170.43 111.724C170.234 111.528 169.977 111.43 169.721 111.43C169.464 111.43 169.208 111.528 169.012 111.724C168.62 112.115 168.62 112.75 169.012 113.141L170.013 114.142H170.014Z" fill="#036FAD"/>
<path d="M35.6101 150.633L34.6086 151.634C34.2172 152.026 34.2172 152.66 34.6086 153.051C35 153.443 35.6345 153.443 36.0259 153.051L37.0274 152.05L38.0289 153.051C38.4203 153.443 39.0548 153.443 39.4462 153.051C39.8376 152.66 39.8376 152.026 39.4462 151.634L38.4447 150.633L39.4462 149.631C39.8376 149.24 39.8376 148.605 39.4462 148.214C39.2503 148.018 38.994 147.92 38.7373 147.92C38.4805 147.92 38.2243 148.018 38.0284 148.214L37.0269 149.215L36.0253 148.214C35.8294 148.018 35.5732 147.92 35.3164 147.92C35.0597 147.92 34.8035 148.018 34.6075 148.214C34.2161 148.605 34.2161 149.24 34.6075 149.631L35.609 150.633H35.6101Z" fill="#036FAD"/>
<path d="M9.98558 61.8629L8.98407 62.8644C8.59269 63.2557 8.59269 63.8903 8.98407 64.2817C9.37544 64.6731 10.01 64.6731 10.4014 64.2817L11.4029 63.2802L12.4044 64.2817C12.7958 64.6731 13.4303 64.6731 13.8217 64.2817C14.2131 63.8903 14.2131 63.2557 13.8217 62.8644L12.8202 61.8629L13.8217 60.8614C14.2131 60.47 14.2131 59.8354 13.8217 59.4441C13.6257 59.2481 13.3695 59.1504 13.1128 59.1504C12.856 59.1504 12.5998 59.2481 12.4038 59.4441L11.4023 60.4456L10.4008 59.4441C10.2049 59.2481 9.94866 59.1504 9.69191 59.1504C9.43515 59.1504 9.17894 59.2481 8.98298 59.4441C8.59161 59.8354 8.59161 60.47 8.98298 60.8614L9.98449 61.8629H9.98558Z" fill="#036FAD"/>
<path d="M130.524 10.3941L129.523 11.3956C129.131 11.787 129.131 12.4216 129.523 12.8129C129.914 13.2043 130.549 13.2043 130.94 12.8129L131.941 11.8114L132.943 12.8129C133.334 13.2043 133.969 13.2043 134.36 12.8129C134.752 12.4216 134.752 11.787 134.36 11.3956L133.359 10.3941L134.36 9.39262C134.752 9.00124 134.752 8.36668 134.36 7.97531C134.164 7.77935 133.908 7.68164 133.651 7.68164C133.395 7.68164 133.138 7.77935 132.942 7.97531L131.941 8.97681L130.939 7.97531C130.743 7.77935 130.487 7.68164 130.23 7.68164C129.974 7.68164 129.718 7.77935 129.522 7.97531C129.13 8.36668 129.13 9.00124 129.522 9.39262L130.523 10.3941H130.524Z" fill="#036FAD"/>
<path d="M112.188 152.029C113.802 152.029 115.116 153.342 115.116 154.957C115.116 156.571 113.802 157.885 112.188 157.885C110.573 157.885 109.26 156.571 109.26 154.957C109.26 153.342 110.573 152.029 112.188 152.029ZM112.188 155.88C112.697 155.88 113.111 155.466 113.111 154.957C113.111 154.448 112.697 154.033 112.188 154.033C111.679 154.033 111.264 154.448 111.264 154.957C111.264 155.466 111.679 155.88 112.188 155.88Z" fill="#036FAD"/>
<path d="M167.371 58.7302C168.985 58.7302 170.299 60.0439 170.299 61.6582C170.299 63.2726 168.985 64.5862 167.371 64.5862C165.756 64.5862 164.443 63.2726 164.443 61.6582C164.443 60.0439 165.756 58.7302 167.371 58.7302ZM167.371 62.5815C167.88 62.5815 168.294 62.1674 168.294 61.6582C168.294 61.149 167.88 60.7349 167.371 60.7349C166.862 60.7349 166.448 61.149 166.448 61.6582C166.448 62.1674 166.862 62.5815 167.371 62.5815Z" fill="#036FAD"/>
<path d="M44.7991 11.739C46.4134 11.739 47.7271 13.0526 47.7271 14.667C47.7271 16.2813 46.4134 17.595 44.7991 17.595C43.1847 17.595 41.8711 16.2813 41.8711 14.667C41.8711 13.0526 43.1847 11.739 44.7991 11.739ZM44.7991 15.5903C45.3082 15.5903 45.7224 15.1762 45.7224 14.667C45.7224 14.1578 45.3082 13.7437 44.7991 13.7437C44.2899 13.7437 43.8757 14.1578 43.8757 14.667C43.8757 15.1762 44.2899 15.5903 44.7991 15.5903Z" fill="#036FAD"/>
<path d="M8.80933 102.685C10.4237 102.685 11.7373 103.999 11.7373 105.613C11.7373 107.227 10.4237 108.541 8.80933 108.541C7.19498 108.541 5.88135 107.227 5.88135 105.613C5.88135 103.999 7.19498 102.685 8.80933 102.685ZM8.80933 106.536C9.3185 106.536 9.73267 106.122 9.73267 105.613C9.73267 105.104 9.3185 104.69 8.80933 104.69C8.30016 104.69 7.88599 105.104 7.88599 105.613C7.88599 106.122 8.30016 106.536 8.80933 106.536Z" fill="#036FAD"/>
<path d="M90.3188 65.7059L126.896 60.0339L131.733 77.4851L95.1554 83.1571L90.3188 65.7059Z" fill="#036FAD"/>
<path d="M48.3267 77.6359L53.1605 60.1951L89.7288 65.8654L89.7179 65.905L89.7277 65.9066L84.9042 83.3079L48.3267 77.6359Z" fill="#036FAD"/>
<path d="M90.2151 64.7055L89.9774 64.7424L89.8704 64.7593L89.8417 64.8667L89.7841 65.0801L89.5789 65.8422L89.5024 66.1272L89.4492 66.3242L89.2397 67.1026L88.9737 68.09L84.8765 83.3037L84.87 83.3276L53.6821 78.4937V99.781L88.9737 105.253L89.9779 105.409L90.1261 105.432L90.2743 105.455V64.6963L90.2157 64.7055H90.2151ZM54.6858 98.9207V79.6657L85.6049 84.4577L85.6115 84.4344L88.9731 71.9511V104.237L54.6858 98.9207Z" fill="white"/>
<path d="M88.9729 71.9509V104.237L54.6855 98.9205V79.6655L85.6047 84.4575L85.6112 84.4342L88.9729 71.9509Z" fill="white"/>
<path d="M95.1903 83.1759L95.1837 83.1526L91.2781 68.6505L90.8205 66.9515L90.6528 66.3284L90.5578 65.9761L90.478 65.6808L90.2951 65.0006L90.2772 64.9344L90.2739 64.9219L90.2153 64.7053L89.9775 64.7422V105.455L90.1257 105.432L90.2739 105.409L91.2781 105.253L126.571 99.7808V78.3128L95.1903 83.1759ZM125.567 98.9205L91.2781 104.237L90.9818 104.283V71.4113L91.2781 72.5116L94.4482 84.2827L94.4547 84.3061L125.567 79.4847V98.9205Z" fill="white"/>
<path d="M125.566 79.4848V98.9205L91.2778 104.237L90.9814 104.283V71.4114L91.2778 72.5117L94.4479 84.2828L94.4544 84.3061L125.566 79.4848Z" fill="#EFEFEF"/>
<path d="M56.1249 122.615L56.7562 124.209C56.3257 123.884 55.8996 123.553 55.4789 123.216L55.1912 122.985L54.5659 122.484L54.8791 122.196L55.7042 121.439C55.7303 121.58 55.7704 121.72 55.8253 121.859L56.1249 122.615Z" fill="white"/>
<path d="M59.3 118.138L59.959 118.651L58.5444 118.832L59.3 118.138Z" fill="white"/>
<path d="M145.261 82.3679C144.954 89.5396 143.292 96.4742 140.321 102.979C137.246 109.714 132.896 115.69 127.393 120.741C121.889 125.792 115.563 129.615 108.59 132.103C102.62 134.233 96.3799 135.313 90.043 135.313H90.0425C89.2434 135.313 88.4324 135.296 87.6318 135.262C80.46 134.954 73.5255 133.292 67.0208 130.322C66.6523 130.154 66.2859 129.981 65.9211 129.805C65.4689 129.586 65.0195 129.362 64.5738 129.13C64.1129 128.892 63.6559 128.647 63.2026 128.396L62.6126 126.905L61.0645 122.998L63.9501 122.627L65.5802 122.418C66.0725 122.701 66.5703 122.974 67.0724 123.239C67.6011 123.518 68.1353 123.787 68.6737 124.046C75.282 127.227 82.6047 128.925 90.0164 128.925H90.0197C102.312 128.924 114.06 124.355 123.097 116.061C140.129 100.428 143.876 74.6913 132.005 54.8653C131.231 53.5717 131.472 51.8955 132.579 50.8799C133.167 50.3392 133.931 50.0417 134.728 50.0417C135.857 50.0417 136.877 50.6182 137.456 51.5839C139.317 54.6818 140.88 57.9876 142.101 61.4095C144.504 68.1443 145.567 75.1956 145.26 82.3679H145.261Z" fill="white"/>
<path d="M77.3454 118.665C77.1397 117.057 75.7631 115.845 74.1438 115.845C74.0065 115.845 73.8675 115.853 73.7307 115.871L60.246 117.601L58.1007 117.877L57.4065 117.966C56.4533 118.088 55.6103 118.623 55.0935 119.434L55.075 119.463L55.0588 119.493C54.7977 119.972 54.6647 120.5 54.6636 121.031C54.6636 121.425 54.7341 121.82 54.8791 122.196C54.8829 122.207 54.8872 122.218 54.8916 122.229L55.1912 122.985L55.9256 124.84L60.9522 137.53C61.4429 138.77 62.6219 139.571 63.9556 139.571H63.9561C64.3633 139.571 64.7633 139.495 65.1444 139.344C65.818 139.077 66.369 138.607 66.7365 137.983C67.2478 137.117 67.3287 136.085 66.9585 135.151L65.1308 130.536L64.5739 129.13L64.0039 127.691L62.4748 123.829L65.3642 123.458L67.0736 123.239L68.8426 123.012H68.8437L74.5531 122.279C75.5497 122.152 76.4139 121.582 76.9252 120.715C77.2933 120.092 77.4388 119.382 77.3459 118.665H77.3454ZM76.0594 120.205C75.7223 120.777 75.1345 121.193 74.425 121.283L67.2625 122.202L65.5808 122.418L63.9507 122.627L61.0651 122.997L62.6132 126.905L63.2032 128.396L63.7781 129.847L66.0254 135.521C66.2892 136.186 66.2094 136.901 65.8723 137.473C65.6297 137.884 65.254 138.221 64.7753 138.41C64.5066 138.517 64.2292 138.567 63.9561 138.567C63.0703 138.567 62.2321 138.034 61.8864 137.16L57.4504 125.961L56.7567 124.209L56.1254 122.615L55.8258 121.859C55.7709 121.72 55.7308 121.58 55.7047 121.439C55.6108 120.929 55.702 120.413 55.9414 119.974C56.2834 119.436 56.8528 119.049 57.5351 118.962L58.3423 118.858L58.5453 118.832L59.9599 118.651L61.3788 118.468L73.8588 116.867C73.9549 116.855 74.0505 116.849 74.1449 116.849C75.2479 116.849 76.206 117.669 76.3499 118.792C76.4155 119.302 76.3032 119.794 76.06 120.205H76.0594Z" fill="white"/>
<path d="M76.0595 120.205C75.7225 120.777 75.1346 121.193 74.4251 121.283L67.2626 122.202L65.5809 122.418L63.9508 122.627L61.0652 122.997L62.6133 126.905L63.2034 128.396L63.7782 129.847L66.0255 135.521C66.2893 136.186 66.2095 136.901 65.8724 137.473C65.6298 137.884 65.2541 138.221 64.7754 138.41C64.5067 138.517 64.2293 138.567 63.9563 138.567C63.0704 138.567 62.2322 138.034 61.8865 137.16L57.4505 125.961L56.7568 124.209L56.1255 122.615L55.8259 121.859C55.771 121.72 55.7309 121.58 55.7048 121.439C55.6109 120.929 55.7021 120.412 55.9415 119.974C56.2835 119.436 56.8529 119.049 57.5352 118.962L58.3424 118.858L58.5454 118.832L59.96 118.65L61.3789 118.468L73.859 116.867C73.955 116.855 74.0506 116.849 74.145 116.849C75.248 116.849 76.2061 117.669 76.35 118.792C76.4156 119.302 76.3033 119.794 76.0601 120.205H76.0595Z" fill="#036FAD"/>
<path d="M117.387 33.0948L118.935 37.0026L116.049 37.3728L114.419 37.5817C113.926 37.2995 113.428 37.0259 112.926 36.761C112.397 36.482 111.863 36.2133 111.324 35.9538H111.324C104.715 32.7723 97.3918 31.0755 89.9785 31.0755C77.6863 31.0755 65.9396 35.6439 56.9017 43.9393C39.869 59.5725 36.1224 85.3088 47.9929 105.135C48.7675 106.428 48.5259 108.105 47.4191 109.12C46.8307 109.661 46.0675 109.958 45.2701 109.958C44.1415 109.958 43.1216 109.382 42.5418 108.416C40.6811 105.318 39.1183 102.013 37.8969 98.5906C35.4938 91.8558 34.431 84.8045 34.7382 77.6322C35.0455 70.4605 36.7076 63.5259 39.6779 57.0213C42.7535 50.2865 47.1032 44.3106 52.6063 39.2596C58.11 34.2081 64.436 30.3856 71.4091 27.8973C77.3791 25.7672 83.6193 24.687 89.9573 24.687C90.7553 24.687 91.5663 24.7044 92.3675 24.7386C99.5392 25.0458 106.474 26.7079 112.978 29.6783C113.347 29.8465 113.713 30.0186 114.078 30.195C114.53 30.4138 114.98 30.6385 115.425 30.8703C115.886 31.1081 116.343 31.3529 116.797 31.6042L117.387 33.0948Z" fill="white"/>
<path d="M120.04 41.3495L121.455 41.1682L120.699 41.8619L120.04 41.3495Z" fill="white"/>
<path d="M125.433 37.5161L125.12 37.8038L124.295 38.561C124.269 38.4204 124.229 38.2799 124.174 38.1414L123.874 37.3853L123.243 35.791C123.674 36.1156 124.1 36.4467 124.52 36.7844L124.808 37.0151L125.433 37.5161Z" fill="white"/>
<path d="M127.971 60.1538L123.769 59.5024L90.0003 54.269L55.7401 59.5789L52.1346 60.1375L52.0825 60.3248L53.0819 60.48L88.5037 65.9723L88.9732 66.045L89.389 66.1096L89.5019 66.127L89.5427 66.1335L89.6702 66.114L89.9775 66.0662L90.2738 66.02L90.4009 66.0005L90.5577 65.9761L90.7591 65.9451L91.2781 65.8643L91.556 65.8214L126.978 60.3286L127.977 60.1739L127.971 60.1538ZM90.0003 55.2852L120.491 60.011L91.2802 64.5403H91.2781L91.214 64.5506L90.2738 64.6961L90.2152 64.7053L89.9775 64.7422L89.8705 64.7591L89.509 64.815L88.9738 64.7319L88.8435 64.7119L88.7675 64.6999L59.0176 60.087L90.0008 55.2852H90.0003Z" fill="white"/>
<path d="M120.491 60.0112L91.2802 64.5405L91.2781 64.5411L91.214 64.5508L90.2739 64.6963L90.2152 64.7055L89.9775 64.7424L89.8705 64.7593H89.87L89.5085 64.8152L88.9733 64.7321L88.843 64.712L88.767 64.7001L59.0171 60.0872L90.0003 55.2854L120.491 60.0112Z" fill="#DDDDDD"/>
<path d="M125.12 37.8037C125.116 37.7928 125.112 37.7819 125.108 37.7711L124.808 37.0149L124.073 35.1601L119.047 22.4706C118.556 21.2302 117.377 20.4285 116.043 20.4285C115.636 20.4285 115.236 20.505 114.855 20.6559C114.181 20.9224 113.63 21.3931 113.263 22.0168C112.751 22.8826 112.67 23.915 113.041 24.8487L114.868 29.4637L115.425 30.8702L115.995 32.3092H115.996L117.525 36.1708L114.635 36.5416L112.926 36.7609L111.157 36.9878H111.156L105.447 37.7206C104.45 37.8482 103.586 38.4181 103.074 39.2845C102.706 39.9082 102.561 40.6176 102.654 41.3352C102.859 42.9431 104.236 44.1552 105.855 44.1552H105.855C105.993 44.1552 106.132 44.1465 106.268 44.1286L119.753 42.3986L121.898 42.1234L122.593 42.0344C123.546 41.9123 124.389 41.3765 124.906 40.5655L124.924 40.5368L124.94 40.5069C125.201 40.0276 125.334 39.4994 125.336 38.9685C125.336 38.575 125.265 38.1804 125.12 37.8037ZM124.058 40.026C123.716 40.5639 123.147 40.9509 122.465 41.0383L121.657 41.142L121.454 41.1681L120.04 41.3494L118.621 41.5318L106.141 43.1325C106.045 43.145 105.949 43.151 105.855 43.151C104.752 43.151 103.794 42.3313 103.65 41.2077C103.584 40.6974 103.696 40.2062 103.94 39.7947C104.277 39.2231 104.865 38.8073 105.574 38.7167L112.737 37.7977L114.418 37.5816L116.049 37.3727L118.935 37.0024L117.386 33.0947L116.796 31.6041L116.222 30.1526L113.974 24.479C113.71 23.814 113.79 23.0986 114.127 22.527C114.37 22.1161 114.746 21.779 115.224 21.5901C115.493 21.4832 115.77 21.4327 116.043 21.4327C116.929 21.4327 117.767 21.9657 118.113 22.8397L122.549 34.0392L123.243 35.7909L123.874 37.3851L124.174 38.1413C124.229 38.2797 124.269 38.4203 124.295 38.5609C124.389 39.0711 124.298 39.5874 124.058 40.026Z" fill="white"/>
<path d="M124.058 40.0261C123.716 40.5641 123.147 40.9511 122.465 41.0385L121.657 41.1422L121.454 41.1682L120.04 41.3495L118.621 41.5319L106.141 43.1327C106.045 43.1452 105.949 43.1512 105.855 43.1512C104.752 43.1512 103.794 42.3315 103.65 41.2079C103.584 40.6976 103.697 40.2064 103.94 39.7949C104.277 39.2233 104.865 38.8075 105.574 38.7169L112.737 37.7979L114.418 37.5818L116.049 37.3728L118.935 37.0026L117.386 33.0948L116.796 31.6043L116.222 30.1528L113.974 24.4792C113.71 23.8142 113.79 23.0988 114.127 22.5272C114.37 22.1163 114.746 21.7792 115.224 21.5903C115.493 21.4833 115.77 21.4329 116.044 21.4329C116.929 21.4329 117.768 21.9659 118.113 22.8399L122.549 34.0394L123.243 35.791L123.874 37.3853L124.174 38.1415C124.229 38.2799 124.269 38.4205 124.295 38.5611C124.389 39.0713 124.298 39.5875 124.058 40.0261Z" fill="#036FAD"/>
<g style="mix-blend-mode:multiply">
<path d="M55.778 102.305L90.3617 107.668L90.3731 107.67L91.5255 107.848L92.678 107.67L92.6894 107.668L127.274 102.305L128.975 102.042V80.546L132.171 80.0498L134.402 79.7041L133.799 77.529L129.647 62.5482L129.502 62.0265L129.377 61.5738L129.371 61.5537L129.077 60.492L128.446 60.3943L123.191 59.5795L91.7079 54.7006L91.4001 54.6528L91.0924 54.7006L59.1516 59.6506L53.8608 60.4703L53.8315 60.4659L53.8287 60.4751L53.5345 61.5374L53.4824 61.7247L53.3543 62.1877L53.2126 62.6991L49.0606 77.6799L48.4575 79.8555L50.688 80.2013L54.0774 80.7267V102.042L55.778 102.305ZM56.0858 100.32V81.0655L87.0049 85.8575L87.0114 85.8341L90.3731 73.3509V105.637L56.0858 100.32ZM126.966 100.32L92.678 105.637L92.3816 105.683V72.8113L92.678 73.9116L95.848 85.6827L95.8545 85.706L126.966 80.8847V100.32ZM131.864 78.0653L126.598 78.8817L97.3196 83.4218L94.3211 72.2891L93.2186 68.1968L123.191 63.5491L127.649 62.8581L131.864 78.0653ZM91.4001 56.6852L121.89 61.411L92.6801 65.9403H92.678L92.6139 65.9506L91.6737 66.0961L91.6151 66.1053L91.3774 66.1422L91.2704 66.159H91.2699L90.9084 66.2149L90.3731 66.1319L90.2429 66.1118L90.1669 66.0999L60.417 61.487L91.4001 56.6852ZM50.9958 78.2162L55.2108 63.009L59.1516 63.6202L89.6409 68.3477L88.7306 71.7278L85.5404 83.5733L50.9958 78.2162Z" fill="#DDDDDD"/>
<path d="M144.448 62.4716C143.204 58.9872 141.613 55.6212 139.718 52.4663C139.336 51.8312 138.794 51.3085 138.148 50.954C137.532 50.6158 136.833 50.4373 136.129 50.4373C135.08 50.4373 134.075 50.8286 133.301 51.5397C132.591 52.1917 132.124 53.0759 131.989 54.0307C131.854 54.9801 132.051 55.9567 132.545 56.7812C144.171 76.2001 140.501 101.408 123.818 116.721C114.966 124.846 103.46 129.32 91.4204 129.32C84.6916 129.32 78.0388 127.893 71.9489 125.205L76.0803 124.675C77.3863 124.508 78.5192 123.761 79.189 122.626C79.6716 121.808 79.8627 120.878 79.7411 119.935C79.4713 117.829 77.667 116.24 75.544 116.24C75.3638 116.24 75.1819 116.252 75.0028 116.275L59.4857 118.266L58.6785 118.369C57.4284 118.53 56.3232 119.231 55.6463 120.295L55.6094 120.352L55.5768 120.412C55.0948 121.296 54.9472 122.307 55.1431 123.275C55.1925 123.52 55.2636 123.762 55.3575 123.998L55.6572 124.754L55.7554 125.002L61.4181 139.299C61.7362 140.104 62.2845 140.782 63.0032 141.262C63.7029 141.729 64.516 141.975 65.3552 141.975C65.8904 141.975 66.4148 141.875 66.9142 141.677C67.7838 141.333 68.5253 140.7 69.0014 139.893C69.6712 138.758 69.7771 137.405 69.2918 136.181L67.8614 132.57C67.9087 132.592 67.9559 132.613 68.0031 132.635C74.6261 135.659 81.6866 137.352 88.9886 137.664C89.8039 137.699 90.629 137.717 91.4422 137.717C97.8947 137.717 104.249 136.617 110.327 134.448C117.428 131.915 123.869 128.023 129.471 122.88C135.074 117.738 139.503 111.653 142.634 104.796C145.659 98.173 147.351 91.1125 147.664 83.8105C147.977 76.5084 146.895 69.3291 144.448 62.4716ZM67.2714 138.873C67.0287 139.284 66.6531 139.621 66.1743 139.81C65.9056 139.917 65.6283 139.967 65.3552 139.967C64.4693 139.967 63.6312 139.434 63.2854 138.56L58.8495 127.361L58.1558 125.609L57.5245 124.015L57.2248 123.258C57.17 123.12 57.1298 122.979 57.1038 122.839C57.0099 122.329 57.1011 121.812 57.3405 121.374C57.6824 120.836 58.2519 120.449 58.9342 120.361L59.7414 120.258L59.9444 120.232L61.359 120.05L62.7779 119.868L75.2579 118.267C75.354 118.255 75.4495 118.249 75.544 118.249C76.647 118.249 77.6051 119.068 77.7489 120.192C77.8146 120.702 77.7022 121.194 77.4591 121.605C77.122 122.177 76.5341 122.592 75.8246 122.683L68.6621 123.602L66.9804 123.818H66.9799L65.3498 124.027L62.4642 124.397L64.0123 128.305L64.6023 129.796L65.1772 131.247L67.4245 136.921C67.6883 137.586 67.6085 138.301 67.2714 138.873ZM145.657 83.7242C145.356 90.7662 143.724 97.5754 140.807 103.962C137.788 110.574 133.517 116.441 128.114 121.4C122.71 126.36 116.498 130.114 109.653 132.556C103.782 134.651 97.6678 135.709 91.4422 135.709C90.6551 135.709 89.8653 135.692 89.0749 135.658C82.0329 135.356 75.2237 133.725 68.8374 130.808C68.1394 130.489 67.4494 130.157 66.7682 129.809L65.283 126.06L68.2707 125.677C75.4799 129.435 83.4426 131.329 91.4204 131.329C103.493 131.329 115.602 126.988 125.176 118.2C142.922 101.913 146.186 75.654 134.268 55.7493C133.736 54.8602 133.895 53.7202 134.659 53.0195C135.081 52.6319 135.607 52.4457 136.129 52.4457C136.86 52.4457 137.583 52.8116 137.996 53.5009C139.827 56.5478 141.351 59.77 142.556 63.1463C144.916 69.759 145.959 76.6822 145.657 83.7242Z" fill="#DDDDDD"/>
<path d="M58.9808 46.079C67.832 37.9551 79.3377 33.4807 91.3785 33.4796H91.3818C98.1095 33.4796 104.761 34.9066 110.851 37.5942L106.719 38.1245C105.413 38.2917 104.28 39.0386 103.61 40.1742C103.127 40.9917 102.936 41.9221 103.058 42.8644C103.328 44.9706 105.132 46.5594 107.255 46.5594C107.435 46.5594 107.617 46.548 107.796 46.5247L123.313 44.5336L124.12 44.4305C125.37 44.2698 126.476 43.5685 127.153 42.5051L127.19 42.4475L127.222 42.3873C127.704 41.5036 127.852 40.4923 127.656 39.5244C127.607 39.2796 127.535 39.0381 127.441 38.8014L127.142 38.0452L127.044 37.7977L121.381 23.5003C121.063 22.6959 120.515 22.0173 119.796 21.538C119.096 21.0712 118.283 20.8242 117.444 20.8242C116.909 20.8242 116.384 20.9246 115.885 21.1228C115.015 21.4664 114.274 22.0998 113.798 22.9065C113.128 24.0415 113.022 25.3948 113.507 26.6188L114.938 30.2297C114.89 30.208 114.843 30.1863 114.796 30.1646C108.173 27.1405 101.112 25.448 93.8104 25.1353C92.9951 25.1006 92.17 25.0827 91.3568 25.0827C84.9043 25.0827 78.5506 26.1824 72.4715 28.3515C65.3714 30.8849 58.9303 34.7769 53.3278 39.9196C47.7248 45.0618 43.2965 51.1462 40.1649 58.0037C37.1403 64.6267 35.4478 71.6872 35.1351 78.9892C34.8225 86.2913 35.9043 93.4706 38.3514 100.328C39.595 103.812 41.186 107.178 43.081 110.333C43.4626 110.968 44.0054 111.491 44.6513 111.846C45.2675 112.184 45.9655 112.362 46.6701 112.362C47.7194 112.362 48.7241 111.971 49.4982 111.26C50.2088 110.608 50.6745 109.724 50.8102 108.769C50.9454 107.82 50.7478 106.843 50.2544 106.018C38.6277 86.5996 42.2977 61.3915 58.9808 46.079ZM115.528 23.927C115.77 23.5161 116.146 23.179 116.625 22.9901C116.893 22.8831 117.171 22.8327 117.444 22.8327C118.33 22.8327 119.168 23.3657 119.514 24.2397L123.949 35.4392L124.643 37.1908L125.275 38.7851L125.574 39.5413C125.629 39.6797 125.669 39.8203 125.695 39.9609C125.789 40.4711 125.698 40.9873 125.459 41.4259C125.117 41.9639 124.547 42.3509 123.865 42.4383L123.058 42.542L122.855 42.568L121.44 42.7493L120.021 42.9317L107.541 44.5325C107.445 44.545 107.349 44.551 107.255 44.551C106.152 44.551 105.194 43.7313 105.05 42.6077C104.984 42.0974 105.097 41.6062 105.34 41.1947C105.677 40.6231 106.265 40.2073 106.974 40.1166L114.137 39.1977L115.819 38.9816L117.449 38.7726L120.335 38.4024L118.787 34.4946L118.197 33.0041L117.622 31.5526L115.375 25.879C115.111 25.214 115.19 24.4986 115.528 23.927ZM48.1401 109.78C47.7183 110.168 47.1918 110.354 46.6701 110.354C45.9389 110.354 45.2164 109.988 44.8028 109.299C42.9724 106.252 41.4482 103.03 40.2431 99.6534C37.8834 93.0407 36.8401 86.1175 37.142 79.075C37.4432 72.0329 39.0749 65.2243 41.9915 58.838C45.0112 52.2259 49.2822 46.3586 54.6854 41.3988C60.0892 36.4396 66.3007 32.686 73.1462 30.2433C79.0169 28.1485 85.1312 27.0911 91.3568 27.0911C92.1439 27.0911 92.9337 27.1079 93.7241 27.1416C100.766 27.4434 107.575 29.0751 113.962 31.9917C114.66 32.3103 115.35 32.6431 116.031 32.9905L117.516 36.7392L114.529 37.1224C107.32 33.365 99.3575 31.4706 91.3785 31.4711C79.3056 31.4722 67.1975 35.8115 57.6226 44.5993C39.8767 60.8872 36.6132 87.1451 48.5314 107.05C49.0634 107.94 48.9038 109.079 48.1401 109.78Z" fill="#DDDDDD"/>
</g>
<path d="M132.4 76.1291L128.247 61.1483L128.103 60.6266L127.977 60.1739L127.971 60.1539L127.677 59.0921L127.046 58.9944L125.859 59.1784L123.769 59.5025L120.491 60.0111L91.2802 64.5404H91.278L91.214 64.5507L90.2738 64.6962L90.2152 64.7054L89.9774 64.7423L89.8705 64.7592L89.509 64.8151L89.0503 64.8862L89.0953 65.0479L89.3032 65.7992L89.3896 66.1097L89.4493 66.3241L89.5307 66.6194L89.6534 67.0613L89.6724 67.1297L89.978 68.2327L90.0518 68.4987L90.2744 69.302L90.9822 71.856V71.4114L91.2786 72.5117L94.4487 84.2828L96.1927 84.0125L125.507 79.4669L126.571 79.3019L127.575 79.1461L130.772 78.65L133.003 78.3042L132.4 76.1291H132.4ZM125.198 77.4818L95.9197 82.022L95.8844 82.0274L91.67 66.8197L91.588 66.525L91.7394 66.5016L126.167 61.163L126.249 61.4582L130.464 76.6654L125.198 77.4818Z" fill="#333333"/>
<path d="M90.998 65.0464L90.4996 64.9693L90.2771 64.9346H90.2738L89.9775 64.8879L89.8412 64.8668L89.5085 64.8152L88.9732 64.7321L88.843 64.7121L88.767 64.7001L59.0171 60.0872L55.7401 59.5791L54.1979 59.3397L52.4609 59.0705L52.4316 59.0662L52.4288 59.0754L52.1346 60.1377L52.0825 60.325L51.9544 60.788L51.8127 61.2993L47.6607 76.2801L47.0576 78.4558L49.2881 78.8015L52.6775 79.327L53.6817 79.4828L83.8675 84.1635L85.6115 84.4344L88.9732 71.9511V72.3881L89.2696 71.3187L89.9775 68.7648L90.0513 68.4988L90.2738 67.6954L90.3943 67.2606L90.4649 67.0071L90.5724 66.6201V66.619L90.6527 66.3286L90.7591 65.9453L90.8481 65.6235L90.9958 65.0904L90.986 65.0888L90.998 65.0464ZM84.1405 82.1735L49.5959 76.8164L53.8109 61.6093L53.8901 61.3243L88.3175 66.6635L88.4592 66.6852L88.4489 66.7221L88.4592 66.7237L88.3908 66.9713L84.1752 82.179L84.1405 82.1735Z" fill="#333333"/>
<path d="M91.2137 64.5508L90.2736 64.6963L90.2149 64.7055L89.9772 64.7424L89.8703 64.7592L89.5087 64.8151L88.9735 64.7321L88.8432 64.712L88.7667 64.997L88.5805 65.6875L88.504 65.9724L88.3178 66.6634L88.2412 66.9479L87.3309 70.328L84.1408 82.1735L84.1343 82.1974L54.994 77.6811L52.6777 77.3223V100.642L54.3784 100.905L88.9621 106.268L88.9735 106.27L90.1259 106.448L91.2783 106.27V104.237L90.982 104.283V71.4115L91.2783 72.5118V64.541L91.2143 64.5508H91.2137ZM54.6856 79.6657L85.6048 84.4577L85.6113 84.4344L88.973 71.9511L89.2694 70.8508V104.283L88.973 104.237L54.6856 98.9206V79.6657Z" fill="#333333"/>
<path d="M125.259 77.4998L95.9261 82.0459L95.9196 82.022L92.921 70.8893L91.8186 66.797L91.7393 66.5017L91.5558 65.8215L91.4766 65.5257L91.2931 64.8461L91.2779 64.7891L91.2139 64.5508L90.2737 64.6963L90.2151 64.7055L89.9773 64.7424L89.8704 64.7592L89.5089 64.8151L88.9736 64.7321V106.27L90.126 106.448L91.2785 106.27L91.2899 106.268L125.875 100.905L127.575 100.642V77.141L125.259 77.4998H125.259ZM94.4545 84.3062L125.566 79.4849V98.9206L91.2779 104.237L90.9815 104.283V71.4115L91.2779 72.5118L94.448 84.2829L94.4545 84.3062Z" fill="#333333"/>
<path d="M143.048 61.0717C141.804 57.5873 140.213 54.2213 138.318 51.0664C137.937 50.4313 137.394 49.9086 136.748 49.5541C136.132 49.2159 135.434 49.0374 134.729 49.0374C133.68 49.0374 132.675 49.4287 131.901 50.1398C131.191 50.7918 130.725 51.676 130.589 52.6308C130.454 53.5802 130.652 54.5568 131.145 55.3813C142.772 74.8002 139.102 100.008 122.419 115.321C113.567 123.446 102.061 127.92 90.0208 127.92C83.292 127.92 76.6392 126.493 70.5493 123.805C69.9755 123.552 69.4066 123.288 68.8432 123.012H68.8421C68.3101 122.752 67.7841 122.482 67.2625 122.202L65.5808 122.418L63.9507 122.627C64.4181 122.913 64.8893 123.19 65.3643 123.458C65.8626 123.74 66.3652 124.014 66.8717 124.277C74.0809 128.035 82.0435 129.929 90.0214 129.929C102.094 129.929 114.202 125.588 123.777 116.801C141.523 100.513 144.787 74.2541 132.868 54.3494C132.337 53.4603 132.496 52.3203 133.26 51.6196C133.682 51.232 134.208 51.0458 134.73 51.0458C135.461 51.0458 136.184 51.4117 136.597 52.101C138.428 55.1479 139.952 58.3701 141.157 61.7464C143.516 68.3591 144.56 75.2822 144.258 82.3243C143.957 89.3663 142.325 96.1755 139.408 102.562C136.389 109.174 132.118 115.041 126.715 120C121.311 124.96 115.099 128.714 108.254 131.157C102.383 133.251 96.2687 134.309 90.0431 134.309C89.256 134.309 88.4662 134.292 87.6759 134.258C80.6338 133.956 73.8247 132.325 67.4384 129.408C66.7403 129.089 66.0504 128.757 65.3691 128.409C64.9104 128.176 64.4556 127.937 64.0045 127.691C63.5366 127.435 63.073 127.174 62.6138 126.905L63.2038 128.396L63.7787 129.847C64.2265 130.083 64.6776 130.313 65.1319 130.536C65.5727 130.754 66.0162 130.965 66.4629 131.17C66.5101 131.192 66.5574 131.214 66.6046 131.235C73.2276 134.259 80.288 135.952 87.5901 136.264C88.4054 136.299 89.2305 136.317 90.0436 136.317C96.4962 136.317 102.85 135.217 108.929 133.048C116.029 130.515 122.47 126.623 128.073 121.48C133.676 116.338 138.104 110.254 141.236 103.396C144.26 96.7731 145.953 89.7126 146.265 82.4106C146.578 75.1085 145.496 67.9292 143.049 61.0717H143.048Z" fill="#333333"/>
<path d="M78.3412 118.536C78.0714 116.429 76.2671 114.841 74.1441 114.841C73.9639 114.841 73.782 114.852 73.6029 114.875L58.0858 116.866L57.2786 116.97C56.0285 117.13 54.9233 117.832 54.2464 118.895L54.2095 118.952L54.1769 119.013C53.6949 119.896 53.5473 120.908 53.7432 121.876C53.7926 122.12 53.8637 122.362 53.9576 122.599L54.2573 123.355L54.3555 123.602L58.596 134.309L59.3913 136.317L60.0182 137.9C60.3363 138.704 60.8846 139.383 61.6033 139.862C62.303 140.329 63.1161 140.576 63.9553 140.576C64.4905 140.576 65.0149 140.475 65.5143 140.277C66.3839 139.934 67.1254 139.3 67.6015 138.493C67.9988 137.82 68.1975 137.071 68.192 136.317C68.1888 135.799 68.0894 135.279 67.8919 134.781L67.7046 134.309L66.4615 131.17L65.9209 129.805L65.3683 128.409L63.8831 124.661L66.8708 124.278L68.6741 124.046L70.5484 123.805L74.6799 123.275C75.9859 123.108 77.1187 122.361 77.7886 121.226C78.2712 120.408 78.4622 119.478 78.3406 118.536H78.3412ZM76.0592 120.205C75.7221 120.777 75.1342 121.193 74.4247 121.283L67.2622 122.202L65.5805 122.418L63.9504 122.627L61.0648 122.998L62.6129 126.905L63.203 128.396L63.7778 129.847L65.5452 134.309L66.0251 135.521C66.1293 135.783 66.1798 136.052 66.1825 136.317C66.1863 136.727 66.0767 137.126 65.872 137.473C65.6294 137.884 65.2537 138.221 64.775 138.41C64.5063 138.517 64.2289 138.567 63.9559 138.567C63.07 138.567 62.2319 138.034 61.8861 137.16L61.5522 136.317L60.7565 134.309L57.4501 125.961L56.7564 124.209L56.1251 122.615L55.8255 121.859C55.7707 121.72 55.7305 121.58 55.7044 121.439C55.6105 120.929 55.7017 120.413 55.9411 119.974C56.2831 119.436 56.8525 119.049 57.5348 118.962L58.342 118.858L58.545 118.832L59.9596 118.651L61.3785 118.468L73.8586 116.867C73.9546 116.855 74.0502 116.849 74.1446 116.849C75.2476 116.849 76.2057 117.669 76.3496 118.792C76.4153 119.303 76.3029 119.794 76.0597 120.205H76.0592Z" fill="#333333"/>
<path d="M40.5916 57.4382C43.6113 50.8261 47.8823 44.9588 53.2855 39.999C58.6893 35.0398 64.9008 31.2862 71.7463 28.8435C77.617 26.7487 83.7313 25.6913 89.9569 25.6913C90.744 25.6913 91.5338 25.7081 92.3242 25.7418C99.3662 26.0436 106.175 27.6753 112.562 30.5919C113.26 30.9105 113.95 31.2433 114.631 31.5907C115.09 31.8236 115.544 32.0629 115.996 32.3094H115.996C116.464 32.5645 116.928 32.8262 117.387 33.0948L116.797 31.6043L116.222 30.1528C115.774 29.9166 115.323 29.687 114.869 29.4639C114.428 29.2462 113.984 29.0351 113.538 28.8299C113.49 28.8082 113.443 28.7865 113.396 28.7648C106.773 25.7407 99.7125 24.0482 92.4105 23.7355C91.5952 23.7008 90.7701 23.6829 89.9569 23.6829C83.5044 23.6829 77.1507 24.7826 71.0716 26.9517C63.9715 29.4851 57.5304 33.3771 51.9279 38.5198C46.3249 43.662 41.8966 49.7465 38.765 56.6039C35.7404 63.2269 34.0479 70.2874 33.7352 77.5894C33.4226 84.8914 34.5044 92.0708 36.9515 98.9283C38.1951 102.413 39.7861 105.779 41.6811 108.934C42.0627 109.569 42.6055 110.091 43.2514 110.446C43.8675 110.784 44.5656 110.963 45.2702 110.963C46.3195 110.963 47.3242 110.571 48.0983 109.86C48.8089 109.208 49.2746 108.324 49.4103 107.369C49.5455 106.42 49.3479 105.443 48.8545 104.619C37.2278 85.1998 40.8978 59.9917 57.5809 44.6792C66.4321 36.5553 77.9378 32.0809 89.9786 32.0798H89.9819C96.7096 32.0798 103.361 33.5069 109.451 36.1944C110.025 36.4479 110.593 36.7122 111.157 36.988H111.157C111.689 37.248 112.215 37.5178 112.737 37.7979L114.419 37.5818L116.049 37.3728C115.582 37.0878 115.111 36.8105 114.636 36.5418C114.137 36.2595 113.635 35.9865 113.129 35.7227C105.92 31.9652 97.9576 30.0708 89.9786 30.0713C77.9057 30.0724 65.7976 34.4117 56.2227 43.1995C38.4768 59.4874 35.2133 85.7453 47.1315 105.651C47.6635 106.54 47.5039 107.68 46.7402 108.38C46.3184 108.768 45.7919 108.954 45.2702 108.954C44.539 108.954 43.8165 108.588 43.4029 107.899C41.5725 104.852 40.0483 101.63 38.8432 98.2536C36.4835 91.6409 35.4402 84.7177 35.7421 77.6752C36.0433 70.6331 37.675 63.8245 40.5916 57.4382Z" fill="#333333"/>
<path d="M120.49 60.0111L91.28 64.5404H91.2778L91.2138 64.5507L90.2736 64.6962L90.215 64.7054L89.9772 64.7423L89.8703 64.7591L89.5088 64.815L88.9735 64.732L88.8433 64.7119L88.7673 64.7L59.0174 60.0871L58.0598 60.2353L88.7667 64.9969L88.9735 65.0289L89.0951 65.0479L89.543 65.1174L89.784 65.0799L89.9778 65.0501L90.2741 65.0039L90.2953 65.0007L90.5 64.9692L91.2784 64.8481L91.2936 64.846L121.483 60.1647L120.491 60.0111H120.49ZM128.102 60.6266L127.977 60.1739L127.971 60.1538L127.677 59.0921L127.045 58.9944L121.79 58.1796L90.3078 53.3007L90 53.2529L89.6922 53.3007L57.7515 58.2507L52.4606 59.0704L52.4286 59.0752L52.1344 60.1375L52.0823 60.3248L51.9542 60.7878L51.8125 61.2992L52.8113 61.4544L53.8106 61.6091L57.7515 62.2203L88.2407 66.9478L88.3905 66.9711L88.973 67.0612L89.2346 67.1019H89.239L89.3893 67.1258L89.5424 67.1497L89.6716 67.1296L89.8502 67.1019L89.9772 67.0824L90.2736 67.0363L90.4647 67.007L90.6704 66.9749L90.8202 66.9516L91.2778 66.8805L91.6697 66.8197L91.8185 66.7969L121.79 62.1492L126.249 61.4582L127.247 61.303L128.247 61.1483L128.102 60.6266ZM90 55.2853L120.49 60.0111L91.28 64.5404H91.2778L91.2138 64.5507L90.2736 64.6962L90.215 64.7054L89.9772 64.7423L89.8703 64.7591L89.5088 64.815L88.9735 64.732L88.8433 64.7119L88.7673 64.7L59.0174 60.0871L90.0006 55.2853H90Z" fill="#333333"/>
<path d="M126.256 38.1245C126.207 37.8797 126.135 37.6382 126.041 37.4015L125.742 36.6453L125.643 36.3978L119.981 22.1004C119.663 21.296 119.114 20.6174 118.396 20.1381C117.696 19.6713 116.883 19.4243 116.044 19.4243C115.508 19.4243 114.984 19.5247 114.485 19.7229C113.615 20.0665 112.873 20.6999 112.397 21.5066C111.728 22.6416 111.622 23.9949 112.107 25.2189L113.537 28.8298L114.078 30.195L114.631 31.5906L116.116 35.3393L113.129 35.7225L111.324 35.9538H111.324L109.45 36.1943L105.318 36.7246C104.012 36.8918 102.88 37.6387 102.21 38.7743C101.727 39.5918 101.536 40.5222 101.658 41.4645C101.927 43.5707 103.732 45.1595 105.855 45.1595C106.035 45.1595 106.217 45.1481 106.396 45.1248L121.913 43.1337L122.72 43.0306C123.97 42.8699 125.076 42.1686 125.752 41.1052L125.789 41.0476L125.822 40.9874C126.303 40.1037 126.452 39.0924 126.256 38.1245ZM124.058 40.026C123.716 40.564 123.147 40.951 122.465 41.0384L121.657 41.1421L121.454 41.1681L120.04 41.3494L118.621 41.5318L106.141 43.1326C106.045 43.1451 105.949 43.1511 105.855 43.1511C104.752 43.1511 103.794 42.3314 103.65 41.2078C103.584 40.6975 103.697 40.2063 103.94 39.7948C104.277 39.2232 104.865 38.8074 105.574 38.7167L112.737 37.7978L114.418 37.5817L116.049 37.3727L118.935 37.0025L117.386 33.0947L116.796 31.6042L116.222 30.1526L113.974 24.4791C113.711 23.8141 113.79 23.0987 114.127 22.5271C114.37 22.1162 114.746 21.7791 115.224 21.5902C115.493 21.4832 115.771 21.4328 116.044 21.4328C116.929 21.4328 117.768 21.9658 118.113 22.8398L122.549 34.0393L123.243 35.7909L123.874 37.3852L124.174 38.1414C124.229 38.2798 124.269 38.4204 124.295 38.561C124.389 39.0712 124.298 39.5874 124.058 40.026Z" fill="#333333"/>
<path d="M60.7562 134.309L61.552 136.317H42.7943C42.24 136.317 41.79 135.868 41.79 135.313C41.79 134.758 42.24 134.309 42.7943 134.309H60.7562Z" fill="#333333"/>
<path d="M138.209 135.313C138.209 135.868 137.759 136.317 137.205 136.317H66.1822C66.1795 136.052 66.129 135.782 66.0248 135.521L65.5449 134.309H137.205C137.759 134.309 138.209 134.759 138.209 135.313Z" fill="#333333"/>
<path d="M38.6508 136.317H34.077C33.5222 136.317 33.0728 135.868 33.0728 135.313C33.0728 134.758 33.5222 134.309 34.077 134.309H38.6508C39.2056 134.309 39.655 134.758 39.655 135.313C39.655 135.868 39.2056 136.317 38.6508 136.317Z" fill="#333333"/>
<path d="M53.015 131.396H48.4412C47.8865 131.396 47.437 130.946 47.437 130.392C47.437 129.837 47.8865 129.387 48.4412 129.387H53.015C53.5698 129.387 54.0193 129.837 54.0193 130.392C54.0193 130.946 53.5698 131.396 53.015 131.396Z" fill="#333333"/>
<path d="M44.2978 131.396H39.7239C39.1692 131.396 38.7197 130.946 38.7197 130.392C38.7197 129.837 39.1692 129.387 39.7239 129.387H44.2978C44.8525 129.387 45.302 129.837 45.302 130.392C45.302 130.946 44.8525 131.396 44.2978 131.396Z" fill="#333333"/>
<path d="M131.548 131.396H126.974C126.419 131.396 125.97 130.946 125.97 130.392C125.97 129.837 126.419 129.387 126.974 129.387H131.548C132.103 129.387 132.552 129.837 132.552 130.392C132.552 130.946 132.103 131.396 131.548 131.396Z" fill="#333333"/>
<path d="M140.265 131.396H135.692C135.137 131.396 134.688 130.946 134.688 130.392C134.688 129.837 135.137 129.387 135.692 129.387H140.265C140.82 129.387 141.269 129.837 141.269 130.392C141.269 130.946 140.82 131.396 140.265 131.396Z" fill="#333333"/>
<path d="M145.922 136.317H141.348C140.794 136.317 140.344 135.868 140.344 135.313C140.344 134.758 140.794 134.309 141.348 134.309H145.922C146.476 134.309 146.926 134.758 146.926 135.313C146.926 135.868 146.476 136.317 145.922 136.317Z" fill="#333333"/>
</g>
<defs>
<clipPath id="clip0_1198_2572">
<rect width="178.278" height="160" fill="white" transform="translate(0.86084)"/>
</clipPath>
</defs>
</svg>
