<svg width="182" height="160" viewBox="0 0 182 160" fill="none" xmlns="http://www.w3.org/2000/svg">
<g clip-path="url(#clip0_1198_3161)">
<path d="M4.24872 67.3637C6.96283 70.0778 10.6442 71.6031 14.4831 71.6031C17.3671 71.6031 20.1615 70.7422 22.5244 69.1632L12.2211 79.4665C9.50703 82.1806 7.9817 85.862 7.9817 89.7008C7.9817 93.5397 9.50649 97.2211 12.2211 99.9352C14.9352 102.649 18.6167 104.175 22.4555 104.175C25.339 104.175 28.134 103.314 30.4969 101.735L25.0893 107.143C22.3752 109.857 20.8498 113.538 20.8498 117.377C20.8498 121.216 22.3746 124.897 25.0893 127.611C27.8034 130.326 31.4848 131.851 35.3236 131.851C38.2071 131.851 41.0021 130.99 43.365 129.411L42.0438 130.733C39.3297 133.447 37.8043 137.128 37.8043 140.967C37.8043 144.806 39.3291 148.487 42.0438 151.201C44.7579 153.916 48.4393 155.441 52.2781 155.441C56.117 155.441 59.7984 153.916 62.5125 151.201L76.228 137.486C74.6489 139.849 73.7885 142.644 73.7885 145.527C73.7885 149.366 75.3133 153.048 78.028 155.762C80.7421 158.476 84.4235 160.001 88.2623 160.001C92.1012 160.001 95.7826 158.476 98.4967 155.762L119.336 134.922C117.757 137.285 116.897 140.08 116.897 142.964C116.897 146.802 118.422 150.484 121.136 153.198C123.85 155.912 127.532 157.437 131.371 157.437C135.209 157.437 138.891 155.913 141.605 153.198L174.048 120.755C176.762 118.041 178.287 114.36 178.287 110.521C178.287 106.682 176.762 103.001 174.048 100.286C171.334 97.5723 167.652 96.047 163.813 96.047C160.93 96.047 158.135 96.9079 155.772 98.4864L162.563 91.6952C165.277 88.981 166.803 85.2996 166.803 81.4608C166.803 77.6219 165.278 73.9405 162.563 71.2264C159.849 68.5123 156.168 66.987 152.329 66.987C149.445 66.987 146.65 67.8479 144.288 69.4264L158.003 55.7109C160.717 52.9968 162.242 49.3154 162.242 45.4766C162.242 41.6377 160.718 37.9563 158.003 35.2422C155.289 32.5281 151.607 31.0028 147.769 31.0028C144.885 31.0028 142.09 31.8637 139.727 33.4422L148.462 24.7077C151.176 21.9936 152.701 18.3122 152.701 14.4733C152.701 10.6345 151.176 6.95306 148.462 4.23895C145.748 1.52484 142.066 -0.000488281 138.227 -0.000488281C134.389 -0.000488281 130.707 1.5243 127.993 4.23895L108.537 23.6948C110.116 21.3319 110.977 18.5369 110.977 15.6534C110.977 11.8146 109.452 8.13315 106.737 5.41905C104.023 2.70494 100.342 1.17961 96.5029 1.17961C92.6641 1.17961 88.9827 2.70439 86.2686 5.41905L58.9597 32.7279C60.5388 30.365 61.3997 27.57 61.3997 24.686C61.3997 20.8471 59.8749 17.1657 57.1603 14.4516C54.4462 11.7375 50.7647 10.2122 46.9259 10.2122C43.0871 10.2122 39.4057 11.7369 36.6916 14.4516L4.24872 46.895C1.53406 49.6096 0.00927734 53.291 0.00927734 57.1293C0.00927734 60.9676 1.53406 64.6496 4.24872 67.3637Z" fill="white"/>
<path d="M177.861 129.056L176.859 130.057C176.468 130.449 176.468 131.083 176.859 131.475C177.25 131.866 177.885 131.866 178.276 131.475L179.278 130.473L180.279 131.475C180.671 131.866 181.305 131.866 181.697 131.475C182.088 131.083 182.088 130.449 181.697 130.057L180.695 129.056L181.697 128.054C182.088 127.663 182.088 127.029 181.697 126.637C181.501 126.441 181.245 126.344 180.988 126.344C180.731 126.344 180.475 126.441 180.279 126.637L179.277 127.639L178.276 126.637C178.08 126.441 177.824 126.344 177.567 126.344C177.31 126.344 177.054 126.441 176.858 126.637C176.467 127.029 176.467 127.663 176.858 128.054L177.859 129.056H177.861Z" fill="white"/>
<path d="M34.7585 150.633L33.757 151.634C33.3656 152.026 33.3656 152.66 33.757 153.051C34.1484 153.443 34.783 153.443 35.1743 153.051L36.1758 152.05L37.1773 153.051C37.5687 153.443 38.2033 153.443 38.5946 153.051C38.986 152.66 38.986 152.026 38.5946 151.634L37.5931 150.633L38.5946 149.631C38.986 149.24 38.986 148.605 38.5946 148.214C38.3987 148.018 38.1425 147.92 37.8857 147.92C37.629 147.92 37.3728 148.018 37.1768 148.214L36.1753 149.215L35.1738 148.214C34.9778 148.018 34.7216 147.92 34.4649 147.92C34.2081 147.92 33.9519 148.018 33.7559 148.214C33.3646 148.605 33.3646 149.24 33.7559 149.631L34.7574 150.633H34.7585Z" fill="white"/>
<path d="M9.13401 61.8629L8.13251 62.8644C7.74113 63.2557 7.74113 63.8903 8.13251 64.2817C8.52388 64.6731 9.15844 64.6731 9.54981 64.2817L10.5513 63.2802L11.5528 64.2817C11.9442 64.6731 12.5788 64.6731 12.9701 64.2817C13.3615 63.8903 13.3615 63.2557 12.9701 62.8644L11.9686 61.8629L12.9701 60.8614C13.3615 60.47 13.3615 59.8354 12.9701 59.4441C12.7742 59.2481 12.518 59.1504 12.2612 59.1504C12.0045 59.1504 11.7482 59.2481 11.5523 59.4441L10.5508 60.4456L9.54927 59.4441C9.35331 59.2481 9.0971 59.1504 8.84035 59.1504C8.58359 59.1504 8.32738 59.2481 8.13142 59.4441C7.74005 59.8354 7.74005 60.47 8.13142 60.8614L9.13293 61.8629H9.13401Z" fill="white"/>
<path d="M129.673 10.3941L128.671 11.3956C128.28 11.787 128.28 12.4216 128.671 12.8129C129.062 13.2043 129.697 13.2043 130.088 12.8129L131.09 11.8114L132.091 12.8129C132.483 13.2043 133.117 13.2043 133.509 12.8129C133.9 12.4216 133.9 11.787 133.509 11.3956L132.507 10.3941L133.509 9.39262C133.9 9.00124 133.9 8.36668 133.509 7.97531C133.313 7.77935 133.057 7.68164 132.8 7.68164C132.543 7.68164 132.287 7.77935 132.091 7.97531L131.089 8.97681L130.088 7.97531C129.892 7.77935 129.636 7.68164 129.379 7.68164C129.122 7.68164 128.866 7.77935 128.67 7.97531C128.279 8.36668 128.279 9.00124 128.67 9.39262L129.671 10.3941H129.673Z" fill="white"/>
<path d="M111.336 152.029C112.951 152.029 114.264 153.342 114.264 154.957C114.264 156.571 112.951 157.885 111.336 157.885C109.722 157.885 108.408 156.571 108.408 154.957C108.408 153.342 109.722 152.029 111.336 152.029ZM111.336 155.88C111.845 155.88 112.26 155.466 112.26 154.957C112.26 154.448 111.845 154.033 111.336 154.033C110.827 154.033 110.413 154.448 110.413 154.957C110.413 155.466 110.827 155.88 111.336 155.88Z" fill="white"/>
<path d="M166.519 58.7302C168.134 58.7302 169.447 60.0439 169.447 61.6582C169.447 63.2726 168.134 64.5862 166.519 64.5862C164.905 64.5862 163.591 63.2726 163.591 61.6582C163.591 60.0439 164.905 58.7302 166.519 58.7302ZM166.519 62.5815C167.028 62.5815 167.443 62.1674 167.443 61.6582C167.443 61.149 167.028 60.7349 166.519 60.7349C166.01 60.7349 165.596 61.149 165.596 61.6582C165.596 62.1674 166.01 62.5815 166.519 62.5815Z" fill="white"/>
<path d="M43.9475 11.739C45.5619 11.739 46.8755 13.0526 46.8755 14.667C46.8755 16.2813 45.5619 17.595 43.9475 17.595C42.3332 17.595 41.0195 16.2813 41.0195 14.667C41.0195 13.0526 42.3332 11.739 43.9475 11.739ZM43.9475 15.5903C44.4567 15.5903 44.8709 15.1762 44.8709 14.667C44.8709 14.1578 44.4567 13.7437 43.9475 13.7437C43.4383 13.7437 43.0242 14.1578 43.0242 14.667C43.0242 15.1762 43.4383 15.5903 43.9475 15.5903Z" fill="white"/>
<path d="M9.83716 103.158C11.4515 103.158 12.7651 104.472 12.7651 106.086C12.7651 107.7 11.4515 109.014 9.83716 109.014C8.22281 109.014 6.90918 107.7 6.90918 106.086C6.90918 104.472 8.22281 103.158 9.83716 103.158ZM9.83716 107.009C10.3463 107.009 10.7605 106.595 10.7605 106.086C10.7605 105.577 10.3463 105.163 9.83716 105.163C9.32799 105.163 8.91382 105.577 8.91382 106.086C8.91382 106.595 9.32799 107.009 9.83716 107.009Z" fill="white"/>
<path d="M4.24872 67.3637C6.96282 70.0778 10.6442 71.6031 14.4831 71.6031C17.3671 71.6031 20.1615 70.7422 22.5244 69.1632L12.2211 79.4665C9.50703 82.1806 7.9817 85.862 7.9817 89.7008C7.9817 93.5397 9.50649 97.2211 12.2211 99.9352C14.9353 102.649 18.6167 104.175 22.4555 104.175C25.339 104.175 28.134 103.314 30.4969 101.735L25.0893 107.143C22.3752 109.857 20.8498 113.538 20.8498 117.377C20.8498 121.216 22.3746 124.897 25.0893 127.611C27.8034 130.326 31.4848 131.851 35.3236 131.851C38.2071 131.851 41.0021 130.99 43.365 129.411L42.0438 130.733C39.3297 133.447 37.8043 137.128 37.8043 140.967C37.8043 144.806 39.3291 148.487 42.0438 151.201C44.7579 153.916 48.4393 155.441 52.2781 155.441C56.117 155.441 59.7984 153.916 62.5125 151.201L76.228 137.486C74.6489 139.849 73.7885 142.644 73.7885 145.527C73.7885 149.366 75.3133 153.048 78.028 155.762C80.7421 158.476 84.4235 160.001 88.2623 160.001C92.1012 160.001 95.7826 158.476 98.4967 155.762L119.336 134.922C117.757 137.285 116.897 140.08 116.897 142.964C116.897 146.802 118.422 150.484 121.136 153.198C123.85 155.912 127.532 157.437 131.371 157.437C135.209 157.437 138.891 155.913 141.605 153.198L174.048 120.755C176.762 118.041 178.287 114.36 178.287 110.521C178.287 106.682 176.762 103.001 174.048 100.286C171.334 97.5723 167.652 96.047 163.813 96.047C160.93 96.047 158.135 96.9079 155.772 98.4864L162.563 91.6952C165.277 88.981 166.803 85.2996 166.803 81.4608C166.803 77.6219 165.278 73.9405 162.563 71.2264C159.849 68.5123 156.168 66.987 152.329 66.987C149.445 66.987 146.65 67.8479 144.288 69.4264L158.003 55.7109C160.717 52.9968 162.242 49.3154 162.242 45.4766C162.242 41.6377 160.718 37.9563 158.003 35.2422C155.289 32.5281 151.607 31.0028 147.769 31.0028C144.885 31.0028 142.09 31.8637 139.727 33.4422L148.462 24.7077C151.176 21.9936 152.701 18.3122 152.701 14.4733C152.701 10.6345 151.176 6.95306 148.462 4.23895C145.748 1.52484 142.066 -0.000488281 138.227 -0.000488281C134.389 -0.000488281 130.707 1.5243 127.993 4.23895L108.537 23.6948C110.116 21.3319 110.977 18.5369 110.977 15.6534C110.977 11.8146 109.452 8.13315 106.737 5.41905C104.023 2.70494 100.342 1.17961 96.5029 1.17961C92.6641 1.17961 88.9827 2.70439 86.2686 5.41905L58.9597 32.7279C60.5388 30.365 61.3997 27.57 61.3997 24.686C61.3997 20.8471 59.8749 17.1657 57.1603 14.4516C54.4462 11.7375 50.7647 10.2122 46.9259 10.2122C43.0871 10.2122 39.4057 11.7369 36.6916 14.4516L4.24872 46.895C1.53406 49.6096 0.00927734 53.291 0.00927734 57.1293C0.00927734 60.9676 1.53406 64.6496 4.24872 67.3637Z" fill="#E9F4FA"/>
<path d="M177.861 129.056L176.859 130.057C176.468 130.449 176.468 131.083 176.859 131.475C177.25 131.866 177.885 131.866 178.276 131.475L179.278 130.473L180.279 131.475C180.671 131.866 181.305 131.866 181.697 131.475C182.088 131.083 182.088 130.449 181.697 130.057L180.695 129.056L181.697 128.054C182.088 127.663 182.088 127.029 181.697 126.637C181.501 126.441 181.245 126.344 180.988 126.344C180.731 126.344 180.475 126.441 180.279 126.637L179.277 127.639L178.276 126.637C178.08 126.441 177.824 126.344 177.567 126.344C177.31 126.344 177.054 126.441 176.858 126.637C176.467 127.029 176.467 127.663 176.858 128.054L177.859 129.056H177.861Z" fill="#036FAD"/>
<path d="M34.7585 150.633L33.757 151.634C33.3656 152.026 33.3656 152.66 33.757 153.051C34.1484 153.443 34.783 153.443 35.1743 153.051L36.1758 152.05L37.1773 153.051C37.5687 153.443 38.2033 153.443 38.5946 153.051C38.986 152.66 38.986 152.026 38.5946 151.634L37.5931 150.633L38.5946 149.631C38.986 149.24 38.986 148.605 38.5946 148.214C38.3987 148.018 38.1425 147.92 37.8857 147.92C37.629 147.92 37.3728 148.018 37.1768 148.214L36.1753 149.215L35.1738 148.214C34.9778 148.018 34.7216 147.92 34.4649 147.92C34.2081 147.92 33.9519 148.018 33.7559 148.214C33.3646 148.605 33.3646 149.24 33.7559 149.631L34.7574 150.633H34.7585Z" fill="#036FAD"/>
<path d="M9.13401 61.8629L8.13251 62.8644C7.74113 63.2557 7.74113 63.8903 8.13251 64.2817C8.52388 64.6731 9.15844 64.6731 9.54981 64.2817L10.5513 63.2802L11.5528 64.2817C11.9442 64.6731 12.5788 64.6731 12.9701 64.2817C13.3615 63.8903 13.3615 63.2557 12.9701 62.8644L11.9686 61.8629L12.9701 60.8614C13.3615 60.47 13.3615 59.8354 12.9701 59.4441C12.7742 59.2481 12.518 59.1504 12.2612 59.1504C12.0045 59.1504 11.7482 59.2481 11.5523 59.4441L10.5508 60.4456L9.54927 59.4441C9.35331 59.2481 9.0971 59.1504 8.84035 59.1504C8.58359 59.1504 8.32738 59.2481 8.13142 59.4441C7.74005 59.8354 7.74005 60.47 8.13142 60.8614L9.13293 61.8629H9.13401Z" fill="#036FAD"/>
<path d="M129.673 10.3941L128.671 11.3956C128.28 11.787 128.28 12.4216 128.671 12.8129C129.062 13.2043 129.697 13.2043 130.088 12.8129L131.09 11.8114L132.091 12.8129C132.483 13.2043 133.117 13.2043 133.509 12.8129C133.9 12.4216 133.9 11.787 133.509 11.3956L132.507 10.3941L133.509 9.39262C133.9 9.00124 133.9 8.36668 133.509 7.97531C133.313 7.77935 133.057 7.68164 132.8 7.68164C132.543 7.68164 132.287 7.77935 132.091 7.97531L131.089 8.97681L130.088 7.97531C129.892 7.77935 129.636 7.68164 129.379 7.68164C129.122 7.68164 128.866 7.77935 128.67 7.97531C128.279 8.36668 128.279 9.00124 128.67 9.39262L129.671 10.3941H129.673Z" fill="#036FAD"/>
<path d="M111.336 152.029C112.951 152.029 114.264 153.342 114.264 154.957C114.264 156.571 112.951 157.885 111.336 157.885C109.722 157.885 108.408 156.571 108.408 154.957C108.408 153.342 109.722 152.029 111.336 152.029ZM111.336 155.88C111.845 155.88 112.26 155.466 112.26 154.957C112.26 154.448 111.845 154.033 111.336 154.033C110.827 154.033 110.413 154.448 110.413 154.957C110.413 155.466 110.827 155.88 111.336 155.88Z" fill="#036FAD"/>
<path d="M166.519 58.7302C168.134 58.7302 169.447 60.0439 169.447 61.6582C169.447 63.2726 168.134 64.5862 166.519 64.5862C164.905 64.5862 163.591 63.2726 163.591 61.6582C163.591 60.0439 164.905 58.7302 166.519 58.7302ZM166.519 62.5815C167.028 62.5815 167.443 62.1674 167.443 61.6582C167.443 61.149 167.028 60.7349 166.519 60.7349C166.01 60.7349 165.596 61.149 165.596 61.6582C165.596 62.1674 166.01 62.5815 166.519 62.5815Z" fill="#036FAD"/>
<path d="M43.9475 11.739C45.5619 11.739 46.8755 13.0526 46.8755 14.667C46.8755 16.2813 45.5619 17.595 43.9475 17.595C42.3332 17.595 41.0195 16.2813 41.0195 14.667C41.0195 13.0526 42.3332 11.739 43.9475 11.739ZM43.9475 15.5903C44.4567 15.5903 44.8709 15.1762 44.8709 14.667C44.8709 14.1578 44.4567 13.7437 43.9475 13.7437C43.4383 13.7437 43.0242 14.1578 43.0242 14.667C43.0242 15.1762 43.4383 15.5903 43.9475 15.5903Z" fill="#036FAD"/>
<path d="M9.83716 103.158C11.4515 103.158 12.7651 104.472 12.7651 106.086C12.7651 107.7 11.4515 109.014 9.83716 109.014C8.22281 109.014 6.90918 107.7 6.90918 106.086C6.90918 104.472 8.22281 103.158 9.83716 103.158ZM9.83716 107.009C10.3463 107.009 10.7605 106.595 10.7605 106.086C10.7605 105.577 10.3463 105.163 9.83716 105.163C9.32799 105.163 8.91382 105.577 8.91382 106.086C8.91382 106.595 9.32799 107.009 9.83716 107.009Z" fill="#036FAD"/>
<path d="M134.888 54.2339V92.9615L132.706 91.9915C129.83 90.382 126.516 89.4635 122.993 89.4635C111.992 89.4635 103.043 98.413 103.043 109.414C103.043 112.941 103.963 116.257 105.575 119.134L106.543 121.309H50.947C46.364 121.309 42.6348 117.58 42.6348 112.997V54.2339C42.6348 49.6503 46.364 45.9216 50.947 45.9216H58.7251V51.8406C58.7251 53.0407 59.6984 54.014 60.8991 54.014C62.0998 54.014 63.0725 53.0407 63.0725 51.8406V45.9216H77.2999V51.8406C77.2999 53.0407 78.2732 54.014 79.4739 54.014C80.6746 54.014 81.6479 53.0407 81.6479 51.8406V45.9216H95.8753V51.8406C95.8753 53.0407 96.8485 54.014 98.0487 54.014C99.2489 54.014 100.223 53.0407 100.223 51.8406V45.9216H114.45V51.8406C114.45 53.0407 115.423 54.014 116.624 54.014C117.825 54.014 118.798 53.0407 118.798 51.8406V45.9216H126.576C131.159 45.9216 134.888 49.6503 134.888 54.2339Z" fill="white"/>
<path d="M143.481 105.006C142.434 100.132 139.686 95.8826 135.892 92.9112C135.565 92.6544 135.231 92.4074 134.888 92.1707C134.329 91.7843 133.75 91.4238 133.154 91.0916C131.863 90.3735 130.489 89.7872 129.05 89.3519C127.132 88.7716 125.098 88.4595 122.993 88.4595C111.439 88.4595 102.039 97.8595 102.039 109.414C102.039 111.521 102.351 113.556 102.932 115.475C103.368 116.916 103.955 118.292 104.676 119.584C104.812 119.828 104.952 120.067 105.097 120.305C105.305 120.646 105.523 120.981 105.75 121.309C105.987 121.651 106.234 121.986 106.49 122.313C109.462 126.107 113.711 128.855 118.585 129.902C120.007 130.208 121.481 130.369 122.993 130.369C129.687 130.369 135.658 127.214 139.496 122.313C139.999 121.673 140.464 121.002 140.889 120.305C141.56 119.207 142.133 118.042 142.595 116.824C142.761 116.386 142.913 115.941 143.049 115.49C143.633 113.566 143.948 111.526 143.948 109.414C143.948 107.902 143.787 106.427 143.481 105.006ZM142.437 113.89C142.427 113.933 142.417 113.976 142.407 114.019C142.383 114.12 142.359 114.22 142.333 114.32C142.333 114.322 142.332 114.325 142.331 114.328C142.319 114.376 142.306 114.425 142.293 114.474C142.288 114.493 142.283 114.512 142.278 114.531C142.266 114.578 142.253 114.626 142.24 114.673C142.208 114.789 142.176 114.904 142.142 115.018C142.125 115.076 142.109 115.133 142.091 115.19C142.074 115.247 142.056 115.304 142.038 115.361C142.021 115.418 142.003 115.475 141.984 115.532C141.947 115.645 141.91 115.759 141.871 115.871C141.833 115.984 141.793 116.096 141.752 116.207C141.732 116.263 141.712 116.319 141.691 116.374C141.67 116.43 141.649 116.485 141.628 116.541C141.586 116.65 141.544 116.758 141.5 116.866C141.471 116.939 141.441 117.011 141.411 117.082C141.394 117.122 141.378 117.161 141.361 117.199C141.338 117.254 141.315 117.308 141.291 117.362C141.27 117.41 141.25 117.458 141.228 117.505C141.199 117.571 141.17 117.636 141.14 117.701C141.096 117.797 141.051 117.893 141.005 117.988C140.972 118.058 140.938 118.128 140.904 118.197C140.883 118.239 140.863 118.281 140.841 118.323C140.79 118.426 140.737 118.53 140.683 118.632C140.682 118.635 140.68 118.638 140.679 118.64C140.656 118.684 140.633 118.727 140.61 118.771C140.551 118.882 140.491 118.992 140.429 119.102C140.401 119.153 140.372 119.204 140.342 119.255C140.317 119.301 140.291 119.347 140.264 119.392C140.256 119.406 140.248 119.42 140.239 119.435C140.215 119.476 140.191 119.518 140.166 119.559C140.103 119.666 140.039 119.772 139.973 119.877C139.885 120.021 139.794 120.164 139.701 120.305C139.646 120.39 139.589 120.476 139.531 120.561C139.53 120.562 139.529 120.565 139.527 120.566C139.469 120.653 139.41 120.739 139.349 120.825C139.29 120.91 139.229 120.996 139.168 121.08C139.107 121.166 139.044 121.25 138.982 121.333C138.979 121.337 138.977 121.34 138.975 121.343C138.916 121.422 138.856 121.5 138.795 121.579C138.792 121.582 138.79 121.586 138.787 121.59C138.725 121.67 138.662 121.75 138.599 121.829C138.534 121.911 138.468 121.992 138.402 122.073C138.345 122.143 138.287 122.212 138.229 122.281C138.219 122.291 138.21 122.302 138.201 122.313C138.196 122.319 138.192 122.325 138.186 122.33C138.134 122.392 138.081 122.453 138.028 122.514C137.971 122.579 137.914 122.644 137.856 122.709C137.852 122.714 137.848 122.718 137.843 122.722C137.8 122.771 137.756 122.82 137.711 122.868C137.685 122.897 137.66 122.925 137.633 122.953C137.604 122.985 137.574 123.017 137.545 123.048C137.514 123.082 137.482 123.115 137.451 123.148C137.43 123.17 137.409 123.192 137.387 123.214C137.35 123.253 137.313 123.292 137.275 123.33C137.025 123.587 136.768 123.837 136.505 124.079C136.456 124.125 136.407 124.169 136.358 124.213C136.357 124.215 136.355 124.217 136.353 124.218C136.292 124.273 136.231 124.328 136.17 124.381C136.158 124.393 136.145 124.404 136.133 124.414C136.09 124.452 136.047 124.489 136.004 124.526C135.964 124.56 135.925 124.594 135.885 124.628C135.798 124.702 135.711 124.775 135.622 124.847C135.585 124.878 135.547 124.908 135.51 124.939C135.486 124.958 135.463 124.977 135.439 124.995C135.396 125.03 135.353 125.064 135.309 125.099C135.245 125.15 135.179 125.2 135.113 125.251C134.988 125.347 134.861 125.441 134.734 125.535C134.604 125.63 134.471 125.724 134.338 125.816C134.272 125.862 134.206 125.908 134.14 125.952C134.073 125.997 134.007 126.042 133.94 126.086C133.886 126.121 133.833 126.156 133.778 126.191C133.748 126.211 133.716 126.231 133.685 126.251C133.644 126.277 133.604 126.302 133.564 126.327C133.538 126.344 133.512 126.36 133.486 126.376C133.434 126.408 133.382 126.44 133.33 126.472C133.262 126.513 133.193 126.555 133.124 126.596C133.055 126.637 132.985 126.677 132.916 126.717C132.776 126.797 132.636 126.876 132.495 126.953C132.431 126.988 132.366 127.023 132.301 127.057C132.293 127.061 132.285 127.066 132.277 127.07C132.208 127.106 132.138 127.143 132.068 127.178C131.996 127.215 131.924 127.252 131.852 127.288C131.78 127.323 131.708 127.359 131.635 127.394C131.576 127.423 131.517 127.451 131.457 127.479C131.417 127.498 131.375 127.517 131.334 127.536C131.292 127.555 131.251 127.575 131.208 127.593C131.196 127.599 131.183 127.605 131.171 127.611C131.106 127.64 131.04 127.669 130.974 127.698C130.826 127.763 130.677 127.826 130.527 127.887C130.429 127.928 130.332 127.967 130.233 128.005C130.166 128.031 130.099 128.057 130.031 128.082C129.96 128.11 129.888 128.136 129.816 128.163C129.768 128.18 129.719 128.198 129.67 128.215C129.637 128.227 129.604 128.239 129.571 128.25C129.537 128.262 129.504 128.274 129.47 128.285C129.409 128.306 129.347 128.327 129.286 128.348C129.268 128.354 129.25 128.36 129.232 128.366C129.17 128.386 129.108 128.406 129.046 128.426C129.021 128.434 128.996 128.442 128.971 128.449C128.916 128.467 128.86 128.484 128.803 128.501C128.775 128.51 128.747 128.519 128.719 128.527C128.675 128.54 128.63 128.553 128.586 128.566C128.54 128.58 128.495 128.593 128.448 128.606C128.269 128.657 128.089 128.706 127.907 128.752C127.839 128.769 127.771 128.786 127.703 128.803C127.677 128.809 127.651 128.816 127.625 128.821C127.569 128.835 127.511 128.849 127.454 128.861C127.375 128.88 127.295 128.898 127.215 128.914C127.17 128.925 127.125 128.934 127.079 128.944C127.034 128.953 126.989 128.962 126.944 128.971C126.905 128.979 126.866 128.987 126.827 128.995C126.775 129.005 126.724 129.015 126.672 129.024C126.642 129.03 126.611 129.036 126.58 129.041C126.528 129.051 126.475 129.06 126.422 129.069C126.382 129.077 126.341 129.084 126.301 129.09C126.045 129.133 125.789 129.171 125.531 129.204C125.46 129.213 125.39 129.222 125.319 129.229C125.304 129.231 125.289 129.233 125.274 129.235C125.219 129.241 125.163 129.247 125.107 129.253C125.075 129.256 125.043 129.26 125.011 129.263C124.952 129.269 124.893 129.275 124.833 129.28C124.806 129.283 124.78 129.285 124.752 129.287C124.704 129.292 124.656 129.296 124.607 129.299C124.562 129.304 124.516 129.307 124.471 129.31C124.421 129.314 124.372 129.317 124.322 129.32C124.279 129.324 124.236 129.326 124.193 129.328C124.159 129.331 124.124 129.333 124.089 129.334C124.033 129.338 123.975 129.34 123.918 129.343C123.881 129.345 123.844 129.346 123.807 129.348C123.739 129.351 123.671 129.353 123.603 129.355C123.586 129.356 123.569 129.356 123.551 129.356C123.46 129.359 123.369 129.361 123.278 129.362C123.184 129.364 123.088 129.364 122.993 129.364C117.849 129.364 113.153 127.407 109.611 124.198C108.963 123.611 108.353 122.981 107.785 122.313C107.721 122.238 107.657 122.161 107.594 122.085C107.586 122.075 107.578 122.065 107.57 122.055C107.511 121.984 107.454 121.913 107.397 121.841C107.391 121.834 107.385 121.827 107.38 121.82C107.317 121.742 107.255 121.662 107.194 121.582C107.13 121.5 107.067 121.417 107.004 121.333C106.941 121.25 106.879 121.166 106.819 121.08C106.757 120.996 106.696 120.91 106.636 120.825C106.518 120.657 106.404 120.487 106.292 120.316C106.289 120.312 106.287 120.308 106.285 120.305C106.277 120.294 106.271 120.284 106.264 120.273C106.24 120.236 106.216 120.199 106.192 120.161C106.147 120.092 106.104 120.023 106.061 119.954C106.029 119.905 105.999 119.856 105.969 119.806C105.87 119.646 105.775 119.484 105.681 119.321C105.645 119.259 105.61 119.197 105.575 119.134C103.963 116.257 103.043 112.941 103.043 109.414C103.043 98.4132 111.992 89.4637 122.993 89.4637C126.517 89.4637 129.83 90.3821 132.706 91.9916C133.841 92.6267 134.908 93.3698 135.892 94.2063C136.56 94.7736 137.19 95.3837 137.777 96.0324C140.987 99.5738 142.943 104.27 142.943 109.414C142.943 109.512 142.943 109.609 142.941 109.706C142.94 109.78 142.939 109.854 142.937 109.928C142.935 109.995 142.933 110.061 142.93 110.127C142.93 110.139 142.93 110.151 142.929 110.164C142.928 110.196 142.927 110.228 142.926 110.26C142.923 110.315 142.921 110.369 142.918 110.424C142.918 110.432 142.917 110.44 142.917 110.448C142.913 110.53 142.908 110.611 142.903 110.693C142.898 110.765 142.894 110.835 142.888 110.906C142.884 110.958 142.88 111.011 142.876 111.063C142.875 111.081 142.873 111.099 142.871 111.117C142.867 111.164 142.863 111.211 142.859 111.257C142.847 111.388 142.834 111.519 142.819 111.648C142.814 111.692 142.809 111.735 142.804 111.779C142.785 111.939 142.764 112.098 142.742 112.257C142.734 112.311 142.726 112.365 142.718 112.419C142.715 112.437 142.712 112.456 142.709 112.475C142.7 112.531 142.691 112.588 142.682 112.645C142.656 112.804 142.628 112.964 142.598 113.123C142.591 113.162 142.583 113.2 142.575 113.239C142.545 113.397 142.512 113.554 142.478 113.709C142.465 113.77 142.451 113.83 142.437 113.89Z" fill="#036FAD"/>
<path d="M142.943 109.414C142.943 120.415 133.994 129.364 122.993 129.364C116.906 129.364 111.447 126.625 107.785 122.313C106.95 121.331 106.209 120.267 105.575 119.134C103.963 116.257 103.042 112.941 103.042 109.414C103.042 98.4131 111.992 89.4636 122.993 89.4636C126.516 89.4636 129.83 90.3821 132.706 91.9915C133.841 92.6266 134.907 93.3698 135.892 94.2063C140.204 97.8681 142.943 103.327 142.943 109.414Z" fill="#036FAD"/>
<path d="M62.4373 38.3162C61.9813 38.0621 61.4569 37.9177 60.8989 37.9177C59.1467 37.9177 57.7207 39.3437 57.7207 41.0959V51.8406C57.7207 52.3986 57.8651 52.9235 58.1191 53.3795C58.662 54.356 59.7047 55.0182 60.8989 55.0182C60.9472 55.0182 60.9955 55.0172 61.0433 55.0144C62.7288 54.9395 64.0766 53.5445 64.0766 51.8406V41.0959C64.0766 39.9017 63.4144 38.8584 62.4373 38.3162ZM63.0724 51.8406C63.0724 53.0407 62.0991 54.014 60.8989 54.014C60.6655 54.014 60.4402 53.9771 60.2296 53.9093C59.3562 53.6264 58.7249 52.8073 58.7249 51.8406V41.0959C58.7249 39.8952 59.6982 38.9219 60.8989 38.9219C61.8657 38.9219 62.6848 39.5532 62.9671 40.4266C63.0355 40.6373 63.0724 40.8625 63.0724 41.0959V51.8406Z" fill="#036FAD"/>
<path d="M63.0726 41.0961V51.8407C63.0726 53.0409 62.0993 54.0142 60.8991 54.0142C59.6989 54.0142 58.7251 53.0409 58.7251 51.8407V41.0961C58.7251 39.8954 59.6984 38.9221 60.8991 38.9221C62.0998 38.9221 63.0726 39.8954 63.0726 41.0961Z" fill="#036FAD"/>
<path d="M81.013 38.3162C80.5571 38.0621 80.0321 37.9177 79.4741 37.9177C77.7219 37.9177 76.2959 39.3437 76.2959 41.0959V51.8406C76.2959 52.3986 76.4403 52.9235 76.6943 53.3795C77.2371 54.356 78.2799 55.0182 79.4741 55.0182C79.5224 55.0182 79.5707 55.0172 79.6185 55.0144C81.304 54.9395 82.6523 53.5445 82.6523 51.8406V41.0959C82.6523 39.9017 81.9901 38.859 81.013 38.3162ZM81.6481 51.8406C81.6481 53.0407 80.6748 54.014 79.4741 54.014C79.2407 54.014 79.0154 53.9771 78.8048 53.9093C77.9314 53.6264 77.3001 52.8073 77.3001 51.8406V41.0959C77.3001 39.8952 78.2734 38.9219 79.4741 38.9219C80.4414 38.9219 81.2605 39.5532 81.5434 40.4266C81.6112 40.6373 81.6481 40.8625 81.6481 41.0959V51.8406Z" fill="#036FAD"/>
<path d="M81.6478 41.0961V51.8407C81.6478 53.0409 80.6745 54.0142 79.4738 54.0142C78.2731 54.0142 77.2998 53.0409 77.2998 51.8407V41.0961C77.2998 39.8954 78.2731 38.9221 79.4738 38.9221C80.6745 38.9221 81.6478 39.8954 81.6478 41.0961Z" fill="#036FAD"/>
<path d="M99.5877 38.3162C99.1317 38.0621 98.6068 37.9177 98.0488 37.9177C96.2965 37.9177 94.8711 39.3437 94.8711 41.0959V51.8406C94.8711 52.3986 95.0155 52.9235 95.2695 53.3795C95.8118 54.356 96.8546 55.0182 98.0488 55.0182C98.0971 55.0182 98.1454 55.0172 98.1932 55.0144C99.8792 54.9395 101.227 53.5445 101.227 51.8406V41.0959C101.227 39.9017 100.565 38.8584 99.5877 38.3162ZM100.223 51.8406C100.223 53.0407 99.2495 54.014 98.0488 54.014C97.8154 54.014 97.5906 53.9771 97.38 53.9093C96.5066 53.627 95.8753 52.8073 95.8753 51.8406V41.0959C95.8753 39.8952 96.8486 38.9219 98.0488 38.9219C99.0161 38.9219 99.8352 39.5532 100.118 40.4266C100.186 40.6373 100.223 40.8625 100.223 41.0959V51.8406Z" fill="#036FAD"/>
<g style="mix-blend-mode:multiply">
<path d="M123.809 67.2529C123.213 66.8887 122.519 66.6699 121.776 66.646C121.73 66.6439 121.684 66.6433 121.637 66.6433H58.6854C56.3789 66.6433 54.5029 68.5198 54.5029 70.8258C54.5029 70.8724 54.5035 70.9186 54.5056 70.9647C54.5295 71.7073 54.7488 72.4021 55.1131 72.9987C55.848 74.2027 57.1742 75.0082 58.6854 75.0082H121.637C123.943 75.0082 125.819 73.1317 125.819 70.8258C125.819 69.3145 125.014 67.9879 123.809 67.2529ZM123.811 70.8258C123.811 72.0265 122.838 72.9998 121.637 72.9998H58.6854C58.2196 72.9998 57.7881 72.8532 57.4347 72.604C57.0537 72.3359 56.7627 71.9478 56.6161 71.4951C56.5483 71.2844 56.5114 71.0592 56.5114 70.8258C56.5114 69.625 57.4846 68.6518 58.6854 68.6518H121.637C121.87 68.6518 122.096 68.6887 122.306 68.7565C122.757 68.9025 123.143 69.1913 123.411 69.5702C123.663 69.9247 123.811 70.3578 123.811 70.8258Z" fill="#DDDDDD"/>
</g>
<g style="mix-blend-mode:multiply">
<path d="M104.013 83.0713C103.416 82.7065 102.722 82.4878 101.979 82.4639C101.933 82.4617 101.887 82.4612 101.84 82.4612H58.6854C56.3789 82.4612 54.5029 84.3372 54.5029 86.6436C54.5029 86.6903 54.5035 86.7364 54.5056 86.7826C54.5295 87.5252 54.7488 88.22 55.1131 88.8165C55.848 90.0205 57.1742 90.8255 58.6854 90.8255H101.84C104.146 90.8255 106.022 88.9495 106.022 86.6436C106.022 85.1324 105.217 83.8058 104.013 83.0713ZM104.014 86.6436C104.014 87.8443 103.04 88.8171 101.84 88.8171H58.6854C58.2202 88.8171 57.7892 88.6711 57.4358 88.4219C57.0542 88.1538 56.7627 87.7662 56.6161 87.3129C56.5483 87.1023 56.5114 86.877 56.5114 86.6436C56.5114 85.4429 57.4846 84.4696 58.6854 84.4696H101.84C102.074 84.4696 102.299 84.5065 102.51 84.5744C102.96 84.7204 103.347 85.0097 103.615 85.3886C103.866 85.7431 104.014 86.1763 104.014 86.6436Z" fill="#DDDDDD"/>
</g>
<g style="mix-blend-mode:multiply">
<path d="M91.303 98.8886C90.7064 98.5244 90.0122 98.3056 89.2701 98.2818C89.224 98.2796 89.1773 98.2791 89.1306 98.2791H58.6854C56.3789 98.2791 54.5029 100.155 54.5029 102.461C54.5029 102.508 54.5035 102.554 54.5056 102.6C54.5295 103.343 54.7488 104.038 55.1131 104.634C55.848 105.838 57.1742 106.643 58.6854 106.643H89.1306C91.4371 106.643 93.3131 104.767 93.3131 102.461C93.3131 100.95 92.5075 99.6231 91.303 98.8886ZM91.3046 102.461C91.3046 103.662 90.3313 104.635 89.1306 104.635H58.6854C58.2202 104.635 57.7892 104.489 57.4358 104.24C57.0542 103.972 56.7632 103.584 56.6167 103.131C56.5483 102.92 56.5114 102.695 56.5114 102.461C56.5114 101.261 57.4846 100.287 58.6854 100.287H89.1306C89.364 100.287 89.5893 100.324 89.7999 100.392C90.251 100.538 90.637 100.827 90.9051 101.206C91.157 101.56 91.3046 101.994 91.3046 102.461Z" fill="#DDDDDD"/>
</g>
<path d="M100.223 41.0961V51.8407C100.223 53.0409 99.2497 54.0142 98.0489 54.0142C96.8482 54.0142 95.8755 53.0409 95.8755 51.8407V41.0961C95.8755 39.8954 96.8488 38.9221 98.0489 38.9221C99.2491 38.9221 100.223 39.8954 100.223 41.0961Z" fill="#036FAD"/>
<g style="mix-blend-mode:multiply">
<path d="M137.914 107.241C137.317 106.877 136.623 106.658 135.88 106.634C135.834 106.632 135.788 106.631 135.741 106.631H124.393C122.086 106.631 120.21 108.507 120.21 110.814V122.162C120.21 122.209 120.211 122.255 120.213 122.301C120.237 123.044 120.456 123.738 120.82 124.334C121.554 125.539 122.881 126.344 124.393 126.344C126.699 126.344 128.575 124.468 128.575 122.162V114.996H135.741C138.047 114.996 139.924 113.12 139.924 110.814C139.924 109.303 139.118 107.976 137.914 107.241ZM137.915 110.814C137.915 112.014 136.942 112.987 135.741 112.987H126.566V122.162C126.566 123.363 125.593 124.336 124.393 124.336C123.925 124.336 123.492 124.188 123.137 123.937C122.758 123.668 122.47 123.282 122.324 122.831C122.256 122.621 122.219 122.395 122.219 122.162V110.814C122.219 109.613 123.192 108.64 124.393 108.64H135.741C135.975 108.64 136.2 108.677 136.41 108.745C136.862 108.891 137.247 109.179 137.516 109.558C137.767 109.913 137.915 110.346 137.915 110.814Z" fill="#DDDDDD"/>
</g>
<path d="M118.162 38.3162C117.706 38.0621 117.182 37.9177 116.624 37.9177C114.871 37.9177 113.446 39.3437 113.446 41.0959V51.8406C113.446 52.3986 113.59 52.924 113.844 53.38C114.387 54.3565 115.43 55.0182 116.624 55.0182C116.672 55.0182 116.721 55.0172 116.768 55.0144C118.454 54.9395 119.802 53.5445 119.802 51.8406V41.0959C119.802 39.9017 119.139 38.8584 118.162 38.3162ZM118.797 51.8406C118.797 53.0407 117.824 54.014 116.624 54.014C116.391 54.014 116.165 53.9771 115.955 53.9093C115.081 53.6264 114.45 52.8073 114.45 51.8406V41.0959C114.45 39.8952 115.423 38.9219 116.624 38.9219C117.591 38.9219 118.41 39.5532 118.692 40.4266C118.761 40.6373 118.797 40.8625 118.797 41.0959V51.8406Z" fill="#036FAD"/>
<path d="M118.798 41.0961V51.8407C118.798 53.0409 117.824 54.0142 116.624 54.0142C115.424 54.0142 114.45 53.0409 114.45 51.8407V41.0961C114.45 39.8954 115.423 38.9221 116.624 38.9221C117.825 38.9221 118.798 39.8954 118.798 41.0961Z" fill="#036FAD"/>
<path d="M122.993 123.94C121.241 123.94 119.815 122.515 119.815 120.762V109.413C119.815 107.661 121.24 106.235 122.993 106.235H134.342C136.094 106.235 137.52 107.661 137.52 109.413C137.52 111.166 136.095 112.592 134.342 112.592H126.171V120.762C126.171 122.514 124.746 123.94 122.993 123.94Z" fill="white"/>
<path d="M57.2856 72.604C55.5334 72.604 54.1074 71.1785 54.1074 69.4258C54.1074 67.673 55.5329 66.2476 57.2856 66.2476H120.238C121.99 66.2476 123.416 67.673 123.416 69.4258C123.416 71.1785 121.991 72.604 120.238 72.604H57.2856Z" fill="#B5B5B5"/>
<path d="M57.2856 88.4219C55.5334 88.4219 54.1074 86.9964 54.1074 85.2437C54.1074 83.4909 55.5329 82.0654 57.2856 82.0654H100.441C102.193 82.0654 103.619 83.4909 103.619 85.2437C103.619 86.9964 102.193 88.4219 100.441 88.4219H57.2856Z" fill="#B5B5B5"/>
<path d="M57.2856 104.24C55.5334 104.24 54.1074 102.814 54.1074 101.062C54.1074 99.3088 55.5329 97.8833 57.2856 97.8833H87.7314C89.4837 97.8833 90.9097 99.3088 90.9097 101.062C90.9097 102.814 89.4842 104.24 87.7314 104.24H57.2856Z" fill="#B5B5B5"/>
<g style="mix-blend-mode:multiply">
<path d="M139.201 94.615L139.2 94.6139C138.594 94.0586 137.957 93.538 137.292 93.0533V55.6338C137.292 52.7091 135.937 50.0954 133.823 48.3861C132.586 47.3862 131.088 46.6957 129.45 46.4341C128.969 46.357 128.477 46.3174 127.975 46.3174H122.206V42.4959C122.206 40.9847 121.4 39.658 120.196 38.9231C119.599 38.5588 118.905 38.3401 118.162 38.3162C118.116 38.314 118.07 38.3135 118.024 38.3135C115.717 38.3135 113.841 40.19 113.841 42.4959V46.3174H103.631V42.4959C103.631 40.9847 102.825 39.658 101.621 38.9231C101.024 38.5588 100.33 38.3401 99.5874 38.3162C99.5413 38.314 99.4951 38.3135 99.4485 38.3135C97.1426 38.3135 95.2666 40.19 95.2666 42.4959V46.3174H85.0561V42.4959C85.0561 40.9852 84.2505 39.6586 83.0466 38.9236C82.45 38.5594 81.7552 38.3401 81.0126 38.3162C80.9665 38.314 80.9203 38.3135 80.8736 38.3135C78.5677 38.3135 76.6912 40.19 76.6912 42.4959V46.3174H66.4807V42.4959C66.4807 40.9847 65.6752 39.658 64.4707 38.9231C63.8741 38.5588 63.1798 38.3401 62.4372 38.3162C62.3911 38.314 62.345 38.3135 62.2988 38.3135C59.9924 38.3135 58.1164 40.19 58.1164 42.4959V46.3174H52.3467C47.2095 46.3174 43.0303 50.4966 43.0303 55.6338V114.397C43.0303 114.756 43.0509 115.111 43.0905 115.46C43.1063 115.598 43.1253 115.735 43.147 115.871C43.2132 116.286 43.3066 116.692 43.426 117.086C43.7777 118.252 44.3526 119.321 45.1001 120.246C45.1163 120.265 45.1321 120.285 45.1484 120.305C45.796 121.092 46.57 121.772 47.4396 122.313H105.232C105.583 122.795 105.953 123.262 106.342 123.713H106.632C107.116 124.378 107.636 125.014 108.191 125.62C108.191 125.62 108.191 125.621 108.193 125.621C112.21 130.013 117.985 132.773 124.393 132.773C132.288 132.773 139.223 128.585 143.093 122.313C143.494 121.665 143.861 120.995 144.193 120.305C144.643 119.369 145.029 118.395 145.345 117.392C145.552 116.735 145.728 116.065 145.873 115.383C146.186 113.909 146.352 112.38 146.352 110.814C146.352 104.406 143.593 98.6313 139.201 94.615ZM143.24 117.358C142.885 118.381 142.448 119.365 141.937 120.305C141.56 121 141.142 121.67 140.687 122.313C137.071 127.423 131.115 130.764 124.393 130.764C122.373 130.764 120.423 130.462 118.585 129.902C115.093 128.838 112.004 126.839 109.611 124.198C109.466 124.039 109.325 123.877 109.185 123.713C108.35 122.73 107.609 121.666 106.975 120.534C105.363 117.657 104.442 114.341 104.442 110.814C104.442 99.813 113.392 90.8635 124.393 90.8635C127.916 90.8635 131.23 91.782 134.105 93.3914C135.241 94.0265 136.307 94.7697 137.292 95.6061C137.456 95.7457 137.618 95.8873 137.777 96.0323C140.417 98.4245 142.417 101.513 143.481 105.006C144.041 106.844 144.343 108.795 144.343 110.814C144.343 112.386 144.16 113.916 143.815 115.383C143.657 116.055 143.465 116.714 143.24 117.358ZM120.197 42.4959V53.2405C120.197 54.4407 119.224 55.414 118.024 55.414C117.556 55.414 117.123 55.2663 116.768 55.0145C116.389 54.7463 116.101 54.3604 115.955 53.9093C115.887 53.6987 115.85 53.4739 115.85 53.2405V42.4959C115.85 41.2952 116.823 40.3219 118.024 40.3219C118.257 40.3219 118.481 40.3588 118.692 40.4267C119.145 40.5727 119.533 40.8637 119.802 41.2453C120.051 41.5986 120.197 42.0302 120.197 42.4959ZM101.622 42.4959V53.2405C101.622 54.4407 100.649 55.414 99.4485 55.414C98.9806 55.414 98.5479 55.2663 98.1929 55.0145C97.8146 54.7463 97.5258 54.3604 97.3798 53.9093C97.3119 53.6987 97.275 53.4739 97.275 53.2405V42.4959C97.275 41.2952 98.2483 40.3219 99.4485 40.3219C99.6819 40.3219 99.9071 40.3588 100.118 40.4267C100.57 40.5732 100.959 40.8642 101.227 41.2453C101.476 41.5986 101.622 42.0302 101.622 42.4959ZM83.0476 42.4959V53.2405C83.0476 54.4407 82.0744 55.414 80.8736 55.414C80.4057 55.414 79.9726 55.2663 79.6181 55.0145C79.2392 54.7463 78.9504 54.3604 78.8044 53.9093C78.7365 53.6987 78.6996 53.4739 78.6996 53.2405V42.4959C78.6996 41.2952 79.6729 40.3219 80.8736 40.3219C81.1071 40.3219 81.3323 40.3588 81.5429 40.4267C81.9957 40.5732 82.3838 40.8642 82.6519 41.2453C82.9011 41.5986 83.0476 42.0302 83.0476 42.4959ZM64.4723 42.4959V53.2405C64.4723 54.4407 63.499 55.414 62.2988 55.414C61.8309 55.414 61.3977 55.2663 61.0433 55.0145C60.6644 54.7463 60.3756 54.3604 60.2296 53.9093C60.1617 53.6987 60.1248 53.4739 60.1248 53.2405V42.4959C60.1248 41.2952 61.0981 40.3219 62.2988 40.3219C62.5322 40.3219 62.7564 40.3588 62.967 40.4267C63.4197 40.5727 63.8079 40.8637 64.0766 41.2453C64.3257 41.5986 64.4723 42.0302 64.4723 42.4959ZM52.3467 121.704C51.4245 121.704 50.5413 121.533 49.7282 121.219C49.1267 120.988 48.5633 120.679 48.0503 120.305C47.4733 119.884 46.9598 119.381 46.5282 118.813C45.594 117.586 45.0387 116.055 45.0387 114.397V55.6338C45.0387 51.6039 48.3174 48.3258 52.3467 48.3258H58.1164V53.2405C58.1164 53.2872 58.1169 53.3334 58.1191 53.3795C58.143 54.1221 58.3617 54.8163 58.726 55.4129C59.4609 56.6169 60.7876 57.4224 62.2988 57.4224C64.6047 57.4224 66.4807 55.5464 66.4807 53.2405V48.3258H76.6912V53.2405C76.6912 53.2872 76.6912 53.3334 76.6939 53.3795C76.7178 54.1221 76.9366 54.8158 77.3008 55.4124C78.0358 56.6169 79.3624 57.4224 80.8736 57.4224C83.1795 57.4224 85.0561 55.5464 85.0561 53.2405V48.3258H95.2666V53.2405C95.2666 53.2872 95.2666 53.3334 95.2693 53.3795C95.2932 54.1221 95.5119 54.8163 95.8761 55.4129C96.6111 56.6169 97.9372 57.4224 99.4485 57.4224C101.755 57.4224 103.631 55.5464 103.631 53.2405V48.3258H113.841V53.2405C113.841 53.2872 113.842 53.3339 113.844 53.38C113.868 54.1226 114.087 54.8163 114.451 55.4129C115.186 56.6169 116.513 57.4224 118.024 57.4224C120.33 57.4224 122.206 55.5464 122.206 53.2405V48.3258H127.975C129.634 48.3258 131.166 48.8811 132.393 49.8159C133.466 50.6323 134.306 51.7375 134.798 53.0147C135.112 53.8284 135.283 54.7116 135.283 55.6338V91.751C135.153 91.6756 135.021 91.6018 134.888 91.5296C134.558 91.3493 134.223 91.1773 133.883 91.0139C132.361 90.2811 130.742 89.7187 129.05 89.3518C128.701 89.2763 128.349 89.209 127.994 89.1504C126.822 88.956 125.619 88.8551 124.393 88.8551C112.285 88.8551 102.434 98.7057 102.434 110.814C102.434 112.039 102.535 113.241 102.729 114.412C102.788 114.769 102.856 115.124 102.932 115.475C103.299 117.165 103.861 118.784 104.593 120.305C104.756 120.644 104.928 120.979 105.108 121.309C105.181 121.442 105.254 121.574 105.33 121.704H52.3467Z" fill="#DDDDDD"/>
</g>
<path d="M63.0724 44.9175V46.9259H77.2997V44.9175H63.0724ZM100.223 44.9175V46.9259H114.45V44.9175H100.223ZM133.823 48.3861C132.114 46.2718 129.5 44.9175 126.575 44.9175H118.797V46.9259H126.575C128.947 46.9259 131.058 48.061 132.393 49.8159C133.328 51.0432 133.883 52.5751 133.883 54.2339V91.4161L133.153 91.0915L131.471 90.3435C131.352 90.2909 131.234 90.2382 131.115 90.1877C130.098 89.7578 129.056 89.4115 127.994 89.1504C126.369 88.7498 124.696 88.5479 122.993 88.5479C120.176 88.5479 117.444 89.0999 114.871 90.1877C112.386 91.2392 110.155 92.7433 108.238 94.6595C106.322 96.5757 104.818 98.8072 103.767 101.292C102.679 103.865 102.127 106.597 102.127 109.414C102.127 111.116 102.328 112.788 102.729 114.412C102.99 115.475 103.337 116.518 103.767 117.536C103.817 117.655 103.87 117.773 103.922 117.891L104.676 119.584L104.997 120.305H50.9468C49.288 120.305 47.7567 119.749 46.5283 118.813C44.7733 117.478 43.6388 115.368 43.6388 112.997V54.2339C43.6388 50.204 46.9175 46.9259 50.9468 46.9259H58.7249V44.9175H50.9468C45.8096 44.9175 41.6304 49.0967 41.6304 54.2339V112.997C41.6304 113.822 41.7378 114.622 41.9403 115.383C42.1271 116.089 42.3952 116.762 42.7334 117.391C43.3256 118.494 44.1333 119.464 45.1001 120.246C45.1245 120.265 45.1495 120.285 45.1745 120.305C46.7628 121.562 48.7685 122.313 50.9468 122.313H107.785C107.721 122.238 107.657 122.161 107.594 122.084C107.586 122.075 107.578 122.065 107.57 122.055C107.511 121.984 107.453 121.912 107.396 121.841C107.391 121.834 107.385 121.827 107.38 121.82C107.317 121.741 107.255 121.662 107.193 121.582C107.129 121.5 107.066 121.417 107.004 121.333C106.941 121.25 106.879 121.165 106.818 121.08C106.757 120.996 106.696 120.91 106.636 120.825C106.518 120.657 106.404 120.487 106.291 120.315C106.289 120.312 106.286 120.308 106.284 120.305C106.277 120.294 106.271 120.284 106.264 120.273C106.24 120.236 106.215 120.199 106.191 120.161C106.147 120.092 106.103 120.023 106.061 119.954C106.029 119.905 105.999 119.856 105.969 119.806C105.87 119.646 105.775 119.484 105.681 119.321C105.645 119.259 105.61 119.197 105.575 119.134C103.963 116.257 103.043 112.941 103.043 109.414C103.043 98.4131 111.992 89.4636 122.993 89.4636C126.516 89.4636 129.83 90.3821 132.706 91.9915C133.841 92.6266 134.907 93.3698 135.892 94.2062V54.2339C135.892 52.0214 135.117 49.9864 133.823 48.3861ZM81.6477 44.9175V46.9259H95.8751V44.9175H81.6477Z" fill="#333333"/>
<path d="M106.636 120.825C106.519 120.657 106.404 120.487 106.291 120.315C106.404 120.487 106.518 120.657 106.636 120.825ZM139.201 94.6149L139.201 94.6138C138.602 93.9586 137.965 93.3404 137.292 92.7628C136.841 92.3741 136.374 92.0039 135.892 91.6533C135.692 91.5072 135.489 91.3645 135.284 91.2261C135.153 91.1365 135.021 91.0491 134.888 90.9633C134.559 90.7505 134.224 90.5464 133.884 90.351C130.672 88.5087 126.953 87.4551 122.993 87.4551C110.885 87.4551 101.034 97.3057 101.034 109.414C101.034 113.374 102.088 117.093 103.93 120.304C104.126 120.645 104.33 120.98 104.542 121.309C104.628 121.442 104.716 121.574 104.805 121.704C104.944 121.91 105.086 122.113 105.232 122.313C105.583 122.795 105.953 123.262 106.342 123.713C106.919 124.385 107.537 125.022 108.191 125.62C108.191 125.62 108.191 125.621 108.193 125.621C112.099 129.192 117.296 131.373 122.993 131.373C130.285 131.373 136.758 127.8 140.754 122.313C141.223 121.669 141.658 120.999 142.056 120.304C142.59 119.374 143.057 118.4 143.452 117.391C143.709 116.736 143.934 116.066 144.127 115.383C144.665 113.484 144.952 111.482 144.952 109.414C144.952 103.717 142.771 98.521 139.201 94.6149ZM109.611 124.198C108.963 123.611 108.353 122.981 107.785 122.313C107.721 122.237 107.657 122.161 107.594 122.084C107.586 122.075 107.578 122.065 107.57 122.055C107.512 121.984 107.454 121.912 107.397 121.841C107.391 121.834 107.385 121.827 107.38 121.82C107.317 121.741 107.255 121.662 107.194 121.582C107.13 121.5 107.067 121.417 107.004 121.333C106.942 121.249 106.879 121.165 106.818 121.08C106.757 120.996 106.696 120.91 106.636 120.825C106.519 120.657 106.404 120.487 106.291 120.315C106.289 120.312 106.287 120.308 106.284 120.304C106.277 120.294 106.271 120.284 106.264 120.273C106.24 120.236 106.215 120.199 106.192 120.161C106.147 120.092 106.104 120.023 106.061 119.954C106.029 119.904 105.999 119.855 105.969 119.806C105.87 119.646 105.775 119.484 105.681 119.321C105.645 119.259 105.61 119.197 105.575 119.134C103.963 116.257 103.043 112.941 103.043 109.414C103.043 98.413 111.992 89.4635 122.993 89.4635C126.516 89.4635 129.83 90.382 132.706 91.9914C133.841 92.6265 134.907 93.3697 135.892 94.2062C136.56 94.7734 137.189 95.3835 137.777 96.0322C140.986 99.5736 142.943 104.27 142.943 109.414C142.943 109.512 142.943 109.609 142.941 109.706C142.94 109.78 142.938 109.854 142.937 109.928C142.935 109.995 142.933 110.061 142.93 110.127C142.93 110.139 142.93 110.151 142.929 110.163C142.928 110.196 142.927 110.228 142.925 110.26C142.923 110.314 142.921 110.369 142.918 110.424C142.918 110.432 142.917 110.44 142.917 110.447C142.913 110.529 142.908 110.612 142.903 110.693C142.898 110.764 142.893 110.835 142.888 110.906C142.884 110.959 142.88 111.011 142.875 111.063C142.874 111.081 142.873 111.099 142.871 111.117C142.867 111.164 142.863 111.211 142.859 111.257C142.847 111.388 142.834 111.518 142.819 111.648C142.814 111.692 142.809 111.735 142.804 111.778C142.785 111.939 142.764 112.098 142.741 112.257C142.734 112.311 142.726 112.365 142.717 112.418C142.715 112.437 142.712 112.456 142.709 112.475C142.7 112.531 142.691 112.588 142.682 112.645C142.656 112.804 142.628 112.964 142.598 113.122C142.59 113.161 142.583 113.201 142.575 113.239C142.545 113.397 142.512 113.553 142.478 113.709C142.465 113.769 142.451 113.83 142.437 113.889C142.427 113.933 142.417 113.976 142.406 114.019C142.383 114.12 142.358 114.219 142.333 114.319C142.333 114.322 142.332 114.325 142.331 114.327C142.318 114.376 142.306 114.425 142.293 114.474C142.288 114.493 142.283 114.511 142.278 114.53C142.265 114.578 142.253 114.625 142.24 114.673C142.208 114.788 142.176 114.903 142.142 115.018C142.125 115.075 142.108 115.133 142.091 115.19C142.073 115.247 142.056 115.304 142.038 115.361C142.02 115.418 142.003 115.475 141.984 115.531C141.947 115.645 141.909 115.758 141.871 115.871C141.833 115.984 141.793 116.095 141.752 116.207C141.732 116.263 141.711 116.319 141.69 116.374C141.67 116.43 141.649 116.485 141.627 116.541C141.586 116.65 141.543 116.758 141.499 116.866C141.471 116.938 141.441 117.011 141.41 117.082C141.394 117.121 141.378 117.16 141.361 117.199C141.338 117.254 141.315 117.308 141.291 117.362C141.27 117.41 141.249 117.457 141.228 117.505C141.199 117.571 141.169 117.636 141.139 117.701C141.096 117.797 141.05 117.893 141.005 117.988C140.972 118.058 140.938 118.128 140.904 118.197C140.883 118.239 140.862 118.281 140.841 118.323C140.789 118.426 140.736 118.529 140.683 118.632C140.682 118.635 140.68 118.637 140.679 118.64C140.656 118.683 140.633 118.727 140.61 118.77C140.551 118.882 140.491 118.992 140.429 119.102C140.4 119.153 140.371 119.204 140.342 119.255C140.317 119.301 140.291 119.346 140.264 119.391C140.256 119.406 140.248 119.42 140.239 119.434C140.215 119.476 140.19 119.517 140.166 119.559C140.103 119.666 140.039 119.772 139.973 119.877C139.884 120.021 139.793 120.163 139.701 120.304C139.645 120.39 139.588 120.475 139.531 120.561C139.529 120.562 139.528 120.565 139.527 120.566C139.469 120.653 139.41 120.739 139.349 120.825C139.29 120.91 139.229 120.996 139.167 121.08C139.106 121.165 139.044 121.249 138.982 121.333C138.979 121.336 138.977 121.34 138.975 121.343C138.916 121.422 138.856 121.5 138.795 121.578C138.792 121.582 138.79 121.586 138.786 121.589C138.725 121.67 138.662 121.749 138.599 121.829C138.533 121.911 138.468 121.992 138.401 122.072C138.344 122.142 138.286 122.211 138.228 122.28C138.219 122.291 138.21 122.302 138.201 122.313C138.196 122.318 138.191 122.324 138.186 122.33C138.134 122.392 138.081 122.453 138.027 122.514C137.97 122.579 137.913 122.644 137.855 122.709C137.852 122.714 137.848 122.718 137.843 122.722C137.799 122.771 137.756 122.82 137.711 122.868C137.685 122.896 137.659 122.925 137.633 122.953C137.604 122.985 137.574 123.016 137.544 123.048C137.513 123.082 137.482 123.115 137.45 123.148C137.43 123.17 137.409 123.192 137.387 123.213C137.35 123.253 137.313 123.292 137.275 123.33C137.025 123.587 136.768 123.837 136.504 124.079C136.456 124.124 136.407 124.169 136.358 124.213C136.357 124.215 136.355 124.217 136.353 124.218C136.292 124.273 136.231 124.327 136.17 124.381C136.157 124.392 136.145 124.403 136.132 124.414C136.09 124.452 136.047 124.489 136.004 124.526C135.964 124.56 135.925 124.594 135.885 124.628C135.798 124.701 135.711 124.775 135.622 124.847C135.585 124.878 135.547 124.908 135.509 124.939C135.486 124.958 135.463 124.977 135.439 124.995C135.396 125.03 135.352 125.064 135.309 125.099C135.244 125.15 135.179 125.2 135.113 125.251C134.988 125.347 134.861 125.442 134.734 125.535C134.603 125.63 134.471 125.724 134.338 125.816C134.272 125.862 134.206 125.907 134.14 125.952C134.074 125.998 134.007 126.042 133.939 126.086C133.886 126.121 133.833 126.156 133.778 126.191C133.747 126.211 133.716 126.231 133.684 126.251C133.645 126.277 133.605 126.302 133.564 126.327C133.538 126.344 133.512 126.36 133.486 126.376C133.434 126.409 133.382 126.441 133.33 126.471C133.262 126.514 133.193 126.555 133.124 126.596C133.055 126.636 132.986 126.677 132.916 126.717C132.776 126.797 132.636 126.876 132.495 126.952C132.43 126.988 132.365 127.023 132.301 127.057C132.293 127.061 132.285 127.065 132.277 127.07C132.207 127.107 132.138 127.142 132.068 127.178C131.996 127.215 131.924 127.252 131.852 127.287C131.78 127.324 131.707 127.359 131.635 127.394C131.576 127.423 131.517 127.451 131.457 127.478C131.416 127.498 131.375 127.517 131.334 127.535C131.292 127.556 131.25 127.575 131.208 127.593C131.196 127.599 131.183 127.605 131.171 127.61C131.105 127.64 131.04 127.669 130.974 127.698C130.826 127.763 130.677 127.826 130.527 127.887C130.429 127.927 130.331 127.966 130.233 128.005C130.166 128.031 130.098 128.057 130.031 128.082C129.96 128.11 129.888 128.136 129.816 128.162C129.767 128.18 129.719 128.198 129.67 128.214C129.637 128.227 129.604 128.238 129.571 128.25C129.538 128.262 129.504 128.274 129.47 128.285C129.409 128.306 129.347 128.327 129.285 128.347C129.267 128.353 129.25 128.359 129.232 128.365C129.17 128.386 129.108 128.406 129.045 128.426C129.021 128.434 128.996 128.441 128.971 128.449C128.915 128.467 128.859 128.484 128.803 128.501C128.775 128.51 128.747 128.518 128.719 128.527C128.675 128.54 128.63 128.553 128.586 128.566C128.54 128.58 128.494 128.593 128.448 128.606C128.269 128.657 128.088 128.706 127.907 128.751C127.839 128.769 127.771 128.786 127.702 128.802C127.677 128.809 127.651 128.815 127.625 128.821C127.568 128.835 127.511 128.848 127.454 128.861C127.375 128.879 127.295 128.897 127.215 128.914C127.169 128.924 127.124 128.934 127.079 128.943C127.034 128.953 126.989 128.962 126.944 128.971C126.905 128.979 126.865 128.987 126.826 128.995C126.775 129.005 126.724 129.015 126.672 129.024C126.642 129.03 126.611 129.036 126.58 129.041C126.527 129.051 126.475 129.06 126.422 129.069C126.382 129.076 126.341 129.083 126.3 129.09C126.045 129.133 125.788 129.171 125.531 129.204C125.46 129.213 125.39 129.221 125.319 129.229C125.304 129.231 125.289 129.233 125.274 129.234C125.219 129.241 125.163 129.247 125.107 129.253C125.075 129.256 125.043 129.259 125.011 129.263C124.952 129.269 124.893 129.275 124.833 129.28C124.806 129.283 124.779 129.285 124.752 129.287C124.704 129.291 124.656 129.296 124.607 129.299C124.562 129.303 124.516 129.307 124.471 129.31C124.421 129.314 124.372 129.317 124.322 129.32C124.279 129.323 124.236 129.326 124.193 129.328C124.158 129.331 124.124 129.333 124.089 129.334C124.032 129.338 123.975 129.34 123.918 129.342C123.881 129.345 123.844 129.346 123.807 129.347C123.739 129.351 123.671 129.353 123.603 129.354C123.586 129.355 123.568 129.356 123.551 129.356C123.46 129.359 123.369 129.361 123.278 129.362C123.183 129.364 123.088 129.364 122.993 129.364C117.849 129.364 113.153 127.407 109.611 124.198Z" fill="#333333"/>
<path d="M64.471 38.9231C63.736 37.7191 62.4099 36.9136 60.8992 36.9136C58.5928 36.9136 56.7168 38.7901 56.7168 41.096V51.8406C56.7168 53.3518 57.5223 54.678 58.7263 55.4129C59.3598 55.7994 60.104 56.0225 60.8992 56.0225C63.2051 56.0225 65.0811 54.1465 65.0811 51.8406V41.096C65.0811 40.3008 64.858 39.5566 64.471 38.9231ZM60.2299 53.9093C59.3565 53.6265 58.7252 52.8074 58.7252 51.8406V41.096C58.7252 39.8953 59.6985 38.922 60.8992 38.922C61.866 38.922 62.6851 39.5533 62.9674 40.4267C63.0358 40.6373 63.0727 40.8626 63.0727 41.096V51.8406C63.0727 53.0408 62.0994 54.0141 60.8992 54.0141C60.6658 54.0141 60.4406 53.9772 60.2299 53.9093Z" fill="#333333"/>
<path d="M83.0468 38.9236C82.3113 37.7191 80.9852 36.9136 79.4739 36.9136C77.168 36.9136 75.2915 38.7901 75.2915 41.096V51.8406C75.2915 53.3513 76.0971 54.6774 77.301 55.4124C77.9345 55.7994 78.6787 56.0225 79.4739 56.0225C81.7799 56.0225 83.6564 54.1465 83.6564 51.8406V41.096C83.6564 40.3013 83.4333 39.5571 83.0468 38.9236ZM78.8046 53.9093C77.9312 53.6265 77.2999 52.8074 77.2999 51.8406V41.096C77.2999 39.8953 78.2732 38.922 79.4739 38.922C80.4413 38.922 81.2604 39.5533 81.5432 40.4267C81.611 40.6373 81.6479 40.8626 81.6479 41.096V51.8406C81.6479 53.0408 80.6747 54.0141 79.4739 54.0141C79.2405 54.0141 79.0153 53.9772 78.8046 53.9093Z" fill="#333333"/>
<path d="M101.621 38.9231C100.886 37.7191 99.5598 36.9136 98.0486 36.9136C95.7427 36.9136 93.8667 38.7901 93.8667 41.096V51.8406C93.8667 53.3518 94.6722 54.678 95.8762 55.4129C96.5097 55.7994 97.2539 56.0225 98.0486 56.0225C100.355 56.0225 102.231 54.1465 102.231 51.8406V41.096C102.231 40.3008 102.008 39.5566 101.621 38.9231ZM97.3798 53.9093C96.5064 53.6271 95.8751 52.8074 95.8751 51.8406V41.096C95.8751 39.8953 96.8484 38.922 98.0486 38.922C99.0159 38.922 99.835 39.5533 100.118 40.4267C100.186 40.6373 100.223 40.8626 100.223 41.096V51.8406C100.223 53.0408 99.2493 54.0141 98.0486 54.0141C97.8152 54.0141 97.5905 53.9772 97.3798 53.9093Z" fill="#333333"/>
<path d="M120.196 38.9231C119.461 37.7191 118.135 36.9136 116.624 36.9136C114.318 36.9136 112.442 38.7901 112.442 41.096V51.8406C112.442 53.3518 113.247 54.678 114.451 55.4129C115.085 55.7994 115.829 56.0225 116.624 56.0225C118.93 56.0225 120.806 54.1465 120.806 51.8406V41.096C120.806 40.3008 120.583 39.5566 120.196 38.9231ZM115.955 53.9093C115.082 53.6265 114.45 52.8074 114.45 51.8406V41.096C114.45 39.8953 115.424 38.922 116.624 38.922C117.591 38.922 118.41 39.5533 118.692 40.4267C118.761 40.6373 118.798 40.8626 118.798 41.096V51.8406C118.798 53.0408 117.825 54.0141 116.624 54.0141C116.391 54.0141 116.166 53.9772 115.955 53.9093Z" fill="#333333"/>
<path d="M137.914 107.242C137.179 106.037 135.852 105.231 134.341 105.231H122.993C120.687 105.231 118.811 107.108 118.811 109.414V120.762C118.811 122.273 119.616 123.599 120.82 124.334C121.454 124.721 122.198 124.945 122.993 124.945C125.299 124.945 127.175 123.069 127.175 120.762V113.596H134.341C136.648 113.596 138.524 111.72 138.524 109.414C138.524 108.619 138.301 107.875 137.914 107.242ZM122.324 122.831C121.45 122.549 120.819 121.729 120.819 120.762V109.414C120.819 108.213 121.792 107.24 122.993 107.24H134.341C135.309 107.24 136.128 107.871 136.41 108.745C136.478 108.955 136.515 109.18 136.515 109.414C136.515 110.615 135.542 111.587 134.341 111.587H125.166V120.762C125.166 121.963 124.194 122.936 122.993 122.936C122.76 122.936 122.534 122.899 122.324 122.831Z" fill="#333333"/>
<path d="M123.809 67.2529C123.074 66.0489 121.748 65.2439 120.238 65.2439H57.2855C54.9796 65.2439 53.103 67.1199 53.103 69.4258C53.103 70.937 53.9086 72.2637 55.1131 72.9987C55.7466 73.3851 56.4908 73.6082 57.2855 73.6082H120.238C122.544 73.6082 124.42 71.7322 124.42 69.4258C124.42 68.6306 124.196 67.8864 123.809 67.2529ZM56.6162 71.495C55.7428 71.2122 55.1115 70.3931 55.1115 69.4258C55.1115 68.2256 56.0848 67.2523 57.2855 67.2523H120.238C121.204 67.2523 122.023 67.8836 122.306 68.7565C122.374 68.9671 122.411 69.1924 122.411 69.4258C122.411 70.6265 121.438 71.5998 120.238 71.5998H57.2855C57.0521 71.5998 56.8268 71.5629 56.6162 71.495Z" fill="#333333"/>
<path d="M104.013 83.0714C103.278 81.8668 101.952 81.0613 100.44 81.0613H57.2855C54.9796 81.0613 53.103 82.9378 53.103 85.2437C53.103 86.7549 53.9086 88.0811 55.1131 88.8166C55.7466 89.2031 56.4908 89.4262 57.2855 89.4262H100.44C102.746 89.4262 104.623 87.5496 104.623 85.2437C104.623 84.449 104.4 83.7048 104.013 83.0714ZM56.6162 87.313C55.7428 87.0302 55.1115 86.211 55.1115 85.2437C55.1115 84.043 56.0848 83.0697 57.2855 83.0697H100.44C101.408 83.0697 102.227 83.701 102.51 84.5744C102.577 84.785 102.614 85.0103 102.614 85.2437C102.614 86.4444 101.641 87.4177 100.44 87.4177H57.2855C57.0521 87.4177 56.8268 87.3808 56.6162 87.313Z" fill="#333333"/>
<path d="M91.303 98.8887C90.568 97.6847 89.2419 96.8792 87.7313 96.8792H57.2855C54.9796 96.8792 53.103 98.7557 53.103 101.062C53.103 102.573 53.9086 103.899 55.1131 104.634C55.7466 105.021 56.4908 105.244 57.2855 105.244H87.7313C90.0372 105.244 91.9132 103.368 91.9132 101.062C91.9132 100.266 91.6901 99.5222 91.303 98.8887ZM56.6167 103.131C55.7433 102.849 55.1115 102.029 55.1115 101.062C55.1115 99.8609 56.0848 98.8876 57.2855 98.8876H87.7313C88.698 98.8876 89.5171 99.5189 89.8 100.392C89.8678 100.603 89.9047 100.828 89.9047 101.062C89.9047 102.262 88.9314 103.236 87.7313 103.236H57.2855C57.0521 103.236 56.8273 103.199 56.6167 103.131Z" fill="#333333"/>
<path d="M107.785 122.313H26.4974C25.9432 122.313 25.4932 121.863 25.4932 121.309C25.4932 120.754 25.9432 120.304 26.4974 120.304H106.285C106.287 120.308 106.289 120.311 106.292 120.315C106.404 120.487 106.519 120.657 106.636 120.824C106.697 120.91 106.757 120.995 106.819 121.08C106.88 121.165 106.942 121.249 107.004 121.333C107.067 121.417 107.13 121.5 107.194 121.582C107.255 121.662 107.318 121.741 107.381 121.82C107.385 121.827 107.391 121.834 107.397 121.841C107.454 121.912 107.512 121.984 107.57 122.055C107.578 122.065 107.586 122.075 107.594 122.084C107.657 122.161 107.721 122.237 107.785 122.313Z" fill="#333333"/>
<path d="M160.712 121.309C160.712 121.863 160.262 122.313 159.708 122.313H138.201C138.741 121.676 139.243 121.006 139.701 120.304H159.708C160.262 120.304 160.712 120.754 160.712 121.309Z" fill="#333333"/>
<path d="M22.3544 122.313H17.7806C17.2258 122.313 16.7764 121.863 16.7764 121.309C16.7764 120.754 17.2258 120.304 17.7806 120.304H22.3544C22.9092 120.304 23.3586 120.754 23.3586 121.309C23.3586 121.863 22.9092 122.313 22.3544 122.313Z" fill="#333333"/>
<path d="M42.7055 117.392H38.1317C37.5769 117.392 37.1274 116.942 37.1274 116.388C37.1274 115.833 37.5769 115.383 38.1317 115.383H42.7055C43.2602 115.383 43.7097 115.833 43.7097 116.388C43.7097 116.942 43.2602 117.392 42.7055 117.392Z" fill="#333333"/>
<path d="M33.9887 117.392H29.4149C28.8601 117.392 28.4106 116.942 28.4106 116.388C28.4106 115.833 28.8601 115.383 29.4149 115.383H33.9887C34.5434 115.383 34.9929 115.833 34.9929 116.388C34.9929 116.942 34.5434 117.392 33.9887 117.392Z" fill="#333333"/>
<path d="M148.073 117.392H143.499C142.945 117.392 142.495 116.942 142.495 116.388C142.495 115.833 142.945 115.383 143.499 115.383H148.073C148.628 115.383 149.077 115.833 149.077 116.388C149.077 116.942 148.628 117.392 148.073 117.392Z" fill="#333333"/>
<path d="M156.79 117.392H152.217C151.662 117.392 151.213 116.942 151.213 116.388C151.213 115.833 151.662 115.383 152.217 115.383H156.79C157.345 115.383 157.795 115.833 157.795 116.388C157.795 116.942 157.345 117.392 156.79 117.392Z" fill="#333333"/>
<path d="M168.425 122.313H163.851C163.297 122.313 162.847 121.863 162.847 121.309C162.847 120.754 163.297 120.304 163.851 120.304H168.425C168.979 120.304 169.429 120.754 169.429 121.309C169.429 121.863 168.979 122.313 168.425 122.313Z" fill="#333333"/>
</g>
<defs>
<clipPath id="clip0_1198_3161">
<rect width="181.981" height="160" fill="white" transform="translate(0.00927734)"/>
</clipPath>
</defs>
</svg>
