<svg width="26" height="26" viewBox="0 0 26 26" fill="none" xmlns="http://www.w3.org/2000/svg">
<path d="M21.7344 14.8891V7.31253C21.7347 7.24094 21.716 7.17055 21.6804 7.10849C21.6447 7.04642 21.5932 6.99488 21.5313 6.95909L11.6797 1.27159C11.6179 1.23593 11.5479 1.21716 11.4766 1.21716C11.4053 1.21716 11.3352 1.23593 11.2734 1.27159L1.42188 6.95909C1.35988 6.99488 1.30845 7.04642 1.27278 7.10849C1.23711 7.17055 1.21847 7.24094 1.21875 7.31253V18.6875C1.21847 18.7591 1.23711 18.8295 1.27278 18.8916C1.30845 18.9536 1.35988 19.0052 1.42188 19.041L11.2734 24.7285C11.3352 24.7641 11.4053 24.7829 11.4766 24.7829C11.5479 24.7829 11.6179 24.7641 11.6797 24.7285L15.3806 22.5916C15.8419 23.2379 16.4458 23.7694 17.1454 24.145C17.845 24.5205 18.6217 24.7301 19.4152 24.7574C20.2088 24.7847 20.9981 24.6291 21.7218 24.3025C22.4456 23.9759 23.0846 23.4872 23.5892 22.8741C24.0939 22.2611 24.4507 21.5401 24.6321 20.767C24.8135 19.994 24.8145 19.1895 24.6352 18.416C24.4559 17.6425 24.101 16.9206 23.598 16.3062C23.0949 15.6918 22.4573 15.2013 21.7344 14.8728V14.8891ZM11.4766 2.09222L20.5156 7.31253L15.9819 9.92878L7.58875 4.33878L11.4766 2.09222ZM11.4766 12.5328L2.4375 7.31253L6.80469 4.78972L15.1938 10.3838L11.4766 12.5328ZM2.03125 8.01534L11.0703 13.2357V23.6722L2.03125 18.4519V8.01534ZM11.8828 23.6722V13.2357L15.5391 11.111V14.2757C15.5391 14.3834 15.5819 14.4867 15.6581 14.5629C15.7342 14.6391 15.8376 14.6819 15.9453 14.6819C16.0531 14.6819 16.1564 14.6391 16.2326 14.5629C16.3088 14.4867 16.3516 14.3834 16.3516 14.2757V10.6438L20.9016 8.01534V14.6007C20.4713 14.4831 20.0273 14.423 19.5813 14.4219C18.7021 14.4241 17.8381 14.6505 17.0707 15.0795C16.3034 15.5085 15.658 16.1261 15.1957 16.8738C14.7334 17.6216 14.4693 18.4749 14.4285 19.3531C14.3876 20.2313 14.5713 21.1054 14.9622 21.8928L11.8828 23.6722ZM19.6016 23.9688C18.7378 23.9688 17.8935 23.7126 17.1753 23.2328C16.4571 22.7529 15.8974 22.0708 15.5668 21.2728C15.2363 20.4748 15.1498 19.5967 15.3183 18.7496C15.4868 17.9024 15.9027 17.1243 16.5135 16.5135C17.1243 15.9028 17.9024 15.4868 18.7496 15.3183C19.5967 15.1498 20.4748 15.2363 21.2728 15.5668C22.0708 15.8974 22.7529 16.4571 23.2327 17.1753C23.7126 17.8935 23.9688 18.7378 23.9688 19.6016C23.9677 20.7595 23.5072 21.8697 22.6884 22.6885C21.8697 23.5072 20.7595 23.9677 19.6016 23.9688Z" fill="#036FAD"/>
<path d="M21.5313 17.4931L19.0125 20.8163L17.6922 19.2644C17.6227 19.1809 17.5229 19.1284 17.4147 19.1185C17.3066 19.1086 17.1989 19.1421 17.1154 19.2116C17.0319 19.2811 16.9794 19.3809 16.9695 19.4891C16.9596 19.5973 16.9931 19.7049 17.0625 19.7885L18.6875 21.7303C18.7257 21.7749 18.773 21.8107 18.8263 21.8353C18.8796 21.8598 18.9376 21.8725 18.9963 21.8725C19.0573 21.8707 19.1171 21.8551 19.1712 21.827C19.2254 21.7988 19.2725 21.7589 19.3091 21.71L22.1325 17.9847C22.1855 17.9495 22.2294 17.9023 22.2608 17.8471C22.2922 17.7918 22.3101 17.7299 22.3133 17.6664C22.3164 17.6029 22.3046 17.5396 22.2787 17.4815C22.2529 17.4234 22.2138 17.3722 22.1646 17.332C22.1154 17.2917 22.0575 17.2636 21.9954 17.2499C21.9333 17.2361 21.8689 17.2371 21.8073 17.2528C21.7457 17.2685 21.6886 17.2984 21.6407 17.3401C21.5928 17.3819 21.5553 17.4343 21.5313 17.4931Z" fill="#036FAD"/>
</svg>
