<svg width="40" height="40" viewBox="0 0 40 40" fill="none" xmlns="http://www.w3.org/2000/svg">
<path d="M15.0137 0H3.58404C2.63421 0.0010546 1.72358 0.378842 1.05194 1.05048C0.380307 1.72211 0.00251945 2.63274 0.00146484 3.58258V15.0123C0.00251941 15.9621 0.380305 16.8727 1.05194 17.5444C1.72357 18.216 2.6342 18.5938 3.58404 18.5949H15.0137C15.9636 18.5938 16.8742 18.216 17.5458 17.5444C18.2175 16.8727 18.5953 15.9621 18.5963 15.0123V3.58258C18.5953 2.63273 18.2175 1.72209 17.5458 1.05045C16.8741 0.378813 15.9635 0.00103393 15.0137 0ZM17.0337 15.0123C17.0331 15.5478 16.8201 16.0613 16.4414 16.44C16.0627 16.8188 15.5492 17.0318 15.0137 17.0324H3.58404C3.04846 17.0318 2.535 16.8188 2.15629 16.44C1.77758 16.0613 1.56456 15.5478 1.56396 15.0123V3.58258C1.56456 3.047 1.77759 2.53354 2.15629 2.15483C2.535 1.77612 3.04847 1.5631 3.58404 1.5625H15.0137C15.5493 1.5631 16.0628 1.77612 16.4415 2.15483C16.8202 2.53354 17.0332 3.047 17.0338 3.58258L17.0337 15.0123ZM9.29889 21.4663C7.46607 21.4663 5.67442 22.0097 4.15049 23.028C2.62656 24.0463 1.4388 25.4935 0.737411 27.1868C0.0360228 28.8801 -0.147492 30.7434 0.210072 32.541C0.567637 34.3386 1.45022 35.9898 2.74622 37.2858C4.04221 38.5818 5.69341 39.4644 7.49101 39.8219C9.28861 40.1795 11.1519 39.996 12.8452 39.2946C14.5385 38.5932 15.9858 37.4055 17.004 35.8815C18.0223 34.3576 18.5658 32.5659 18.5658 30.7331C18.563 28.2762 17.5858 25.9208 15.8485 24.1835C14.1112 22.4462 11.7558 21.469 9.29889 21.4663ZM9.29889 38.4375C7.77511 38.4375 6.28554 37.9856 5.01857 37.1391C3.75159 36.2925 2.7641 35.0893 2.18097 33.6815C1.59785 32.2737 1.44527 30.7246 1.74255 29.2301C2.03982 27.7356 2.77359 26.3628 3.85107 25.2853C4.92855 24.2078 6.30134 23.4741 7.79584 23.1768C9.29034 22.8795 10.8394 23.0321 12.2472 23.6152C13.655 24.1983 14.8583 25.1858 15.7048 26.4528C16.5514 27.7198 17.0033 29.2093 17.0033 30.7331C17.0009 32.7757 16.1885 34.734 14.7441 36.1784C13.2998 37.6227 11.3415 38.4352 9.29889 38.4375ZM30.7321 21.4663C28.8993 21.4662 27.1076 22.0097 25.5837 23.028C24.0598 24.0463 22.872 25.4935 22.1706 27.1868C21.4692 28.8801 21.2857 30.7434 21.6433 32.541C22.0008 34.3386 22.8834 35.9898 24.1794 37.2858C25.4754 38.5818 27.1266 39.4644 28.9242 39.8219C30.7218 40.1795 32.5851 39.996 34.2784 39.2946C35.9717 38.5932 37.419 37.4055 38.4372 35.8815C39.4555 34.3576 39.999 32.5659 39.999 30.7331C39.9962 28.2762 39.019 25.9208 37.2817 24.1835C35.5444 22.4462 33.189 21.469 30.7321 21.4663ZM30.7321 38.4375C29.2083 38.4375 27.7187 37.9856 26.4518 37.1391C25.1848 36.2925 24.1973 35.0893 23.6142 33.6815C23.031 32.2737 22.8785 30.7246 23.1758 29.2301C23.473 27.7356 24.2068 26.3628 25.2843 25.2853C26.3618 24.2078 27.7345 23.4741 29.229 23.1768C30.7235 22.8795 32.2726 23.0321 33.6804 23.6152C35.0882 24.1983 36.2915 25.1858 37.138 26.4528C37.9846 27.7198 38.4365 29.2093 38.4365 30.7331C38.4342 32.7757 37.6217 34.734 36.1773 36.1784C34.733 37.6227 32.7747 38.4352 30.7321 38.4375ZM30.7321 18.5644C32.5649 18.5644 34.3566 18.0209 35.8806 17.0026C37.4045 15.9844 38.5923 14.5371 39.2937 12.8438C39.9951 11.1505 40.1786 9.2872 39.8211 7.48958C39.4635 5.69196 38.5809 4.04074 37.2849 2.74472C35.9889 1.44871 34.3377 0.56611 32.5401 0.208536C30.7425 -0.149037 28.8792 0.0344746 27.1859 0.735866C25.4926 1.43726 24.0453 2.62503 23.027 4.14897C22.0087 5.67291 21.4652 7.46459 21.4652 9.29742C21.468 11.7543 22.4452 14.1098 24.1825 15.8471C25.9197 17.5843 28.2752 18.5616 30.7321 18.5644ZM30.7321 1.59305C32.2559 1.59303 33.7455 2.04488 35.0125 2.89145C36.2795 3.73802 37.267 4.94129 37.8501 6.3491C38.4333 7.75691 38.5859 9.30602 38.2886 10.8005C37.9913 12.2951 37.2575 13.6679 36.18 14.7454C35.1025 15.8229 33.7297 16.5566 32.2352 16.8539C30.7407 17.1512 29.1916 16.9986 27.7838 16.4155C26.376 15.8323 25.1727 14.8448 24.3261 13.5778C23.4795 12.3108 23.0277 10.8212 23.0277 9.29742C23.03 7.25481 23.8425 5.29651 25.2868 3.85216C26.7312 2.40781 28.6895 1.59536 30.7321 1.59305Z" fill="#036FAD"/>
</svg>
