<svg width="33" height="40" viewBox="0 0 33 40" fill="none" xmlns="http://www.w3.org/2000/svg">
<path d="M15.0134 0H3.5838C2.63396 0.0010546 1.72333 0.378842 1.0517 1.05048C0.380063 1.72211 0.00227531 2.63274 0.0012207 3.58258V15.0123C0.00227527 15.9621 0.380061 16.8727 1.05169 17.5444C1.72333 18.216 2.63396 18.5938 3.5838 18.5949H15.0135C15.9633 18.5938 16.874 18.216 17.5456 17.5444C18.2172 16.8727 18.595 15.9621 18.5961 15.0123V3.58258C18.595 2.63273 18.2172 1.72209 17.5456 1.05045C16.8739 0.378813 15.9633 0.00103393 15.0134 0ZM17.0335 15.0123C17.0329 15.5478 16.8199 16.0613 16.4412 16.44C16.0625 16.8188 15.549 17.0318 15.0134 17.0324H3.5838C3.04822 17.0318 2.53475 16.8188 2.15605 16.44C1.77734 16.0613 1.56432 15.5478 1.56372 15.0123V3.58258C1.56432 3.047 1.77734 2.53354 2.15605 2.15483C2.53476 1.77612 3.04822 1.5631 3.5838 1.5625H15.0135C15.5491 1.5631 16.0625 1.77612 16.4412 2.15483C16.8199 2.53354 17.033 3.047 17.0336 3.58258L17.0335 15.0123ZM9.29864 21.4663C7.46583 21.4663 5.67417 22.0097 4.15024 23.028C2.62631 24.0463 1.43855 25.4935 0.737166 27.1868C0.0357787 28.8801 -0.147736 30.7434 0.209828 32.541C0.567392 34.3386 1.44998 35.9898 2.74597 37.2858C4.04197 38.5818 5.69317 39.4644 7.49076 39.8219C9.28836 40.1795 11.1516 39.996 12.8449 39.2946C14.5382 38.5932 15.9855 37.4055 17.0038 35.8815C18.022 34.3576 18.5655 32.5659 18.5655 30.7331C18.5627 28.2762 17.5855 25.9208 15.8483 24.1835C14.111 22.4462 11.7555 21.469 9.29864 21.4663ZM9.29864 38.4375C7.77486 38.4375 6.2853 37.9856 5.01832 37.1391C3.75134 36.2925 2.76385 35.0893 2.18073 33.6815C1.5976 32.2737 1.44503 30.7246 1.7423 29.2301C2.03958 27.7356 2.77335 26.3628 3.85083 25.2853C4.9283 24.2078 6.30109 23.4741 7.79559 23.1768C9.2901 22.8795 10.8392 23.0321 12.247 23.6152C13.6548 24.1983 14.858 25.1858 15.7046 26.4528C16.5512 27.7198 17.003 29.2093 17.003 30.7331C17.0007 32.7757 16.1882 34.734 14.7439 36.1784C13.2996 37.6227 11.3413 38.4352 9.29864 38.4375ZM30.7318 21.4663C28.899 21.4662 27.1074 22.0097 25.5834 23.028C24.0595 24.0463 22.8718 25.4935 22.1704 27.1868C21.469 28.8801 21.2855 30.7434 21.643 32.541C22.0006 34.3386 22.8832 35.9898 24.1792 37.2858C25.4752 38.5818 27.1264 39.4644 28.924 39.8219C30.7216 40.1795 32.5848 39.996 34.2781 39.2946C35.9714 38.5932 37.4187 37.4055 38.437 35.8815C39.4552 34.3576 39.9987 32.5659 39.9987 30.7331C39.996 28.2762 39.0187 25.9208 37.2815 24.1835C35.5442 22.4462 33.1887 21.469 30.7318 21.4663ZM30.7318 38.4375C29.2081 38.4375 27.7185 37.9856 26.4515 37.1391C25.1845 36.2925 24.1971 35.0893 23.6139 33.6815C23.0308 32.2737 22.8782 30.7246 23.1755 29.2301C23.4728 27.7356 24.2066 26.3628 25.284 25.2853C26.3615 24.2078 27.7343 23.4741 29.2288 23.1768C30.7233 22.8795 32.2724 23.0321 33.6802 23.6152C35.088 24.1983 36.2912 25.1858 37.1378 26.4528C37.9844 27.7198 38.4362 29.2093 38.4362 30.7331C38.4339 32.7757 37.6215 34.734 36.1771 36.1784C34.7328 37.6227 32.7745 38.4352 30.7318 38.4375ZM30.7318 18.5644C32.5647 18.5644 34.3564 18.0209 35.8803 17.0026C37.4043 15.9844 38.592 14.5371 39.2934 12.8438C39.9949 11.1505 40.1784 9.2872 39.8208 7.48958C39.4633 5.69196 38.5807 4.04074 37.2847 2.74472C35.9887 1.44871 34.3375 0.56611 32.5398 0.208536C30.7422 -0.149037 28.879 0.0344746 27.1856 0.735866C25.4923 1.43726 24.045 2.62503 23.0267 4.14897C22.0085 5.67291 21.465 7.46459 21.465 9.29742C21.4677 11.7543 22.445 14.1098 24.1822 15.8471C25.9195 17.5843 28.275 18.5616 30.7318 18.5644ZM30.7318 1.59305C32.2556 1.59303 33.7452 2.04488 35.0122 2.89145C36.2792 3.73802 37.2668 4.94129 37.8499 6.3491C38.433 7.75691 38.5856 9.30602 38.2883 10.8005C37.9911 12.2951 37.2573 13.6679 36.1798 14.7454C35.1023 15.8229 33.7295 16.5566 32.235 16.8539C30.7404 17.1512 29.1913 16.9986 27.7835 16.4155C26.3757 15.8323 25.1724 14.8448 24.3259 13.5778C23.4793 12.3108 23.0275 10.8212 23.0275 9.29742C23.0298 7.25481 23.8422 5.29651 25.2866 3.85216C26.7309 2.40781 28.6892 1.59536 30.7318 1.59305Z" fill="#036FAD"/>
</svg>
