<svg width="33" height="33" viewBox="0 0 33 33" fill="none" xmlns="http://www.w3.org/2000/svg">
<path d="M16.8023 2.78685H14.3284V2.55708C14.3284 2.02046 13.8918 1.58382 13.3552 1.58382H11.1228C10.9624 0.684769 10.1749 0 9.23057 0C8.28608 0 7.49854 0.684769 7.33821 1.58382H5.04017C4.50355 1.58382 4.06691 2.02046 4.06691 2.55708V2.78685H1.59299C0.714567 2.78685 0 3.5015 0 4.37992V24.4069C0 25.2854 0.714567 26 1.59299 26H16.8023C17.6808 26 18.3953 25.2854 18.3953 24.4069V4.37992C18.3953 3.5015 17.6808 2.78685 16.8023 2.78685ZM15.9147 17.7575C15.9147 18.7997 15.0668 19.6476 14.0245 19.6476H13.0385C12.8517 19.6476 12.7002 19.7991 12.7002 19.9859V21.6248C12.7002 22.667 11.8523 23.515 10.81 23.515H10.4158C10.4011 23.515 10.3871 23.5175 10.3729 23.5193H2.48066V5.26759H4.06689V5.34042C4.06689 5.87704 4.50353 6.31368 5.04016 6.31368H13.3551C13.8918 6.31368 14.3284 5.87704 14.3284 5.34042V5.26759H15.9146L15.9147 17.7575ZM15.8676 19.5396C15.6204 21.2817 14.4011 22.7141 12.7779 23.2698C13.1512 22.824 13.3767 22.2505 13.3767 21.6248V20.3242H14.0245C14.7477 20.3242 15.4007 20.0224 15.8676 19.5396ZM4.74344 2.55708C4.74344 2.39345 4.8766 2.26037 5.04016 2.26037H7.64664C7.8334 2.26037 7.98491 2.10893 7.98491 1.92209C7.98491 1.23527 8.54371 0.676545 9.23054 0.676545C9.91737 0.676545 10.476 1.23527 10.476 1.92209C10.476 2.10893 10.6275 2.26037 10.8143 2.26037H13.3551C13.5187 2.26037 13.6519 2.39347 13.6519 2.55708V5.34042C13.6519 5.50405 13.5187 5.63714 13.3551 5.63714H5.04017C4.87661 5.63714 4.74345 5.50404 4.74345 5.34042L4.74344 2.55708ZM17.7188 24.4069C17.7188 24.9123 17.3077 25.3235 16.8023 25.3235H1.59299C1.08764 25.3235 0.676545 24.9123 0.676545 24.4069V4.37992C0.676545 3.87457 1.08764 3.4634 1.59299 3.4634H4.06689V4.59105H2.14239C1.95564 4.59105 1.80412 4.74249 1.80412 4.92932V23.8576C1.80412 24.0444 1.95564 24.1959 2.14239 24.1959H11.281C14.2091 24.1959 16.5912 21.8137 16.5912 18.8857V4.92932C16.5912 4.74249 16.4397 4.59105 16.2529 4.59105H14.3284V3.4634H16.8023C17.3077 3.4634 17.7188 3.87457 17.7188 4.37992L17.7188 24.4069Z" fill="white"/>
<path d="M6.17812 4.59696H12.2183C12.405 4.59696 12.5566 4.44551 12.5566 4.25868C12.5566 4.07185 12.405 3.92041 12.2183 3.92041H6.17812C5.99136 3.92041 5.83984 4.07185 5.83984 4.25868C5.83984 4.44551 5.99136 4.59696 6.17812 4.59696Z" fill="white"/>
<path d="M6.17851 12.8424C7.20361 12.8424 8.03754 12.0084 8.03754 10.9833C8.03754 9.95816 7.2036 9.12415 6.17851 9.12415C5.15343 9.12415 4.31934 9.95816 4.31934 10.9833C4.31934 12.0084 5.15343 12.8424 6.17851 12.8424ZM6.17851 9.80069C6.83054 9.80069 7.36099 10.3312 7.36099 10.9833C7.36099 11.6354 6.83054 12.1659 6.17851 12.1659C5.52634 12.1659 4.99588 11.6354 4.99588 10.9833C4.99588 10.3312 5.52634 9.80069 6.17851 9.80069Z" fill="white"/>
<path d="M7.95213 15.8123C7.95213 15.9991 8.10364 16.1505 8.2904 16.1505C8.47715 16.1505 8.62867 15.9991 8.62867 15.8123C8.62867 14.461 7.52929 13.3617 6.17811 13.3617C4.82692 13.3617 3.72754 14.461 3.72754 15.8123C3.72754 15.9991 3.87905 16.1505 4.06581 16.1505C4.25257 16.1505 4.40408 15.9991 4.40408 15.8123C4.40408 14.8341 5.19985 14.0382 6.17811 14.0382C7.15636 14.0382 7.95213 14.8341 7.95213 15.8123Z" fill="white"/>
<path d="M9.76626 12.2761L10.0085 12.2822C10.0114 12.2823 10.0142 12.2823 10.0172 12.2823C10.2001 12.2823 10.3506 12.1364 10.3551 11.9525C10.3598 11.7658 10.2123 11.6105 10.0255 11.6058L9.78328 11.5997C9.59961 11.5948 9.44134 11.7427 9.43663 11.9294C9.43193 12.1162 9.5795 12.2714 9.76626 12.2761Z" fill="white"/>
<path d="M11.4301 11.606C11.2433 11.606 11.0918 11.7574 11.0918 11.9442C11.0918 12.1311 11.2433 12.2825 11.4301 12.2825H14.4502C14.6369 12.2825 14.7884 12.1311 14.7884 11.9442C14.7884 11.7574 14.6369 11.606 14.4502 11.606H11.4301Z" fill="white"/>
<path d="M9.76626 14.1983L10.0085 14.2044C10.0114 14.2045 10.0142 14.2045 10.0172 14.2045C10.2001 14.2045 10.3506 14.0585 10.3551 13.8747C10.3598 13.688 10.2123 13.5327 10.0255 13.528L9.78328 13.5219C9.5996 13.5189 9.44134 13.6648 9.43663 13.8516C9.43196 14.0384 9.5795 14.1936 9.76626 14.1983Z" fill="white"/>
<path d="M14.4502 13.5278H11.4301C11.2433 13.5278 11.0918 13.6793 11.0918 13.8661C11.0918 14.0529 11.2433 14.2044 11.4301 14.2044H14.4502C14.6369 14.2044 14.7884 14.0529 14.7884 13.8661C14.7884 13.6793 14.6369 13.5278 14.4502 13.5278Z" fill="white"/>
<path d="M9.76626 16.1443L10.0085 16.1504C10.0114 16.1504 10.0142 16.1504 10.0172 16.1504C10.2001 16.1504 10.3506 16.0045 10.3551 15.8207C10.3598 15.6339 10.2123 15.4787 10.0255 15.474L9.78328 15.4679C9.59961 15.4611 9.44134 15.6108 9.43663 15.7976C9.43193 15.9843 9.5795 16.1396 9.76626 16.1443Z" fill="white"/>
<path d="M14.4502 15.4739H11.4301C11.2433 15.4739 11.0918 15.6253 11.0918 15.8121C11.0918 15.999 11.2433 16.1504 11.4301 16.1504H14.4502C14.6369 16.1504 14.7884 15.999 14.7884 15.8121C14.7884 15.6253 14.6369 15.4739 14.4502 15.4739Z" fill="white"/>
<path d="M4.31422 17.6437H4.06581C3.87905 17.6437 3.72754 17.7951 3.72754 17.9819C3.72754 18.1688 3.87905 18.3202 4.06581 18.3202H4.31422C4.50098 18.3202 4.6525 18.1688 4.6525 17.9819C4.6525 17.7951 4.50098 17.6437 4.31422 17.6437Z" fill="white"/>
<path d="M14.4515 17.6437H5.72792C5.54116 17.6437 5.38965 17.7951 5.38965 17.9819C5.38965 18.1688 5.54116 18.3202 5.72792 18.3202H14.4515C14.6383 18.3202 14.7898 18.1688 14.7898 17.9819C14.7898 17.7951 14.6383 17.6437 14.4515 17.6437Z" fill="white"/>
<path d="M4.31422 19.5614H4.06581C3.87905 19.5614 3.72754 19.7128 3.72754 19.8997C3.72754 20.0865 3.87905 20.2379 4.06581 20.2379H4.31422C4.50098 20.2379 4.6525 20.0865 4.6525 19.8997C4.6525 19.7128 4.50098 19.5614 4.31422 19.5614Z" fill="white"/>
<path d="M9.77575 19.5614H5.72792C5.54116 19.5614 5.38965 19.7128 5.38965 19.8997C5.38965 20.0865 5.54116 20.2379 5.72792 20.2379H9.77573C9.96249 20.2379 10.114 20.0865 10.114 19.8997C10.114 19.7128 9.96251 19.5614 9.77575 19.5614Z" fill="white"/>
<path d="M11.4301 9.46092H12.2172V10.2482C12.2172 10.435 12.3687 10.5864 12.5554 10.5864C12.7422 10.5864 12.8937 10.435 12.8937 10.2482V9.46092H13.681C13.8677 9.46092 14.0192 9.30948 14.0192 9.12265C14.0192 8.93582 13.8677 8.78438 13.681 8.78438H12.8937V7.99721C12.8937 7.81038 12.7422 7.65894 12.5554 7.65894C12.3687 7.65894 12.2172 7.81038 12.2172 7.99721V8.78438H11.4301C11.2433 8.78438 11.0918 8.93582 11.0918 9.12265C11.0918 9.30948 11.2433 9.46092 11.4301 9.46092Z" fill="white"/>
</svg>
