<svg width="26" height="26" viewBox="0 0 26 26" fill="none" xmlns="http://www.w3.org/2000/svg">
<g clip-path="url(#clip0_275_957)">
<path d="M25.8978 14.3586L21.4251 2.16771C21.1099 1.30858 20.1543 0.866154 19.2952 1.18113L1.9971 7.52761C1.44298 7.73095 1.04541 8.21417 0.938428 8.78058C0.38355 9.04946 0 9.61842 0 10.2752V23.2606C0 24.1758 0.744621 24.9205 1.65987 24.9205H20.0854C21.0006 24.9205 21.7452 24.1759 21.7452 23.2606V17.6501L24.9113 16.4885C25.7725 16.1725 26.2138 15.2199 25.8978 14.3586ZM20.0854 24.0539H1.65987C1.22247 24.0539 0.866658 23.698 0.866658 23.2606V10.2752C0.866658 9.8379 1.22247 9.48203 1.65987 9.48203H20.0854C20.5227 9.48203 20.8785 9.83785 20.8785 10.2752V10.9299H16.7826C15.4128 10.9299 14.5678 11.9569 14.5678 13.1582C14.5678 14.2658 15.3285 15.3871 16.7826 15.3871H20.8785V23.2606C20.8785 23.698 20.5227 24.0539 20.0854 24.0539ZM20.8785 14.5205H16.7826C15.8513 14.5205 15.4344 13.8362 15.4344 13.1582C15.4344 12.4805 15.8513 11.7966 16.7826 11.7966H20.8785V14.5205ZM24.6128 15.6748L21.7453 16.7269V10.2752C21.7453 9.36005 21.0006 8.61537 20.0854 8.61537H1.9314C2.02175 8.49296 2.14676 8.39584 2.29561 8.34124L19.5937 1.99481C20.0051 1.8438 20.4605 2.05461 20.6116 2.46627L21.0965 3.78814L12.2914 7.01861C12.0667 7.10105 11.9514 7.35 12.0339 7.57473C12.116 7.79871 12.3646 7.9149 12.5899 7.83229L21.395 4.60183L22.1595 6.68538L20.3656 7.34345C20.141 7.42589 20.0256 7.67483 20.1081 7.89957C20.1903 8.12355 20.4388 8.23973 20.6642 8.15713L22.458 7.49901L25.0842 14.6571C25.2352 15.0686 25.0244 15.5239 24.6128 15.6748Z" fill="#036FAD"/>
<path d="M3.75493 17.1675H6.3464C7.0362 17.1675 7.59742 16.6064 7.59742 15.9165V14.3471C7.59742 13.6573 7.0362 13.0961 6.3464 13.0961H3.75493C3.06512 13.0961 2.50391 13.6572 2.50391 14.3471V15.9165C2.50391 16.6064 3.06512 17.1675 3.75493 17.1675ZM3.37056 14.3471C3.37056 14.1352 3.54297 13.9628 3.75493 13.9628H6.3464C6.55835 13.9628 6.73076 14.1352 6.73076 14.3471V15.9166C6.73076 16.1285 6.55835 16.3009 6.3464 16.3009H3.75493C3.54297 16.3009 3.37056 16.1285 3.37056 15.9166V14.3471Z" fill="#036FAD"/>
<path d="M16.7454 18.955H10.1628C9.92352 18.955 9.72949 19.149 9.72949 19.3883C9.72949 19.6276 9.92352 19.8216 10.1628 19.8216H16.7454C16.9847 19.8216 17.1787 19.6276 17.1787 19.3883C17.1787 19.149 16.9847 18.955 16.7454 18.955Z" fill="#036FAD"/>
<path d="M6.42383 19.3883C6.42383 19.6276 6.61785 19.8216 6.85716 19.8216H8.10672C8.34602 19.8216 8.54004 19.6276 8.54004 19.3883C8.54004 19.149 8.34602 18.955 8.10672 18.955H6.85716C6.6178 18.955 6.42383 19.149 6.42383 19.3883Z" fill="#036FAD"/>
<path d="M2.93724 19.8216H4.91219C5.15149 19.8216 5.34551 19.6276 5.34551 19.3883C5.34551 19.149 5.15149 18.955 4.91219 18.955H2.93724C2.69793 18.955 2.50391 19.149 2.50391 19.3883C2.50391 19.6276 2.69793 19.8216 2.93724 19.8216Z" fill="#036FAD"/>
<path d="M11.1007 21.7443H2.93724C2.69793 21.7443 2.50391 21.9383 2.50391 22.1776C2.50391 22.4169 2.69793 22.6109 2.93724 22.6109H11.1007C11.34 22.6109 11.534 22.4169 11.534 22.1776C11.534 21.9383 11.3401 21.7443 11.1007 21.7443Z" fill="#036FAD"/>
</g>
<defs>
<clipPath id="clip0_275_957">
<rect width="26" height="26" fill="white"/>
</clipPath>
</defs>
</svg>
