<svg width="32" height="40" viewBox="0 0 32 40" fill="none" xmlns="http://www.w3.org/2000/svg">
<path d="M19.0223 31.5926C18.7959 31.0216 18.352 30.5639 17.7882 30.3201C17.2244 30.0764 16.5868 30.0665 16.0157 30.2927L9.40754 32.9109C8.90704 33.1101 8.49153 33.4773 8.23245 33.9496C7.97337 34.4218 7.88689 34.9696 7.98787 35.4987C8.08886 36.0278 8.37101 36.5052 8.78582 36.8489C9.20063 37.1925 9.72219 37.3809 10.2609 37.3817C10.5532 37.3803 10.8427 37.3238 11.1142 37.215L17.7224 34.5967C18.2922 34.3696 18.7489 33.926 18.9925 33.363C19.2361 32.8001 19.2468 32.1635 19.0223 31.5926ZM10.6533 36.055C10.4571 36.1331 10.242 36.1511 10.0355 36.1068C9.82901 36.0624 9.64033 35.9577 9.49345 35.8059C9.34656 35.6541 9.2481 35.4621 9.21055 35.2542C9.17299 35.0463 9.19805 34.832 9.28254 34.6384C9.33758 34.5099 9.41744 34.3936 9.51754 34.2961C9.61764 34.1986 9.73601 34.1218 9.86586 34.0701L12.5883 32.9918L13.3741 34.9742L10.6533 36.055ZM17.2615 33.4368L14.5391 34.5201L13.7499 32.5335L16.4732 31.4551C16.736 31.351 17.0294 31.3554 17.2889 31.4675C17.5485 31.5795 17.7529 31.79 17.8573 32.0526C17.9614 32.3152 17.9571 32.6084 17.8454 32.8678C17.7337 33.1272 17.5238 33.3318 17.2615 33.4368Z" fill="#036FAD"/>
<path d="M28.3147 31.0969L25.5006 28.9228L22.6932 26.7495C22.4525 26.5632 22.1775 26.4262 21.8839 26.3463C21.5902 26.2664 21.2837 26.2452 20.9818 26.2839C20.68 26.3226 20.3887 26.4205 20.1247 26.5718C19.8607 26.7232 19.6291 26.9252 19.4433 27.1661C19.0684 27.6526 18.9017 28.268 18.9798 28.8772C19.0579 29.4864 19.3744 30.0398 19.8599 30.4161L25.4815 34.7651C25.7222 34.9512 25.9973 35.0879 26.2909 35.1677C26.5845 35.2474 26.8909 35.2686 27.1927 35.2299C27.4945 35.1912 27.7857 35.0934 28.0497 34.9422C28.3137 34.791 28.5454 34.5892 28.7314 34.3485C28.9174 34.1077 29.0542 33.8327 29.134 33.5391C29.2137 33.2454 29.2348 32.939 29.1961 32.6372C29.1575 32.3354 29.0597 32.0442 28.9085 31.7802C28.7572 31.5162 28.5555 31.2846 28.3147 31.0985V31.0969ZM20.4332 27.9303C20.5185 27.8193 20.6249 27.7264 20.7464 27.6569C20.8678 27.5873 21.0019 27.5426 21.1407 27.5253C21.1861 27.5196 21.2317 27.5168 21.2774 27.517C21.5132 27.5165 21.7424 27.5951 21.9282 27.7403L24.2448 29.5319L22.9399 31.2185L20.6232 29.4269C20.3991 29.2532 20.2532 28.9976 20.2176 28.7163C20.182 28.435 20.2595 28.151 20.4332 27.9269V27.9303ZM27.7414 33.5843C27.6556 33.6955 27.5487 33.7887 27.4268 33.8585C27.3049 33.9283 27.1704 33.9734 27.031 33.9911C26.8917 34.0088 26.7502 33.9989 26.6147 33.9618C26.4792 33.9248 26.3524 33.8613 26.2414 33.7751L23.9248 31.9835L25.2298 30.2969L27.5464 32.0885C27.7698 32.2612 27.9157 32.5154 27.9522 32.7953C27.9887 33.0753 27.913 33.3584 27.7414 33.5826V33.5843Z" fill="#036FAD"/>
<path d="M25.9621 35.3666H18.8547C18.248 35.3781 17.6701 35.6272 17.2451 36.0603C16.8201 36.4935 16.582 37.076 16.582 37.6828C16.582 38.2896 16.8201 38.8722 17.2451 39.3053C17.6701 39.7384 18.248 39.9875 18.8547 39.999H25.9621C26.2699 40.0049 26.5759 39.9493 26.862 39.8355C27.1481 39.7217 27.4087 39.552 27.6285 39.3364C27.8483 39.1207 28.0228 38.8634 28.142 38.5795C28.2612 38.2956 28.3226 37.9907 28.3226 37.6828C28.3226 37.3749 28.2612 37.0701 28.142 36.7862C28.0228 36.5022 27.8483 36.2449 27.6285 36.0293C27.4087 35.8136 27.1481 35.6439 26.862 35.5302C26.5759 35.4164 26.2699 35.3608 25.9621 35.3666ZM17.7889 37.6832C17.7891 37.4006 17.9015 37.1295 18.1013 36.9295C18.3011 36.7296 18.572 36.617 18.8547 36.6166H21.7838V38.749H18.8547C18.5722 38.7486 18.3013 38.6362 18.1016 38.4364C17.9018 38.2366 17.7893 37.9658 17.7889 37.6832ZM25.9621 38.749H23.0338V36.6166H25.9621C26.1046 36.6126 26.2465 36.6372 26.3793 36.689C26.5121 36.7408 26.6333 36.8187 26.7355 36.9181C26.8377 37.0175 26.919 37.1364 26.9744 37.2678C27.0299 37.3991 27.0585 37.5402 27.0585 37.6828C27.0585 37.8254 27.0299 37.9665 26.9744 38.0979C26.919 38.2292 26.8377 38.3481 26.7355 38.4475C26.6333 38.5469 26.5121 38.6248 26.3793 38.6766C26.2465 38.7284 26.1046 38.753 25.9621 38.749Z" fill="#036FAD"/>
<path d="M36.9587 33.8326C36.5554 33.3738 36.0451 33.0215 35.4731 32.8069C34.9011 32.5924 34.285 32.5222 33.6794 32.6026C33.0738 32.6831 32.4974 32.9116 32.0013 33.268C31.5051 33.6244 31.1045 34.0977 30.8349 34.6459C30.5653 35.1941 30.4351 35.8004 30.4557 36.4109C30.4764 37.0215 30.6473 37.6175 30.9534 38.1463C31.2594 38.675 31.6911 39.1201 32.2103 39.4421C32.7294 39.7641 33.32 39.9532 33.9296 39.9925C34.013 39.9975 34.0963 40 34.173 40C34.8868 39.9989 35.5852 39.7923 36.1847 39.4047C36.7841 39.0171 37.2592 38.465 37.5531 37.8145C37.847 37.1639 37.9472 36.4425 37.8418 35.7365C37.7364 35.0304 37.4298 34.3698 36.9587 33.8334V33.8326ZM32.5422 34.4342C32.9501 34.0738 33.4666 33.8597 34.01 33.8257C34.5533 33.7918 35.0924 33.9399 35.5421 34.2468L31.9738 37.3842C31.7253 36.8997 31.6463 36.3459 31.7493 35.8112C31.8523 35.2765 32.1314 34.7917 32.5422 34.4342ZM35.7971 38.1358C35.3898 38.4977 34.8731 38.7128 34.3293 38.7466C33.7855 38.7804 33.2461 38.6311 32.7972 38.3225L36.3646 35.1867C36.6082 35.6721 36.6845 36.2244 36.5816 36.7577C36.4786 37.291 36.2022 37.7752 35.7954 38.135L35.7971 38.1358Z" fill="#036FAD"/>
<path d="M32.2447 31.6551C32.9752 31.5766 33.6661 31.2833 34.2298 30.8121C34.7936 30.341 35.205 29.7133 35.4121 29.0084C35.6191 28.3035 35.6125 27.553 35.393 26.8518C35.1736 26.1506 34.7511 25.5303 34.1791 25.0692C33.6071 24.6081 32.9112 24.327 32.1794 24.2614C31.4477 24.1958 30.7129 24.3487 30.068 24.7007C29.4231 25.0526 28.897 25.588 28.5563 26.2389C28.2157 26.8899 28.0756 27.6272 28.154 28.3577C28.2517 29.2677 28.6819 30.1096 29.3621 30.7219C30.0423 31.3343 30.9245 31.674 31.8398 31.676C31.975 31.6761 32.1102 31.6691 32.2447 31.6551ZM29.929 26.4161C30.1313 26.1634 30.3816 25.9533 30.6655 25.7978C30.9494 25.6424 31.2612 25.5446 31.5831 25.5103C31.6708 25.501 31.759 25.4963 31.8473 25.4961C32.3454 25.4986 32.831 25.6519 33.2402 25.9359C33.6495 26.2199 33.9631 26.6212 34.1397 27.0869L29.4173 27.5936C29.4797 27.1624 29.6564 26.7559 29.929 26.4161ZM30.3015 29.8818C29.9625 29.6072 29.7035 29.2466 29.5515 28.8377L34.2764 28.3327C34.213 28.7613 34.0374 29.1655 33.7674 29.5043C33.4974 29.8431 33.1427 30.1045 32.7391 30.2619C32.3355 30.4194 31.8974 30.4673 31.4693 30.4009C31.0412 30.3344 30.6383 30.1559 30.3015 29.8835V29.8818Z" fill="#036FAD"/>
<path d="M19.6401 34.8042C20.4832 34.8061 21.3053 34.5409 21.9884 34.0467C22.0578 33.9999 22.1171 33.9396 22.1628 33.8694C22.2084 33.7992 22.2395 33.7206 22.2542 33.6381C22.2689 33.5557 22.2669 33.4712 22.2482 33.3896C22.2296 33.3079 22.1948 33.2309 22.1458 33.163C22.0968 33.0951 22.0347 33.0377 21.9631 32.9942C21.8916 32.9508 21.812 32.9222 21.7291 32.9101C21.6463 32.898 21.5619 32.9027 21.4809 32.9239C21.3998 32.9451 21.3239 32.9823 21.2576 33.0334C20.7868 33.3731 20.2207 33.5553 19.6401 33.5542C19.4744 33.5542 19.3154 33.62 19.1982 33.7372C19.081 33.8544 19.0151 34.0134 19.0151 34.1792C19.0151 34.3449 19.081 34.5039 19.1982 34.6211C19.3154 34.7383 19.4744 34.8042 19.6401 34.8042Z" fill="#036FAD"/>
<path d="M6.65478 33.5542H4.13901C3.40413 33.5531 2.69967 33.2607 2.18011 32.7409C1.66055 32.2212 1.36829 31.5167 1.3674 30.7818V29.2493H17.7504C17.9161 29.2493 18.0751 29.1835 18.1923 29.0663C18.3095 28.9491 18.3754 28.7901 18.3754 28.6244C18.3754 28.4586 18.3095 28.2996 18.1923 28.1824C18.0751 28.0652 17.9161 27.9994 17.7504 27.9994H1.3674V15.3222H4.16734C4.3331 15.3222 4.49206 15.2563 4.60927 15.1391C4.72648 15.0219 4.79233 14.8629 4.79233 14.6972C4.79233 14.5314 4.72648 14.3724 4.60927 14.2552C4.49206 14.138 4.3331 14.0722 4.16734 14.0722H1.3674V11.2772C1.36829 10.5424 1.66058 9.83799 2.18016 9.3184C2.69975 8.79881 3.4042 8.50652 4.13901 8.50564H19.6387C20.3735 8.50652 21.0779 8.79881 21.5975 9.3184C22.1171 9.83799 22.4094 10.5424 22.4103 11.2772V14.0722H6.30896C6.1432 14.0722 5.98423 14.138 5.86703 14.2552C5.74982 14.3724 5.68397 14.5314 5.68397 14.6972C5.68397 14.8629 5.74982 15.0219 5.86703 15.1391C5.98423 15.2563 6.1432 15.3222 6.30896 15.3222H22.4119V25.2669C22.4119 25.4327 22.4778 25.5917 22.595 25.7089C22.7122 25.8261 22.8712 25.8919 23.0369 25.8919C23.2027 25.8919 23.3616 25.8261 23.4788 25.7089C23.5961 25.5917 23.6619 25.4327 23.6619 25.2669V11.2772C23.6606 10.2111 23.2365 9.18893 22.4825 8.43502C21.7286 7.68112 20.7065 7.25699 19.6403 7.25567H17.3904V5.25571H20.4736C20.6394 5.25571 20.7984 5.18987 20.9156 5.07266C21.0328 4.95545 21.0986 4.79649 21.0986 4.63073V0.624986C21.0986 0.459229 21.0328 0.300262 20.9156 0.183054C20.7984 0.0658465 20.6394 0 20.4736 0L3.31153 0C3.14577 0 2.9868 0.0658465 2.86959 0.183054C2.75239 0.300262 2.68654 0.459229 2.68654 0.624986V4.63073C2.68654 4.79649 2.75239 4.95545 2.86959 5.07266C2.9868 5.18987 3.14577 5.25571 3.31153 5.25571H6.38979V7.25567H4.13984C3.07351 7.25677 2.05117 7.6808 1.29708 8.43473C0.542995 9.18866 0.118755 10.2109 0.117432 11.2772V30.7818C0.118534 31.8481 0.542562 32.8705 1.29649 33.6246C2.05042 34.3787 3.07268 34.8029 4.13901 34.8042H6.65478C6.82054 34.8042 6.97951 34.7384 7.09672 34.6212C7.21392 34.504 7.27977 34.345 7.27977 34.1792C7.27977 34.0135 7.21392 33.8545 7.09672 33.7373C6.97951 33.6201 6.82054 33.5542 6.65478 33.5542ZM7.63976 5.25571H13.6246C13.7904 5.25571 13.9494 5.18987 14.0666 5.07266C14.1838 4.95545 14.2496 4.79649 14.2496 4.63073C14.2496 4.46497 14.1838 4.30601 14.0666 4.1888C13.9494 4.07159 13.7904 4.00574 13.6246 4.00574H3.93651V1.24997H19.8428V4.00574H15.7204C15.5547 4.00574 15.3957 4.07159 15.2785 4.1888C15.1613 4.30601 15.0954 4.46497 15.0954 4.63073C15.0954 4.79649 15.1613 4.95545 15.2785 5.07266C15.3957 5.18987 15.5547 5.25571 15.7204 5.25571H16.1371V7.25567H7.63726L7.63976 5.25571Z" fill="#036FAD"/>
<path d="M13.4244 26.0627H10.3545C10.1888 26.0627 10.0298 25.9968 9.91259 25.8796C9.79538 25.7624 9.72953 25.6034 9.72953 25.4377V23.8019H8.09374C7.92798 23.8019 7.76901 23.736 7.6518 23.6188C7.5346 23.5016 7.46875 23.3426 7.46875 23.1769V20.107C7.46875 19.9412 7.5346 19.7822 7.6518 19.665C7.76901 19.5478 7.92798 19.482 8.09374 19.482H9.72953V17.8462C9.72953 17.6804 9.79538 17.5215 9.91259 17.4042C10.0298 17.287 10.1888 17.2212 10.3545 17.2212H13.4244C13.5902 17.2212 13.7492 17.287 13.8664 17.4042C13.9836 17.5215 14.0494 17.6804 14.0494 17.8462V19.482H15.6844C15.8502 19.482 16.0091 19.5478 16.1263 19.665C16.2435 19.7822 16.3094 19.9412 16.3094 20.107V23.1769C16.3094 23.3426 16.2435 23.5016 16.1263 23.6188C16.0091 23.736 15.8502 23.8019 15.6844 23.8019H14.0494V25.4377C14.0494 25.6034 13.9836 25.7624 13.8664 25.8796C13.7492 25.9968 13.5902 26.0627 13.4244 26.0627ZM10.9795 24.8127H12.7995V23.1769C12.7995 23.0111 12.8653 22.8522 12.9825 22.735C13.0997 22.6178 13.2587 22.5519 13.4244 22.5519H15.0594V20.7319H13.4244C13.2587 20.7319 13.0997 20.6661 12.9825 20.5489C12.8653 20.4317 12.7995 20.2727 12.7995 20.107V18.4712H10.9795V20.107C10.9795 20.2727 10.9137 20.4317 10.7964 20.5489C10.6792 20.6661 10.5203 20.7319 10.3545 20.7319H8.71872V22.5519H10.3545C10.5203 22.5519 10.6792 22.6178 10.7964 22.735C10.9137 22.8522 10.9795 23.0111 10.9795 23.1769V24.8127Z" fill="#036FAD"/>
</svg>
