<svg width="33" height="33" viewBox="0 0 33 33" fill="none" xmlns="http://www.w3.org/2000/svg">
<g clip-path="url(#clip0_251_887)">
<path d="M32.9264 22.6737C32.6975 21.8395 31.998 21.2187 31.1424 21.0904V8.55056H32.2351C32.5369 8.55056 32.7815 8.30593 32.7815 8.0042V2.54062C32.7815 2.23863 32.5369 1.99426 32.2351 1.99426H8.19537C7.89365 1.99426 7.64902 2.23863 7.64902 2.54062V8.0042C7.64902 8.30593 7.89365 8.55056 8.19537 8.55056H9.28809V19.4777H8.74173C7.38571 19.4745 6.05743 19.8632 4.91722 20.5971V17.8387C4.91722 17.5367 4.67259 17.2923 4.37087 17.2923H0.546358C0.244634 17.2923 0 17.5367 0 17.8387V30.4049C0 30.7066 0.244634 30.9513 0.546358 30.9513H4.37087C4.67259 30.9513 4.91722 30.7066 4.91722 30.4049V27.6467C6.05769 28.3801 7.38571 28.7688 8.74173 28.7658H17.7129C18.3345 28.7648 18.9531 28.6831 19.5537 28.5231L31.3828 25.3543C32.5467 25.0371 33.2364 23.8398 32.9264 22.6737ZM8.74173 3.08698H31.6888V7.45785H8.74173V3.08698ZM10.3808 8.55056H30.0497V21.1843L23.7087 22.8847C23.4475 22.2621 22.9148 21.7944 22.2636 21.6159L14.9019 19.6415C14.4873 19.5324 14.0605 19.4772 13.6317 19.4777H10.3808V8.55056ZM3.82451 29.8585H1.09272V18.385H3.82451V29.8585ZM31.0992 24.2986L19.2722 27.4674C18.7635 27.6032 18.2395 27.6723 17.7129 27.6731H8.74173C7.44093 27.676 6.17454 27.254 5.13571 26.471L4.91722 26.3072V21.9363L5.13571 21.7723C6.17454 20.9893 7.44093 20.567 8.74173 20.5704H13.6317C13.9655 20.5702 14.2982 20.6134 14.6212 20.6988L21.9805 22.6716C22.4154 22.7914 22.7336 23.164 22.7832 23.6125C22.7891 23.6349 22.7963 23.6571 22.8051 23.6787C22.7987 23.7021 22.7939 23.7259 22.7907 23.7502C22.7913 23.839 22.7792 23.9276 22.7547 24.0129C22.6261 24.4891 22.1947 24.8202 21.7015 24.821C21.6052 24.8218 21.5097 24.8095 21.4168 24.785L16.7728 23.5397C16.5823 23.4831 16.3761 23.5343 16.2341 23.6736C16.0925 23.8128 16.0373 24.018 16.0904 24.2095C16.1434 24.4008 16.2963 24.5486 16.4897 24.5948L21.1338 25.8406C21.3192 25.8894 21.5105 25.914 21.7025 25.9137C22.6848 25.9132 23.5457 25.2561 23.8053 24.3085C23.8357 24.1989 23.8562 24.0868 23.8672 23.9737L30.5278 22.1876C30.5753 22.1756 30.6267 22.1634 30.6753 22.1554C31.2193 22.0852 31.7307 22.4291 31.8713 22.9589C31.8958 23.0512 31.9081 23.1464 31.9073 23.2419C31.9081 23.7366 31.5767 24.1698 31.0992 24.2986Z" fill="white"/>
<path d="M17.4834 10.736H22.947C23.2487 10.736 23.4933 10.4914 23.4933 10.1897C23.4933 9.88768 23.2487 9.64331 22.947 9.64331H17.4834C17.1816 9.64331 16.937 9.88768 16.937 10.1897C16.937 10.4914 17.1816 10.736 17.4834 10.736Z" fill="white"/>
</g>
<defs>
<clipPath id="clip0_251_887">
<rect width="33" height="33" fill="white"/>
</clipPath>
</defs>
</svg>
