<svg width="26" height="24" viewBox="0 0 26 24" fill="none" xmlns="http://www.w3.org/2000/svg">
<path d="M25.942 16.8642C25.7616 16.2069 25.2105 15.7178 24.5365 15.6167V5.73686H25.3974C25.6351 5.73686 25.8278 5.54412 25.8278 5.30639V1.00175C25.8278 0.763821 25.6351 0.571289 25.3974 0.571289H6.45696C6.21924 0.571289 6.0265 0.763821 6.0265 1.00175V5.30639C6.0265 5.54412 6.21924 5.73686 6.45696 5.73686H7.31789V14.3461H6.88743C5.81904 14.3436 4.77252 14.6499 3.87418 15.2281V13.0547C3.87418 12.8168 3.68144 12.6243 3.44371 12.6243H0.430464C0.192742 12.6243 0 12.8168 0 13.0547V22.9554C0 23.1931 0.192742 23.3859 0.430464 23.3859H3.44371C3.68144 23.3859 3.87418 23.1931 3.87418 22.9554V20.7823C4.77273 21.3601 5.81904 21.6663 6.88743 21.664H13.9556C14.4453 21.6632 14.9328 21.5989 15.4059 21.4728L24.7258 18.9762C25.6429 18.7262 26.1862 17.7829 25.942 16.8642ZM6.88743 1.43222H24.9669V4.87593H6.88743V1.43222ZM8.17882 5.73686H23.6755V15.6907L18.6796 17.0304C18.4738 16.5399 18.0541 16.1714 17.541 16.0308L11.7409 14.4752C11.4142 14.3892 11.0779 14.3457 10.7402 14.3461H8.17882V5.73686ZM3.01325 22.525H0.860928V13.4852H3.01325V22.525ZM24.5024 18.1444L15.1842 20.6411C14.7833 20.748 14.3705 20.8025 13.9556 20.8031H6.88743C5.86255 20.8054 4.86479 20.4729 4.04632 19.856L3.87418 19.7269V16.2832L4.04632 16.154C4.86479 15.5371 5.86255 15.2043 6.88743 15.2071H10.7402C11.0031 15.2069 11.2652 15.2409 11.5197 15.3082L17.318 16.8625C17.6606 16.9569 17.9113 17.2505 17.9504 17.6038C17.9551 17.6215 17.9607 17.6389 17.9677 17.656C17.9626 17.6745 17.9588 17.6932 17.9563 17.7123C17.9567 17.7823 17.9473 17.8521 17.9279 17.9193C17.8266 18.2945 17.4868 18.5554 17.0981 18.556C17.0222 18.5566 16.947 18.547 16.8739 18.5276L13.2149 17.5465C13.0648 17.5019 12.9024 17.5423 12.7905 17.652C12.6789 17.7617 12.6354 17.9233 12.6773 18.0742C12.7191 18.2249 12.8395 18.3414 12.9919 18.3778L16.6508 19.3593C16.7969 19.3978 16.9476 19.4171 17.099 19.4169C17.8729 19.4165 18.5512 18.8988 18.7557 18.1522C18.7796 18.0658 18.7958 17.9776 18.8044 17.8884L24.0522 16.4812C24.0896 16.4718 24.1302 16.4621 24.1684 16.4558C24.597 16.4005 24.9999 16.6714 25.1107 17.0889C25.13 17.1616 25.1397 17.2366 25.1391 17.3119C25.1397 17.7016 24.8786 18.0429 24.5024 18.1444Z" fill="#036FAD"/>
</svg>
