<svg width="32" height="40" viewBox="0 0 32 40" fill="none" xmlns="http://www.w3.org/2000/svg">
<path d="M20.0815 22.0317C20.1987 22.1489 20.3577 22.2148 20.5234 22.2148C20.6892 22.2148 20.8482 22.1489 20.9654 22.0317L22.7331 20.2639C22.9773 20.0198 22.9773 19.6241 22.7331 19.38L12.5685 9.21531L15.5652 6.21859C15.8094 5.97445 15.8094 5.57883 15.5652 5.33469L13.0776 2.84695C12.2561 2.02555 10.9194 2.02563 10.098 2.84695L8.93609 4.00883L5.8425 0.915313C5.25227 0.325078 4.46758 0 3.63281 0C2.79805 0 2.01336 0.325078 1.42313 0.915313C0.832891 1.50555 0.507812 2.29031 0.507812 3.125C0.507812 3.95969 0.832891 4.74445 1.42313 5.33469L4.51672 8.42828L3.35484 9.59016C2.53344 10.4116 2.53344 11.7483 3.35484 12.5698L5.8425 15.0575C5.96453 15.1795 6.12445 15.2405 6.28445 15.2405C6.44445 15.2405 6.60438 15.1795 6.72641 15.0575L9.91688 11.867L20.0816 22.0317H20.0815ZM21.4073 19.822L20.5234 20.7059L10.8007 10.9831L11.6846 10.0992L21.4073 19.822ZM6.28445 13.7316L4.23875 11.6859C3.90461 11.3518 3.90461 10.8081 4.23875 10.474L7.5932 7.11953C7.83734 6.87539 7.83734 6.47977 7.5932 6.23563C7.34914 5.99164 6.95344 5.99164 6.70938 6.23563L5.4007 7.54438L2.30711 4.4507C1.95297 4.09664 1.75797 3.6257 1.75797 3.12492C1.75797 2.62414 1.95305 2.1532 2.30711 1.79906C3.03812 1.06805 4.22773 1.06797 4.95875 1.79906L8.4943 5.33453C8.73836 5.57852 9.13406 5.57852 9.37812 5.33453L10.9819 3.73078C11.316 3.39672 11.8596 3.39656 12.1938 3.73078L14.2395 5.77656L6.28445 13.7315V13.7316Z" fill="#036FAD"/>
<path d="M27.0656 32.0922L22.9709 25C22.8593 24.8066 22.653 24.6875 22.4297 24.6875C22.2064 24.6875 22.0001 24.8066 21.8884 25L17.7938 32.0922C17.787 32.1038 17.7807 32.1158 17.7747 32.1277C17.3445 32.9088 17.1172 33.7931 17.1172 34.6875C17.1172 37.6168 19.5004 40 22.4297 40C25.359 40 27.7422 37.6168 27.7422 34.6875C27.7422 33.7932 27.5149 32.9088 27.0847 32.1278C27.0787 32.1158 27.0723 32.1039 27.0656 32.0922ZM22.4296 38.75C20.1895 38.75 18.3671 36.9276 18.3671 34.6875C18.3671 33.9955 18.5449 33.3116 18.8813 32.7096C18.8847 32.7036 18.888 32.6976 18.8911 32.6914L22.4296 26.5626L25.9681 32.6914C25.9713 32.6975 25.9745 32.7036 25.9779 32.7096C26.3143 33.3116 26.4921 33.9955 26.4921 34.6875C26.4921 36.9276 24.6697 38.75 22.4296 38.75Z" fill="#036FAD"/>
<path d="M31.0934 13.5596L29.6484 12.9983C29.0215 12.7547 28.5208 12.256 28.2749 11.63L27.6989 10.1636C27.6049 9.92435 27.3741 9.76709 27.1172 9.76709C26.8602 9.76709 26.6294 9.92443 26.5355 10.1636L25.9595 11.63C25.7136 12.256 25.2129 12.7547 24.5859 12.9983L23.1409 13.5596C22.9005 13.6529 22.7422 13.8843 22.7422 14.1422C22.7422 14.4001 22.9005 14.6314 23.1409 14.7247L24.5859 15.2861C25.2129 15.5296 25.7136 16.0283 25.9595 16.6544L26.5355 18.1208C26.6295 18.36 26.8602 18.5172 27.1172 18.5172C27.3741 18.5172 27.6049 18.3599 27.6989 18.1208L28.2749 16.6544C28.5208 16.0283 29.0215 15.5297 29.6484 15.2861L31.0935 14.7247C31.3339 14.6314 31.4923 14.4001 31.4923 14.1422C31.4923 13.8843 31.3339 13.6529 31.0935 13.5596H31.0934ZM27.1172 16.1829C26.7491 15.2575 26.0137 14.5171 25.0921 14.1422C26.0137 13.7672 26.7491 13.0269 27.1172 12.1015C27.4852 13.0269 28.2207 13.7672 29.1423 14.1422C28.2207 14.5171 27.4852 15.2575 27.1172 16.1829Z" fill="#036FAD"/>
<path d="M15.4914 28.0113L14.0464 27.4499C13.4194 27.2064 12.9187 26.7077 12.6729 26.0816L12.0969 24.6152C12.0029 24.376 11.7721 24.2188 11.5151 24.2188C11.2582 24.2188 11.0273 24.3761 10.9334 24.6152L10.3574 26.0816C10.1115 26.7077 9.61084 27.2063 8.98389 27.4499L7.53889 28.0113C7.2985 28.1046 7.14014 28.3359 7.14014 28.5938C7.14014 28.8517 7.2985 29.083 7.53889 29.1764L8.98396 29.7377C9.61092 29.9813 10.1115 30.48 10.3575 31.106L10.9335 32.5724C11.0275 32.8116 11.2583 32.9689 11.5152 32.9689C11.7722 32.9689 12.003 32.8116 12.0969 32.5724L12.6729 31.106C12.9188 30.48 13.4195 29.9813 14.0465 29.7377L15.4915 29.1764C15.7319 29.083 15.8903 28.8517 15.8903 28.5938C15.8903 28.3359 15.7319 28.1046 15.4915 28.0113H15.4914ZM11.5151 30.6345C11.1471 29.7091 10.4116 28.9688 9.49006 28.5938C10.4116 28.2189 11.147 27.4786 11.5151 26.5531C11.8833 27.4786 12.6187 28.2189 13.5402 28.5938C12.6187 28.9688 11.8833 29.7091 11.5151 30.6345Z" fill="#036FAD"/>
</svg>
