<svg width="34" height="38" viewBox="0 0 34 38" fill="none" xmlns="http://www.w3.org/2000/svg">
<path d="M33.1797 26.4654C33.1018 26.3422 33.0002 26.2357 32.8809 26.152C32.7615 26.0684 32.6267 26.0092 32.4844 25.978L30.4974 25.5377V1.83883C30.4969 1.41763 30.3294 1.0138 30.0316 0.715942C29.7338 0.418084 29.33 0.250517 28.9088 0.25H5.46615C5.39259 0.249988 5.31993 0.266245 5.25338 0.297607C5.18683 0.328969 5.12805 0.37466 5.08123 0.431406L0.759824 5.66727L0.758731 5.66883C0.742413 5.68899 0.727682 5.71038 0.714668 5.73281C0.712949 5.7357 0.711074 5.73852 0.709356 5.74148C0.697214 5.76355 0.686768 5.78651 0.678106 5.81016C0.676621 5.81406 0.675215 5.81797 0.673809 5.82188C0.66554 5.84556 0.659114 5.86985 0.65459 5.89453C0.653809 5.89859 0.65334 5.90234 0.652715 5.90672C0.648489 5.93221 0.646243 5.95799 0.645996 5.98383V36.1613C0.646492 36.5824 0.813984 36.9861 1.11174 37.284C1.4095 37.5818 1.81321 37.7494 2.23436 37.75H28.9088C29.33 37.7495 29.7339 37.582 30.0317 37.2841C30.3295 36.9863 30.4971 36.5825 30.4976 36.1613V35.2305C30.7775 35.2795 31.0655 35.2178 31.3009 35.0587C31.5363 34.8995 31.7008 34.6552 31.7597 34.3772L33.3281 27.3015C33.3599 27.1592 33.3631 27.0121 33.3376 26.8686C33.3122 26.7251 33.2585 26.588 33.1797 26.4654ZM5.09787 1.97922V4.89531C5.09771 5.05193 5.03542 5.20209 4.92468 5.31285C4.81394 5.4236 4.66379 5.48591 4.50717 5.48609H2.2035L5.09787 1.97922ZM28.9088 36.7519H2.23436C2.07775 36.7517 1.9276 36.6895 1.81685 36.5787C1.70611 36.468 1.64382 36.3179 1.64365 36.1613V6.48438H4.50717C4.92845 6.4839 5.33233 6.31632 5.6302 6.01841C5.92806 5.7205 6.09558 5.31659 6.096 4.89531V1.24812H28.9085C29.0651 1.24831 29.2152 1.31061 29.326 1.42134C29.4367 1.53208 29.499 1.68222 29.4992 1.83883V25.3166L29.1484 25.2385C28.8612 25.1751 28.5605 25.2283 28.3124 25.3864C28.0643 25.5445 27.8891 25.7945 27.8251 26.0816L27.8144 26.1297C27.3508 26.0497 26.678 25.7052 26.4481 25.3341L24.2367 21.7675L24.3583 21.6745H26.0458C26.1119 21.6753 26.1775 21.663 26.2387 21.6383C26.3 21.6136 26.3558 21.5769 26.4028 21.5305C26.4498 21.4841 26.4871 21.4288 26.5126 21.3679C26.538 21.3069 26.5511 21.2415 26.5511 21.1754C26.5511 21.1094 26.538 21.044 26.5126 20.983C26.4871 20.9221 26.4498 20.8668 26.4028 20.8203C26.3558 20.7739 26.3 20.7373 26.2387 20.7126C26.1775 20.6879 26.1119 20.6756 26.0458 20.6764H25.663L28.5081 18.5004C28.8005 18.2759 28.9921 17.9446 29.0408 17.5792C29.0895 17.2138 28.9914 16.844 28.7679 16.5507L27.5219 14.921C27.2975 14.6284 26.9663 14.4367 26.6008 14.388C26.2353 14.3393 25.8654 14.4375 25.5722 14.6611L23.2382 16.4462H5.0967C4.96434 16.4462 4.8374 16.4988 4.74381 16.5923C4.65022 16.6859 4.59764 16.8129 4.59764 16.9452C4.59764 17.0776 4.65022 17.2045 4.74381 17.2981C4.8374 17.3917 4.96434 17.4443 5.0967 17.4443H21.9332L19.9283 18.9777C19.4445 18.8737 18.9555 18.7847 18.4801 18.6993C17.8763 18.5909 17.306 18.4884 16.8051 18.3638C15.4281 18.0214 14.457 18.8528 14.209 19.8505C14.142 20.1206 14.1259 20.4008 14.1617 20.6768H5.0967C5.03064 20.676 4.96508 20.6883 4.90381 20.713C4.84254 20.7377 4.78678 20.7743 4.73978 20.8207C4.69277 20.8671 4.65545 20.9224 4.62998 20.9834C4.60451 21.0444 4.59139 21.1098 4.59139 21.1758C4.59139 21.2419 4.60451 21.3073 4.62998 21.3682C4.65545 21.4292 4.69277 21.4845 4.73978 21.5309C4.78678 21.5773 4.84254 21.614 4.90381 21.6387C4.96508 21.6634 5.03064 21.6757 5.0967 21.6748H14.565C14.8018 21.986 15.1155 22.2302 15.4753 22.3834L14.6089 23.046C14.5414 23.0954 14.4875 23.1611 14.4522 23.2369L13.6709 24.9074H5.0967C5.03064 24.9066 4.96508 24.9189 4.90381 24.9436C4.84254 24.9683 4.78678 25.0049 4.73978 25.0514C4.69277 25.0978 4.65545 25.1531 4.62998 25.214C4.60451 25.275 4.59139 25.3404 4.59139 25.4064C4.59139 25.4725 4.60451 25.5379 4.62998 25.5989C4.65545 25.6598 4.69277 25.7151 4.73978 25.7615C4.78678 25.808 4.84254 25.8446 4.90381 25.8693C4.96508 25.894 5.03064 25.9063 5.0967 25.9055H13.2516L12.8751 26.8104C12.8413 26.8913 12.8295 26.9796 12.8408 27.0665C12.8521 27.1534 12.886 27.2358 12.9393 27.3054C12.9925 27.375 13.0631 27.4294 13.1441 27.463C13.225 27.4966 13.3133 27.5083 13.4002 27.497L17.2904 26.9911C17.3833 26.9808 17.4714 26.9444 17.5446 26.8862L18.2598 26.3394C18.5129 26.8977 18.7231 27.3862 18.9083 27.8159C19.1275 28.3253 19.3167 28.7595 19.5015 29.1377H5.0967C4.96434 29.1377 4.8374 29.1903 4.74381 29.2839C4.65022 29.3775 4.59764 29.5044 4.59764 29.6368C4.59764 29.7692 4.65022 29.8961 4.74381 29.9897C4.8374 30.0833 4.96434 30.1359 5.0967 30.1359H20.0775C20.9726 31.3909 22.2879 31.9109 26.2359 33.3083C26.2145 33.5751 26.2901 33.8408 26.449 34.0563C26.6079 34.2717 26.8393 34.4226 27.1006 34.4809L29.4995 35.0126V36.161C29.4994 36.3177 29.4371 36.4678 29.3264 36.5786C29.2156 36.6894 29.0654 36.7517 28.9088 36.7519ZM26.4424 32.3228C23.7206 31.3588 22.4315 30.8738 21.624 30.2891C21.2759 30.0399 20.9808 29.7241 20.7558 29.36L20.7542 29.3577C20.4573 28.8897 20.1969 28.2859 19.825 27.4216C19.5769 26.845 19.284 26.1648 18.9037 25.3508L18.9007 25.3445C18.7601 25.0438 18.6079 24.7254 18.4412 24.3865C18.3256 24.1488 18.3085 23.8751 18.3937 23.6249C18.479 23.3747 18.6595 23.1683 18.8962 23.0505C19.1353 22.937 19.4094 22.9217 19.6597 23.0079C19.91 23.0941 20.1166 23.2748 20.2352 23.5115L20.4412 23.9163L22.3894 27.7457C22.4497 27.863 22.5541 27.9517 22.6797 27.9922C22.8053 28.0328 22.9418 28.022 23.0594 27.9621C23.177 27.9023 23.2661 27.7983 23.3073 27.673C23.3484 27.5476 23.3382 27.411 23.279 27.2931L21.5234 23.843L23.4401 22.3772L25.5997 25.8605C25.9632 26.4469 26.834 26.9542 27.5997 27.1005L26.4424 32.3228ZM14.458 25.6033C14.4589 25.6013 14.4597 25.5994 14.4605 25.5973L14.5472 25.3888L15.0074 24.4051L16.3127 26.1117L14.1283 26.3958L14.458 25.6033ZM15.6036 23.5416L26.1786 15.454C26.2613 15.3908 26.3658 15.363 26.469 15.3768C26.5723 15.3906 26.6658 15.4447 26.7291 15.5274L27.9758 17.1575C28.0384 17.2405 28.0658 17.3448 28.0521 17.4478C28.0384 17.5508 27.9846 17.6443 27.9025 17.708L23.2701 21.2509L23.269 21.2517L21.0596 22.9415C20.8026 22.5084 20.3926 22.1874 19.9105 22.0418C19.4285 21.8961 18.9093 21.9365 18.4555 22.1548C17.9813 22.3894 17.6193 22.8023 17.4488 23.3031C17.2783 23.804 17.3131 24.352 17.5456 24.8272C17.6451 25.0295 17.7391 25.2239 17.8289 25.4123L17.3277 25.7955L15.6036 23.5416ZM16.1833 21.5738C15.7393 21.4634 15.4531 21.2395 15.2948 20.9714C15.2865 20.9531 15.2771 20.9354 15.2667 20.9183C15.1373 20.6627 15.1055 20.3687 15.1774 20.0913C15.2965 19.6119 15.7311 19.1255 16.564 19.3324C17.0968 19.4652 17.6828 19.5702 18.3032 19.6816C18.4907 19.7155 18.6813 19.7501 18.8719 19.7854L16.4475 21.6395L16.1833 21.5738ZM32.353 27.0855L30.785 34.1613C30.7782 34.1899 30.7606 34.2148 30.7358 34.2306C30.711 34.2464 30.681 34.2519 30.6522 34.246L30.0997 34.1236H30.0986L27.3164 33.507C27.2877 33.5003 27.2629 33.4826 27.2471 33.4578C27.2312 33.433 27.2257 33.403 27.2317 33.3742L28.7997 26.2984C28.8055 26.2738 28.8195 26.2518 28.8393 26.2359C28.8591 26.2201 28.8837 26.2114 28.909 26.2112C28.9169 26.2112 28.9248 26.212 28.9325 26.2137L29.8965 26.4273H29.8982L32.2683 26.9526C32.297 26.9593 32.3219 26.9769 32.3377 27.0017C32.3535 27.0266 32.359 27.0567 32.353 27.0855ZM31.1192 27.76L31.1114 27.797C31.0828 27.9258 31.0043 28.0381 30.893 28.1093C30.7818 28.1804 30.6469 28.2045 30.5179 28.1764C30.3889 28.1483 30.2763 28.0702 30.2048 27.9593C30.1332 27.8483 30.1085 27.7136 30.1362 27.5845L30.144 27.5475C30.1726 27.4186 30.2511 27.3063 30.3623 27.2352C30.4735 27.1641 30.6084 27.1399 30.7374 27.168C30.8664 27.1961 30.979 27.2742 31.0506 27.3852C31.1221 27.4961 31.1468 27.6309 31.1192 27.76ZM15.4078 8.48438C15.4078 8.41884 15.4207 8.35394 15.4458 8.29339C15.4709 8.23284 15.5076 8.17783 15.554 8.13148C15.6003 8.08514 15.6553 8.04838 15.7159 8.0233C15.7764 7.99822 15.8413 7.98531 15.9069 7.98531H26.0469C26.1792 7.98531 26.3062 8.03789 26.3997 8.13148C26.4933 8.22508 26.5459 8.35202 26.5459 8.48438C26.5459 8.61673 26.4933 8.74367 26.3997 8.83727C26.3062 8.93086 26.1792 8.98344 26.0469 8.98344H15.9069C15.8413 8.98344 15.7764 8.97053 15.7159 8.94545C15.6553 8.92037 15.6003 8.88361 15.554 8.83727C15.5076 8.79092 15.4709 8.73591 15.4458 8.67536C15.4207 8.61481 15.4078 8.54991 15.4078 8.48438ZM10.2187 12.6234C10.2187 11.9847 9.93428 11.8689 9.0542 11.6768C8.27982 11.5079 7.10967 11.2526 7.10967 9.76375C7.10967 8.71367 7.83139 8.08242 8.66436 7.90328V7.46664C8.66436 7.33428 8.71694 7.20734 8.81053 7.11375C8.90412 7.02016 9.03106 6.96758 9.16342 6.96758C9.29578 6.96758 9.42272 7.02016 9.51631 7.11375C9.6099 7.20734 9.66248 7.33428 9.66248 7.46664V7.90328C10.4953 8.08242 11.2172 8.71367 11.2172 9.76375C11.218 9.82981 11.2057 9.89537 11.181 9.95664C11.1563 10.0179 11.1197 10.0737 11.0732 10.1207C11.0268 10.1677 10.9715 10.205 10.9106 10.2305C10.8496 10.2559 10.7842 10.2691 10.7181 10.2691C10.6521 10.2691 10.5867 10.2559 10.5257 10.2305C10.4648 10.205 10.4095 10.1677 10.3631 10.1207C10.3166 10.0737 10.28 10.0179 10.2553 9.95664C10.2306 9.89537 10.2183 9.82981 10.2191 9.76375C10.2191 9.04094 9.55568 8.84813 9.16357 8.84813C8.77147 8.84813 8.10811 9.04094 8.10811 9.76375C8.10811 10.3956 8.39131 10.5105 9.26732 10.7017C10.0438 10.8711 11.2172 11.1272 11.2172 12.6236C11.2172 13.6736 10.4955 14.3049 9.66248 14.4841V14.9207C9.66248 15.0531 9.6099 15.18 9.51631 15.2736C9.42272 15.3672 9.29578 15.4198 9.16342 15.4198C9.03106 15.4198 8.90412 15.3672 8.81053 15.2736C8.71694 15.18 8.66436 15.0531 8.66436 14.9207V14.4844C7.83154 14.3052 7.10967 13.6739 7.10967 12.6238C7.10884 12.5578 7.12114 12.4922 7.14585 12.4309C7.17055 12.3697 7.20718 12.3139 7.2536 12.2669C7.30002 12.2199 7.35531 12.1826 7.41627 12.1571C7.47722 12.1316 7.54263 12.1185 7.60869 12.1185C7.67476 12.1185 7.74016 12.1316 7.80112 12.1571C7.86207 12.1826 7.91736 12.2199 7.96378 12.2669C8.0102 12.3139 8.04683 12.3697 8.07154 12.4309C8.09624 12.4922 8.10854 12.5578 8.10772 12.6238C8.10772 13.3466 8.77123 13.5395 9.16318 13.5395C9.55514 13.5395 10.2187 13.3463 10.2187 12.6234ZM15.4079 12.7147C15.4079 12.5823 15.4605 12.4554 15.554 12.3618C15.6476 12.2682 15.7746 12.2156 15.9069 12.2156H26.0469C26.1792 12.2156 26.3062 12.2682 26.3997 12.3618C26.4933 12.4554 26.5459 12.5823 26.5459 12.7147C26.5459 12.847 26.4933 12.974 26.3997 13.0676C26.3062 13.1612 26.1792 13.2138 26.0469 13.2138H15.9069C15.8413 13.2138 15.7764 13.2008 15.7159 13.1758C15.6553 13.1507 15.6003 13.1139 15.554 13.0676C15.5076 13.0212 15.4709 12.9662 15.4458 12.9057C15.4207 12.8451 15.4078 12.7802 15.4078 12.7147H15.4079Z" fill="#036FAD"/>
</svg>
