<svg width="50" height="40" viewBox="0 0 50 40" fill="none" xmlns="http://www.w3.org/2000/svg">
<path d="M36.3247 21.3105C32.9011 21.3105 29.798 21.9326 27.4733 22.9953C26.3109 23.5267 25.3379 24.168 24.6235 24.9401C23.9091 25.7122 23.4502 26.6512 23.4502 27.6648C23.4879 29.586 23.4502 31.663 23.4502 33.6442C23.4502 34.6578 23.9091 35.5984 24.6235 36.3705C25.3379 37.1427 26.3109 37.7822 27.4733 38.3136C29.798 39.3763 32.9011 40.0001 36.3247 40.0001C39.7483 40.0001 42.853 39.3763 45.1778 38.3136C46.3402 37.7822 47.3132 37.1427 48.0276 36.3705C48.742 35.5984 49.2009 34.6578 49.2009 33.6442C49.2137 31.6837 49.1787 29.5589 49.2009 27.6648C49.2009 26.6512 48.742 25.7122 48.0276 24.9401C47.3132 24.168 46.3402 23.5267 45.1778 22.9953C42.853 21.9326 39.7482 21.3105 36.3247 21.3105ZM36.3247 23.0375C37.6707 23.0375 38.9564 23.1497 40.1519 23.3414L31.6246 31.8294C30.3239 31.5649 29.1561 31.2013 28.1925 30.7608C27.1813 30.2986 26.3943 29.7561 25.8931 29.2145C25.3919 28.6728 25.1773 28.1674 25.1773 27.6648C25.1773 27.1621 25.3919 26.655 25.8931 26.1133C26.3943 25.5717 27.1813 25.0292 28.1925 24.567C30.2149 23.6425 33.1147 23.0375 36.3247 23.0375ZM42.1778 23.7702C43.0176 23.9956 43.7902 24.2615 44.4586 24.567C45.4698 25.0292 46.2568 25.5717 46.758 26.1133C47.2592 26.655 47.4721 27.1621 47.4721 27.6648C47.4721 28.1674 47.2592 28.6728 46.758 29.2145C46.2568 29.7561 45.4698 30.2986 44.4586 30.7608C42.4362 31.6853 39.5347 32.2903 36.3247 32.2903C35.4051 32.2903 34.516 32.236 33.6607 32.1434L42.1778 23.7702ZM25.1773 30.9161C25.8126 31.4581 26.5869 31.9273 27.4733 32.3325C29.798 33.3952 32.9011 34.019 36.3247 34.019C39.7482 34.019 42.853 33.3952 45.1778 32.3325C46.0633 31.9277 46.8371 31.4592 47.4721 30.9178V33.6442C47.4721 34.1468 47.2592 34.6539 46.758 35.1956C46.2568 35.7373 45.4698 36.2797 44.4586 36.7419C42.4362 37.6664 39.5347 38.2714 36.3247 38.2714C33.1147 38.2714 30.2149 37.6664 28.1925 36.7419C27.1813 36.2797 26.3943 35.7373 25.8931 35.1956C25.3919 34.6539 25.1773 34.1468 25.1773 33.6442V30.9161Z" fill="#036FAD"/>
<path d="M17.702 2.81001L2.99572 19.0163C-0.184539 22.5211 0.128086 27.9464 3.64906 31.1018C7.17004 34.2572 12.567 33.9488 15.7402 30.4518L30.4465 14.2456C33.6267 10.7408 33.3141 5.31548 29.7931 2.16008C26.5136 -1.00227 20.811 -0.61356 17.702 2.81001ZM28.64 3.44814C31.4702 5.98444 31.7147 10.2743 29.1651 13.0841L22.3885 20.5508L12.2135 11.4314L18.9816 3.97315C21.6033 1.09188 25.7104 0.891709 28.64 3.44814ZM20.9147 5.56339L17.8049 8.83503C17.4757 9.18089 17.4893 9.72817 17.8353 10.0573C18.1812 10.3865 18.7285 10.3729 19.0576 10.0269L22.1673 6.75353C22.4954 6.40788 22.4818 5.8619 22.1369 5.533C21.7733 5.17649 21.2272 5.24347 20.9147 5.56339ZM11.052 12.711L21.2287 21.8304L14.4588 29.2887C11.9022 32.1063 7.63228 32.35 4.80213 29.8137C1.97198 27.2774 1.72574 22.9876 4.2754 20.1777L11.052 12.711Z" fill="#036FAD"/>
</svg>
